<svg width="200" height="200" viewBox="0 0 200 200" fill="none" xmlns="http://www.w3.org/2000/svg">
    <rect width="200" height="200" rx="24" fill="url(#1z94arg5za)"/>
    <path d="m105.968 86.48.051-.017a29.41 29.41 0 0 0 1.726-.707l.039-.018c.275-.123.547-.25.816-.381l.079-.041c.532-.26 1.052-.535 1.559-.824l.115-.068c.248-.144.496-.293.738-.44l.027-.02c.232-.144.459-.294.686-.44l.121-.083c.226-.152.45-.308.668-.466l.114-.082.605-.446c.03-.023.06-.044.091-.07.211-.162.417-.332.619-.499l.136-.114c.206-.176.408-.352.605-.531-5.522 2.889-11.364 3.769-17.5 2.443a27.158 27.158 0 0 1-3.324-.942 23.81 23.81 0 0 1-8.45-5.153 25.92 25.92 0 0 1-3.007-3.377 23.468 23.468 0 0 1-4.15-9.149c-.078-.37-.144-.742-.205-1.114a23.494 23.494 0 0 1 .036-7.733c.848-4.898 3.233-9.422 6.829-12.955 3.596-3.534 8.228-5.903 13.263-6.786a26.497 26.497 0 0 1 3.116-.352c.348-.018.698-.026 1.049-.03.701 0 1.405 0 2.115.065a25.509 25.509 0 0 1 10.333 3.033c-.199-.179-.405-.352-.604-.525l-.181-.15c-.155-.128-.303-.255-.469-.378l-.181-.144c-.429-.33-.867-.648-1.312-.953l-.172-.114c-.178-.12-.354-.235-.535-.352l-.169-.106a21.77 21.77 0 0 0-1.427-.842l-.151-.076c-.205-.114-.414-.223-.622-.331l-.133-.068a28.902 28.902 0 0 0-1.542-.721l-.078-.033a12.526 12.526 0 0 0-.726-.293l-.087-.035a25.452 25.452 0 0 0-1.644-.587h-.031a32.11 32.11 0 0 0-.807-.252l-.057-.015a28.85 28.85 0 0 0-1.717-.452 29.899 29.899 0 0 0-13.222-.032 29.405 29.405 0 0 0-11.868 5.66 28.309 28.309 0 0 0-8.052 10.18 27.477 27.477 0 0 0-2.567 12.59 27.551 27.551 0 0 0 3.45 12.39 28.476 28.476 0 0 0 8.75 9.622 29.537 29.537 0 0 0 12.239 4.859c4.41.684 8.924.373 13.189-.911h.037c.604-.214 1.203-.417 1.789-.634z" fill="#fff"/>
    <path d="m133.561 60.18-.055-.026h-.021c-3.06-.967-6.123-1.93-9.187-2.893-.185-.059-.251-.126-.251-.323v-9.466l-.203.268-5.567 7.438a.206.206 0 0 1-.129.112.225.225 0 0 1-.173-.018c-2.672-.846-5.344-1.69-8.018-2.531l-1.321-.414c.058.08.088.127.121.168 1.874 2.505 3.749 5.008 5.625 7.509a.251.251 0 0 1 .056.276.251.251 0 0 1-.056.082c-1.872 2.487-3.74 4.98-5.604 7.477l-.148.2.182-.048a4580.15 4580.15 0 0 0 9.097-2.877.308.308 0 0 1 .392.129 4515.37 4515.37 0 0 0 5.576 7.456l.152.191v-9.586a.171.171 0 0 1 .063-.132.23.23 0 0 1 .091-.044 3083.47 3083.47 0 0 0 7.912-2.493l.71-.223.731-.232h.025zM91.836 143.924c-.07-3.814-1.124-7.257-3.793-10.103-2.599-2.775-5.718-4.532-9.774-4.197-3.26.267-6.132 1.334-8.22 3.869-1.046 1.264-1.88 2.696-2.868 4.007a26.05 26.05 0 0 1-2.56 3.047c-1.04 1.01-2.418 1.719-3.887 1.388-1.65-.37-3.212-1.094-4.99-1.728.89-.56 1.563-.953 2.204-1.39 3.324-2.285 5.53-5.175 4.974-9.366-.423-3.171-2.055-5.547-5.358-6.477a32.201 32.201 0 0 0-4.86-.956c-4.007-.487-7.73.619-11.348 2.147-.934.393-1.832.88-2.787 1.337 1.318 2.385 2.56 4.629 3.814 6.903.372-.188.605-.317.85-.429 1.716-.789 3.4-1.651 5.156-2.346 3.082-1.224 6.132-1.095 9.066.531 1.058.586 1.43 1.449 1.21 2.613-.303 1.74-1.575 2.64-3.117 3.271-2.227.909-4.533.88-6.839.39-.855-.188-1.705-.399-2.72-.634.907 3.028 1.774 5.911 2.669 8.891 2.094-.801 4.07-.795 6.083-.569 4.872.546 6.247 5.682 4.002 8.522a10.514 10.514 0 0 1-4.775 3.399c-2.814 1.036-5.673.845-8.547.314a12.5 12.5 0 0 1-6.474-3.247c-2.632-2.502-4.23-5.573-5.319-8.932-.502-1.54-.85-3.124-1.275-4.723a.8.8 0 0 0-.097.244c-.085 1.915-.378 3.851-.2 5.743.436 4.765 2.46 9.262 5.764 12.81 1.812 2 4.092 3.548 6.649 4.514h-.124a18.919 18.919 0 0 0 6.346 1.194H51.242c2.252 0 4.488-.381 6.606-1.126 2.234-.789 4.183-1.98 5.334-4.107 1.019-1.871 1.472-3.91 1.653-5.998.197-2.28-.465-4.415-1.299-6.507-.245-.616-.517-1.223-.828-1.95.38.035.604.067.855.076 1.677.07 3.388.376 5.02.15 2.977-.414 5.071-2.221 6.76-4.603a25.507 25.507 0 0 1 3.697-4.271 5.35 5.35 0 0 1 3.509-1.387 5.441 5.441 0 0 1 3.075 1.039 5.184 5.184 0 0 1 1.881 2.581c.366 1.067.61 2.171.729 3.291.226 2.203-.025 4.362-1.14 6.35-1.78 3.166-6.02 5.322-10.006 5.336a10.028 10.028 0 0 1-2.116-.237c-2.856-.646-4.73-2.283-5.364-5.125-.073-.334-.127-.672-.19-1.006l-.282-.041c-.224.859-.604 1.713-.637 2.581-.023.512-.017 1.024.018 1.534l-.133.138c.156 2.008.76 3.959 1.77 5.717.802 1.399 1.896 2.587 3.443 3.265a13.528 13.528 0 0 0 5.398 1.156c4.509.056 8.74-2.285 10.925-6.814 1.53-3.183 1.974-6.583 1.916-10.079zM70.514 124.896a19.327 19.327 0 0 0 13.658-.977c.084-.035.166-.076.25-.115l.605-.293.26-.126c.272-.138.541-.276.81-.425.843-.461 1.623-1.027 2.493-1.587l-1.472-1.76-.353-.42-.605-.721-.432-.517-.54-.589-.907-1.103c-.351-.426-.626-.396-1.031-.062-.615.517-1.263.995-1.94 1.432-2.675 1.692-5.585 2.701-8.813 2.39-5.274-.507-9.369-2.783-11.711-7.794a9.247 9.247 0 0 0 .861 5.773c1.84 3.641 5.008 5.776 8.867 6.894z" fill="#fff"/>
    <path d="M73.814 116.785c1.675-1.417 3.31-2.875 4.954-4.324a1.11 1.11 0 0 0 .148-.293l-5.495-4.608-5.6 4.986c1.756 1.452 3.452 2.869 5.18 4.248a.86.86 0 0 0 .408.096.855.855 0 0 0 .405-.105zM167.996 121.193h-16.492V105.89h-8.511v15.303h-16.492v8.264h16.492v34.507h8.511v-34.507h16.492v-8.264z" fill="#fff"/>
    <defs>
        <linearGradient id="1z94arg5za" x1="220" y1="-20" x2="-26" y2="219" gradientUnits="userSpaceOnUse">
            <stop stop-color="#43CEA2"/>
            <stop offset="1" stop-color="#185A9D"/>
        </linearGradient>
    </defs>
</svg>
