<svg width="200" height="200" viewBox="0 0 200 200" fill="none" xmlns="http://www.w3.org/2000/svg">
    <rect width="200" height="200" rx="24" fill="#fff"/>
    <g clip-path="url(#36930n3qhb)">
        <path d="M63.674 121.02c14.179 0 25.673-11.5 25.673-25.686S77.853 69.648 63.674 69.648C49.494 69.648 38 81.148 38 95.334s11.495 25.686 25.674 25.686zM106.468 68.306c11.4 0 20.642-9.247 20.642-20.653 0-11.406-9.242-20.653-20.642-20.653-11.4 0-20.643 9.247-20.643 20.653 0 11.406 9.242 20.653 20.643 20.653zM128.616 173C147.053 173 162 158.046 162 139.599c0-18.446-14.947-33.4-33.384-33.4-18.438 0-33.385 14.954-33.385 33.4 0 18.447 14.947 33.401 33.385 33.401z" fill="#FCF7F7"/>
        <path d="M93.168 60.644 76.881 78.228M84.382 110.514l19.465 12.347" stroke="#FCF7F7" stroke-width="2.662" stroke-linecap="round" stroke-linejoin="round"/>
        <path d="M149.448 153.388c-3.112-1.254-11.092-4.266-12.997-5.014-.984-.387-1.404-.847-1.466-1.546a1.03 1.03 0 0 1 .872-1.099c1.578-.23 3.139-.423 4.671-.748a10.197 10.197 0 0 0 3.719-1.552 1.028 1.028 0 0 0 .049-1.667c-1.482-1.112-2.296-2.671-2.624-4.499a22.163 22.163 0 0 1-.305-4.092c0-2.329.217-4.662.167-6.992a15.048 15.048 0 0 0-1.498-6.451c-1.312-2.658-3.424-4.072-6.481-3.977a1.06 1.06 0 0 1-.728-.256 7.686 7.686 0 0 0-4.372-1.851 10.882 10.882 0 0 0-10.961 6.701c-1.135 2.802-1.348 5.745-1.42 8.725-.059 2.359-.076 4.735-.417 7.058-.328 2.133-.865 4.236-2.732 5.578a1.031 1.031 0 0 0-.046 1.661c.109.082.22.157.328.229 2.509 1.602 5.323 2.005 8.18 2.15a1.024 1.024 0 0 1 .984 1.023c0 .85-.328 1.191-1.407 1.641-1.624.656-10.016 3.862-13.175 5.158a1.027 1.027 0 0 0-.436 1.559 26.401 26.401 0 0 0 22.758 10.415c8.199-.519 14.716-4.151 19.767-10.563a1.03 1.03 0 0 0-.041-1.32 1.018 1.018 0 0 0-.389-.271zM107.756 62.655c4.445-.328 8.01-2.297 10.824-5.7a1.028 1.028 0 0 0-.04-1.376 1.022 1.022 0 0 0-.423-.264c-1.702-.571-4.555-1.526-5.933-2.022-.902-.328-1.312-1.706-.885-2.552.426-.847.721-1.713 1.079-2.573.082-.19.128-.446.275-.555 1.05-.76 2.145-3.212 1.64-4.324-.417-.903-.184-1.677-.134-2.52.063-.764.073-1.532.029-2.297-.082-1.057-.371-2.068-1.223-2.793-.778-.656-1.584-1.286-2.381-1.923a1.053 1.053 0 0 0-.135-.092c-2.66-1.555-5.228-1.41-7.655.365-2.482 1.82-3.853 4.174-3.329 7.366a1.008 1.008 0 0 1-.328.962c-.508.403-.485 1.033-.275 1.591.84 2.255 1.787 4.47 2.693 6.697.011.025.024.05.039.073.528.876.197 2.096-.748 2.454-1.384.522-4.264 1.52-6.012 2.117a1.02 1.02 0 0 0-.459 1.62c3.516 4.165 7.921 6.15 13.381 5.746zM78.95 105.956c-2.124-.709-6.09-2.035-8.031-2.724-1.122-.397-1.6-2.215-1.076-3.281.548-1.1.931-2.274 1.404-3.41.094-.225.23-.43.403-.603.328-.312.843-.522.984-.886a34.877 34.877 0 0 0 1.105-3.852c.089-.388-.124-.844-.206-1.267-.082-.423-.289-.866-.23-1.27.269-1.801.466-3.61.062-5.401-.328-1.424-.95-2.625-2.48-3.134a1.03 1.03 0 0 1-.412-.36c-2.05-2.557-4.776-3.374-7.872-2.816-5.195.938-8.55 5.906-7.819 11.255a1.053 1.053 0 0 1-.472 1.007c-.4.282-.508.752-.479 1.293.045.546.127 1.087.246 1.621.286 1.411 1.043 2.573 1.781 3.787.948 1.562 1.06 3.61 2.244 5.07a1.031 1.031 0 0 1-.41 1.64c-2.932 1.109-7.14 2.576-9.295 3.318a1.016 1.016 0 0 0-.65.682 1.03 1.03 0 0 0 .18.925c.237.293.48.571.722.847a20.587 20.587 0 0 0 15.107 6.531 20.589 20.589 0 0 0 15.067-6.623c.213-.243.426-.492.636-.748a1.024 1.024 0 0 0-.089-1.351 1.019 1.019 0 0 0-.42-.25z" fill="#FE893B"/>
    </g>
    <defs>
        <linearGradient id="1fziat92ja" x1="0" y1="-31.25" x2="172.917" y2="229.167" gradientUnits="userSpaceOnUse">
            <stop stop-color="#FA6400"/>
            <stop offset="1" stop-color="#FF9A57"/>
        </linearGradient>
        <clipPath id="36930n3qhb">
            <path fill="url(#1fziat92ja)" transform="translate(38 27)" d="M0 0h124v146H0z"/>
        </clipPath>
    </defs>
</svg>
