<svg width="142" height="165" viewBox="0 0 142 165" fill="none" xmlns="http://www.w3.org/2000/svg">
    <g clip-path="url(#81zlfn1rna)">
        <path d="M29.99 106.255c16.033 0 29.03-12.996 29.03-29.029 0-16.032-12.997-29.029-29.03-29.029-16.032 0-29.029 12.997-29.029 29.03 0 16.032 12.997 29.028 29.03 29.028zM78.378 46.68c12.89 0 23.34-10.449 23.34-23.34 0-12.89-10.45-23.34-23.34-23.34-12.891 0-23.34 10.45-23.34 23.34 0 12.891 10.449 23.34 23.34 23.34zM103.42 165c20.847 0 37.747-16.9 37.747-37.747 0-20.848-16.9-37.748-37.747-37.748s-37.748 16.9-37.748 37.748c0 20.847 16.9 37.747 37.748 37.747z" fill="#65788A"/>
        <path d="M63.34 38.022 44.924 57.895M53.405 94.382l22.01 13.954" stroke="#65788A" stroke-width="12" stroke-linecap="round" stroke-linejoin="round"/>
        <path d="M126.975 142.835c-3.519-1.417-12.541-4.821-14.696-5.666-1.112-.438-1.587-.957-1.658-1.747a1.161 1.161 0 0 1 .987-1.242c1.784-.26 3.549-.479 5.281-.846a11.522 11.522 0 0 0 4.205-1.754 1.17 1.17 0 0 0 .51-.927 1.152 1.152 0 0 0-.455-.957c-1.676-1.257-2.595-3.018-2.966-5.084a24.952 24.952 0 0 1-.345-4.624c0-2.633.245-5.27.189-7.903a17.016 17.016 0 0 0-1.695-7.29c-1.483-3.004-3.871-4.602-7.327-4.495a1.2 1.2 0 0 1-.824-.289 8.683 8.683 0 0 0-4.943-2.092 12.302 12.302 0 0 0-12.393 7.573c-1.283 3.167-1.525 6.493-1.606 9.86-.067 2.667-.085 5.352-.471 7.977-.37 2.411-.979 4.788-3.09 6.304a1.171 1.171 0 0 0-.503.925 1.16 1.16 0 0 0 .452.952c.122.092.249.178.37.259 2.838 1.81 6.02 2.266 9.25 2.429a1.162 1.162 0 0 1 1.112 1.157c0 .961-.37 1.346-1.59 1.854-1.837.742-11.326 4.365-14.897 5.83a1.16 1.16 0 0 0-.493 1.761 29.847 29.847 0 0 0 25.732 11.771c9.271-.586 16.639-4.691 22.35-11.937a1.17 1.17 0 0 0-.046-1.493 1.155 1.155 0 0 0-.44-.306zM79.835 40.295c5.024-.37 9.055-2.596 12.237-6.441A1.157 1.157 0 0 0 91.55 32c-1.924-.646-5.15-1.725-6.708-2.285-1.02-.37-1.483-1.928-1.001-2.885.482-.957.816-1.936 1.22-2.907.092-.215.144-.505.311-.627 1.187-.86 2.425-3.63 1.854-4.888-.47-1.02-.207-1.895-.152-2.848.072-.863.084-1.73.034-2.596-.093-1.194-.42-2.336-1.383-3.155-.88-.742-1.792-1.454-2.693-2.173a1.11 1.11 0 0 0-.152-.104c-3.007-1.758-5.911-1.595-8.655.411-2.807 2.059-4.358 4.717-3.764 8.326a1.138 1.138 0 0 1-.371 1.086c-.575.456-.549 1.168-.311 1.799.949 2.547 2.02 5.05 3.044 7.569a.574.574 0 0 0 .045.081c.597.99.222 2.37-.846 2.774-1.565.59-4.82 1.717-6.797 2.392a1.154 1.154 0 0 0-.52 1.832c3.976 4.706 8.956 6.95 15.13 6.493zM47.264 89.23c-2.403-.8-6.886-2.299-9.082-3.078-1.268-.448-1.81-2.503-1.216-3.708.62-1.242 1.053-2.57 1.587-3.853.106-.255.261-.487.456-.682.371-.353.953-.59 1.113-1.002.5-1.425.917-2.88 1.25-4.353.1-.438-.142-.953-.234-1.431-.093-.479-.327-.98-.26-1.436.304-2.035.527-4.079.07-6.104-.37-1.609-1.075-2.966-2.803-3.541a1.165 1.165 0 0 1-.467-.408c-2.318-2.889-5.4-3.812-8.9-3.182-5.874 1.06-9.668 6.675-8.84 12.72a1.191 1.191 0 0 1-.535 1.138c-.452.32-.575.85-.541 1.462.05.616.143 1.228.278 1.831.322 1.595 1.179 2.908 2.013 4.28 1.072 1.765 1.198 4.079 2.537 5.73a1.168 1.168 0 0 1-.464 1.853c-3.315 1.254-8.073 2.912-10.51 3.75a1.161 1.161 0 0 0-.53 1.817c.268.33.542.645.816.957a23.293 23.293 0 0 0 34.117-.104c.241-.275.483-.557.72-.846a1.154 1.154 0 0 0-.575-1.81z" fill="#fff"/>
    </g>
    <defs>
        <clipPath id="81zlfn1rna">
            <path fill="#fff" transform="translate(.961)" d="M0 0h140.206v165H0z"/>
        </clipPath>
    </defs>
</svg>
