<svg width="200" height="200" viewBox="0 0 200 200" fill="none" xmlns="http://www.w3.org/2000/svg">
    <rect width="200" height="200" rx="24" fill="#fff"/>
    <g clip-path="url(#w85kxh8a1b)" fill="url(#u7fiibt6ua)">
        <path d="M99.998 106.502c-10.078 0-19.744 4.109-26.87 11.423-7.127 7.314-11.13 17.235-11.13 27.578h76.001c0-10.343-4.004-20.264-11.13-27.578-7.127-7.314-16.792-11.423-26.87-11.423zM145.601 106.502c10.494 0 19.001-8.73 19.001-19.5S156.095 67.5 145.601 67.5c-10.493 0-19 8.73-19 19.5s8.507 19.501 19 19.501zM145.598 109.97a29.636 29.636 0 0 0-14.097 3.557c8.227 8.5 12.84 19.996 12.832 31.977h31.373a31.985 31.985 0 0 0-.951-13.204 31.436 31.436 0 0 0-6.204-11.609 30.455 30.455 0 0 0-10.338-7.919 29.718 29.718 0 0 0-12.608-2.802h-.007zM54.399 109.97c-4.35-.004-8.651.95-12.61 2.8a30.452 30.452 0 0 0-10.341 7.919 31.426 31.426 0 0 0-6.206 11.609 31.969 31.969 0 0 0-.951 13.206h31.366c-.008-11.981 4.605-23.477 12.832-31.977a29.633 29.633 0 0 0-14.09-3.557zM99.998 99.998c12.242 0 22.166-10.185 22.166-22.749 0-12.564-9.924-22.749-22.166-22.749-12.241 0-22.165 10.185-22.165 22.75 0 12.563 9.924 22.748 22.165 22.748zM54.399 106.502c10.493 0 19-8.73 19-19.5S64.892 67.5 54.4 67.5c-10.494 0-19 8.73-19 19.5s8.506 19.501 19 19.501z"/>
    </g>
    <defs>
        <linearGradient id="u7fiibt6ua" x1="-10.417" y1="214.583" x2="216.667" y2="-16.667" gradientUnits="userSpaceOnUse">
            <stop stop-color="#02D58C"/>
            <stop offset="1" stop-color="#00D9F5"/>
        </linearGradient>
        <clipPath id="w85kxh8a1b">
            <path fill="url(#u7fiibt6ua)" transform="translate(24 54.5)" d="M0 0h152v91H0z"/>
        </clipPath>
    </defs>
</svg>
