<svg width="200" height="200" viewBox="0 0 200 200" fill="none" xmlns="http://www.w3.org/2000/svg">
    <rect width="200" height="200" rx="24" fill="#fff"/>
    <g clip-path="url(#fgnhgmgmsb)" fill="url(#r7u3je8dxa)">
        <path d="M118.633 111.47H89.822a.754.754 0 0 0-.54.228.79.79 0 0 0-.222.551v4.14c0 .207-.08.404-.222.551a.754.754 0 0 1-.537.229H61.06a.75.75 0 0 1-.65-.369c-4.77-7.87-6.912-17.112-6.102-26.335.81-9.223 4.526-17.927 10.59-24.801 6.065-6.875 14.148-11.548 23.033-13.315a40.916 40.916 0 0 1 26.232 3.516c.179.09.386.103.575.039a.767.767 0 0 0 .437-.384l3.885-7.81a.798.798 0 0 0 .038-.588.776.776 0 0 0-.375-.447 50.32 50.32 0 0 0-22.798-5.452c-28.615 0-51.909 23.823-51.909 53.097.014 10.87 3.288 21.475 9.379 30.383 6.09 8.908 14.706 15.69 24.683 19.432a.757.757 0 0 1 .439.431l3.53 8.725a.792.792 0 0 1-.269.938.74.74 0 0 1-.317.128c-19.048 3.105-32.184 12.165-32.184 22.363a.799.799 0 0 0 .229.557.75.75 0 0 0 .548.223h91.763a.75.75 0 0 0 .537-.23.788.788 0 0 0 .222-.55c0-10.198-13.136-19.254-32.183-22.363a.757.757 0 0 1-.548-.386.802.802 0 0 1-.042-.68l3.517-8.687a.787.787 0 0 1 .438-.428c8.769-3.3 16.505-8.959 22.393-16.381a.754.754 0 0 1 .584-.29h11.611a.751.751 0 0 0 .538-.227.787.787 0 0 0 .224-.549v-8.79a.79.79 0 0 0-.223-.552.755.755 0 0 0-.539-.228h-28.193a.754.754 0 0 1-.537-.23.79.79 0 0 1-.222-.55v-4.14a.79.79 0 0 0-.227-.545.753.753 0 0 0-.535-.224zm1.244 16.035a.754.754 0 0 1 .449.151.78.78 0 0 1 .276.392.796.796 0 0 1-.283.872c-7.093 5.295-15.647 8.149-24.428 8.149s-17.336-2.854-24.429-8.149a.796.796 0 0 1-.007-1.264.754.754 0 0 1 .45-.151h47.972z"/>
        <path d="M136.515 22.916 108.3 79.494a.788.788 0 0 0 .332 1.049l18.009 9.4a.755.755 0 0 0 1.026-.341l28.215-56.578a.788.788 0 0 0-.332-1.048l-18.009-9.4a.755.755 0 0 0-1.026.34zM104.175 98.004l11.271 5.865a.746.746 0 0 0 .877-.134l8.431-8.401a.783.783 0 0 0 .221-.675.784.784 0 0 0-.407-.577l-18.002-9.388a.745.745 0 0 0-.966.24.787.787 0 0 0-.133.34l-1.686 11.92a.793.793 0 0 0 .07.47.773.773 0 0 0 .324.34z"/>
    </g>
    <defs>
        <linearGradient id="r7u3je8dxa" x1="-33.333" y1="227.083" x2="239.583" y2="-22.917" gradientUnits="userSpaceOnUse">
            <stop stop-color="#5856F9"/>
            <stop offset="1" stop-color="#FBC7D4"/>
            <stop offset="1" stop-color="#FBC7D4"/>
        </linearGradient>
        <clipPath id="fgnhgmgmsb">
            <path fill="url(#r7u3je8dxa)" transform="translate(44.028 22.5)" d="M0 0h111.944v155H0z"/>
        </clipPath>
    </defs>
</svg>
