<svg width="123" height="165" viewBox="0 0 123 165" fill="none" xmlns="http://www.w3.org/2000/svg">
    <g clip-path="url(#ch3ubx281a)" fill="#65788A">
        <path d="M81.704 94.71H50.328a.83.83 0 0 0-.83.83v4.407a.828.828 0 0 1-.826.83H19.008a.824.824 0 0 1-.709-.393 45.48 45.48 0 0 1 58.538-64.866.83.83 0 0 0 1.102-.367l4.231-8.315a.83.83 0 0 0-.367-1.102 55.823 55.823 0 0 0-24.827-5.803c-31.162 0-56.53 25.36-56.53 56.522a56.56 56.56 0 0 0 37.094 53.029.819.819 0 0 1 .478.459l3.845 9.288a.827.827 0 0 1-.64 1.135c-20.742 3.305-35.047 12.95-35.047 23.806a.832.832 0 0 0 .845.83h99.932a.828.828 0 0 0 .826-.83c0-10.856-14.305-20.497-35.048-23.806a.834.834 0 0 1-.596-.412.829.829 0 0 1-.046-.723l3.83-9.248a.845.845 0 0 1 .478-.455 56.553 56.553 0 0 0 24.386-17.438.819.819 0 0 1 .635-.308h12.645a.83.83 0 0 0 .83-.827v-9.357a.828.828 0 0 0-.83-.83H83.36a.829.829 0 0 1-.826-.83v-4.408a.83.83 0 0 0-.83-.819zm1.355 17.07a.827.827 0 0 1 .79.577.832.832 0 0 1-.31.929 45.128 45.128 0 0 1-53.204 0 .83.83 0 0 1 .48-1.506H83.06z"/>
        <path d="M101.178.443 70.451 60.671a.83.83 0 0 0 .362 1.116l19.612 10.006a.83.83 0 0 0 1.117-.362l30.727-60.227a.83.83 0 0 0-.362-1.117L102.295.081a.83.83 0 0 0-1.117.362zM65.96 80.375l12.274 6.244a.83.83 0 0 0 .954-.143l9.182-8.943a.83.83 0 0 0-.202-1.333l-19.605-9.994a.825.825 0 0 0-1.197.617l-1.836 12.69a.83.83 0 0 0 .43.862z"/>
    </g>
    <defs>
        <clipPath id="ch3ubx281a">
            <path fill="#fff" transform="translate(.458)" d="M0 0h121.909v165H0z"/>
        </clipPath>
    </defs>
</svg>
