<svg width="200" height="200" viewBox="0 0 200 200" fill="none" xmlns="http://www.w3.org/2000/svg">
    <rect width="200" height="200" rx="24" fill="#fff"/>
    <g clip-path="url(#bxft6ssfwb)" fill="url(#97gjglqmpa)">
        <path d="m154.114 151.231-32.551-55.058a8.742 8.742 0 0 1-1.227-4.454v-21.45c0-.368-.148-.723-.411-.984a1.409 1.409 0 0 0-.992-.407H81.067c-.372 0-.729.146-.992.407s-.41.616-.41.985v21.449a8.777 8.777 0 0 1-1.224 4.454l-32.555 55.058c-5.304 8.979 1.214 20.272 11.69 20.272h84.848c10.477 0 16.995-11.293 11.69-20.272zm-5.81 10.155a6.627 6.627 0 0 1-2.472 2.494 6.692 6.692 0 0 1-3.408.892H57.576a6.81 6.81 0 0 1-3.397-.909 6.763 6.763 0 0 1-2.48-2.476 6.694 6.694 0 0 1 .032-6.746L66.597 129.5c31.124-6.052 34.402 6.473 68.247 2.436l13.425 22.705a6.576 6.576 0 0 1 .035 6.745z"/>
        <path d="M103.345 155.79c.123.705.016 1.43-.304 2.071a3.38 3.38 0 0 1-1.477 1.494 3.421 3.421 0 0 1-2.08.339 3.4 3.4 0 0 1-1.882-.946 3.344 3.344 0 0 1-.616-3.931 3.382 3.382 0 0 1 1.503-1.469 3.421 3.421 0 0 1 2.086-.304 3.402 3.402 0 0 1 1.824.937c.496.491.826 1.124.946 1.809zM115.213 142.245a5.022 5.022 0 0 1-.558 3.039 5.074 5.074 0 0 1-2.237 2.147 5.115 5.115 0 0 1-5.846-.959 5.03 5.03 0 0 1-1.422-2.747 5.012 5.012 0 0 1 .456-3.056 5.065 5.065 0 0 1 2.163-2.22 5.12 5.12 0 0 1 5.997.882 5.035 5.035 0 0 1 1.447 2.914zM94.881 128.756a6.69 6.69 0 0 1-.834 3.987 6.76 6.76 0 0 1-2.999 2.78 6.827 6.827 0 0 1-7.707-1.319 6.714 6.714 0 0 1-1.887-3.616 6.688 6.688 0 0 1 .558-4.035 6.75 6.75 0 0 1 2.8-2.976 6.818 6.818 0 0 1 8.119 1.108 6.708 6.708 0 0 1 1.95 4.071zM120.335 65.512H79.78a3.479 3.479 0 0 1-2.373-.882 3.43 3.43 0 0 1-1.133-2.25 3.339 3.339 0 0 1 .906-2.53 3.388 3.388 0 0 1 2.484-1.065h40.559a3.478 3.478 0 0 1 2.373.882 3.423 3.423 0 0 1 1.133 2.25 3.344 3.344 0 0 1-.908 2.531 3.402 3.402 0 0 1-2.486 1.064zM103.345 51.483c.123.705.016 1.43-.304 2.072a3.378 3.378 0 0 1-1.477 1.493 3.418 3.418 0 0 1-3.962-.607 3.347 3.347 0 0 1-.616-3.932 3.382 3.382 0 0 1 1.503-1.467 3.416 3.416 0 0 1 3.91.632c.496.492.826 1.124.946 1.81zM115.213 39.623a5.013 5.013 0 0 1-.56 3.038 5.074 5.074 0 0 1-2.238 2.146 5.122 5.122 0 0 1-5.845-.962 5.016 5.016 0 0 1-.964-5.803 5.066 5.066 0 0 1 2.163-2.22 5.12 5.12 0 0 1 5.999.884 5.027 5.027 0 0 1 1.445 2.917zM96.578 34.545a6.69 6.69 0 0 1-.837 3.987 6.762 6.762 0 0 1-3.001 2.778 6.826 6.826 0 0 1-4.065.551 6.798 6.798 0 0 1-3.642-1.876 6.714 6.714 0 0 1-1.884-3.618 6.686 6.686 0 0 1 .562-4.034 6.752 6.752 0 0 1 2.804-2.974 6.824 6.824 0 0 1 4.018-.824c1.55.16 2.997.845 4.097 1.94a6.714 6.714 0 0 1 1.948 4.07z"/>
    </g>
    <defs>
        <linearGradient id="97gjglqmpa" x1="-345.833" y1="464.583" x2="191.667" y2="-2.083" gradientUnits="userSpaceOnUse">
            <stop offset=".604" stop-color="#9796F0"/>
            <stop offset="1" stop-color="#F12054"/>
            <stop offset="1" stop-color="#FBC7D4"/>
        </linearGradient>
        <clipPath id="bxft6ssfwb">
            <path fill="url(#97gjglqmpa)" transform="translate(44 28.5)" d="M0 0h112v143H0z"/>
        </clipPath>
    </defs>
</svg>
