<svg width="129" height="165" viewBox="0 0 129 165" fill="none" xmlns="http://www.w3.org/2000/svg">
    <g clip-path="url(#riois28fsa)" fill="#65788A">
        <path d="M126.478 141.613 89.196 78.085a10.151 10.151 0 0 1-1.405-5.14V48.196a1.606 1.606 0 0 0-1.606-1.606h-43.37a1.607 1.607 0 0 0-1.606 1.606v24.749a10.184 10.184 0 0 1-1.401 5.14L2.522 141.613c-6.076 10.36 1.39 23.391 13.388 23.391h97.18c11.998 0 19.464-13.031 13.388-23.391zm-6.654 11.717a7.63 7.63 0 0 1-6.734 3.908H15.91a7.772 7.772 0 0 1-6.73-3.907 7.768 7.768 0 0 1 .036-7.783l17.027-29.009c35.647-6.983 39.401 7.469 78.165 2.811l15.376 26.198a7.632 7.632 0 0 1 .04 7.782z"/>
        <path d="M68.33 146.873a3.888 3.888 0 1 1-7.662 1.325 3.888 3.888 0 0 1 7.663-1.325zM81.924 131.244a5.83 5.83 0 0 1-3.202 5.985 5.83 5.83 0 0 1-6.695-1.107 5.827 5.827 0 1 1 9.897-4.878zM58.637 115.68a7.765 7.765 0 0 1-13.217 6.286 7.768 7.768 0 1 1 13.217-6.286zM87.79 42.707H41.343a3.967 3.967 0 0 1-4.016-3.614 3.878 3.878 0 0 1 3.883-4.149h46.453a3.967 3.967 0 0 1 4.016 3.614 3.882 3.882 0 0 1-3.887 4.149zM68.33 26.52a3.887 3.887 0 1 1-7.659 1.325 3.887 3.887 0 0 1 7.66-1.326zM81.924 12.834a5.827 5.827 0 1 1-11.555 1.507 5.827 5.827 0 0 1 11.555-1.507zM60.58 6.975a7.766 7.766 0 1 1-15.451 1.58 7.766 7.766 0 0 1 15.452-1.58z"/>
    </g>
    <defs>
        <clipPath id="riois28fsa">
            <path fill="#fff" transform="translate(.362)" d="M0 0h128.277v165H0z"/>
        </clipPath>
    </defs>
</svg>
