<svg width="149" height="165" viewBox="0 0 149 165" fill="none" xmlns="http://www.w3.org/2000/svg">
    <g clip-path="url(#nr2wt9rqba)" fill="#65788A">
        <path d="M62.008 79.248c-1.833-9.134-7.695-20.715-16.604-34.091 7.688 2.664 14.752 12.685 20.163 22.669.992-4.483 2.085-9.018 3.145-12.926-4.088-35.072-56.41-41.087-56.208-39.197 1.718 14.943 6.764 36.894 18.036 48.271 8.605 8.714 19.065 13.174 31.468 15.274z"/>
        <path d="M112.726 103.017a8.84 8.84 0 0 0-8.022-5.162c-.21 0-.402.045-.609.06a11.617 11.617 0 0 0-13.297-3.303 6.934 6.934 0 0 0-.808-.128 11.757 11.757 0 0 0-8.214-4.813c-.751-8.09-.436-19.787 4.457-31.983 4.238-25.107 23.514-37.969 37.074-40.471-14.026 8.935-25.983 27.18-27.654 43C145.006 52.326 149.984 18.79 148.007 0c-16.213.496-45.168 8.06-58.72 20.982-10.803 10.299-17.22 23.472-13.982 40.53-.094.377-7.24 15.406-9.792 28.106-.23 0-.458-.022-.691-.022a11.723 11.723 0 0 0-10.175 5.955 11.626 11.626 0 0 0-17.942 3.608c-.124 0-.26.022-.376.033a8.778 8.778 0 0 0-12.655 3.825c-11.81.218-22.819 4.081-22.819 8.83 0 .169.05.305.06.466-.642 1.398-.086 3.529 1.691 3.701h.128c2.067 1.68 16.386 2.901 17.49 2.345 7.869 1.428 16.312 4.565 17.755 8.439 1.443 3.874 3.983 6.388 5.407 7.29 2.446 1.533 1.085 3.464 2.81 4.7.752.549 1.909 6.444 2.525 8.045 1.026 2.66 3.171 3.506 6.343 4.434 4.415 1.292 8.379 12.842 12.35 13.733.68.15 4.355-5.437 4.885-5.884 2.548-2.198 9.037-14.207 9.668-15.962.665-1.841 9.115-3.896 11.486-5.02 1.53-.725 5.768-4.448 6.73-5.583 2.183-2.574 4.227-4.697 6.312-7.105.553-.639 7.929-5.34 14.012-5.787 1.292.034 3.31-.579 5.362-1.409 5.944-.376 9.694-2.104 9.694-6.388-.008-4.764-11.032-8.627-22.838-8.845z"/>
    </g>
    <defs>
        <clipPath id="nr2wt9rqba">
            <path fill="#fff" transform="translate(.642)" d="M0 0h147.716v165H0z"/>
        </clipPath>
    </defs>
</svg>
