<svg width="200" height="200" viewBox="0 0 200 200" fill="none" xmlns="http://www.w3.org/2000/svg">
    <rect width="200" height="200" rx="24" fill="url(#tog3hwnfca)"/>
    <g clip-path="url(#swjsgnafrb)" fill="#fff">
        <path d="M88.668 97.063c-1.663-8.248-6.98-18.706-15.062-30.785 6.974 2.406 13.382 11.455 18.29 20.47.9-4.047 1.892-8.143 2.853-11.672-3.708-31.67-51.172-37.103-50.988-35.396 1.557 13.494 6.135 33.316 16.36 43.59 7.806 7.87 17.296 11.897 28.547 13.793z"/>
        <path d="M134.678 118.528a7.996 7.996 0 0 0-2.953-3.393 8.041 8.041 0 0 0-4.325-1.269c-.191 0-.364.041-.552.054a10.539 10.539 0 0 0-5.543-3.45 10.583 10.583 0 0 0-6.52.468 6.212 6.212 0 0 0-.733-.116 10.636 10.636 0 0 0-3.263-2.957 10.693 10.693 0 0 0-4.188-1.389c-.681-7.306-.395-17.868 4.043-28.882 3.845-22.673 21.331-34.287 33.632-36.547-12.724 8.069-23.57 24.546-25.087 38.83 44.771-7.125 49.288-37.408 47.495-54.377-14.708.448-40.974 7.278-53.269 18.947-9.799 9.3-15.621 21.196-12.683 36.601-.085.34-6.568 13.912-8.883 25.38-.208 0-.416-.02-.627-.02a10.669 10.669 0 0 0-5.344 1.45 10.606 10.606 0 0 0-3.886 3.928 10.576 10.576 0 0 0-13.25-.371 10.506 10.506 0 0 0-3.026 3.628c-.113 0-.235.021-.34.031a7.989 7.989 0 0 0-9.475.759 7.928 7.928 0 0 0-2.006 2.695c-10.713.197-20.7 3.685-20.7 7.974 0 .152.044.274.055.42-.583 1.263-.079 3.186 1.533 3.343h.116c1.875 1.516 14.865 2.619 15.867 2.117 7.138 1.289 14.797 4.122 16.105 7.621 1.31 3.498 3.614 5.768 4.905 6.582 2.22 1.385.985 3.129 2.55 4.245.682.495 1.731 5.819 2.29 7.264.931 2.403 2.877 3.166 5.754 4.004 4.005 1.168 7.601 11.598 11.204 12.402.617.136 3.95-4.91 4.431-5.314 2.311-1.984 8.198-12.829 8.77-14.413.604-1.663 8.269-3.519 10.42-4.533 1.387-.655 5.232-4.018 6.105-5.043 1.98-2.324 3.834-4.241 5.726-6.416.501-.577 7.192-4.821 12.711-5.225 1.172.03 3.003-.523 4.864-1.273 5.392-.339 8.794-1.9 8.794-5.768-.007-4.302-10.008-7.79-20.717-7.987z"/>
    </g>
    <defs>
        <linearGradient id="tog3hwnfca" x1="216.667" y1="-12.5" x2="-12.5" y2="210.417" gradientUnits="userSpaceOnUse">
            <stop stop-color="#C1FF90" stop-opacity=".8"/>
            <stop offset="1" stop-color="#3E8027"/>
        </linearGradient>
        <clipPath id="swjsgnafrb">
            <path fill="#fff" transform="translate(33 25.5)" d="M0 0h134v149H0z"/>
        </clipPath>
    </defs>
</svg>
