<svg width="200" height="200" viewBox="0 0 200 200" fill="none" xmlns="http://www.w3.org/2000/svg">
    <rect width="200" height="200" rx="24" fill="url(#216qxnenaa)"/>
    <g clip-path="url(#nzxt7gcbqb)">
        <path d="M104.338 48.3c4.125.67 7.597 1.88 11.505 3.373a370.097 370.097 0 0 1 25.581 37.758c.269.456 1.146.41 1.146.41s.71-.547.614-1.08a118.827 118.827 0 0 0-24.54-51.982A121.322 121.322 0 0 0 104.349 22l-7.136 7.379c2.272 2.502 4.115 4.619 6.188 7.011.632 4.147 1.143 7.841.937 11.91z" fill="#fff"/>
        <path d="M103.34 49.101c.146-2.246.108-4.5-.113-6.74-5.03 5.646-13.096 12.683-18.211 16.536-5.8 4.344-10.025 6.39-15.975 10.586l7.1 8.699c5.382-4.902 8.257-8.572 13.745-13.314 4.945-4.235 13.529-10.587 20.061-14.27a44.366 44.366 0 0 0-6.607-1.497zM22.386 104.531c-2.798 2.191-.927 6.055 1.203 8.769l.082.099c2.172 2.706 5.537 5.176 8.228 2.95 12.602-10.428 32.222-27.422 43.54-37.518l-7.154-8.78c-5.26 3.822-29.336 21.505-45.9 34.48z" fill="#fff"/>
        <path fill-rule="evenodd" clip-rule="evenodd" d="M102.279 153.482 87.973 130.04l-10.01-7.272-8.346 9.16-14.782 6.197-11.445 16.973-16.212 10.509L20 178h72.613l9.666-24.518z" fill="#fff"/>
        <path fill-rule="evenodd" clip-rule="evenodd" d="m161.913 178-20.294-32.062-16.738-11.751-18.31-32.705-20.029 30.175-4.53 12.664-29.325 17.514L42.556 178h119.357z" fill="#fff"/>
        <path fill-rule="evenodd" clip-rule="evenodd" d="m92.613 178 13.241-16.973 17.405-7.277 16.688-23.709 9.063 12.664 11.679 5.929 7.391 15.893L180.004 178H92.613z" fill="#fff"/>
        <path fill-rule="evenodd" clip-rule="evenodd" d="m139.947 135.027-14.423 21.553-18.002 7.005 25.155-2.018 5.63-10.04 14.515-3.031-5.839-3.098-7.036-10.371zM116.823 147.822l-11.683-6.197 2.861-26.942-1.668-4.986-15.261 22.634-4.888 14.415-29.801 17.513 32.07-10.911 7.27 12.933 1.306-16.779 19.794-1.68z" fill="#6598C6"/>
        <path fill-rule="evenodd" clip-rule="evenodd" d="m78.438 128.692-6.44 7.411-14.66 5.928-10.252 15.357-14.306 9.027 16.212-6.062 12.463-12.394 20.55-4.908 3.732-9.277-7.299-5.082z" fill="#6598C6"/>
    </g>
    <defs>
        <linearGradient id="216qxnenaa" x1="216.667" y1="-12.5" x2="-12.5" y2="210.417" gradientUnits="userSpaceOnUse">
            <stop stop-color="#73C9F2" stop-opacity=".8"/>
            <stop offset="1" stop-color="#273E80"/>
        </linearGradient>
        <clipPath id="nzxt7gcbqb">
            <path fill="#fff" transform="translate(20 22)" d="M0 0h160v156H0z"/>
        </clipPath>
    </defs>
</svg>
