<svg width="169" height="165" viewBox="0 0 169 165" fill="none" xmlns="http://www.w3.org/2000/svg">
    <g clip-path="url(#scih3b7vja)">
        <path d="M88.673 27.817c4.337.71 7.987 1.99 12.097 3.568a391.42 391.42 0 0 1 26.895 39.937c.284.481 1.206.432 1.206.432s.746-.578.645-1.142a126.014 126.014 0 0 0-25.801-54.98A128.005 128.005 0 0 0 88.685 0l-7.503 7.804c2.39 2.647 4.326 4.886 6.506 7.416.664 4.386 1.202 8.294.985 12.597z" fill="#65788A"/>
        <path d="M87.624 28.664a44.09 44.09 0 0 0-.119-7.128c-5.289 5.971-13.769 13.414-19.147 17.49-6.099 4.594-10.54 6.759-16.796 11.196l7.465 9.2c5.659-5.183 8.682-9.065 14.452-14.081 5.2-4.48 14.224-11.197 21.091-15.094a46.373 46.373 0 0 0-6.945-1.583zM2.508 87.293c-2.941 2.317-.974 6.404 1.265 9.274l.086.105c2.284 2.863 5.823 5.475 8.652 3.12C25.76 88.763 46.389 70.788 58.288 60.11l-7.52-9.286c-5.532 4.042-30.845 22.745-48.26 36.469z" fill="#65788A"/>
        <path fill-rule="evenodd" clip-rule="evenodd" d="m86.508 139.067-15.04-24.794-10.526-7.692-8.775 9.689-15.541 6.554-12.033 17.953-17.046 11.115L0 165h76.345l10.163-25.933z" fill="#65788A"/>
        <path fill-rule="evenodd" clip-rule="evenodd" d="m149.208 165-21.338-33.912-17.598-12.429-19.251-34.592-21.058 31.916-4.762 13.395-30.833 18.524L23.715 165h125.493z" fill="#65788A"/>
        <path fill-rule="evenodd" clip-rule="evenodd" d="m76.345 165 13.922-17.952 18.3-7.697 17.546-25.077 9.528 13.395 12.28 6.27 7.771 16.811L168.229 165H76.345z" fill="#65788A"/>
        <path fill-rule="evenodd" clip-rule="evenodd" d="m126.113 119.547-15.165 22.798-18.927 7.408 26.448-2.135L124.388 137l15.262-3.206-6.14-3.277-7.397-10.97zM101.8 133.081l-12.283-6.554 3.008-28.497-1.754-5.274-16.046 23.94-5.139 15.246-31.333 18.524 33.718-11.54 7.644 13.679 1.373-17.748 20.812-1.776z" fill="#fff"/>
        <path fill-rule="evenodd" clip-rule="evenodd" d="m61.442 112.848-6.77 7.838-15.415 6.27-10.78 16.243-15.04 9.548 17.045-6.413 13.105-13.108 21.606-5.191 3.923-9.813-7.674-5.374z" fill="#fff"/>
    </g>
    <defs>
        <clipPath id="scih3b7vja">
            <path fill="#fff" d="M0 0h168.225v165H0z"/>
        </clipPath>
    </defs>
</svg>
