<svg width="200" height="200" viewBox="0 0 200 200" fill="none" xmlns="http://www.w3.org/2000/svg">
    <rect width="200" height="200" rx="24" fill="#fff"/>
    <g clip-path="url(#0oq8e4jvpb)" fill="url(#xs4sqxh0wa)">
        <path d="M88.583 128.542a39.762 39.762 0 0 1 9.395-25.689H31.5v51.375A14.287 14.287 0 0 0 45.772 168.5h82.77c-22.03 0-39.959-17.926-39.959-39.958zm-12.89 12.281a2.85 2.85 0 0 1 .576 3.117 2.864 2.864 0 0 1-1.564 1.522 2.848 2.848 0 0 1-3.1-.66l-9.052-9.31-9.026 9.31a2.856 2.856 0 0 1-4.037.058 2.86 2.86 0 0 1-.055-4.037l9.157-9.438-9.157-9.438a2.848 2.848 0 0 1-.733-3.214 2.86 2.86 0 0 1 1.638-1.583 2.851 2.851 0 0 1 3.187.843l9.026 9.309 9.04-9.309a2.86 2.86 0 0 1 3.135-.726 2.857 2.857 0 0 1 1.815 2.657 2.859 2.859 0 0 1-.862 2.045l-9.155 9.437 9.167 9.417zM97.147 97.144V31.5H45.772A14.287 14.287 0 0 0 31.5 45.772v51.372h65.647zM51.481 65.75h12.841V52.908a2.856 2.856 0 1 1 5.709 0V65.75h12.841a2.856 2.856 0 0 1 0 5.708H70.031V84.3a2.856 2.856 0 1 1-5.709 0V71.458H51.481a2.854 2.854 0 0 1-2.723-3.968 2.856 2.856 0 0 1 2.723-1.74zM128.542 168.5h25.686a14.284 14.284 0 0 0 10.087-4.185 14.284 14.284 0 0 0 4.185-10.087v-25.686c0 22.032-17.929 39.958-39.958 39.958z"/>
        <path d="M128.542 162.792a34.252 34.252 0 0 0 33.592-40.932 34.255 34.255 0 0 0-26.91-26.91 34.25 34.25 0 0 0-40.932 33.592 34.286 34.286 0 0 0 34.25 34.25zm-14.273-45.667h28.542a2.862 2.862 0 0 1 2.723 1.74 2.859 2.859 0 0 1-1.602 3.778 2.841 2.841 0 0 1-1.121.19h-28.542a2.852 2.852 0 0 1-2.762-2.854 2.855 2.855 0 0 1 2.762-2.854zm0 17.125h28.542a2.862 2.862 0 0 1 2.723 1.74 2.859 2.859 0 0 1-1.602 3.778 2.841 2.841 0 0 1-1.121.19h-28.542a2.852 2.852 0 0 1-2.762-2.854 2.855 2.855 0 0 1 2.762-2.854z"/>
        <path d="M154.228 31.5h-51.375v66.478a39.762 39.762 0 0 1 25.689-9.395c22.029 0 39.958 17.926 39.958 39.959v-82.77A14.287 14.287 0 0 0 154.228 31.5zm-5.709 34.25h-31.394a2.854 2.854 0 0 1-2.949-2.854 2.863 2.863 0 0 1 .87-2.052 2.855 2.855 0 0 1 2.079-.802h31.394a2.852 2.852 0 0 1 2.723 1.74 2.863 2.863 0 0 1 0 2.228 2.854 2.854 0 0 1-2.723 1.74z"/>
    </g>
    <defs>
        <linearGradient id="xs4sqxh0wa" x1="12.5" y1="0" x2="200" y2="222.917" gradientUnits="userSpaceOnUse">
            <stop stop-color="#5A6BFF"/>
            <stop offset="1" stop-color="#93BEFF"/>
        </linearGradient>
        <clipPath id="0oq8e4jvpb">
            <path fill="url(#xs4sqxh0wa)" transform="translate(31.5 31.5)" d="M0 0h137v137H0z"/>
        </clipPath>
    </defs>
</svg>
