<svg width="166" height="165" viewBox="0 0 166 165" fill="none" xmlns="http://www.w3.org/2000/svg">
    <g clip-path="url(#xjmwofjqia)" fill="#65788A">
        <path d="M69.156 116.875a47.89 47.89 0 0 1 11.316-30.94H.406v61.876A17.208 17.208 0 0 0 17.596 165h99.685c-26.532 0-48.125-21.589-48.125-48.125zm-15.524 14.791a3.446 3.446 0 0 1 .973 2.443 3.434 3.434 0 0 1-3.482 3.389 3.433 3.433 0 0 1-2.416-1.039l-10.9-11.213-10.872 11.213a3.442 3.442 0 0 1-4.862.069 3.442 3.442 0 0 1-.066-4.862L33.036 120.3l-11.03-11.367a3.438 3.438 0 0 1-.095-5.03 3.43 3.43 0 0 1 2.57-.96 3.438 3.438 0 0 1 2.454 1.227l10.871 11.213 10.887-11.213a3.43 3.43 0 0 1 3.776-.873 3.42 3.42 0 0 1 1.916 1.863 3.436 3.436 0 0 1-.768 3.799l-11.026 11.366 11.04 11.341zM79.47 79.06V0H17.597A17.208 17.208 0 0 0 .406 17.19v61.87h79.065zm-55-37.81h15.467V25.784a3.438 3.438 0 1 1 6.875 0V41.25h15.466a3.44 3.44 0 0 1 0 6.875H46.812v15.466a3.438 3.438 0 1 1-6.875 0V48.125H24.47a3.438 3.438 0 1 1 0-6.875zM117.281 165h30.936a17.204 17.204 0 0 0 17.189-17.189v-30.936c0 26.536-21.593 48.125-48.125 48.125z"/>
        <path d="M117.281 158.125a41.25 41.25 0 1 0-41.25-41.25 41.292 41.292 0 0 0 41.25 41.25zm-17.189-55h34.375a3.438 3.438 0 0 1 3.279 2.095 3.441 3.441 0 0 1-.775 3.814 3.438 3.438 0 0 1-2.504.966h-34.375a3.437 3.437 0 0 1-3.327-3.437 3.438 3.438 0 0 1 3.327-3.438zm0 20.625h34.375a3.438 3.438 0 0 1 3.279 2.095 3.441 3.441 0 0 1-.775 3.814 3.438 3.438 0 0 1-2.504.966h-34.375a3.437 3.437 0 0 1-3.327-3.437 3.438 3.438 0 0 1 3.327-3.438z"/>
        <path d="M148.217 0H86.342v80.065a47.89 47.89 0 0 1 30.939-11.315c26.532 0 48.125 21.59 48.125 48.125V17.189A17.207 17.207 0 0 0 148.217 0zm-6.875 41.25h-37.811a3.439 3.439 0 1 1 0-6.875h37.811a3.436 3.436 0 0 1 3.279 2.095 3.439 3.439 0 0 1-3.279 4.78z"/>
    </g>
    <defs>
        <clipPath id="xjmwofjqia">
            <path fill="#fff" transform="translate(.406)" d="M0 0h165v165H0z"/>
        </clipPath>
    </defs>
</svg>
