<svg width="148" height="165" viewBox="0 0 148 165" fill="none" xmlns="http://www.w3.org/2000/svg">
    <g clip-path="url(#cwcd2qx4ca)" fill-rule="evenodd" clip-rule="evenodd" fill="#65788A">
        <path d="M80.015 53.88C58.465 12.886 48.875 7.85.406 0c11.077 38.3 39.49 45.092 67.203 42.603-4.468-8.862-21.49-19.743-34.757-26.26 21.456 2.918 37.352 21.438 47.163 37.536z"/>
        <path d="M22.01 125.145c6.753 14.133 18.368 28.364 30.42 37.238 9.035 6.649 19.2-1.227 28.673-4.518 9.288 3.242 19.611 11.276 28.673 4.518 12.244-9.111 23.196-22.446 30.191-37.238H22.009zm124.719-20.459a67.003 67.003 0 0 0 1.178-12.31c0-33.908-31.49-53.813-61.62-37.676l-5.335 2.748-4.122-2.44c-38.304-21.403-65.381 12.455-60.766 49.697h5.648v14.457h2.91v-14.457h4.894v7.018h2.91v-7.037h4.895v7.018h2.914v-7.018h4.894v7.018h2.914v-7.018h4.895v7.018h2.914v-7.018h4.894v14.457h2.869v-14.457h4.894v7.018h2.914v-7.018h4.895v7.018h2.91v-7.018h4.894v7.018h2.914v-7.018h4.895v7.018h2.914v-7.018h4.894v14.457h2.914v-14.457h4.894v7.018h2.914v-7.018h4.895v7.018h2.85v-7.018h4.894v7.018h2.914v-7.018h4.895v7.018h2.91v-7.018h4.894v14.457h2.914v-14.457h5.102z"/>
    </g>
    <defs>
        <clipPath id="cwcd2qx4ca">
            <path fill="#fff" transform="translate(.406)" d="M0 0h147.505v165H0z"/>
        </clipPath>
    </defs>
</svg>
