<svg width="200" height="200" viewBox="0 0 200 200" fill="none" xmlns="http://www.w3.org/2000/svg">
    <rect width="200" height="200" rx="24" fill="url(#afvhwwt0wa)"/>
    <g clip-path="url(#tqavdyn9bb)" fill-rule="evenodd" clip-rule="evenodd" fill="#fff">
        <path d="M105.002 75.542C86.594 40.512 78.402 36.208 37 29.5c9.462 32.73 33.733 38.533 57.406 36.407-3.818-7.574-18.357-16.872-29.69-22.44 18.328 2.492 31.906 18.318 40.286 32.075z"/>
        <path d="M55.453 136.442c5.77 12.078 15.691 24.239 25.986 31.822 7.718 5.682 16.402-1.049 24.493-3.861 7.934 2.77 16.752 9.636 24.493 3.861 10.459-7.786 19.814-19.181 25.789-31.822H55.454zm106.537-17.483c.659-3.468.996-6.99 1.007-10.52 0-28.975-26.899-45.985-52.637-32.195l-4.557 2.348-3.521-2.085c-32.72-18.29-55.85 10.643-51.907 42.468H55.2v12.355h2.486v-12.355h4.181v5.997h2.486v-6.013h4.181v5.997h2.49v-5.997h4.18v5.997h2.49v-5.997h4.18v5.997h2.49v-5.997h4.18v12.355h2.45v-12.355h4.181v5.997h2.49v-5.997h4.18v5.997h2.486v-5.997h4.181v5.997H111v-5.997h4.181v5.997h2.489v-5.997h4.181v12.355h2.489v-12.355h4.181v5.997h2.489v-5.997h4.181v5.997h2.435v-5.997h4.181v5.997h2.489v-5.997h4.181v5.997h2.486v-5.997h4.18v12.355h2.49v-12.355h4.357z"/>
    </g>
    <defs>
        <linearGradient id="afvhwwt0wa" x1="216.667" y1="-12.5" x2="-12.5" y2="210.417" gradientUnits="userSpaceOnUse">
            <stop stop-color="#DDFE12" stop-opacity=".8"/>
            <stop offset="1" stop-color="#509638"/>
        </linearGradient>
        <clipPath id="tqavdyn9bb">
            <path fill="#fff" transform="translate(37 29.5)" d="M0 0h126v141H0z"/>
        </clipPath>
    </defs>
</svg>
