<svg width="92" height="91" viewBox="0 0 92 91" fill="none" xmlns="http://www.w3.org/2000/svg">
    <rect x=".059" y=".131" width="91" height="90" rx="20" fill="#F9FCFF"/>
    <path d="M53.996 61.824a.39.39 0 0 1-.495.348c-.521-.152-.982-.514-1.48-.425-.453.077-.93.58-1.53.85-.93.292-1.848-.739-2.688-.739-1.246 0-1.628 1.152-2.746 1.152-1.119 0-1.501-1.152-2.746-1.152-.84 0-1.758 1.031-2.69.74-.592-.27-1.077-.774-1.528-.851-.5-.089-.96.273-1.479.425a.383.383 0 0 1-.33-.053.373.373 0 0 1-.165-.295c0-2.876 1.33-5.115 4.027-5.77 1.323-.32 2.536-1.163 4.91-1.163 2.376 0 3.426.848 4.747 1.163 2.694.654 4.193 2.184 4.193 5.77zm17.048-16.747c-.15.793-2.449 2.649-2.402 3.544.046.854 2.402 1.815 2.402 2.635 0 3.061-3.467 2.738-4.159 3.646-.949 1.244.055 2.535-.647 3.202-.83.793-3.148.558-5.291 1.288h-.062c-1.768 3.431-4.23 6.329-6.975 8.369-2.847 2.123-5.964 3.37-8.85 3.37-2.885 0-6.002-1.246-8.849-3.37-2.773-2.063-5.256-4.998-7.028-8.464-2.05-.606-4.18-.44-4.97-1.196-.697-.668.303-2.8-.647-4.048-.756-.989-2.777-.688-4.159-2.8-.417-.642 1.512-2.35 1.927-4.59.08-.428-1.047-.835-1.331-1.68-.285-.843 1.5-1.433 1.435-1.975-.411-3.487-2.38-3.996-2.38-6.104 0-1.452 2.984-1.83 5.43-4.388 2.448-2.559.383-5.735 1.396-7.461.742-1.264 4.032 2.052 5.162 1.06.51-.448.747-1.92 1.272-2.51.608-.689 2.208 2.005 2.99 1.294.961-.879 1.6-3.434 2.707-4.627 1.022-1.098 2.45 2.774 3.93 2.653 1.056-.09 2.377-5.262 5.156-3.383 3.297 2.228 2.736 3.354 4.32 3.383 1.247.022 3.389-2.897 4.245-1.797.93 1.19.513 3.565 1.318 4.444.655.711 2.16-1.046 2.673-.349.441.59.05 1.457.478 1.904.946.994 5.61-1.478 6.046-.108.387 1.207-1.92 4.405 1 4.56 1.291.07-.337 2.479.038 3.082 1.168 1.886 3.746 1.429 3.79 2.51.046 1.083-1.712 1.756-2.112 2.9-1.513 4.336 2.434 3.454 2.147 5.006zm-40.883-.422 4.2 1.291a4.843 4.843 0 0 1 7.188-1.406 4.844 4.844 0 0 1 1.59 2.22h3.847a4.843 4.843 0 0 1 8.776-.814l4.195-1.31c-.06-2.925-.532-5.395-1.46-7.384a5.56 5.56 0 0 0-2.021-2.325c-5.221-3.376-7.983.465-11.463.465-3.417 0-6.14-3.713-11.18-.647a5.54 5.54 0 0 0-2.112 2.313c-.995 2.028-1.5 4.563-1.56 7.597zm21.397 1.22a2.52 2.52 0 0 0-1.78 4.3 2.52 2.52 0 1 0 1.78-4.3zm-13.001 0a2.52 2.52 0 0 0-1.784 4.299 2.52 2.52 0 0 0 4.301-1.783 2.521 2.521 0 0 0-2.517-2.517zm23.616 4.592c0-2.209-.786-3.168-1.468-3.536l-4.275 1.43v.03a4.866 4.866 0 0 1-7.852 3.85 4.867 4.867 0 0 1-1.816-3.037H43.35a4.867 4.867 0 0 1-9.668-.813v-.03l-4.237-1.452c-.698.348-1.503 1.307-1.503 3.554 0 2.656.684 3.468 1.445 3.77a3.182 3.182 0 0 1 1.784 1.77c1.48 3.72 3.953 7.001 6.962 9.248 2.372 1.761 4.832 2.732 6.925 2.732s4.554-.97 6.926-2.732c3.01-2.247 5.482-5.528 6.96-9.247a3.187 3.187 0 0 1 1.786-1.772c.76-.3 1.444-1.113 1.444-3.769v.004zm-29.635-6.951c1.451 0 1.483-2.275 7.557-2.275 1.911-.016 3.334-.19 3.334-1.59 0-1.216-.896-2.215-1.678-2.53-.514-.203-.742.105-1.466.08-.525-.019-1.451-.187-2.042-.187-1.886 0-1.77.688-3.212 1.07-1.829.478-1.34 1.373-1.714 1.681-.953.778-1.84 3.747-.779 3.747v.004zm17.48-2.275c6.075 0 6.108 2.275 7.557 2.275 1.063 0 .175-2.97-.78-3.747-.374-.308.116-1.203-1.715-1.682-1.44-.382-1.326-1.07-3.212-1.07-.59 0-1.511.169-2.04.187-.725.026-.952-.282-1.467-.079-.782.31-1.676 1.31-1.676 2.526 0 1.4 1.422 1.574 3.334 1.587v.003z" fill="#9548D8"/>
</svg>
