<svg width="166" height="166" viewBox="0 0 166 166" fill="none" xmlns="http://www.w3.org/2000/svg">
    <path d="M111.519 135.484a1.233 1.233 0 0 1-1.571 1.107c-1.653-.484-3.114-1.631-4.696-1.35-1.435.243-2.951 1.844-4.854 2.7-2.951.926-5.861-2.346-8.528-2.346-3.955 0-5.164 3.655-8.713 3.655-3.548 0-4.762-3.655-8.712-3.655-2.667 0-5.578 3.272-8.532 2.346-1.881-.856-3.42-2.457-4.85-2.7-1.587-.281-3.048.866-4.693 1.35a1.232 1.232 0 0 1-.543.035 1.206 1.206 0 0 1-.504-.205 1.184 1.184 0 0 1-.524-.937c0-9.126 4.22-16.23 12.777-18.31 4.198-1.015 8.045-3.689 15.581-3.689s10.867 2.689 15.057 3.689c8.55 2.076 13.305 6.931 13.305 18.31zm54.09-53.146c-.472 2.516-7.768 8.407-7.621 11.247.148 2.711 7.621 5.762 7.621 8.362 0 9.716-10.999 8.69-13.194 11.571-3.01 3.947.173 8.045-2.055 10.162-2.633 2.516-9.985 1.771-16.787 4.087h-.195c-5.611 10.889-13.419 20.085-22.132 26.559-9.033 6.739-18.923 10.697-28.078 10.697-9.155 0-19.044-3.955-28.078-10.697-8.797-6.548-16.676-15.862-22.298-26.861-6.503-1.922-13.26-1.398-15.768-3.796-2.214-2.117.959-8.882-2.055-12.843-2.398-3.139-8.812-2.184-13.194-8.89C.45 99.9 6.57 94.481 7.887 87.369c.254-1.357-3.32-2.648-4.224-5.326-.903-2.678 4.759-4.552 4.556-6.27C6.913 64.706.669 63.09.669 56.402c0-4.61 9.464-5.81 17.229-13.928 7.764-8.119 1.213-18.2 4.426-23.677 2.353-4.01 12.792 6.514 16.378 3.364 1.619-1.42 2.372-6.094 4.035-7.968 1.93-2.183 7.008 6.367 9.487 4.11 3.05-2.79 5.076-10.897 8.591-14.685 3.242-3.482 7.772 8.805 12.471 8.421 3.35-.284 7.54-16.698 16.356-10.737 10.461 7.07 8.683 10.645 13.71 10.737 3.955.07 10.749-9.196 13.468-5.702 2.951 3.777 1.626 11.313 4.179 14.101 2.08 2.258 6.857-3.32 8.484-1.106 1.398 1.873.158 4.622 1.516 6.042 2.999 3.153 17.797-4.692 19.181-.343 1.228 3.828-6.094 13.98 3.172 14.474 4.098.221-1.066 7.864.122 9.778 3.707 5.983 11.884 4.534 12.028 7.968.144 3.434-5.433 5.57-6.702 9.203-4.803 13.758 7.72 10.959 6.809 15.883zM35.895 81l13.327 4.098A15.37 15.37 0 0 1 77.07 87.68h12.206a15.367 15.367 0 0 1 27.845-2.582l13.312-4.157c-.191-9.284-1.689-17.122-4.633-23.434a17.64 17.64 0 0 0-6.414-7.377c-16.566-10.715-25.326 1.476-36.37 1.476-10.84 0-19.483-11.786-35.474-2.055a17.58 17.58 0 0 0-6.698 7.34c-3.158 6.437-4.758 14.482-4.95 24.11zm67.889 3.87a7.994 7.994 0 1 0 .008 15.988 7.994 7.994 0 0 0-.008-15.988zm-41.25 0a7.993 7.993 0 1 0 7.986 7.986 8 8 0 0 0-7.986-7.986zm74.931 14.573c0-7.008-2.494-10.051-4.659-11.22l-13.563 4.54v.093a15.445 15.445 0 0 1-30.675 2.581h-10.83a15.444 15.444 0 0 1-30.674-2.582v-.092l-13.445-4.61c-2.213 1.106-4.77 4.15-4.77 11.28 0 8.428 2.173 11.006 4.585 11.962a10.1 10.1 0 0 1 5.662 5.621c4.696 11.804 12.542 22.217 22.088 29.347 7.529 5.588 15.334 8.668 21.973 8.668 6.64 0 14.449-3.08 21.977-8.668 9.546-7.13 17.392-17.543 22.084-29.347a10.117 10.117 0 0 1 5.666-5.621c2.412-.956 4.581-3.534 4.581-11.963v.011zM43.438 77.384c4.603 0 4.703-7.218 23.976-7.218 6.064-.052 10.58-.605 10.58-5.046 0-3.859-2.845-7.03-5.327-8.027-1.63-.645-2.354.332-4.652.251-1.663-.059-4.603-.594-6.477-.594-5.983 0-5.618 2.184-10.192 3.394-5.802 1.52-4.249 4.36-5.437 5.337-3.024 2.468-5.839 11.892-2.471 11.892v.011zM98.9 70.166c19.273 0 19.377 7.218 23.976 7.218 3.372 0 .554-9.424-2.475-11.892-1.187-.977.369-3.818-5.44-5.337-4.571-1.21-4.209-3.394-10.192-3.394-1.87 0-4.795.535-6.474.594-2.301.081-3.02-.896-4.655-.25-2.482.984-5.319 4.156-5.319 8.015 0 4.44 4.515 4.994 10.58 5.035v.01z" fill="#65788A"/>
</svg>
