<svg width="200" height="200" viewBox="0 0 200 200" fill="none" xmlns="http://www.w3.org/2000/svg">
    <rect width="200" height="200" rx="24" fill="url(#zbebcy0cua)"/>
    <path d="M118.543 137.094a.871.871 0 0 1-.361.65.846.846 0 0 1-.727.124c-1.145-.338-2.157-1.141-3.253-.945-.994.171-2.044 1.292-3.362 1.891-2.044.648-4.06-1.643-5.907-1.643-2.74 0-3.578 2.56-6.036 2.56-2.458 0-3.298-2.56-6.035-2.56-1.847 0-3.863 2.291-5.91 1.643-1.303-.599-2.368-1.72-3.36-1.891-1.098-.196-2.11.607-3.25.945a.827.827 0 0 1-.725-.118.827.827 0 0 1-.363-.656c0-6.391 2.923-11.365 8.85-12.822 2.909-.71 5.573-2.583 10.793-2.583 5.22 0 7.528 1.883 10.43 2.583 5.923 1.454 9.216 4.853 9.216 12.822zm37.468-37.215c-.327 1.761-5.381 5.886-5.279 7.875.102 1.899 5.279 4.035 5.279 5.856 0 6.803-7.619 6.085-9.139 8.102-2.085 2.764.12 5.634-1.424 7.116-1.824 1.762-6.916 1.24-11.628 2.862h-.135c-3.886 7.625-9.296 14.064-15.331 18.597-6.257 4.719-13.107 7.491-19.449 7.491-6.342 0-13.192-2.769-19.45-7.491-6.093-4.584-11.55-11.106-15.445-18.809-4.504-1.345-9.185-.979-10.923-2.658-1.533-1.482.665-6.219-1.423-8.993-1.66-2.198-6.104-1.529-9.14-6.225-.916-1.426 3.322-5.22 4.235-10.2.176-.951-2.3-1.855-2.926-3.73-.626-1.875 3.296-3.187 3.156-4.39-.905-7.75-5.23-8.881-5.23-13.564 0-3.228 6.556-4.068 11.934-9.753 5.379-5.685.84-12.744 3.066-16.58 1.63-2.807 8.861 4.562 11.345 2.356 1.121-.995 1.643-4.267 2.795-5.58 1.336-1.528 4.855 4.459 6.572 2.878 2.113-1.953 3.515-7.63 5.95-10.283 2.246-2.438 5.384 6.166 8.64 5.897 2.32-.199 5.222-11.693 11.328-7.519 7.246 4.952 6.015 7.455 9.497 7.52 2.74.048 7.446-6.44 9.329-3.994 2.044 2.645 1.127 7.922 2.895 9.875 1.441 1.58 4.75-2.325 5.877-.775.968 1.312.11 3.236 1.05 4.23 2.077 2.209 12.328-3.285 13.286-.24.851 2.681-4.221 9.79 2.198 10.136 2.838.155-.739 5.507.084 6.847 2.568 4.19 8.232 3.174 8.332 5.58.1 2.404-3.764 3.9-4.643 6.444-3.326 9.634 5.348 7.673 4.717 11.122zm-89.852-.938 9.232 2.87a10.698 10.698 0 0 1 4.33-4.2 10.549 10.549 0 0 1 11.468 1.074 10.762 10.762 0 0 1 3.493 4.934h8.454a10.761 10.761 0 0 1 3.492-4.934 10.548 10.548 0 0 1 11.467-1.075 10.698 10.698 0 0 1 4.33 4.201l9.221-2.911c-.133-6.501-1.17-11.99-3.209-16.41a12.322 12.322 0 0 0-4.444-5.165c-11.474-7.504-17.543 1.033-25.193 1.033-7.509 0-13.496-8.253-24.572-1.439a12.262 12.262 0 0 0-4.64 5.14c-2.187 4.507-3.296 10.14-3.429 16.882zm47.026 2.71a5.49 5.49 0 0 0-3.076.945 5.586 5.586 0 0 0-2.038 2.513 5.66 5.66 0 0 0-.313 3.234 5.62 5.62 0 0 0 1.518 2.865 5.513 5.513 0 0 0 2.836 1.53 5.48 5.48 0 0 0 3.199-.321 5.54 5.54 0 0 0 2.483-2.064 5.636 5.636 0 0 0-.694-7.065 5.513 5.513 0 0 0-3.915-1.637zm-28.573 0a5.491 5.491 0 0 0-3.078.941 5.584 5.584 0 0 0-2.041 2.511 5.656 5.656 0 0 0-.317 3.236 5.616 5.616 0 0 0 1.516 2.867 5.52 5.52 0 0 0 2.836 1.532 5.482 5.482 0 0 0 3.2-.32 5.544 5.544 0 0 0 2.485-2.064 5.64 5.64 0 0 0-.692-7.062 5.506 5.506 0 0 0-3.909-1.641zm51.904 10.205c0-4.908-1.727-7.039-3.227-7.857l-9.395 3.179v.065a10.881 10.881 0 0 1-2.818 7.328 10.658 10.658 0 0 1-6.983 3.463 10.62 10.62 0 0 1-7.457-2.234 10.833 10.833 0 0 1-3.99-6.749h-7.502a10.836 10.836 0 0 1-3.99 6.749 10.62 10.62 0 0 1-7.457 2.234 10.657 10.657 0 0 1-6.983-3.463 10.881 10.881 0 0 1-2.818-7.328v-.065l-9.313-3.229c-1.533.775-3.304 2.906-3.304 7.899 0 5.902 1.505 7.708 3.176 8.376a7.008 7.008 0 0 1 2.362 1.56 7.08 7.08 0 0 1 1.56 2.377c3.253 8.265 8.687 15.557 15.3 20.55 5.215 3.913 10.621 6.07 15.22 6.07 4.6 0 10.009-2.157 15.224-6.07 6.612-4.993 12.047-12.285 15.297-20.55a7.088 7.088 0 0 1 1.562-2.376 6.993 6.993 0 0 1 2.362-1.561c1.671-.668 3.174-2.474 3.174-8.376v.008zM71.384 96.41c3.19 0 3.258-5.055 16.608-5.055 4.2-.036 7.328-.424 7.328-3.533 0-2.702-1.97-4.924-3.69-5.62-1.129-.453-1.63.232-3.221.175-1.153-.041-3.189-.416-4.487-.416-4.144 0-3.891 1.529-7.06 2.376-4.019 1.064-2.943 3.053-3.766 3.738-2.095 1.728-4.044 8.327-1.712 8.327v.008zm38.419-5.055c13.35 0 13.421 5.055 16.607 5.055 2.336 0 .384-6.6-1.714-8.328-.823-.684.256-2.673-3.769-3.737-3.165-.847-2.915-2.376-7.059-2.376-1.296 0-3.322.374-4.485.416-1.594.056-2.092-.628-3.224-.176-1.72.69-3.684 2.91-3.684 5.613 0 3.11 3.127 3.497 7.328 3.525v.008z" fill="#fff"/>
    <defs>
        <linearGradient id="zbebcy0cua" x1="21.978" y1="7.778" x2="183.391" y2="198.244" gradientUnits="userSpaceOnUse">
            <stop stop-color="#7C38B8"/>
            <stop offset="1" stop-color="#A754F0"/>
        </linearGradient>
    </defs>
</svg>
