<svg width="200" height="200" viewBox="0 0 200 200" fill="none" xmlns="http://www.w3.org/2000/svg">
    <rect width="200" height="200" rx="24" fill="url(#uawcbfxhaa)"/>
    <g clip-path="url(#chw812556b)" fill="#fff">
        <path d="M52.94 107.929c-4.937 0-8.94 4.044-8.94 9.032v37.507c0 4.988 4.003 9.032 8.94 9.032 4.937 0 8.94-4.044 8.94-9.032v-37.507c0-4.988-4.003-9.032-8.94-9.032zM84.313 88.518c-4.937 0-8.94 4.044-8.94 9.032v56.92c0 4.988 4.003 9.032 8.94 9.032 4.937 0 8.94-4.044 8.94-9.032V97.55c0-4.988-4.003-9.032-8.94-9.032zM115.687 107.929c-4.937 0-8.94 4.044-8.94 9.032v37.507c0 4.988 4.003 9.032 8.94 9.032 4.937 0 8.94-4.044 8.94-9.032v-37.507c0-4.988-4.003-9.032-8.94-9.032zM147.06 64.253c-4.937 0-8.94 4.044-8.94 9.032v81.185c0 4.988 4.003 9.032 8.94 9.032 4.937 0 8.94-4.044 8.94-9.032V73.285c0-4.99-4.003-9.032-8.94-9.032z"/>
        <path d="M52.94 94.51c3.91 0 7.092-3.213 7.092-7.164 0-.586-.079-1.152-.21-1.698l19.866-12.293a7.013 7.013 0 0 0 4.623 1.743 7.02 7.02 0 0 0 4.623-1.743l19.867 12.291a7.194 7.194 0 0 0-.211 1.698c0 3.95 3.183 7.165 7.094 7.165 3.911 0 7.092-3.214 7.092-7.165a7.165 7.165 0 0 0-1.382-4.233l23.451-32.64a6.983 6.983 0 0 0 2.215.361c3.911 0 7.092-3.213 7.092-7.165.002-3.953-3.181-7.167-7.092-7.167-3.911 0-7.094 3.214-7.094 7.167 0 1.584.517 3.044 1.382 4.232L117.902 80.54a6.988 6.988 0 0 0-2.215-.362c-1.768 0-3.38.661-4.624 1.745l-19.866-12.29c.132-.546.21-1.112.21-1.698 0-3.952-3.183-7.168-7.094-7.168-3.91 0-7.092 3.214-7.092 7.168 0 .586.079 1.152.21 1.697L57.564 81.921a7.02 7.02 0 0 0-4.623-1.743c-3.911 0-7.094 3.214-7.094 7.168 0 3.949 3.183 7.165 7.094 7.165zm89.43-50.843c0-2.614 2.105-4.739 4.69-4.739 2.585 0 4.691 2.125 4.691 4.74 0 2.613-2.104 4.738-4.691 4.738a4.703 4.703 0 0 1-4.191-2.62 4.746 4.746 0 0 1-.499-2.119zm-29.098 39.62a4.61 4.61 0 0 1 2.415-.683 4.701 4.701 0 0 1 4.191 2.623 4.73 4.73 0 0 1 .499 2.117c0 2.613-2.103 4.738-4.69 4.738-2.588 0-4.691-2.125-4.691-4.738 0-.111.009-.222.016-.331a4.747 4.747 0 0 1 2.26-3.725zm-33.65-15.354c0-2.614 2.104-4.74 4.691-4.74 2.587 0 4.69 2.126 4.69 4.74 0 .11-.008.221-.015.33a4.75 4.75 0 0 1-2.26 3.725 4.63 4.63 0 0 1-2.415.684c-.885 0-1.709-.254-2.415-.684a4.746 4.746 0 0 1-2.26-3.725c-.006-.11-.015-.22-.015-.33zM55.356 83.288a4.746 4.746 0 0 1 2.26 3.725c.006.11.015.22.015.33 0 2.614-2.103 4.74-4.69 4.74s-4.69-2.126-4.69-4.74c0-2.614 2.105-4.739 4.69-4.739.885 0 1.709.254 2.415.684z"/>
    </g>
    <defs>
        <linearGradient id="uawcbfxhaa" x1="20.833" y1="0" x2="200" y2="212.5" gradientUnits="userSpaceOnUse">
            <stop stop-color="#273E80"/>
            <stop offset="1" stop-color="#5472C9"/>
        </linearGradient>
        <clipPath id="chw812556b">
            <path fill="#fff" transform="translate(44 36.5)" d="M0 0h112v127H0z"/>
        </clipPath>
    </defs>
</svg>
