<svg width="162" height="165" viewBox="0 0 162 165" fill="none" xmlns="http://www.w3.org/2000/svg">
    <g clip-path="url(#ygzu9qgcla)" fill="#65788A">
        <path d="M33.731 155.683h15.4V73.04c0-5.669 3.05-10.094 8.012-11.821a11.902 11.902 0 0 1 13.123 3.608c2.082 2.497 2.82 5.397 2.816 8.624-.037 26.25-.043 52.498-.019 78.741v3.447h15.419v-61.19c0-5.015 2.284-8.8 6.78-11 4.304-2.119 8.535-1.624 12.371 1.225 3.483 2.589 4.803 6.234 4.796 10.502-.039 19.049-.039 38.096 0 57.141v3.359h15.4V56.023c0-5.999 3.131-10.538 8.294-12.173 7.7-2.435 15.367 3.065 15.623 11.311.136 4.463.026 8.932.026 13.398v87.252h9.203V165H.643v-9.079H9.63c.059-1.294.147-2.339.147-3.388v-64.25c0-6.777 3.996-11.877 9.951-12.801 7.454-1.155 13.816 4.132 13.97 11.715.1 4.737.026 9.478.026 14.216v54.266l.007.004z"/>
        <path d="M140.897 0c3.883.213 7.593 2.383 9.683 6.824 2.142 4.543 1.559 8.965-1.668 12.782s-7.509 5.177-12.316 3.747c-1.874-.557-2.934-.257-4.243 1.06a1580.306 1580.306 0 0 1-19.627 19.426c-1.1 1.078-1.375 1.987-.895 3.556 1.518 4.925.198 9.248-3.7 12.566-3.828 3.26-8.268 3.81-12.785 1.668-4.518-2.141-6.839-5.929-6.795-10.952 0-1.562-.366-2.45-1.793-3.208-5.232-2.78-10.406-5.669-15.554-8.602-1.25-.708-2.141-.734-3.42.102-4.925 3.253-10.34 2.721-14.895-1.048a3.638 3.638 0 0 0-2.984-.587 249.334 249.334 0 0 0-14.3 5.397 3.666 3.666 0 0 0-1.856 2.417c-.938 5.771-5.078 10.046-10.552 10.633-5.592.587-10.634-2.453-12.584-7.608A11.91 11.91 0 0 1 14.917 34.1c4.576-3.194 10.44-2.864 14.876 1.016 1.14 1 2.013 1.136 3.38.597 4.657-1.833 9.402-3.465 14.04-5.36a3.737 3.737 0 0 0 1.903-2.41c1.221-6.713 6.435-11.208 12.709-10.75 6.582.484 11.051 5.5 11.3 12.467a3.736 3.736 0 0 0 1.559 2.669 398.673 398.673 0 0 0 16.03 8.844 3.32 3.32 0 0 0 2.79-.143c3.385-2.105 6.938-2.838 10.7-1.485 1.467.532 2.303.158 3.3-.85a2503.368 2503.368 0 0 1 20.031-19.8c1.1-1.079 1.364-1.959.884-3.532C126.036 7.54 131.792-.073 140.897 0z"/>
    </g>
    <defs>
        <clipPath id="ygzu9qgcla">
            <path fill="#fff" transform="translate(.643)" d="M0 0h160.365v165H0z"/>
        </clipPath>
    </defs>
</svg>
