<svg width="200" height="200" viewBox="0 0 200 200" fill="none" xmlns="http://www.w3.org/2000/svg">
    <rect width="200" height="200" rx="24" fill="#fff"/>
    <g clip-path="url(#gyy931ne2b)" fill="url(#1wfuyo4saa)">
        <path d="M55.639 62.017h46.916c3.329 0 6.053-2.469 6.053-5.486V40.986c0-3.017-2.724-5.486-6.053-5.486H55.639c-3.33 0-6.053 2.468-6.053 5.486V56.53c0 3.017 2.724 5.486 6.053 5.486zM93.037 107.554l-9.641.062-.065-10.1-9.466.061.065 10.098-9.642.062.063 9.915 9.64-.061.065 10.098 9.466-.059-.064-10.099 9.642-.061-.063-9.916zM158.341 122.174c-4.548-10.089-17.071-14.385-27.919-9.577l-30.095 13.341c-10.845 4.808-15.97 16.926-11.421 27.015 4.547 10.089 17.073 14.386 27.918 9.577l30.095-13.34c10.846-4.808 15.969-16.929 11.422-27.016zm-43.168 36.696c-8.678 3.845-18.696.408-22.334-7.663-3.638-8.07.46-17.766 9.137-21.612l14.949-6.627 13.198 29.275-14.95 6.627z"/>
        <path d="M55.639 132.883c-3.33 0-6.053-2.469-6.053-5.486V98.135c0-3.017 2.724-5.486 6.053-5.486h46.916c3.329 0 6.053 2.469 6.053 5.486v20.537l11.603-6.102V88.535l-18.665-20.117h-.505v-4.572h-43.89v5.147L40 88.535v51.663c0 5.029 4.54 9.144 10.09 9.144h34.265c-.377-6.93 1.204-12.849 2.522-16.459H55.64z"/>
    </g>
    <defs>
        <linearGradient id="1wfuyo4saa" x1="-33.333" y1="227.083" x2="239.583" y2="-22.917" gradientUnits="userSpaceOnUse">
            <stop stop-color="#16FFF1"/>
            <stop offset="1" stop-color="#865BFF"/>
        </linearGradient>
        <clipPath id="gyy931ne2b">
            <path fill="url(#1wfuyo4saa)" transform="translate(40 35.5)" d="M0 0h120v129H0z"/>
        </clipPath>
    </defs>
</svg>
