<svg width="151" height="165" viewBox="0 0 151 165" fill="none" xmlns="http://www.w3.org/2000/svg">
    <g clip-path="url(#kegjfoug4a)">
        <path d="M19.883 19.382h7.443a2.11 2.11 0 0 0 2.108-2.112V2.108A2.108 2.108 0 0 0 27.326 0h-7.443a2.112 2.112 0 0 0-2.112 2.108v3.344h-6.435A10.927 10.927 0 0 0 .435 16.368v41.888A38.951 38.951 0 0 0 25.412 94.6a12.547 12.547 0 0 0 6.457 8.631v32.571a29.196 29.196 0 1 0 58.395 0V104.68a17.501 17.501 0 0 1 34.76-2.915 19.459 19.459 0 0 0-13.093 21.67 19.46 19.46 0 0 0 19.409 16.259 19.457 19.457 0 0 0 5.465-38.061 29.198 29.198 0 0 0-58.234 3.047v31.122a17.505 17.505 0 1 1-35.01 0v-32.571a12.56 12.56 0 0 0 6.165-7.531c16.393-4.642 28.512-19.98 28.512-37.98V16.369A10.927 10.927 0 0 0 67.322 5.452h-6.31V2.108A2.112 2.112 0 0 0 58.9 0h-7.444a2.108 2.108 0 0 0-2.108 2.108V17.27a2.108 2.108 0 0 0 2.108 2.112H58.9a2.111 2.111 0 0 0 2.112-2.112v-4.033h6.31a3.123 3.123 0 0 1 3.12 3.12v41.378a31.742 31.742 0 0 1-21.04 29.898 12.522 12.522 0 0 0-22.927-1.048A31.167 31.167 0 0 1 8.23 58.245V16.368a3.124 3.124 0 0 1 3.106-3.12h6.435v4.033a2.112 2.112 0 0 0 2.112 2.101zm122.892 100.859a11.668 11.668 0 0 1-7.201 10.776 11.662 11.662 0 0 1-15.239-15.239 11.665 11.665 0 0 1 10.776-7.201 11.676 11.676 0 0 1 11.664 11.664z" fill="#65788A"/>
    </g>
    <defs>
        <clipPath id="kegjfoug4a">
            <path fill="#fff" transform="translate(.435)" d="M0 0h150.135v165H0z"/>
        </clipPath>
    </defs>
</svg>
