<svg width="200" height="200" viewBox="0 0 200 200" fill="none" xmlns="http://www.w3.org/2000/svg">
    <rect width="200" height="200" rx="24" fill="#fff"/>
    <g clip-path="url(#k59k6az69b)" fill="url(#549qdpu7ja)">
        <path d="M40.483 117.5a62.473 62.473 0 0 0 6.236 14.46l21.516-14.46H40.483zM46.72 68.043a62.63 62.63 0 0 0-6.237 14.46h27.752L46.72 68.042zM117.36 40.003v31.143l24.98-16.787a61.741 61.741 0 0 0-24.98-14.356zM159.52 82.502a62.508 62.508 0 0 0-6.237-14.459l-21.516 14.46h27.753zM82.643 40.003a61.769 61.769 0 0 0-24.98 14.362l24.98 16.787v-31.15zM82.643 160.003v-31.144l-24.98 16.779a61.78 61.78 0 0 0 24.98 14.365zM117.36 160.003a61.784 61.784 0 0 0 24.98-14.365l-24.98-16.787v31.152zM153.283 131.96a61.226 61.226 0 0 0 2.623-4.903 62.318 62.318 0 0 0 3.614-9.557h-27.747l21.51 14.46zM55.21 143.194l27.432-18.445v-7.004l-31.264 21.011a62.274 62.274 0 0 0 3.832 4.438zM144.79 56.81l-27.43 18.443v7.013l31.264-21.01a60.63 60.63 0 0 0-3.834-4.447z"/>
        <path d="M160.908 88.323h-49.321V38.607a61.08 61.08 0 0 0-23.149 0v49.716H39.095a62.69 62.69 0 0 0 0 23.332h49.321v49.744a61.226 61.226 0 0 0 23.149 0V111.68h49.343a62.694 62.694 0 0 0 0-23.333v-.024z"/>
        <path d="M82.643 82.502v-1.41l-30.66-20.62a65.845 65.845 0 0 0-3.46 4.687L74.33 82.502h8.314zM117.36 117.5v1.424l30.66 20.608a63.415 63.415 0 0 0 3.459-4.689L125.68 117.5h-8.32z"/>
    </g>
    <defs>
        <linearGradient id="549qdpu7ja" x1="-345.833" y1="464.583" x2="191.667" y2="-2.083" gradientUnits="userSpaceOnUse">
            <stop offset=".635" stop-color="#B81818"/>
            <stop offset=".932" stop-color="#FF6E4E"/>
        </linearGradient>
        <clipPath id="k59k6az69b">
            <path fill="url(#549qdpu7ja)" transform="translate(38 37.5)" d="M0 0h124v125H0z"/>
        </clipPath>
    </defs>
</svg>
