<svg width="166" height="165" viewBox="0 0 166 165" fill="none" xmlns="http://www.w3.org/2000/svg">
    <g clip-path="url(#kuc8m8o0ba)" fill="#65788A">
        <path d="M4.204 105.6a82.107 82.107 0 0 0 8.3 19.087L41.132 105.6H4.204zM12.503 40.317a82.325 82.325 0 0 0-8.299 19.087h36.929l-28.63-19.087zM106.501 3.303v41.11l33.24-22.159a82.327 82.327 0 0 0-33.24-18.95zM162.601 59.404a82.168 82.168 0 0 0-8.299-19.087l-28.63 19.087h36.929zM60.304 3.303a82.355 82.355 0 0 0-33.24 18.958l33.24 22.16V3.302zM60.304 161.704v-41.11l-33.24 22.148a82.385 82.385 0 0 0 33.24 18.962zM106.501 161.704a82.383 82.383 0 0 0 33.24-18.962l-33.24-22.159v41.121zM154.302 124.687a81.295 81.295 0 0 0 3.49-6.471 81.87 81.87 0 0 0 4.809-12.616h-36.922l28.623 19.087zM23.801 139.516l36.503-24.347v-9.246l-41.601 27.735a82.397 82.397 0 0 0 5.098 5.858zM143 25.488l-36.499 24.346v9.257l41.601-27.734a80.062 80.062 0 0 0-5.102-5.87z"/>
        <path d="M164.447 67.086H98.819V1.46a81.918 81.918 0 0 0-30.803 0v65.625H2.358a82.102 82.102 0 0 0 0 30.799h65.629v65.661a82.116 82.116 0 0 0 30.802 0V97.918h65.658a82.097 82.097 0 0 0 0-30.8v-.032z"/>
        <path d="M60.304 59.404v-1.861l-40.797-27.22a86.981 86.981 0 0 0-4.603 6.188L49.24 59.404h11.063zM106.501 105.6v1.879l40.798 27.202a83.696 83.696 0 0 0 4.602-6.188l-34.33-22.893h-11.07z"/>
    </g>
    <defs>
        <clipPath id="kuc8m8o0ba">
            <path fill="#fff" transform="translate(.9)" d="M0 0h165v165H0z"/>
        </clipPath>
    </defs>
</svg>
