<svg width="181" height="165" viewBox="0 0 181 165" fill="none" xmlns="http://www.w3.org/2000/svg">
    <g clip-path="url(#cubtzg1pga)">
        <path d="M152.508 4.177c-24.617-11.604-44.451 3.577-54.47 14.253a9.767 9.767 0 0 1-14.213 0C73.82 7.754 53.97-7.443 29.354 4.177-6.51 21.107-.948 61.645 6.102 77.297a46.276 46.276 0 0 0 1.653 3.29H44.85a5.234 5.234 0 0 1 4.958 3.301l2.653 7.159L66.467 42.01a5.225 5.225 0 0 1 5.285-3.641 5.15 5.15 0 0 1 4.946 4.033l11.108 57.323 11.584-38.32a5.2 5.2 0 0 1 5.013-3.574h.033a5.2 5.2 0 0 1 5.029 3.513l6.098 19.243h14.045a10.902 10.902 0 0 1 12.312-5.564 10.902 10.902 0 0 1 8.266 10.688 10.9 10.9 0 0 1-20.678 4.703H111.67a5.201 5.201 0 0 1-5.03-3.513l-2.064-6.51-12.805 42.414a5.201 5.201 0 0 1-5.046 3.578h-.256a5.147 5.147 0 0 1-4.91-4.03L70.573 65.726l-12.404 43.331a5.355 5.355 0 0 1-4.885 3.612 5.359 5.359 0 0 1-5.119-3.272l-7.038-18.975h-27.05c16.218 22.544 48.293 53.871 65.431 70.048a16.674 16.674 0 0 0 22.848 0c20.831-19.667 63.741-61.72 73.405-83.172 7.05-15.653 12.612-56.191-23.252-73.12z" fill="#65788A"/>
    </g>
    <defs>
        <clipPath id="cubtzg1pga">
            <path fill="#fff" transform="translate(.9)" d="M0 0h180.061v165H0z"/>
        </clipPath>
    </defs>
</svg>
