<svg width="200" height="200" viewBox="0 0 200 200" fill="none" xmlns="http://www.w3.org/2000/svg">
    <rect width="200" height="200" rx="24" fill="url(#jsg9a99p8a)"/>
    <g clip-path="url(#6yo4u9aqlb)">
        <path d="M151.98 33.544c-20.78-9.846-37.524 3.035-45.982 12.093a8.243 8.243 0 0 1-2.732 1.924 8.206 8.206 0 0 1-6.534 0A8.246 8.246 0 0 1 94 45.637C85.556 36.58 68.8 23.685 48.02 33.544 17.744 47.91 22.439 82.304 28.39 95.586c.399.89.864 1.82 1.395 2.79h31.316a4.402 4.402 0 0 1 2.527.745 4.438 4.438 0 0 1 1.658 2.057l2.24 6.074 11.822-41.607a4.433 4.433 0 0 1 1.703-2.315 4.395 4.395 0 0 1 2.759-.775c.977.016 1.92.362 2.678.983a4.373 4.373 0 0 1 1.496 2.44l9.377 48.638 9.779-32.515a4.41 4.41 0 0 1 1.622-2.213 4.376 4.376 0 0 1 2.61-.82h.027a4.375 4.375 0 0 1 2.607.795 4.412 4.412 0 0 1 1.639 2.187l5.148 16.327h11.856a9.221 9.221 0 0 1 4.381-4.175 9.157 9.157 0 0 1 6.012-.546 9.203 9.203 0 0 1 5.056 3.316 9.28 9.28 0 0 1-.117 11.464 9.197 9.197 0 0 1-5.121 3.212 9.161 9.161 0 0 1-6-.67 9.23 9.23 0 0 1-4.296-4.263h-15.058a4.37 4.37 0 0 1-2.606-.794 4.41 4.41 0 0 1-1.64-2.187l-1.742-5.524-10.809 35.988a4.413 4.413 0 0 1-1.633 2.223 4.378 4.378 0 0 1-2.627.813h-.216a4.327 4.327 0 0 1-2.66-.99 4.365 4.365 0 0 1-1.484-2.429l-9.276-48.048-10.471 36.766a4.55 4.55 0 0 1-1.588 2.177 4.508 4.508 0 0 1-5.125.175 4.538 4.538 0 0 1-1.731-2.064l-5.942-16.099H35.122c13.69 19.128 40.767 45.708 55.234 59.434a14.033 14.033 0 0 0 9.643 3.843c3.584 0 7.033-1.374 9.644-3.843 17.585-16.686 53.808-52.369 61.965-70.57 5.952-13.282 10.647-47.677-19.628-62.042z" fill="#fff"/>
    </g>
    <defs>
        <linearGradient id="jsg9a99p8a" x1="-345.833" y1="464.583" x2="191.667" y2="-2.083" gradientUnits="userSpaceOnUse">
            <stop offset=".594" stop-color="#B81818"/>
            <stop offset="1" stop-color="#FF7979"/>
        </linearGradient>
        <clipPath id="6yo4u9aqlb">
            <path fill="#fff" transform="translate(24 30)" d="M0 0h152v140H0z"/>
        </clipPath>
    </defs>
</svg>
