<svg width="200" height="200" viewBox="0 0 200 200" fill="none" xmlns="http://www.w3.org/2000/svg">
    <rect width="200" height="200" rx="24" fill="url(#wfahczfa8a)"/>
    <g clip-path="url(#ldvt0z7xfb)" fill="#fff">
        <path d="M173.99 106.227c-2.812-1.363-6.379-2.173-10.165-2.561 1.673 1.086 2.738 3.316 3.087 5.822.276 2.119.167 4.608-.441 7.076.183.15.366.314.551.481a6.17 6.17 0 0 1 1.801 4.386 6.163 6.163 0 0 1-1.801 4.367 6.136 6.136 0 0 1-4.356 1.806 6.069 6.069 0 0 1-4.356-1.806 6.18 6.18 0 0 1-1.821-4.367c0-1.715.699-3.262 1.821-4.386a6.147 6.147 0 0 1 5.77-1.639c.404-1.973.497-3.907.257-5.565-.478-3.538-2.408-5.27-4.67-6.395h-.004l-.468-1.529a62.448 62.448 0 0 0 3.78-.22c2.574-.221 4.908-.572 6.617-.958.699-.164 1.122-.867.974-1.565a1.532 1.532 0 0 0-.294-.572c-1.93-2.616-2.427-7.26-2.923-12.236-.901-8.643-1.875-18.168-10.662-21.909-2.775-1.198-5.57-1.548-8.493-1.07-2.719.46-5.514 1.621-8.437 3.52-7.5-1.143-10.072 4.81-11.471 12.236-.385 2.082-.699 4.312-.991 6.504-.699 5.289-1.398 10.447-3.346 13.046a1.276 1.276 0 0 0 .238 1.806c.147.11.313.184.496.221v.017c1.692.387 4.045.739 6.6.958 1.222.108 2.502.182 3.791.22l-.464 1.527c-.138.002-.285.004-.44.004-.516.017-.974.038-1.397.055a1.3 1.3 0 0 0-.533 2.451c2.022 1.144 3.769 2.598 4.946 4.422 1.012 1.585 1.618 3.483 1.618 5.749v19.386c0 .719.568 1.31 1.286 1.31h38.62c.699 0 1.286-.591 1.286-1.31v-21.08c.004-3.778-2.368-6.432-6.006-8.202zm-36.965-1.842.753-2.449h.148a15.852 15.852 0 0 0 4.099 3.168c1.839.996 3.677 1.511 5.11 1.511 1.452 0 3.291-.515 5.128-1.511.191-.102.382-.212.572-.327l.091-.057c.157-.095.314-.193.47-.297l.153-.104c.132-.089.265-.18.397-.277.066-.047.134-.098.2-.147.113-.083.225-.169.336-.256.081-.064.162-.128.244-.195.09-.074.183-.149.273-.227.099-.083.197-.168.293-.255l.187-.171c.125-.113.247-.231.37-.35.017-.015.032-.032.049-.049.151-.15.302-.301.45-.46h.162l.735 2.449c-1.562 1.659-3.033 2.985-4.595 4.074-1.616 1.124-3.381 1.989-5.513 2.671-2.132-.682-3.879-1.549-5.497-2.671-1.582-1.085-3.035-2.412-4.615-4.07zm2.462-4.605a11.774 11.774 0 0 1-2.15-3.743c-.497-1.363-.754-2.837-.827-4.386a.895.895 0 0 0-.036-.238 1.295 1.295 0 0 0-1.326-.996 1.317 1.317 0 0 0-.532.148c-.289.13-.52.123-.695.024-.178-.348-.338-.832-.444-1.37a12.847 12.847 0 0 1-.276-2.673c0-.793.148-1.437.367-1.934.202-.498.477-.847.753-1.051l5.723-2.942c.061-.028.114-.049.178-.098a13.11 13.11 0 0 1 1.157-.663c1.783 3.445 4.449 5.085 7.501 5.785 1.387.316 2.839.424 4.312.418 1.911-.005 3.86-.202 5.761-.4a1.249 1.249 0 0 0 .642-.258c.029-.021.055-.042.082-.063a.684.684 0 0 0 .052-.053c.034-.032.067-.066.097-.102.011-.013.021-.028.032-.044.03-.04.058-.079.085-.123.015-.026.026-.054.04-.08.017-.035.034-.067.047-.101.026-.067.047-.136.062-.207a1.92 1.92 0 0 1 .117-.393l.03-.063c.019-.041.04-.083.063-.12l.011-.022.041-.058c.127.145.218.327.327.528.24.515.387 1.179.387 2.046 0 .664-.054 1.51-.183 2.304-.106.535-.232 1.052-.408 1.469-.232.272-.525.384-.861.227-.134-.063-.27-.1-.408-.116-.03-.004-.058-.01-.088-.013a1.272 1.272 0 0 0-1.343 1.234c-.092 1.549-.349 3.021-.827 4.386a11.777 11.777 0 0 1-2.151 3.742 13.09 13.09 0 0 1-3.767 3.041c-1.452.793-2.849 1.198-3.897 1.198-1.029 0-2.427-.407-3.879-1.198a12.874 12.874 0 0 1-3.769-3.042zm1.035 11.054c1.83 1.21 3.811 2.149 6.245 2.893.256.074.515.074.753 0 2.428-.742 4.403-1.677 6.231-2.885l-6.616 11.636-6.613-11.644z"/>
        <path d="M160.13 118.887a3.596 3.596 0 0 0-1.048 2.544c0 .977.404 1.88 1.048 2.523a3.607 3.607 0 0 0 2.536 1.051c.974 0 1.875-.407 2.517-1.051a3.588 3.588 0 0 0 0-5.067 3.567 3.567 0 0 0-2.517-1.051 3.619 3.619 0 0 0-2.536 1.051zm4.228 2.544c0 .939-.754 1.694-1.69 1.694a1.688 1.688 0 0 1-1.692-1.694c0-.939.753-1.715 1.692-1.715.936 0 1.69.774 1.69 1.715zM67.756 105.952a1.3 1.3 0 0 0-.532-2.451c-.423-.017-.882-.036-1.398-.055-.156 0-.302-.002-.44-.004l-.464-1.527a65.238 65.238 0 0 0 3.791-.22c2.555-.221 4.908-.572 6.6-.958v-.017c.183-.038.35-.11.496-.221.569-.424.68-1.253.238-1.806-1.948-2.597-2.647-7.757-3.346-13.046-.294-2.192-.606-4.422-.99-6.504-1.398-7.426-3.972-13.38-11.472-12.236-2.923-1.899-5.718-3.06-8.437-3.52-2.923-.48-5.718-.128-8.493 1.07-8.786 3.739-9.763 13.264-10.661 21.907-.497 4.977-.994 9.62-2.924 12.236-.128.165-.24.35-.294.572-.147.7.276 1.401.974 1.565 1.71.386 4.043.739 6.617.958 1.214.108 2.489.184 3.78.22l-.468 1.529h-.004c-2.26 1.125-4.19 2.855-4.67 6.394-.238 1.659-.147 3.593.257 5.566a6.15 6.15 0 0 1 5.77 1.639 6.189 6.189 0 0 1 1.821 4.386 6.181 6.181 0 0 1-1.82 4.367 6.07 6.07 0 0 1-4.356 1.806 6.137 6.137 0 0 1-4.357-1.806 6.165 6.165 0 0 1-1.801-4.367c0-1.715.68-3.262 1.801-4.386.185-.167.369-.331.552-.481-.607-2.468-.716-4.957-.442-7.076.35-2.506 1.416-4.736 3.087-5.822-3.786.388-7.353 1.198-10.164 2.561-3.635 1.772-6.007 4.426-6.007 8.204v21.08c0 .719.59 1.309 1.286 1.309h38.62c.718 0 1.286-.59 1.286-1.309v-19.386c0-2.266.607-4.164 1.619-5.749 1.176-1.825 2.923-3.28 4.945-4.422zm-22.555-6.173a11.782 11.782 0 0 1-2.151-3.742c-.478-1.363-.734-2.837-.827-4.386a1.272 1.272 0 0 0-1.343-1.234.681.681 0 0 0-.088.013 1.31 1.31 0 0 0-.408.116c-.338.157-.629.045-.861-.228-.174-.416-.3-.933-.408-1.468a15.104 15.104 0 0 1-.183-2.304c0-.867.147-1.53.387-2.046.11-.201.2-.383.326-.528.014.019.029.037.042.058l.011.02c.023.039.044.079.063.122l.03.063c.05.12.09.253.117.393.015.07.036.14.062.207.014.036.032.068.047.1.014.026.025.055.04.081.025.044.055.084.085.123.011.016.02.03.032.044.03.036.063.07.096.102.017.017.034.036.053.053a.813.813 0 0 0 .082.063.913.913 0 0 0 .143.094c.151.085.317.146.499.163 1.901.199 3.848.396 5.76.401 1.474.006 2.926-.104 4.313-.418 3.052-.7 5.716-2.34 7.5-5.785.369.184.754.405 1.158.663.064.049.115.07.178.098l5.723 2.942c.276.202.551.553.753 1.05.221.498.367 1.144.367 1.935 0 .774-.074 1.768-.276 2.673-.108.537-.266 1.02-.444 1.37-.175.099-.406.106-.695-.024a1.36 1.36 0 0 0-.532-.148 1.293 1.293 0 0 0-1.326.998.921.921 0 0 0-.034.236c-.073 1.549-.33 3.021-.827 4.386a11.782 11.782 0 0 1-2.15 3.743 12.805 12.805 0 0 1-3.767 3.04c-1.453.793-2.85 1.198-3.879 1.198-1.048 0-2.445-.407-3.897-1.198a13.021 13.021 0 0 1-3.771-3.039zm-2.444 4.606.735-2.45h.162c.147.158.297.309.45.459l.049.049a14.921 14.921 0 0 0 .557.52 15.075 15.075 0 0 0 .566.485c.081.066.16.131.242.195.111.087.225.172.338.257a10.678 10.678 0 0 0 .599.424l.153.104a20.17 20.17 0 0 0 .56.354c.191.114.382.224.572.328 1.838.996 3.677 1.51 5.129 1.51 1.433 0 3.272-.514 5.11-1.51a15.855 15.855 0 0 0 4.099-3.169h.147l.754 2.45c-1.58 1.658-3.033 2.985-4.613 4.073-1.618 1.125-3.365 1.99-5.497 2.671-2.132-.681-3.897-1.548-5.514-2.671-1.565-1.094-3.036-2.421-4.598-4.079zm3.494 6.459c1.826 1.205 3.803 2.141 6.23 2.883.24.073.497.073.754 0 2.434-.744 4.415-1.683 6.245-2.893l-6.613 11.645-6.616-11.635z"/>
        <path d="M34.815 123.954a3.566 3.566 0 0 0 2.517 1.051c.994 0 1.875-.407 2.536-1.051a3.584 3.584 0 0 0-2.536-6.118 3.56 3.56 0 0 0-2.517 1.051 3.584 3.584 0 0 0 0 5.067zm2.52-4.238c.938 0 1.691.774 1.691 1.715 0 .939-.753 1.694-1.692 1.694-.936 0-1.69-.755-1.69-1.694a1.702 1.702 0 0 1 1.69-1.715zM114.636 121.007a4.123 4.123 0 0 0-1.212 2.93c0 1.161.458 2.192 1.212 2.948a4.118 4.118 0 0 0 2.942 1.217 4.114 4.114 0 0 0 2.923-1.217 4.142 4.142 0 0 0 1.214-2.948 4.12 4.12 0 0 0-1.214-2.93 4.11 4.11 0 0 0-2.923-1.217c-1.16 0-2.189.462-2.942 1.217zm4.834 2.93c0 1.051-.846 1.916-1.892 1.916a1.923 1.923 0 0 1-1.911-1.916c0-1.05.863-1.898 1.911-1.898 1.046 0 1.892.846 1.892 1.898z"/>
        <path d="M130.15 107.094c-3.125-1.53-7.132-2.433-11.379-2.857 1.93 1.106 3.014 3.593 3.401 6.376.312 2.377.166 5.177-.533 7.941.257.183.478.386.699.607a6.756 6.756 0 0 1 1.966 4.772c0 1.88-.754 3.557-1.966 4.791a6.745 6.745 0 0 1-4.76 1.973 6.756 6.756 0 0 1-4.779-1.973 6.793 6.793 0 0 1-1.968-4.791c0-1.86.753-3.557 1.968-4.772a6.755 6.755 0 0 1 4.779-1.972c.57 0 1.138.074 1.69.202.496-2.248.589-4.514.33-6.432-.57-4.145-2.738-5.62-5.496-6.983h-.008l-1.577-5.19a16.378 16.378 0 0 0 2.485-7.176c.791.035 1.471-.277 2.023-.847.515-.533.9-1.272 1.157-2.1.495-1.492.68-3.41.68-4.773 0-1.4-.276-2.58-.716-3.5a5.681 5.681 0 0 0-1.367-1.86c1.19-5.34.061-9.649-2.328-12.882-1.654-2.211-3.914-3.888-6.415-5.012A19.112 19.112 0 0 0 100.225 59c-4.137.017-8.033 1.456-10.369 4.386a7.606 7.606 0 0 0-1.6.295c-1.855.534-3.345 1.713-4.336 3.426-.939 1.642-1.417 3.76-1.343 6.302.05 1.61.306 3.402.816 5.365a5.796 5.796 0 0 0-1.203 1.803c-.385.904-.625 2.009-.625 3.317 0 1.363.183 3.28.66 4.772.276.83.662 1.567 1.177 2.101.552.572 1.231.884 2.022.846a16.383 16.383 0 0 0 2.484 7.173l-1.577 5.192h-.004c-2.353 1.308-4.045 3.076-4.962 5.675-.35.977-.552 2.063-.59 3.152a5.873 5.873 0 0 1 1.968-.055c.827.093 1.635.35 2.372.755a7.007 7.007 0 0 1 1.984 1.53 6.422 6.422 0 0 1 1.25 2.12l3.42 9.71c.276.775.423 1.42.442 1.992.019.755-.183 1.363-.644 1.898-.387.441-.92.773-1.618 1.051-.587.24-1.286.441-2.132.663a1.272 1.272 0 0 1-1.58-.903 1.304 1.304 0 0 1 .919-1.602 19.568 19.568 0 0 0 1.82-.553c.33-.128.552-.238.625-.35.02-.017.02-.055.02-.147 0-.258-.11-.646-.295-1.178l-3.42-9.711a4.131 4.131 0 0 0-.735-1.253 5.302 5.302 0 0 0-1.25-.976 4.243 4.243 0 0 0-1.488-.462 3.55 3.55 0 0 0-1.454.092l-2.205.589a3.6 3.6 0 0 0-1.305.646c-.423.314-.772.7-1.048 1.143-.275.46-.496.958-.589 1.475-.11.478-.128.976-.036 1.474l1.894 10.116c.093.534.202.92.33 1.16.037.074.074.11.093.11.13.055.368.036.699 0 .478-.074 1.103-.221 1.875-.441a1.317 1.317 0 0 1 1.6.922c.184.7-.239 1.418-.92 1.601-.863.222-1.562.388-2.187.481-.735.11-1.36.091-1.91-.093-.68-.24-1.158-.662-1.527-1.327-.256-.497-.441-1.124-.606-1.953l-1.875-10.116a6.476 6.476 0 0 1 .036-2.451 7.185 7.185 0 0 1 .939-2.34c.44-.7 1.01-1.327 1.673-1.842a6.553 6.553 0 0 1 2.186-1.069l.093-.017c-.036-1.604.22-3.245.736-4.698.587-1.642 1.69-3.593 3.18-4.589-4.411.405-8.601 1.308-11.838 2.894-4.007 1.954-6.635 4.884-6.635 9.03V139.7c0 .719.59 1.308 1.305 1.308h70.566a1.31 1.31 0 0 0 1.305-1.308v-23.577c-.004-4.145-2.632-7.076-6.658-9.029zm-41.413-2.156 1.099-3.637a18.085 18.085 0 0 0 4.622 3.574l.117.063c.07.038.14.074.21.109 1.486.767 2.957 1.25 4.244 1.439l.021.004c.074.011.146.019.217.028.048.006.093.012.14.015l.17.017c.064.006.128.01.19.014l.125.007c.106.006.212.008.314.008.102 0 .208-.004.315-.008l.136-.007c.059-.004.119-.008.178-.014l.188-.017.106-.011c1.39-.163 3.001-.676 4.625-1.529l.054-.029c.074-.038.146-.077.219-.117.095-.051.189-.104.284-.157a18.132 18.132 0 0 0 4.286-3.385l1.099 3.636c-1.802 1.88-3.456 3.41-5.238 4.646-1.839 1.253-3.824 2.247-6.25 3.021-2.408-.774-4.411-1.768-6.232-3.021-1.784-1.24-3.457-2.77-5.24-4.649zM85.849 88.74c-.202.166-.366.24-.477.276-.038 0-.074-.019-.129-.074-.202-.202-.387-.607-.551-1.086-.385-1.198-.533-2.802-.533-3.962 0-.939.166-1.694.423-2.285.184-.458.421-.79.676-1.047 1.74.072 3.516-.454 5.114-1.404a12.265 12.265 0 0 0 3.234-2.783c2.17 2.838 5.828 4.736 9.687 5.566 3.916.846 8.088.607 11.158-.849.276-.138.546-.285.81-.44.202.22.385.497.551.829.276.607.459 1.4.459 2.413 0 1.162-.147 2.764-.532 3.962-.166.479-.35.884-.552 1.086-.054.055-.092.074-.128.074a1.705 1.705 0 0 1-.44-.24 1.333 1.333 0 0 0-.81-.295c-.716 0-1.305.588-1.305 1.308 0 3.183-.97 5.85-2.419 7.982-.03.038-.056.078-.081.117-.028.042-.059.082-.087.122-.096.138-.196.27-.296.403-.085.111-.17.223-.259.333a15.396 15.396 0 0 1-1.803 1.874c-.093.081-.183.165-.276.242l-.075.061c-.576.475-1.169.899-1.764 1.266-1.443.882-2.876 1.444-4.092 1.672l-.021.003a5.316 5.316 0 0 1-.619.087l-.121.01a5.76 5.76 0 0 1-.387.017c-.123 0-.251-.008-.38-.015l-.128-.01a6.542 6.542 0 0 1-.321-.037c-1.267-.184-2.823-.765-4.39-1.723a15.65 15.65 0 0 1-3.53-2.985c-.058-.067-.113-.136-.171-.203a12.873 12.873 0 0 1-.727-.935c-1.562-2.179-2.629-4.944-2.629-8.28 0-.276-.092-.552-.257-.772a1.297 1.297 0 0 0-1.822-.278zm6.5 22.849c.053.036.104.076.155.112 2.131 1.492 4.467 2.616 7.334 3.5.256.074.532.074.772-.017 2.849-.867 5.183-1.991 7.317-3.483.047-.032.094-.068.142-.102l-7.863 13.83-7.857-13.84z"/>
    </g>
    <defs>
        <linearGradient id="wfahczfa8a" x1="-33.333" y1="227.083" x2="239.583" y2="-22.917" gradientUnits="userSpaceOnUse">
            <stop stop-color="#85FFF8"/>
            <stop offset="1" stop-color="#118E9F"/>
        </linearGradient>
        <clipPath id="ldvt0z7xfb">
            <path fill="#fff" transform="translate(20 59)" d="M0 0h160v82H0z"/>
        </clipPath>
    </defs>
</svg>
