

<svg width="199" height="100" viewBox="0 0 199 100" fill="none" xmlns="http://www.w3.org/2000/svg">
<g clip-path="url(#3vxkf7a0ma)">
    <path d="M54.66 90.097a31.767 31.767 0 0 0 8.117-31.417l4.21-4.21a8.08 8.08 0 0 0 0-11.413L63.6 39.666l5.196-5.191a11.192 11.192 0 0 0 13.746-1.597l8.284-8.284a11.192 11.192 0 0 0 1.596-13.746l5.096-5.096a1.845 1.845 0 0 1 2.6 0l4.635 4.64a11.196 11.196 0 0 0 1.601 13.75l8.288 8.284a11.123 11.123 0 0 0 13.747 1.6l6.199 6.205-3.391 3.387a8.08 8.08 0 0 0 0 11.413l4.21 4.21a31.948 31.948 0 0 0 14.482 36.344 31.947 31.947 0 1 0 7.399-58.225l-4.21-4.21a8.087 8.087 0 0 0-11.418 0l-3.387 3.387-6.204-6.204a11.19 11.19 0 0 0-1.6-13.747l-8.284-8.284a11.2 11.2 0 0 0-13.747-1.6l-4.634-4.635a7.07 7.07 0 0 0-9.98 0l-5.092 5.091a11.192 11.192 0 0 0-13.75 1.601l-8.284 8.284a11.128 11.128 0 0 0-1.601 13.75l-5.191 5.187-3.387-3.386a8.08 8.08 0 0 0-11.413 0l-4.21 4.21A31.947 31.947 0 1 0 54.66 90.101v-.005zM179.233 81.2a18.576 18.576 0 0 1-30.681-19.205 18.706 18.706 0 0 1 11.513-11.503 18.574 18.574 0 0 1 19.168 30.707zm-29.844-44.355 2.564 2.564c-.868.43-1.714.904-2.541 1.42-.272.167-.534.352-.801.529-.628.411-1.239.845-1.84 1.302-.308.24-.615.452-.904.724a41.352 41.352 0 0 0-2.049 1.808c-.095.095-.199.172-.294.263-.095.09-.163.194-.253.285a32.906 32.906 0 0 0-1.849 2.066c-.245.298-.453.601-.71.904a31.048 31.048 0 0 0-1.321 1.863c-.172.262-.352.511-.511.778-.514.82-.986 1.665-1.415 2.532l-2.573-2.527a2.852 2.852 0 0 1 0-4.034l10.464-10.463a2.85 2.85 0 0 1 4.038-.014h-.005zm-30.893-24.87 8.284 8.284a5.955 5.955 0 0 1 1.397 6.163l-.28-.276a2.61 2.61 0 0 0-3.69 3.69l.285.28a5.878 5.878 0 0 1-6.163-1.37l-8.284-8.288a5.952 5.952 0 0 1-1.402-6.163l1.112 1.108a2.61 2.61 0 0 0 3.69-3.69l-1.108-1.108a5.965 5.965 0 0 1 6.163 1.41l-.004-.04zM68.642 24.965a5.937 5.937 0 0 1 1.745-4.232l8.284-8.266a5.965 5.965 0 0 1 6.168-1.397l-1.316 1.316a2.612 2.612 0 0 0-.003 3.692 2.609 2.609 0 0 0 3.693-.003l1.311-1.311a5.955 5.955 0 0 1-1.392 6.163l-8.289 8.27a5.945 5.945 0 0 1-6.159 1.393l.765-.764a2.61 2.61 0 1 0-3.695-3.69l-.768.77a5.901 5.901 0 0 1-.344-1.94zM48.796 36.27a2.853 2.853 0 0 1 4.033 0l10.468 10.468a2.853 2.853 0 0 1 0 4.033l-2.568 2.564c-.452-.882-.905-1.736-1.438-2.573a6.496 6.496 0 0 0-.452-.656 31.634 31.634 0 0 0-1.456-2.057c-.19-.244-.376-.488-.57-.728a33.168 33.168 0 0 0-2.17-2.428 31.325 31.325 0 0 0-2.429-2.17c-.24-.195-.484-.38-.728-.57a32.745 32.745 0 0 0-2.062-1.465c-.217-.14-.43-.29-.646-.425a32.252 32.252 0 0 0-2.564-1.43l2.582-2.563zM18.952 54.357a18.503 18.503 0 0 1 19.208-4.436c2.66.915 5.074 2.43 7.054 4.427a18.566 18.566 0 1 1-26.262 0v.009z" fill="#65788A"/>
</g>
<defs>
    <clipPath id="3vxkf7a0ma">
        <path fill="#fff" transform="translate(.14)" d="M0 0h197.902v100H0z"/>
    </clipPath>
</defs>
</svg>

