<svg width="208" height="165" viewBox="0 0 208 165" fill="none" xmlns="http://www.w3.org/2000/svg">
    <g clip-path="url(#ktlpc5h6ta)" fill-rule="evenodd" clip-rule="evenodd" fill="#65788A">
        <path d="M6.59 150.2h194.489c8.768 0 8.768 14.8 0 14.8H6.59c-8.768 0-8.768-14.8 0-14.8zM92.265 0c-8.768 0-8.768 15.146 0 15.146h23.476c8.768 0 8.768-15.146 0-15.146H92.265zM96.728 42.923c-51.373 0-92.8 41.917-92.8 93.192a2.866 2.866 0 0 0 2.865 2.848h193.903a2.873 2.873 0 0 0 2.866-2.848c0-51.275-41.432-93.192-92.805-93.192h-14.03zM110.715 24.039H97.291v9.382h13.424v-9.382z"/>
    </g>
    <defs>
        <clipPath id="ktlpc5h6ta">
            <path fill="#fff" d="M0 0h207.669v165H0z"/>
        </clipPath>
    </defs>
</svg>
