<svg width="200" height="200" viewBox="0 0 200 200" fill="none" xmlns="http://www.w3.org/2000/svg">
    <rect width="200" height="200" rx="24" fill="#fff"/>
    <g clip-path="url(#ssyjpbopdb)" fill="url(#wwgtuip6ka)">
        <path d="M164.208 64.598c-6.947-5.695-19.089-9.098-32.485-9.098-12.882 0-24.57 3.141-31.83 8.476C94.3 58.636 83.244 55.5 69.65 55.5c-14.002 0-26.973 3.49-33.852 9.095A2.159 2.159 0 0 0 35 66.28v74.707c0 1.295 1.959 3.517 4.775 3.517h120.496c1.99 0 4.729-1.021 4.729-3.275V66.279a2.182 2.182 0 0 0-.792-1.68zM97.75 68.007v68.992c-5.972-5.052-16.028-7.97-28.257-7.97-9.793 0-19.052 1.975-26.107 5.349V65.002s9.204-5.168 26.552-5.168c19.965 0 27.812 7.629 27.812 8.173zm58.762-3.112v69.599c-7.366-3.152-17.472-4.639-26.323-4.639-12.549 0-22.727 2.662-28.615 7.295V68.178s9.219-8.344 30.149-8.344c16.056 0 24.789 5.06 24.789 5.06z"/>
        <path d="M89.453 76.698c-.28 0-.553-.081-.786-.236-6.266-4.072-19.933-6.538-35.094-2.272-.37.105-.765.057-1.1-.132a1.464 1.464 0 0 1-.552-1.983c.19-.337.502-.584.872-.688 13.748-3.866 29.143-2.784 37.445 2.635a1.453 1.453 0 0 1 .602 1.634 1.454 1.454 0 0 1-.522.753c-.25.188-.553.29-.865.289zM89.427 87.864c-.28 0-.552-.082-.786-.236-6.15-4.014-19.754-6.364-35.092-2.036a1.437 1.437 0 0 1-1.544-.492 1.458 1.458 0 0 1-.12-1.626 1.452 1.452 0 0 1 .887-.683c13.881-3.912 29.282-2.923 37.44 2.403.264.17.465.421.575.716a1.464 1.464 0 0 1-.492 1.675 1.438 1.438 0 0 1-.868.288v-.01zM89.64 99.042c-.278 0-.55-.082-.785-.233-6.183-4.031-19.876-6.399-35.32-2.036a1.435 1.435 0 0 1-1.544-.492 1.457 1.457 0 0 1-.12-1.626 1.452 1.452 0 0 1 .887-.683c13.976-3.932 29.467-2.943 37.668 2.403a1.453 1.453 0 0 1 .602 1.633 1.454 1.454 0 0 1-.522.754c-.25.188-.554.289-.866.288v-.008zM89.854 110.304a1.435 1.435 0 0 1-.783-.236c-7.8-5.093-21.427-5.791-35.533-1.818-.37.104-.764.056-1.098-.134a1.45 1.45 0 0 1-.683-.876 1.464 1.464 0 0 1 .133-1.106c.188-.337.502-.584.87-.687 15.116-4.253 29.283-3.438 37.895 2.178a1.454 1.454 0 0 1 .605 1.638 1.457 1.457 0 0 1-.524.755 1.436 1.436 0 0 1-.87.286h-.012zM89.843 121.606c-.28 0-.552-.082-.786-.235-7.13-4.654-23.776-6.344-35.39-1.644-.355.144-.753.14-1.106-.012a1.45 1.45 0 0 1-.774-.796 1.465 1.465 0 0 1 .803-1.894c12.778-5.168 30.302-3.144 38.038 1.903.264.169.465.421.575.716a1.464 1.464 0 0 1-.492 1.675 1.434 1.434 0 0 1-.868.287zM110.085 76.698a1.44 1.44 0 0 1-.867-.288 1.459 1.459 0 0 1 .078-2.388c8.378-5.468 23.955-6.553 37.888-2.635.37.103.683.35.871.687a1.466 1.466 0 0 1-.549 1.983 1.44 1.44 0 0 1-1.099.134c-14.707-4.14-29.01-1.987-35.533 2.271a1.419 1.419 0 0 1-.789.236zM110.111 88.027a1.451 1.451 0 0 1-1.387-1.042 1.456 1.456 0 0 1 .601-1.634c8.378-5.466 23.955-6.55 37.888-2.618a1.448 1.448 0 0 1 1.044 1.227 1.46 1.46 0 0 1-.726 1.441 1.444 1.444 0 0 1-1.098.133c-14.704-4.136-29.01-1.987-35.533 2.274a1.439 1.439 0 0 1-.789.219zM110.111 99.356a1.44 1.44 0 0 1-.867-.288 1.458 1.458 0 0 1 .078-2.388c8.378-5.469 23.978-6.548 37.888-2.618a1.437 1.437 0 0 1 .871.687 1.47 1.47 0 0 1 .133 1.106 1.461 1.461 0 0 1-.683.877 1.433 1.433 0 0 1-1.098.134c-14.699-4.14-29.004-1.993-35.533 2.269a1.44 1.44 0 0 1-.789.22zM110.128 110.499a1.45 1.45 0 0 1-1.389-1.041 1.457 1.457 0 0 1 .601-1.635c6.841-4.465 23.27-6.745 37.887-2.633a1.442 1.442 0 0 1 .887.683 1.452 1.452 0 0 1 .139 1.115 1.46 1.46 0 0 1-.693.882 1.44 1.44 0 0 1-1.11.121c-13.404-3.781-29.198-1.864-35.533 2.275a1.461 1.461 0 0 1-.789.233zM110.137 121.836a1.438 1.438 0 0 1-1.394-1.041 1.455 1.455 0 0 1 .605-1.638c8.378-5.471 23.964-6.556 37.894-2.632.363.109.67.357.853.691a1.463 1.463 0 0 1-.545 1.964c-.329.19-.719.243-1.085.146-14.708-4.136-29.013-1.989-35.534 2.275a1.46 1.46 0 0 1-.794.235z"/>
    </g>
    <defs>
        <linearGradient id="wwgtuip6ka" x1="0" y1="208.333" x2="216.667" y2="-6.25" gradientUnits="userSpaceOnUse">
            <stop stop-color="#234ACD" stop-opacity=".667"/>
            <stop offset="1" stop-color="#234ACD"/>
        </linearGradient>
        <clipPath id="ssyjpbopdb">
            <path fill="url(#wwgtuip6ka)" transform="translate(35 55.5)" d="M0 0h130v89H0z"/>
        </clipPath>
    </defs>
</svg>
