<svg width="178" height="120" viewBox="0 0 178 120" fill="none" xmlns="http://www.w3.org/2000/svg">
    <g clip-path="url(#j57afgr86a)" fill="#65788A">
        <path d="M176.036 12.267C166.604 4.588 150.121 0 131.936 0c-17.487 0-33.354 4.235-43.209 11.428C81.135 4.228 66.127 0 47.671 0 28.662 0 11.054 4.706 1.716 12.263a2.914 2.914 0 0 0-1.082 2.27v100.73c0 1.745 2.659 4.741 6.482 4.741H170.69c2.702 0 6.42-1.377 6.42-4.416V14.534a2.925 2.925 0 0 0-1.074-2.267zm-90.219 4.596v93.023c-8.106-6.812-21.757-10.745-38.358-10.745-13.295 0-25.864 2.662-35.44 7.212v-93.54s12.494-6.97 36.044-6.97c27.103 0 37.754 10.287 37.754 11.02zm79.771-4.196v93.842c-10-4.251-23.718-6.255-35.734-6.255-17.036 0-30.852 3.589-38.845 9.836V17.095s12.515-11.252 40.927-11.252c21.797 0 33.652 6.824 33.652 6.824z"/>
        <path d="M74.554 28.581c-.379.001-.75-.11-1.067-.317-8.506-5.49-27.06-8.816-47.64-3.063a1.963 1.963 0 1 1-1.06-3.78c18.664-5.213 39.563-3.754 50.834 3.552a1.961 1.961 0 0 1-1.067 3.608zM74.519 43.637c-.38-.001-.75-.111-1.067-.318-8.35-5.412-26.817-8.58-47.637-2.745a1.96 1.96 0 1 1-1.055-3.777c18.844-5.274 39.75-3.941 50.825 3.24a1.96 1.96 0 0 1-1.066 3.611v-.011zM74.809 58.708c-.378-.001-.748-.11-1.067-.314-8.392-5.435-26.981-8.628-47.947-2.745a1.96 1.96 0 1 1-1.054-3.777c18.973-5.302 40-3.968 51.135 3.24a1.961 1.961 0 0 1-1.067 3.608v-.012zM75.1 73.893a1.96 1.96 0 0 1-1.064-.318C63.448 66.708 44.95 65.767 25.8 71.124a1.963 1.963 0 1 1-1.055-3.78c20.519-5.734 39.75-4.636 51.441 2.937a1.96 1.96 0 0 1-1.07 3.612h-.016zM75.083 89.132c-.378 0-.749-.11-1.066-.317-9.679-6.275-32.276-8.553-48.041-2.216a1.963 1.963 0 1 1-1.463-3.643c17.346-6.97 41.135-4.24 51.637 2.565a1.96 1.96 0 0 1-1.067 3.611zM102.563 28.581a1.961 1.961 0 0 1-1.071-3.608c11.373-7.373 32.519-8.835 51.433-3.553a1.962 1.962 0 1 1-1.055 3.78c-19.965-5.58-39.381-2.678-48.237 3.064-.318.208-.69.319-1.07.317zM102.598 43.856a1.96 1.96 0 0 1-1.067-3.608c11.373-7.369 32.519-8.831 51.433-3.53a1.968 1.968 0 0 1 1.181.928 1.97 1.97 0 0 1 .178 1.49 1.953 1.953 0 0 1-.927 1.18 1.964 1.964 0 0 1-1.49.18c-19.962-5.577-39.382-2.68-48.237 3.066-.321.2-.693.301-1.071.294zM102.598 59.131a1.96 1.96 0 0 1-1.071-3.608c11.373-7.372 32.55-8.827 51.433-3.53a1.96 1.96 0 0 1 1.017 3.102 1.965 1.965 0 0 1-2.072.68c-19.953-5.581-39.373-2.687-48.236 3.058-.321.2-.693.304-1.071.298zM102.622 74.155a1.96 1.96 0 0 1-1.071-3.608c9.287-6.02 31.589-9.094 51.433-3.549a1.963 1.963 0 0 1 1.392 2.425 1.952 1.952 0 0 1-.94 1.189 1.96 1.96 0 0 1-1.507.163c-18.197-5.098-39.637-2.514-48.237 3.067a1.982 1.982 0 0 1-1.07.313zM102.633 89.442a1.958 1.958 0 0 1-1.893-1.403 1.968 1.968 0 0 1 .823-2.209c11.373-7.376 32.53-8.84 51.441-3.549a1.962 1.962 0 0 1-1.055 3.777c-19.966-5.577-39.386-2.683-48.237 3.066a1.99 1.99 0 0 1-1.079.318z"/>
    </g>
    <defs>
        <clipPath id="j57afgr86a">
            <path fill="#fff" transform="translate(.634)" d="M0 0h176.476v120H0z"/>
        </clipPath>
    </defs>
</svg>
