<svg width="91" height="91" viewBox="0 0 91 91" fill="none" xmlns="http://www.w3.org/2000/svg">
    <rect y=".131" width="91" height="90" rx="20" fill="#fff"/>
    <g clip-path="url(#elb8qp2g8a)" fill="#689DFF">
        <path d="M53.413 51.523c-.043 1.608-3.567 2.908-7.914 2.908-4.348 0-7.87-1.3-7.913-2.91C27.654 59.092 21 50.28 21 68.18c0 2.938 7.752 5.95 24.5 5.95S70 71.12 70 68.179c0-17.9-6.654-9.087-16.587-16.656zM32.867 37.88c.33 1.843 1.165 3.267 1.932 3.374 1.161 3.118 3.127 6.123 5.555 8.008 1.57 1.22 3.33 1.975 5.194 1.975 1.864 0 3.608-.746 5.165-1.954 2.445-1.887 4.427-4.913 5.593-8.05.737-.216 1.512-1.595 1.827-3.356a7.315 7.315 0 0 0 .05-2.51H32.817a7.354 7.354 0 0 0 .05 2.513zM32.83 32.949h25.84c.484 0 .947-.19 1.29-.526.341-.337.533-.794.533-1.27 0-.477-.192-.934-.534-1.27a1.837 1.837 0 0 0-1.289-.527h-.49a12.115 12.115 0 0 0-1.842-6.41 12.362 12.362 0 0 0-4.974-4.511l-1.033 5.757a.936.936 0 0 1-.325.556.961.961 0 0 1-1.393-.18.93.93 0 0 1-.156-.702l1.17-6.574a2.474 2.474 0 0 0-.906-.851 2.519 2.519 0 0 0-1.212-.31h-3.523a2.52 2.52 0 0 0-1.208.311c-.37.203-.68.495-.903.85l1.175 6.569a.924.924 0 0 1-.158.702.947.947 0 0 1-.616.385.963.963 0 0 1-.776-.207.938.938 0 0 1-.325-.554l-1.038-5.751a12.349 12.349 0 0 0-4.975 4.51 12.102 12.102 0 0 0-1.84 6.41h-.5c-.483 0-.946.19-1.288.526a1.783 1.783 0 0 0-.534 1.27c0 .477.192.934.534 1.27.342.338.806.527 1.289.527h.007z"/>
    </g>
    <defs>
        <clipPath id="elb8qp2g8a">
            <path fill="#fff" transform="translate(21 16.131)" d="M0 0h49v58H0z"/>
        </clipPath>
    </defs>
</svg>
