<svg width="138" height="165" viewBox="0 0 138 165" fill="none" xmlns="http://www.w3.org/2000/svg">
    <g clip-path="url(#6wdo8pewha)" fill="#65788A">
        <path d="M91.319 100.684c-.12 4.574-10 8.272-22.187 8.272-12.188 0-22.063-3.698-22.183-8.276C19.109 122.215.455 97.143.455 148.066c0 8.358 21.73 16.926 68.68 16.926 46.952 0 68.682-8.557 68.682-16.926 0-50.923-18.654-25.851-46.498-47.382zM33.724 61.87c.925 5.245 3.263 9.295 5.413 9.598 3.256 8.872 8.767 17.422 15.575 22.783 4.398 3.473 9.332 5.62 14.558 5.62 5.227 0 10.116-2.125 14.48-5.56 6.853-5.369 12.41-13.978 15.68-22.903 2.064-.614 4.237-4.537 5.121-9.546a21.09 21.09 0 0 0 .139-7.14H33.581a21.226 21.226 0 0 0 .142 7.148zM32.914 47.843h72.439a5.111 5.111 0 0 0 0-10.22h-1.375a34.84 34.84 0 0 0-19.107-31.07l-2.896 16.38a2.671 2.671 0 0 1-4.062 1.788 2.664 2.664 0 0 1-1.19-2.718L80 3.301A6.98 6.98 0 0 0 74.066 0H64.19a6.98 6.98 0 0 0-5.92 3.3l3.294 18.688a2.667 2.667 0 0 1-2.17 3.095 2.446 2.446 0 0 1-.464.041 2.68 2.68 0 0 1-2.622-2.207L53.4 6.557a34.805 34.805 0 0 0-19.107 31.065h-1.397a5.11 5.11 0 1 0 0 10.22h.018z"/>
    </g>
    <defs>
        <clipPath id="6wdo8pewha">
            <path fill="#fff" transform="translate(.455)" d="M0 0h137.362v165H0z"/>
        </clipPath>
    </defs>
</svg>
