<svg width="92" height="91" viewBox="0 0 92 91" fill="none" xmlns="http://www.w3.org/2000/svg">
    <rect x=".059" y=".131" width="91" height="90" rx="20" fill="url(#b2y094iqga)"/>
    <path d="M72.773 52.779c-.631-.001-1.249.18-1.779.524l-5.368-5.073h-5.024V36.2h2.465c.15.809.596 1.532 1.25 2.027a3.28 3.28 0 0 0 4.411-.41 3.305 3.305 0 0 0 0-4.446 3.284 3.284 0 0 0-4.41-.41 3.301 3.301 0 0 0-1.251 2.026H60.6v-1.923a4.51 4.51 0 0 0-1.315-3.177 4.48 4.48 0 0 0-3.167-1.318h-6.183v-8.102a3.286 3.286 0 0 0 2.02-1.255 3.307 3.307 0 0 0-.41-4.426 3.282 3.282 0 0 0-4.43 0 3.303 3.303 0 0 0 1.61 5.68v8.103H37.871v-5.96l-3.32-4.374a3.311 3.311 0 0 0-.715-4.39 3.283 3.283 0 0 0-4.423.309 3.308 3.308 0 0 0-.101 4.448 3.287 3.287 0 0 0 4.404.511l2.945 4v5.484a4.482 4.482 0 0 0-2.826 1.477 4.512 4.512 0 0 0-1.136 2.988v7.966h-9.567a3.301 3.301 0 0 0-1.25-2.026 3.28 3.28 0 0 0-4.412.41 3.306 3.306 0 0 0 0 4.445 3.284 3.284 0 0 0 5.662-1.615h9.567v6.866h-7.066l-5.483 5.688a3.292 3.292 0 0 0-4.387.738 3.32 3.32 0 0 0 .328 4.45 3.295 3.295 0 0 0 4.447.083 3.316 3.316 0 0 0 .491-4.435l5.105-5.306H32.7v1.74a4.51 4.51 0 0 0 1.314 3.18 4.48 4.48 0 0 0 3.168 1.319h2.12v11.432c-.806.152-1.526.6-2.02 1.256a3.308 3.308 0 0 0 .41 4.425 3.282 3.282 0 0 0 4.43 0 3.304 3.304 0 0 0-1.61-5.68V56.564h14.431v11.107l5.009 4.363a3.313 3.313 0 0 0 .735 4.392 3.286 3.286 0 0 0 4.425-.33 3.31 3.31 0 0 0 .083-4.451 3.29 3.29 0 0 0-4.41-.494l-4.63-3.981V56.563a4.48 4.48 0 0 0 3.146-1.33 4.51 4.51 0 0 0 1.302-3.167v-2.617h4.526l4.985 4.69a3.306 3.306 0 0 0 .16 4.08 3.284 3.284 0 0 0 3.992.795 3.293 3.293 0 0 0 1.492-1.558 3.308 3.308 0 0 0-.95-3.97 3.28 3.28 0 0 0-2.036-.707h.002zM66.297 33.78a1.799 1.799 0 0 1 1.666 1.116 1.814 1.814 0 0 1-.39 1.972 1.8 1.8 0 0 1-3.077-1.279c0-.479.19-.938.528-1.277.338-.34.796-.53 1.273-.532zM31.795 18.245a1.798 1.798 0 0 1-1.667-1.116 1.814 1.814 0 0 1 .39-1.971 1.8 1.8 0 0 1 3.078 1.278c0 .48-.19.94-.528 1.278a1.8 1.8 0 0 1-1.273.53zm-11.896 25.2a1.798 1.798 0 0 1-1.666-1.116 1.815 1.815 0 0 1 .392-1.971 1.8 1.8 0 0 1 3.076 1.28c0 .48-.19.939-.527 1.278a1.8 1.8 0 0 1-1.273.53H19.9zm-1.527 15.94a1.799 1.799 0 0 1-1.668-1.111 1.814 1.814 0 0 1 .385-1.972 1.8 1.8 0 0 1 3.08 1.268 1.816 1.816 0 0 1-1.108 1.676c-.218.091-.453.139-.69.14zm29.158-42.16a1.813 1.813 0 0 1 1.113-1.67 1.797 1.797 0 0 1 1.964.392 1.81 1.81 0 0 1-1.276 3.087 1.8 1.8 0 0 1-1.274-.53 1.813 1.813 0 0 1-.527-1.279zM41.709 71.24a1.813 1.813 0 0 1-1.112 1.672 1.797 1.797 0 0 1-1.965-.391 1.81 1.81 0 0 1 1.274-3.088c.478 0 .936.19 1.273.53.338.338.529.797.53 1.277zm12.066-18.97h-14.25a2.537 2.537 0 0 1-1.8-.748 2.552 2.552 0 0 1-.745-1.807V35.416a2.56 2.56 0 0 1 1.57-2.36c.309-.129.64-.195.974-.195h14.251a2.537 2.537 0 0 1 1.8.749 2.554 2.554 0 0 1 .745 1.806v14.298a2.562 2.562 0 0 1-.745 1.807 2.543 2.543 0 0 1-1.8.748zm8.939 19.744a1.798 1.798 0 0 1 1.665 1.117 1.815 1.815 0 0 1-.39 1.971 1.8 1.8 0 0 1-3.078-1.279c0-.48.19-.939.529-1.278.338-.339.796-.53 1.274-.53zm10.059-14.128a1.798 1.798 0 0 1-1.666-1.115 1.815 1.815 0 0 1 .388-1.971 1.802 1.802 0 0 1 1.964-.395 1.804 1.804 0 0 1 1.115 1.67c0 .48-.19.94-.528 1.279-.337.34-.795.531-1.273.532z" fill="#fff"/>
    <defs>
        <linearGradient id="b2y094iqga" x1="13.059" y1=".131" x2="91.059" y2="90.131" gradientUnits="userSpaceOnUse">
            <stop stop-color="#244ECE"/>
            <stop offset="1" stop-color="#79F"/>
        </linearGradient>
    </defs>
</svg>
