<svg width="159" height="165" viewBox="0 0 159 165" fill="none" xmlns="http://www.w3.org/2000/svg">
    <g clip-path="url(#yvfrasom5a)">
        <path d="M149.923 102.229a8.467 8.467 0 0 0-4.601 1.352l-13.893-13.084h-12.998v-31.02h6.377a8.508 8.508 0 1 0 0-3.13h-6.381v-4.959a11.613 11.613 0 0 0-11.598-11.594H90.831V18.901a8.508 8.508 0 1 0-3.13 0v20.893H59.61v-15.37l-8.59-11.28a8.515 8.515 0 1 0-2.162 2.266l7.621 10.313v14.145a11.613 11.613 0 0 0-10.254 11.513v20.544H21.47a8.508 8.508 0 1 0 0 3.13h24.755v17.708H27.943l-14.19 14.669a8.54 8.54 0 0 0-13.151 7.806 8.544 8.544 0 0 0 8.36 7.91 8.544 8.544 0 0 0 8.647-7.596 8.541 8.541 0 0 0-1.58-5.966l13.21-13.681h16.986v4.486a11.614 11.614 0 0 0 11.598 11.601h5.486v29.483a8.513 8.513 0 0 0-6.905 9.15 8.507 8.507 0 1 0 10.039-9.15v-29.483h37.341v28.644l12.961 11.253a8.522 8.522 0 1 0 2.154-2.277l-11.98-10.268v-27.355a11.614 11.614 0 0 0 11.512-11.598v-6.748h11.709l12.902 12.092a8.503 8.503 0 1 0 14.604 8.557 8.505 8.505 0 0 0-7.726-12.063h.003zm-16.756-48.991a4.667 4.667 0 0 1 4.312 2.877 4.657 4.657 0 0 1-1.009 5.084 4.662 4.662 0 0 1-7.177-.705 4.663 4.663 0 0 1-.787-2.592 4.674 4.674 0 0 1 4.661-4.664zM43.886 13.17a4.664 4.664 0 1 1-.008-9.328 4.664 4.664 0 0 1 .008 9.328zM13.103 78.16a4.665 4.665 0 1 1 .007 0h-.007zM9.15 119.267a4.66 4.66 0 0 1-4.315-2.867 4.663 4.663 0 1 1 4.315 2.867zM84.603 10.541a4.664 4.664 0 1 1 9.329 0 4.664 4.664 0 0 1-9.33 0zM69.54 149.835a4.661 4.661 0 0 1-2.877 4.312 4.658 4.658 0 0 1-5.084-1.009 4.662 4.662 0 0 1 .705-7.177 4.663 4.663 0 0 1 2.592-.787 4.674 4.674 0 0 1 4.664 4.661zm31.225-48.921H63.888a6.587 6.587 0 0 1-6.084-4.067c-.331-.8-.501-1.656-.5-2.52V57.452a6.584 6.584 0 0 1 6.584-6.588h36.877a6.59 6.59 0 0 1 4.657 1.93 6.569 6.569 0 0 1 1.927 4.658v36.873a6.569 6.569 0 0 1-1.927 4.659 6.577 6.577 0 0 1-4.657 1.929zm23.129 50.919a4.666 4.666 0 0 1 3.298 7.963 4.663 4.663 0 1 1-3.298-7.963zm26.029-36.435a4.667 4.667 0 0 1-4.579-5.57 4.664 4.664 0 1 1 4.579 5.57z" fill="#65788A"/>
    </g>
    <defs>
        <clipPath id="yvfrasom5a">
            <path fill="#fff" transform="translate(.64)" d="M0 0h157.781v165H0z"/>
        </clipPath>
    </defs>
</svg>
