<svg width="92" height="91" viewBox="0 0 92 91" fill="none" xmlns="http://www.w3.org/2000/svg">
<rect x="0.5" y="0.131348" width="91" height="90" rx="20" fill="#F9FCFF"/>
<path d="M20.9013 60.3873C18.555 55.9589 14.927 49.145 12.6673 44.9084C12.5279 44.6479 12.4736 44.3499 12.512 44.0565C12.5504 43.7632 12.6797 43.4895 12.8814 43.2743C17.077 38.8085 22.1334 35.2509 27.7413 32.8192C33.3493 30.3874 39.3911 29.1326 45.4973 29.1313C51.6034 29.1301 57.6457 30.3825 63.2546 32.812C68.8636 35.2414 73.9214 38.7969 78.1188 43.261C78.3204 43.4759 78.4497 43.7493 78.4884 44.0423C78.5271 44.3353 78.4732 44.6332 78.3344 44.8936L70.0989 60.3652C69.9546 60.6373 69.7254 60.8542 69.4466 60.9822C69.1678 61.1103 68.8549 61.1424 68.5562 61.0737C63.7169 59.9592 55.5914 58.551 45.5008 58.551C35.4103 58.551 27.3009 59.9666 22.4469 61.0959C22.1478 61.1655 21.8341 61.1339 21.5546 61.0058C21.2752 60.8776 21.0455 60.6602 20.9013 60.3873V60.3873ZM35.0686 46.8141H42.4008V54.2126H48.5847V46.8141H55.9287V40.6039H48.5847V33.2099H42.4066V40.6039H35.0744L35.0686 46.8141Z" fill="#39A3D7"/>
</svg>
