<svg width="92" height="91" viewBox="0 0 92 91" fill="none" xmlns="http://www.w3.org/2000/svg">
    <rect x=".5" y=".131" width="91" height="90" rx="20" fill="url(#7dj8jcvy0a)"/>
    <path d="M20.901 60.387a7522.108 7522.108 0 0 0-8.234-15.479 1.416 1.416 0 0 1 .214-1.634 44.903 44.903 0 0 1 14.86-10.455 44.65 44.65 0 0 1 17.756-3.688 44.65 44.65 0 0 1 17.758 3.681 44.901 44.901 0 0 1 14.864 10.449 1.412 1.412 0 0 1 .215 1.633L70.1 60.365a1.387 1.387 0 0 1-1.543.709c-4.84-1.115-12.965-2.523-23.055-2.523s-18.2 1.416-23.054 2.545a1.387 1.387 0 0 1-1.546-.709zM35.07 46.814H42.4v7.399h6.184v-7.399h7.344v-6.21h-7.344V33.21h-6.178v7.394h-7.333l-.005 6.21z" fill="#fff"/>
    <defs>
        <linearGradient id="7dj8jcvy0a" x1="9" y1=".131" x2="76" y2="90.131" gradientUnits="userSpaceOnUse">
            <stop stop-color="#2597CF"/>
            <stop offset="1" stop-color="#6CC0EA"/>
        </linearGradient>
    </defs>
</svg>
