<svg width="208" height="100" viewBox="0 0 208 100" fill="none" xmlns="http://www.w3.org/2000/svg">
    <g clip-path="url(#n6lryl0s8a)">
        <path d="M26.525 97.675A23271.358 23271.358 0 0 0 .623 49.304a4.4 4.4 0 0 1 .673-5.107 141.253 141.253 0 0 1 205.218-.041 4.404 4.404 0 0 1 .678 5.102l-25.907 48.348a4.387 4.387 0 0 1-4.853 2.214c-15.222-3.483-40.783-7.883-72.525-7.883-31.742 0-57.251 4.424-72.52 7.952a4.389 4.389 0 0 1-4.862-2.214zM71.09 55.26h23.065v23.12h19.452V55.26h23.102V35.852h-23.102V12.746H94.174v23.106H71.109l-.018 19.407z" fill="#65788A"/>
    </g>
    <defs>
        <clipPath id="n6lryl0s8a">
            <path fill="#fff" transform="translate(.097)" d="M0 0h207.616v100H0z"/>
        </clipPath>
    </defs>
</svg>
