<svg width="140" height="120" viewBox="0 0 140 120" fill="none" xmlns="http://www.w3.org/2000/svg">
    <g clip-path="url(#2yrsbmcnsa)" fill="#65788A">
        <path d="M35.125 76.154h13.304l-6.652-17.738-6.652 17.738z"/>
        <path d="M74.413 39.164H9.125A8.706 8.706 0 0 0 .423 47.87v43.515a8.702 8.702 0 0 0 8.702 8.703v18.601a1.304 1.304 0 0 0 .806 1.196 1.307 1.307 0 0 0 1.416-.272l19.14-19.141c.246-.245.578-.383.925-.384h43a8.703 8.703 0 0 0 8.703-8.703V47.87a8.702 8.702 0 0 0-8.702-8.706zM55.596 89.072c-.247.087-.507.13-.768.127a2.174 2.174 0 0 1-2.038-1.413l-2.733-7.3H33.49l-2.736 7.3a2.174 2.174 0 1 1-4.071-1.526l13.053-34.813a2.177 2.177 0 0 1 4.075 0L56.865 86.26a2.178 2.178 0 0 1-1.27 2.812z"/>
        <path d="M130.998.016H65.71a8.702 8.702 0 0 0-8.702 8.702v24.803a1.305 1.305 0 0 0 1.307 1.308h16.098a13.079 13.079 0 0 1 12.536 9.416 55.07 55.07 0 0 0 8.468-6.893c-4.202-5.078-6.215-9.797-7.16-13.403h4.506c.873 2.8 2.517 6.32 5.583 10.134 5.015-6.24 6.224-11.689 6.49-14.485H83.207a2.222 2.222 0 0 1-2.266-2.107 2.173 2.173 0 0 1 2.174-2.244h13.057v-2.085a2.221 2.221 0 0 1 2.107-2.267 2.178 2.178 0 0 1 2.244 2.175v2.177h12.965a2.236 2.236 0 0 1 2.266 2.107 2.183 2.183 0 0 1-.613 1.583 2.193 2.193 0 0 1-1.564.661h-4.383c-.273 3.456-1.679 10.235-7.915 17.754a57.827 57.827 0 0 0 11.187 8.633 2.22 2.22 0 0 1 .829 2.974 2.18 2.18 0 0 1-3.019.787 62.28 62.28 0 0 1-11.927-9.182 61.493 61.493 0 0 1-10.88 8.528v10.54a1.307 1.307 0 0 0 1.308 1.307h19.909a1.295 1.295 0 0 1 .924.385l19.141 19.14a1.305 1.305 0 0 0 1.998-.204 1.3 1.3 0 0 0 .223-.72V60.925a8.704 8.704 0 0 0 8.703-8.703V8.702a8.703 8.703 0 0 0-8.677-8.686z"/>
    </g>
    <defs>
        <clipPath id="2yrsbmcnsa">
            <path fill="#fff" transform="translate(.436)" d="M0 0h139.252v120H0z"/>
        </clipPath>
    </defs>
</svg>
