<svg width="92" height="91" viewBox="0 0 92 91" fill="none" xmlns="http://www.w3.org/2000/svg">
    <rect x=".5" y=".131" width="91" height="90" rx="20" fill="url(#macvkxgaua)"/>
    <g clip-path="url(#oypl2gt09b)" fill="#fff">
        <path d="M31.7 52.228h5.445l-2.723-7.243-2.723 7.243z"/>
        <path d="M47.782 37.123H21.058c-.945 0-1.85.375-2.519 1.042a3.55 3.55 0 0 0-1.043 2.513v17.769a3.55 3.55 0 0 0 1.043 2.513A3.567 3.567 0 0 0 21.06 62v7.596a.532.532 0 0 0 .636.52.535.535 0 0 0 .273-.143l7.835-7.816c.1-.1.236-.156.378-.156h17.601c.945 0 1.851-.375 2.52-1.041a3.55 3.55 0 0 0 1.043-2.513V40.678a3.549 3.549 0 0 0-2.2-3.284 3.571 3.571 0 0 0-1.363-.27zm-7.702 20.38a.912.912 0 0 1-.314.051.891.891 0 0 1-.834-.577l-1.119-2.98h-6.781l-1.12 2.98a.886.886 0 0 1-.803.576.892.892 0 0 1-.92-.857.886.886 0 0 1 .056-.342l5.343-14.215a.89.89 0 0 1 1.341-.418.89.89 0 0 1 .327.418L40.6 56.354a.886.886 0 0 1-.52 1.148z"/>
        <path d="M70.942 21.138H44.218c-.944 0-1.85.374-2.518 1.04a3.55 3.55 0 0 0-1.044 2.513V34.82a.531.531 0 0 0 .535.534h6.59a5.362 5.362 0 0 1 3.207 1.07 5.34 5.34 0 0 1 1.924 2.775 22.532 22.532 0 0 0 3.466-2.815c-1.72-2.073-2.544-4-2.93-5.472h1.844c.357 1.143 1.03 2.58 2.285 4.138 2.053-2.548 2.548-4.773 2.657-5.915H51.38a.91.91 0 0 1-.927-.86.886.886 0 0 1 .89-.917h5.344v-.851a.907.907 0 0 1 .863-.926.895.895 0 0 1 .848.542c.046.11.07.227.07.346v.89h5.307a.917.917 0 0 1 .928.86.887.887 0 0 1-.891.916h-1.794c-.112 1.411-.688 4.18-3.24 7.25a23.664 23.664 0 0 0 4.579 3.524.908.908 0 0 1 .34 1.215.89.89 0 0 1-1.236.321 25.484 25.484 0 0 1-4.883-3.75 25.16 25.16 0 0 1-4.453 3.483v4.304a.532.532 0 0 0 .535.534h8.15a.531.531 0 0 1 .378.157l7.835 7.816a.536.536 0 0 0 .91-.377v-7.602c.944 0 1.85-.375 2.518-1.041a3.55 3.55 0 0 0 1.043-2.513v-17.77a3.549 3.549 0 0 0-1.042-2.505 3.567 3.567 0 0 0-2.51-1.042z"/>
    </g>
    <defs>
        <linearGradient id="macvkxgaua" x1="12.5" y1="4.631" x2="80.5" y2="90.131" gradientUnits="userSpaceOnUse">
            <stop stop-color="#6A5BE2"/>
            <stop offset="1" stop-color="#5B91E2"/>
        </linearGradient>
        <clipPath id="oypl2gt09b">
            <path fill="#fff" transform="translate(17.5 21.131)" d="M0 0h57v49H0z"/>
        </clipPath>
    </defs>
</svg>
