<svg width="200" height="200" viewBox="0 0 200 200" fill="none" xmlns="http://www.w3.org/2000/svg">
    <rect width="200" height="200" rx="24" fill="#fff"/>
    <g clip-path="url(#izwgdmwdcb)" fill="url(#1q3pwhgk8a)">
        <path d="M91.364 117.183v30.923a9.896 9.896 0 0 0 2.923 6.988 10.002 10.002 0 0 0 7.026 2.906h1.243v-50.703h-1.243a10.003 10.003 0 0 0-7.023 2.903 9.897 9.897 0 0 0-2.926 6.983zM151.051 107.297h-1.243V158h1.243a10.008 10.008 0 0 0 7.025-2.906 9.903 9.903 0 0 0 2.924-6.988v-30.923a9.901 9.901 0 0 0-2.927-6.983 10.004 10.004 0 0 0-7.022-2.903zM143.591 103.576a11.119 11.119 0 0 0-3.286-7.871 11.234 11.234 0 0 0-7.917-3.26h-10.171l2.869 7.42h7.313a3.742 3.742 0 0 1 2.635 1.089 3.699 3.699 0 0 1 1.094 2.622v3.721h-8.17l1.178 3.044a5.58 5.58 0 0 1-1.222 5.722l-2.746 2.718a4.493 4.493 0 0 1-3.194 1.31 4.51 4.51 0 0 1-3.091-1.21l-12.386-11.584h-.211V158h39.792v-50.703h-2.487v-3.721z"/>
        <path d="m97.493 95.125 23.259 21.777a1.81 1.81 0 0 0 2.484-.038l2.752-2.731a2.881 2.881 0 0 0 .601-2.824l-14.154-36.594 19.51-19.407c4.451-4.43 6.468-10.081 4.514-12.555a3.69 3.69 0 0 0-.738-.734c-2.527-2.226-16.668-.682-20.835 3.471L76.029 84.147c-1.3 1.29-8.39 8.627-13.663 14.995H44.124a4.843 4.843 0 0 0-2.957 1.218l-2.733 2.718c-.672.669-.527 1.563.326 1.987l14.187 7.067c-.82.9-1.407 1.74-1.197 2.158 1.038 2.066 4.5 2.066 4.5 2.066 10.384 0 25.687-11.307 27.936-13.533l6.675-6.643a6.23 6.23 0 0 1 6.632-1.055zm27.252-44.364c.653-.862 1.866-2.463 1.866-3.235a3.513 3.513 0 0 0-.478-1.53c-.274-.56-.473-.949-.17-1.596.304-.647 1.047-.834 1.29-.894a12.338 12.338 0 0 1 3.197-.5c1.224 0 2.025.054 2.621.644.595.59.716 1.449.434 2.503-.694 2.596-3.899 6.024-8.471 7.266-.107.025-.215.04-.325.046a1.02 1.02 0 0 1-.858-.53c-.306-.6.044-1.063.894-2.174z"/>
        <path d="M47.43 67.143 74.28 79.3l15.54-15.46-37.048-2.447a4.385 4.385 0 0 0-2.948 1.104l-2.733 2.718c-.686.666-.527 1.535.339 1.927z"/>
    </g>
    <defs>
        <linearGradient id="1q3pwhgk8a" x1="0" y1="-22" x2="216.112" y2="215.119" gradientUnits="userSpaceOnUse">
            <stop stop-color="#0047FF"/>
            <stop offset="1" stop-color="#FFB800"/>
        </linearGradient>
        <clipPath id="izwgdmwdcb">
            <path fill="url(#1q3pwhgk8a)" transform="translate(38 41)" d="M0 0h123v117H0z"/>
        </clipPath>
    </defs>
</svg>
