<svg width="173" height="165" viewBox="0 0 173 165" fill="none" xmlns="http://www.w3.org/2000/svg">
    <g clip-path="url(#40bb39cnpa)" fill="#65788A">
        <path d="M75.085 107.437v43.61A13.994 13.994 0 0 0 89.042 165h1.744V93.496h-1.744a13.995 13.995 0 0 0-13.957 13.941zM158.814 93.496h-1.744V165h1.744a14 14 0 0 0 13.957-13.953v-43.61a14 14 0 0 0-13.957-13.941zM148.349 88.248a15.715 15.715 0 0 0-15.716-15.697h-14.267l4.025 10.465h10.258a5.239 5.239 0 0 1 5.232 5.232v5.248H126.42l1.652 4.293a7.893 7.893 0 0 1-1.714 8.07l-3.852 3.832a6.27 6.27 0 0 1-4.481 1.847 6.302 6.302 0 0 1-4.335-1.705L96.314 93.496h-.295V165h55.819V93.496h-3.489v-5.248z"/>
        <path d="m83.684 76.33 32.628 30.712a2.53 2.53 0 0 0 3.484-.054l3.86-3.852a4.07 4.07 0 0 0 .843-3.983l-19.856-51.606 27.37-27.37c6.244-6.247 9.073-14.217 6.332-17.705a5.22 5.22 0 0 0-1.035-1.035c-3.546-3.14-23.383-.962-29.228 4.895L53.574 60.848c-1.825 1.82-11.768 12.167-19.166 21.148H8.818c-1.538.084-3.001.69-4.148 1.717L.837 87.546c-.943.943-.74 2.204.456 2.802l19.902 9.967c-1.15 1.268-1.974 2.453-1.68 3.043 1.457 2.913 6.314 2.913 6.314 2.913 14.566 0 36.032-15.946 39.187-19.085l9.364-9.368a8.697 8.697 0 0 1 9.304-1.488zm38.228-62.565c.916-1.215 2.618-3.473 2.618-4.562a4.949 4.949 0 0 0-.671-2.158c-.383-.79-.663-1.338-.237-2.25.425-.912 1.468-1.177 1.809-1.26a17.22 17.22 0 0 1 4.485-.706c1.717 0 2.84.076 3.676.908.835.832 1.004 2.043.609 3.53-.973 3.661-5.47 8.495-11.883 10.247a2.602 2.602 0 0 1-.456.065 1.42 1.42 0 0 1-1.203-.748c-.43-.847.061-1.498 1.253-3.066z"/>
        <path d="M13.455 36.868 51.12 54.014l21.8-21.804-51.97-3.45a6.133 6.133 0 0 0-4.137 1.557L12.98 34.15c-.962.94-.74 2.166.475 2.718z"/>
    </g>
    <defs>
        <clipPath id="40bb39cnpa">
            <path fill="#fff" transform="translate(.227)" d="M0 0h172.544v165H0z"/>
        </clipPath>
    </defs>
</svg>
