<svg width="200" height="200" viewBox="0 0 200 200" fill="none" xmlns="http://www.w3.org/2000/svg">
    <rect width="200" height="200" rx="24" fill="#fff"/>
    <g clip-path="url(#0dxdd8gbwb)" fill="url(#yn02nnyhwa)">
        <path d="M164.278 51.883H93.657a35.007 35.007 0 0 1 4.537 7.235h61.585v56.531H52.728v-9.795a34.636 34.636 0 0 1-7.189-4.32v26.195c0 1.51 1.222 2.74 2.722 2.74h116.017a2.735 2.735 0 0 0 2.722-2.74V54.623c0-1.51-1.221-2.74-2.722-2.74zm-58.026 74.65c-1.78 0-3.245-1.44-3.245-3.231s1.465-3.266 3.245-3.266 3.246 1.475 3.246 3.266-1.466 3.231-3.246 3.231zM128.535 149.151h-5.556l-3.971-13.863H93.496l-3.97 13.863h-5.557c-.601 0-1.09.492-1.09 1.097v2.658A1.09 1.09 0 0 0 83.97 154h44.569c.601 0 1.09-.492 1.09-1.094v-2.658a1.099 1.099 0 0 0-1.093-1.097z"/>
        <path d="M92.31 63.086c-3.399-8.093-10.494-14.22-19.135-16.297 2.33 3.836 3.922 9.717 4.743 16.297H92.31zM60.306 46.789c-8.641 2.077-15.733 8.206-19.132 16.297h14.389c.821-6.58 2.413-12.459 4.743-16.297zM74.088 63.086C72.644 52.416 69.26 46 66.743 46s-5.903 6.416-7.347 17.086h14.692zM54.897 73.918c0-2.352.102-4.705.282-7.012H39.92C39.34 69.15 39 71.493 39 73.918c0 2.426.34 4.768.92 7.013h15.256c-.18-2.31-.279-4.66-.279-7.013zM58.69 73.918c0 2.48.11 4.809.293 7.013h15.516c.182-2.204.292-4.533.292-7.013 0-2.48-.11-4.808-.292-7.012H58.983a84.592 84.592 0 0 0-.293 7.012zM77.918 84.74c-.813 6.597-2.416 12.472-4.738 16.3 5.264-1.254 9.93-4.022 13.543-7.826l-2.01-8.474h-6.795zM78.587 73.93c0 2.336-.097 4.694-.287 7.007h5.527a5.607 5.607 0 0 1 1.149-4.19c1.076-1.397 2.679-2.167 4.426-2.167.43 0 .886.049 1.316.144l3.685.891c.049-.554.073-1.132.073-1.686 0-2.43-.336-4.768-.91-7.031H78.3c.19 2.312.287 4.67.287 7.031zM41.174 84.748c3.396 8.093 10.49 14.22 19.132 16.298-2.33-3.836-3.922-9.715-4.743-16.298H41.174zM59.396 84.748c1.444 10.67 4.83 17.086 7.347 17.086 2.518 0 5.9-6.415 7.345-17.086H59.396z"/>
        <path d="m110.547 96.405-8.04-8.09 4.61-2.36c1.487-.761 1.229-2.973-.392-3.368l-16.899-4.111c-1.307-.319-2.483.867-2.169 2.182l4.086 17.003c.392 1.631 2.59 1.89 3.347.394l2.344-4.638 8.04 8.09c.432.435 1.13.435 1.562 0l3.508-3.53a1.117 1.117 0 0 0 .003-1.572zM148.95 75.674h-27.201a2.905 2.905 0 0 1-2.894-2.912 2.905 2.905 0 0 1 2.894-2.912h27.201a2.905 2.905 0 0 1 2.894 2.912 2.903 2.903 0 0 1-2.894 2.912zM148.95 90.294h-27.201a2.905 2.905 0 0 1-2.894-2.912 2.904 2.904 0 0 1 2.894-2.912h27.201a2.904 2.904 0 0 1 2.894 2.912 2.903 2.903 0 0 1-2.894 2.912zM148.95 104.914h-27.201a2.905 2.905 0 0 1-2.894-2.912 2.905 2.905 0 0 1 2.894-2.912h27.201a2.905 2.905 0 0 1 2.894 2.912 2.905 2.905 0 0 1-2.894 2.912z"/>
    </g>
    <defs>
        <linearGradient id="yn02nnyhwa" x1="28.571" y1="0" x2="202.167" y2="198.101" gradientUnits="userSpaceOnUse">
            <stop stop-color="#244ECE"/>
            <stop offset="1" stop-color="#79F"/>
        </linearGradient>
        <clipPath id="0dxdd8gbwb">
            <path fill="url(#yn02nnyhwa)" transform="translate(39 46)" d="M0 0h128v108H0z"/>
        </clipPath>
    </defs>
</svg>
