<svg width="163" height="165" viewBox="0 0 163 165" fill="none" xmlns="http://www.w3.org/2000/svg">
    <g clip-path="url(#3i3rc5ltoa)" fill="#65788A">
        <path d="m86.084 33.73-3.986 2.703c-.174 1.17-.177 23.846 0 25.008.284.052.571.087.86.104h15.595c.296 0 .591-.045.901-.07.161-.475.21-.98.144-1.477V43.756a6.212 6.212 0 0 0 0-.786 2.75 2.75 0 0 1 .65-2.049c1.978-2.72 3.916-5.466 5.869-8.205a51.3 51.3 0 0 1 .786-1.108 8.04 8.04 0 0 0-.41-.771c-.775-1.163-1.524-2.348-2.351-3.47a3.36 3.36 0 0 1-.69-2.31c.044-.78 0-1.562 0-2.381-2.001-.532-3.577-1.554-4.57-3.323a6.396 6.396 0 0 1-.76-4.304 6.644 6.644 0 0 1 12.963-.653 6.398 6.398 0 0 1-.029 3.496 6.718 6.718 0 0 1-1.894 3.085c-.875.827-1.96 1.274-3.093 1.698-.11.832-.122 1.673-.037 2.507.073.384.235.745.472 1.056.96 1.476 1.949 2.897 2.924 4.344.218.325.41.66.624 1.008-.273.395-.513.738-.764 1.107-2.13 2.986-4.253 5.98-6.405 8.952a3.476 3.476 0 0 0-.738 2.159c.033 5.46.018 10.922.018 16.382 0 .369.026.775.041 1.214.262.066.529.11.797.133h9.564a6.83 6.83 0 0 0 .798-.096c.188-1.218.066-2.392.088-3.562.023-1.17 0-2.444 0-3.669v-7.146c2.78-2.282 5.685-4.43 8.531-6.726-.162-.417-.295-.779-.436-1.133-1.362-3.47.613-7.482 4.223-8.612a6.621 6.621 0 0 1 7.163 2.172 6.6 6.6 0 0 1 1.205 2.343c.739 2.753 0 5.145-2.189 6.943s-4.647 2.004-7.231.768c-.155-.078-.303-.177-.454-.262-.151-.085-.306-.155-.542-.277l-7.557 5.906c-.166 1.107-.188 11.89-.033 13.23.232.064.467.112.705.143.392.023.787 0 1.182 0h16.773c.96-.016 1.919.05 2.868.196a11.64 11.64 0 0 1 9.527 11.004c.029.52.033 1.044.033 1.569v58.576a16.312 16.312 0 0 1-.339 3.773 11.684 11.684 0 0 1-10.757 9.029c-.524.029-1.048.029-1.572.029H28.541a15.203 15.203 0 0 1-4.278-.494 11.602 11.602 0 0 1-8.365-10.443c-.025-.657-.055-1.31-.055-1.964V74.257c-.04-1.31.084-2.621.37-3.901a11.61 11.61 0 0 1 10.685-8.77 52.408 52.408 0 0 1 1.702-.034h13.953c.44-.487.288-.993.292-1.45V47.782a1.14 1.14 0 0 0-.506-1.004 1733.8 1733.8 0 0 1-7.176-5.588c-.273.136-.542.258-.797.402a6.644 6.644 0 0 1-9.849-4.872 6.643 6.643 0 1 1 13.19-.37c-.091.647-.242 1.283-.45 1.902-.093.279-.202.553-.326.82.122.46.506.627.805.863a995.123 995.123 0 0 0 6.39 4.994c.41.321.808.654 1.244 1.008V58.27c0 1.005-.048 2.079.047 3.138.189.063.383.106.58.13h10.528c.076-.254.139-.512.188-.772a4.78 4.78 0 0 0 0-.654V42.815a3.47 3.47 0 0 0-.702-2.174c-2.159-2.953-4.278-5.962-6.404-8.948-.277-.387-.535-.782-.827-1.207.255-.41.476-.779.716-1.14.975-1.451 1.942-2.905 2.935-4.341.32-.424.48-.947.45-1.477-.033-.609 0-1.222 0-1.908-.45-.185-.886-.37-1.318-.54a6.644 6.644 0 1 1 5.393-.088c-.468.218-.956.395-1.476.61 0 .852-.048 1.679 0 2.502a2.838 2.838 0 0 1-.546 1.846c-.908 1.284-1.768 2.602-2.643 3.909-.118.173-.214.369-.347.59.284.417.542.816.82 1.2 1.878 2.632 3.768 5.253 5.632 7.892 1.011 1.432.864.842.867 2.761V61.338c.208.092.426.157.65.192h7.6c.156-.023.308-.063.454-.118a6.94 6.94 0 0 0 .104-.716c.018-.392 0-.787 0-1.182V29.508c0-1.676-.155-1.24 1.033-2.34a901.088 901.088 0 0 1 8.295-7.63 1.997 1.997 0 0 0 .738-1.702c-.044-1.222 0-2.447 0-3.669 0-.303-.033-.605-.055-.949-.37-.143-.739-.276-1.108-.42a6.644 6.644 0 0 1-4.163-6.645 6.644 6.644 0 0 1 13.229 0 6.674 6.674 0 0 1-4.278 6.693c-.325.125-.65.24-1.056.39v1.304c0 1.532-.026 3.06 0 4.588a1.787 1.787 0 0 1-.66 1.477c-2.81 2.561-5.597 5.142-8.395 7.714-.158.148-.31.31-.48.443a1.363 1.363 0 0 0-.572 1.248c.022.306 0 .613 0 .92v28.957c0 .513-.088 1.045.133 1.54.128.054.262.092.399.114h7.73c.139-.023.274-.066.402-.126.132-.455.17-.932.11-1.402V35.21c1.695-1.255 3.481-2.344 5.22-3.599-.096-.435-.196-.853-.28-1.27-.536-2.694.269-4.957 2.414-6.644 2.214-1.716 4.669-1.923 7.138-.635 2.47 1.288 3.622 3.374 3.555 6.102-.125 5.06-5.832 8.076-10.14 5.389-.38-.247-.764-.528-1.196-.823zM23.702 70.039c0 .694-.037 1.255-.037 1.816v64.598c.03.238.073.475.129.708 1.362.211 107.87.325 114.703.13.254 0 .505-.056.683-.074.092-.115.136-.144.144-.177.037-.17.061-.343.07-.517 0-22.054-.011-44.11-.034-66.166a.228.228 0 0 0-.036-.122 2.153 2.153 0 0 0-.163-.188c-.343 0-.771-.048-1.196-.048H117.405c-.421 0-.875-.126-1.252.17-.155 1.317-.129 15.34.041 16.437l7.56 5.906c.428-.233.771-.421 1.107-.602a6.314 6.314 0 0 1 4.061-.609 6.644 6.644 0 1 1-3.027 12.919 6.564 6.564 0 0 1-4.753-5.982 6.569 6.569 0 0 1 .419-2.666l.425-1.108c-2.839-2.321-5.766-4.448-8.524-6.744V71.522c0-.465.1-.952-.14-1.425a3.748 3.748 0 0 0-.528-.073h-9.966c-.225.03-.446.081-.661.154v1.108c0 6.596 0 13.189-.018 19.785-.005.738.24 1.456.694 2.038 2.195 3.049 4.38 6.104 6.555 9.165.222.314.421.646.643.986-.262.402-.491.771-.739 1.133-.922 1.377-1.845 2.746-2.772 4.13-.247.303-.421.66-.505 1.041-.105.86-.087 1.73.055 2.584.483.196.938.369 1.369.554a6.642 6.642 0 0 1 1.218 11.315 6.646 6.646 0 0 1-10.575-4.205 6.645 6.645 0 0 1 4.19-7.295c.369-.14.738-.269 1.162-.435 0-.93.023-1.846 0-2.758a2.459 2.459 0 0 1 .495-1.579c.709-.997 1.377-2.023 2.056-3.038.314-.469.62-.942.938-1.429-.285-.41-.521-.771-.772-1.126-1.927-2.702-3.839-5.415-5.799-8.095a3.762 3.762 0 0 1-.79-2.399c.044-4.5.019-9 .019-13.495v-7.076c0-.336.107-.71-.292-1.06H83.408c-.458 0-.963-.162-1.392.214v27.947a25.803 25.803 0 0 0 4.253 2.794 6.615 6.615 0 0 1 4.603-1.783 6.49 6.49 0 0 1 4.684 2.019 6.647 6.647 0 0 1-2.276 10.949 6.633 6.633 0 0 1-5.172-.178 6.638 6.638 0 0 1-2.127-1.565 6.698 6.698 0 0 1-1.52-2.583c-.518-1.554-.318-3.094.187-4.651-.915-.628-1.786-1.2-2.635-1.809-.85-.609-1.864-1.108-2.662-1.95V70.353a.299.299 0 0 0-.025-.13 1.336 1.336 0 0 0-.166-.18 6.643 6.643 0 0 0-.669-.055H71.42c-.264.025-.525.07-.783.132 0 .587-.03 1.108-.03 1.628v32.114c.01.175.01.35 0 .525a1.814 1.814 0 0 0 .769 1.819c.204.164.4.341.583.528 2.698 2.488 5.385 4.98 8.102 7.449a1.774 1.774 0 0 1 .653 1.477c-.036 1.439 0 2.883 0 4.322v1.551l.938.369a6.533 6.533 0 0 1 4.367 6.865 6.64 6.64 0 0 1-3.953 5.48 6.643 6.643 0 1 1-4.966-12.32c.322-.118.64-.247.983-.369 0-.339.051-.638.051-.941 0-1.225-.03-2.447 0-3.669a1.986 1.986 0 0 0-.738-1.702c-2.783-2.521-5.537-5.075-8.294-7.63-1.196-1.107-1.034-.686-1.034-2.34V70.813a6.604 6.604 0 0 0-.144-.767l-44.221-.008zm71.175-41.117a4.071 4.071 0 1 0-8.143 0 4.071 4.071 0 0 0 8.143 0zm-4.06 80.998a4.062 4.062 0 0 0 2.867-6.94 4.073 4.073 0 0 0-6.95 2.879 4.065 4.065 0 0 0 2.517 3.756 4.063 4.063 0 0 0 1.558.305h.008zm9.792-93.87a4.084 4.084 0 0 0 .283 1.565 4.072 4.072 0 0 0 3.726 2.57 4.071 4.071 0 0 0 3.796-2.47 4.062 4.062 0 0 0 .038-3.119 4.075 4.075 0 0 0-3.734-2.562 4.039 4.039 0 0 0-3.796 2.46 4.027 4.027 0 0 0-.32 1.557h.007zM35.145 35.84a4.062 4.062 0 0 0-4.06-4.083 4.076 4.076 0 0 0-.03 8.15c2.4.048 4.182-2.203 4.09-4.067zm92.625 5.167a4.073 4.073 0 0 0 4.075-4.075 4.072 4.072 0 0 0-4.075-4.075c-2.215-.052-4.061 1.846-4.101 4.06-.008 1.735 1.539 4.105 4.101 4.076v.014zm0 52.786c-2.529-.063-4.112 2.321-4.09 4.06a4.155 4.155 0 0 0 4.097 4.06 4.082 4.082 0 0 0 3.753-5.641 4.035 4.035 0 0 0-2.203-2.184 4.02 4.02 0 0 0-1.553-.295h-.004zm-23.093 28.947a4.065 4.065 0 0 0 3.732-2.532 4.058 4.058 0 0 0-2.991-5.515 4.056 4.056 0 0 0-4.157 1.747 4.062 4.062 0 0 0 1.86 6.002 4.065 4.065 0 0 0 1.56.298h-.004zm-25.315 9.464a4.088 4.088 0 0 0 4.142-4.005 4.08 4.08 0 0 0-4.024-4.247 4.072 4.072 0 0 0-3.837 2.545 4.08 4.08 0 0 0-.3 1.591 4.066 4.066 0 0 0 1.156 2.894 4.057 4.057 0 0 0 2.867 1.222h-.004zm.026-129.62a4.06 4.06 0 1 0 4.109 4.013 4.004 4.004 0 0 0-4.109-4.012zM58.274 14.973a4.06 4.06 0 1 0-8.119.103 4.06 4.06 0 0 0 8.12-.103zM.61 150.848c.254-.053.512-.093.77-.119 4.925-.177 50.549-.066 51.793.133.077.262.177.547.243.838a10.417 10.417 0 0 0 10.314 8.051c5.637-.026 11.27 0 16.906 0H99.24c1.844.04 3.666-.407 5.282-1.296a10.265 10.265 0 0 0 5.028-6.423c.103-.369.195-.738.31-1.199.302-.037.594-.078.886-.1h50.053a4.89 4.89 0 0 1 1.554.103c.251.48.133.968.082 1.429a14.161 14.161 0 0 1-11.646 12.495c-.904.15-1.819.226-2.736.225-44.376 0-88.753.007-133.13.022A14.3 14.3 0 0 1 .916 154c-.225-1.019-.48-2.045-.306-3.152z"/>
        <path d="M106.936 150.837c-.841 3.111-2.643 4.998-5.537 5.765a9.08 9.08 0 0 1-2.329.248c-6.112.022-12.225 0-18.338 0H64.095a9.097 9.097 0 0 1-2.465-.251 7.438 7.438 0 0 1-5.253-4.865 2.369 2.369 0 0 1-.114-.51 1.608 1.608 0 0 1 .029-.332c.225-.029.469-.077.716-.092s.524 0 .786 0h47.404c.52.011 1.041.026 1.738.037zM56.753 70.618c.786-.1 1.581-.1 2.367 0 .151.467.198.963.136 1.45v15.984c0 1.657-.022 3.322 0 4.975a2.806 2.806 0 0 1-.576 1.813c-2 2.757-3.968 5.537-5.943 8.309-.276.388-.535.786-.823 1.211.37.587.738 1.133 1.108 1.672.605.908 1.184 1.845 1.845 2.709.453.591.671 1.329.613 2.071-.04.779 0 1.561.018 2.37.421.159.783.291 1.141.435a6.65 6.65 0 0 1 4.175 6.755 6.643 6.643 0 0 1-13.222-.863c.151-2.854 1.642-4.799 4.245-5.925.32-.14.65-.247 1.063-.398 0-.824.04-1.65-.022-2.47a2.178 2.178 0 0 0-.429-.926c-.94-1.422-1.9-2.828-2.85-4.242-.265-.395-.516-.797-.797-1.233.296-.435.558-.83.831-1.218 2.104-2.953 4.193-5.906 6.33-8.837.53-.69.808-1.54.787-2.41-.033-6.504-.019-13.012-.019-19.516-.003-.535.011-1.056.022-1.716zM54.17 123.82a4.062 4.062 0 0 0 3.983-4.852 4.056 4.056 0 0 0-3.19-3.191 4.064 4.064 0 0 0-4.853 3.983 4.005 4.005 0 0 0 4.072 4.06h-.011zM42.863 70.607a9.758 9.758 0 0 1 2.392 0c.05.18.085.364.103.55v17.718c-2.827 2.255-5.673 4.43-8.49 6.674.547 1.314 1.027 2.584.831 3.971a11.255 11.255 0 0 1-.506 2.023 4.74 4.74 0 0 1-1.28 1.957 8.824 8.824 0 0 1-1.765 1.336 6.639 6.639 0 0 1-5.61.241 6.644 6.644 0 0 1 1.683-12.725c1.764-.255 3.359.277 4.85 1.251.28-.199.531-.369.768-.55 2.067-1.609 4.12-3.244 6.208-4.824a1.845 1.845 0 0 0 .805-1.65c-.026-4.762 0-9.524 0-14.285-.015-.517.004-1.052.011-1.687zm-11.75 24.259a4.094 4.094 0 0 0-2.944 6.956 4.091 4.091 0 0 0 2.873 1.222 4.076 4.076 0 0 0 4.118-4.04c.055-1.846-1.617-4.168-4.046-4.138z"/>
    </g>
    <defs>
        <clipPath id="3i3rc5ltoa">
            <path fill="#fff" transform="translate(.55)" d="M0 0h161.958v165H0z"/>
        </clipPath>
    </defs>
</svg>
