<svg width="200" height="200" viewBox="0 0 200 200" fill="none" xmlns="http://www.w3.org/2000/svg">
    <rect width="200" height="200" rx="24" fill="#fff"/>
    <g clip-path="url(#beh8u1rl6b)" fill="url(#z3or0sdmga)">
        <path d="m155.876 51.232-13.575 8.738a1.474 1.474 0 0 0-.448 2.027l23.849 37.957a1.464 1.464 0 0 0 2.033.457l13.575-8.738a1.475 1.475 0 0 0 .451-2.03l-23.848-37.958a1.468 1.468 0 0 0-2.037-.453zM74.093 123.44l1.574-2.322a4.554 4.554 0 0 0-1.392-6.456 4.508 4.508 0 0 0-2.336-.653 4.554 4.554 0 0 0-3.76 1.976l-4.576 6.732c-.044.07-.074.148-.117.218a3311.603 3311.603 0 0 1-5.39 7.949c-.074.107-.17.191-.246.295l-1.174 1.724a4.59 4.59 0 0 0 1.126 6.291 4.518 4.518 0 0 0 3.428.766 4.548 4.548 0 0 0 2.945-1.92l.796-1.172c.132-.239.232-.49.386-.714l8.622-12.585c.033-.045.077-.081.114-.129zM135.465 70.384a6.77 6.77 0 0 1-3.977.369l-12.306-2.58a49.968 49.968 0 0 0-19.582-.228l-11.572 2.16a12.056 12.056 0 0 0-7.368 4.532l-9.866 12.898a3.071 3.071 0 0 0 .089 3.828 3.037 3.037 0 0 0 3.738.75l20.972-11.046a6.859 6.859 0 0 1 6.917.325l45.1 29.356c.143.096.286.195.425.298a1.46 1.46 0 0 0 1.897-.099l10.509-9.976a1.477 1.477 0 0 0 .231-1.843l-18.848-30a1.463 1.463 0 0 0-1.791-.582l-4.568 1.838zM90.306 136.382a3.626 3.626 0 0 0-2.847-.811c-.91.128-1.74.598-2.319 1.316l-4.744 6.928a3.699 3.699 0 0 0-.194 2.709 3.681 3.681 0 0 0 1.707 2.107 3.654 3.654 0 0 0 2.68.36 3.67 3.67 0 0 0 2.199-1.583l4.204-6.051a3.735 3.735 0 0 0-.686-4.975zM82.018 134.701l2.568-3.792a4.587 4.587 0 0 0-.88-6.117 4.464 4.464 0 0 0-3.504-.966 4.46 4.46 0 0 0-2.969 1.788l-9.136 13.451a4.558 4.558 0 0 0-.155 3.322 4.517 4.517 0 0 0 5.347 2.948 4.535 4.535 0 0 0 2.664-1.837l1.284-1.879c.118-.211.206-.435.345-.638l4.194-6.051c.084-.085.161-.147.242-.229z"/>
        <path d="m145.518 113.972-45.096-29.367a3.033 3.033 0 0 0-3.067-.144L76.393 95.476a6.869 6.869 0 0 1-9.126-2.637 6.915 6.915 0 0 1 .486-7.681l7.602-9.928a.872.872 0 0 0-.55-1.386l-7.577-1.209a6.8 6.8 0 0 1-2.088-.692l-4.916-2.561a1.462 1.462 0 0 0-1.916.52l-17.993 28.64a1.479 1.479 0 0 0 .07 1.681l8.721 11.545a1.456 1.456 0 0 0 1.02.573 1.453 1.453 0 0 0 1.112-.355 8.201 8.201 0 0 1 9.686-.785 8.392 8.392 0 0 1 2.672 2.609.854.854 0 0 0 1.121.283.854.854 0 0 0 .31-.283 8.398 8.398 0 0 1 5.263-3.48 8.37 8.37 0 0 1 6.191 1.177 8.335 8.335 0 0 1 3.632 5.384c.144.711.19 1.439.136 2.163a.857.857 0 0 0 .822.907 8.267 8.267 0 0 1 5.045 1.842 8.443 8.443 0 0 1 2.719 4.069 8.473 8.473 0 0 1 .007 4.901.87.87 0 0 0 .337.944.842.842 0 0 0 .324.139 7.512 7.512 0 0 1 5.452 4.606 7.571 7.571 0 0 1-.83 7.106l-.872 1.257a.863.863 0 0 0-.087.837.858.858 0 0 0 .662.515l11.243 1.728a13.386 13.386 0 0 0 9.33-1.997.87.87 0 0 0-.081-1.504l-12.419-6.364a1.908 1.908 0 0 1-.951-1.114 1.93 1.93 0 0 1 .112-1.464c.114-.224.27-.424.46-.588a1.908 1.908 0 0 1 2.107-.254l14.764 7.529a5.599 5.599 0 0 0 4.043.421 5.627 5.627 0 0 0 3.27-2.426 3.658 3.658 0 0 0 .733-2.948 3.567 3.567 0 0 0-1.647-2.38l-3.412-2.094-13.785-7.543a1.924 1.924 0 0 1-.761-2.607 1.909 1.909 0 0 1 2.596-.765l19.079 10.436a6.157 6.157 0 0 0 4.857.433 6.186 6.186 0 0 0 3.655-3.241 1.72 1.72 0 0 0 .066-.195 3.893 3.893 0 0 0-1.713-4.345l-1.384-.833-20.48-12.308a1.918 1.918 0 0 1-.871-1.179 1.917 1.917 0 0 1 1.388-2.327 1.896 1.896 0 0 1 1.445.215l19.516 11.726.965.582 3.911 2.348a5.362 5.362 0 0 0 7.311-1.789 5.425 5.425 0 0 0 .687-4.023 5.408 5.408 0 0 0-2.31-3.357l-.034.022z"/>
        <path d="M60.987 117.359a4.433 4.433 0 0 0-2.007-2.856 4.568 4.568 0 0 0-2.4-.689 4.39 4.39 0 0 0-3.617 1.887l-5.456 7.838a4.48 4.48 0 0 0 1.06 6.173l.176.129a4.402 4.402 0 0 0 3.328.737 4.358 4.358 0 0 0 2.616-1.563l5.75-8.45a4.39 4.39 0 0 0 .55-3.206zM42.094 53.158 18.226 91.123a1.478 1.478 0 0 0 .457 2.034l13.418 8.509a1.464 1.464 0 0 0 2.025-.459l23.867-37.965a1.478 1.478 0 0 0-.457-2.033l-13.418-8.51a1.464 1.464 0 0 0-2.024.46z"/>
    </g>
    <defs>
        <linearGradient id="z3or0sdmga" x1="100" y1="-100" x2="-100" y2="100" gradientUnits="userSpaceOnUse">
            <stop stop-color="#1459C1"/>
            <stop offset="1" stop-color="#209BE0"/>
        </linearGradient>
        <clipPath id="beh8u1rl6b">
            <path fill="url(#z3or0sdmga)" transform="translate(18 51)" d="M0 0h164v98H0z"/>
        </clipPath>
    </defs>
</svg>
