<svg width="202" height="120" viewBox="0 0 202 120" fill="none" xmlns="http://www.w3.org/2000/svg">
    <g clip-path="url(#hucdkxjc4a)" fill="#65788A">
        <path d="m169.621.284-16.696 10.7a1.803 1.803 0 0 0-.551 2.481l29.331 46.479a1.816 1.816 0 0 0 1.134.8 1.804 1.804 0 0 0 1.366-.24l16.696-10.7a1.803 1.803 0 0 0 .555-2.486L172.125.839a1.803 1.803 0 0 0-2.504-.555zM69.038 88.701l1.936-2.842a5.559 5.559 0 0 0-4.585-8.705 5.609 5.609 0 0 0-4.625 2.419l-5.627 8.244c-.054.086-.09.18-.144.266a3998.239 3998.239 0 0 1-6.63 9.734c-.09.13-.207.234-.301.36l-1.444 2.112a5.602 5.602 0 0 0 1.385 7.703 5.572 5.572 0 0 0 4.215.938 5.566 5.566 0 0 0 2.048-.811 5.57 5.57 0 0 0 1.575-1.539l.98-1.435c.162-.293.284-.6.473-.876l10.604-15.41c.041-.054.095-.099.14-.157zM144.518 23.736a8.36 8.36 0 0 1-4.891.451l-15.135-3.159a61.716 61.716 0 0 0-24.083-.28l-14.232 2.645a14.837 14.837 0 0 0-9.061 5.55L64.982 44.737a3.75 3.75 0 0 0 4.706 5.604l25.793-13.524a8.467 8.467 0 0 1 8.506.397l55.468 35.947c.176.117.352.239.523.365a1.806 1.806 0 0 0 2.333-.122l12.924-12.215a1.806 1.806 0 0 0 .284-2.256l-23.18-36.736a1.81 1.81 0 0 0-2.203-.713l-5.618 2.252zM88.979 104.549a4.471 4.471 0 0 0-3.502-.993 4.473 4.473 0 0 0-2.852 1.611l-5.834 8.484a4.513 4.513 0 0 0 7.86 4.399l5.172-7.409a4.557 4.557 0 0 0-.844-6.092zM78.785 102.492l3.159-4.644a5.6 5.6 0 0 0-1.083-7.49 5.505 5.505 0 0 0-4.31-1.183 5.495 5.495 0 0 0-3.65 2.189l-11.236 16.471a5.557 5.557 0 0 0 6.384 7.678 5.577 5.577 0 0 0 3.277-2.25l1.58-2.301c.144-.258.252-.533.424-.781l5.157-7.409c.104-.104.199-.181.298-.28z"/>
        <path d="m156.883 77.109-55.463-35.96a3.742 3.742 0 0 0-3.772-.176l-25.78 13.488a8.479 8.479 0 0 1-9.025-.754 8.444 8.444 0 0 1-1.602-11.881l9.35-12.157a1.065 1.065 0 0 0-.677-1.696l-9.318-1.48a8.387 8.387 0 0 1-2.568-.849l-6.047-3.136a1.805 1.805 0 0 0-2.355.636l-22.13 35.071a1.805 1.805 0 0 0 .087 2.058L38.309 74.41a1.804 1.804 0 0 0 2.621.267 10.117 10.117 0 0 1 11.913-.962 10.302 10.302 0 0 1 3.285 3.195 1.056 1.056 0 0 0 1.76 0 10.329 10.329 0 0 1 14.088-2.82 10.19 10.19 0 0 1 4.468 6.593c.176.87.232 1.762.166 2.648a1.044 1.044 0 0 0 1.011 1.11c2.261.044 4.444.837 6.205 2.257a10.329 10.329 0 0 1 3.353 10.983 1.06 1.06 0 0 0 .812 1.327 9.234 9.234 0 0 1 7.293 10.118 9.232 9.232 0 0 1-1.607 4.222l-1.074 1.539a1.064 1.064 0 0 0 .219 1.446c.143.111.31.183.49.21l13.825 2.117a16.534 16.534 0 0 0 11.476-2.446 1.066 1.066 0 0 0-.1-1.841l-15.274-7.793a2.363 2.363 0 0 1-.721-.566 2.364 2.364 0 0 1-.558-1.709 2.36 2.36 0 0 1 1.612-2.051 2.338 2.338 0 0 1 1.792.138l18.158 9.219a6.915 6.915 0 0 0 8.993-2.455 4.466 4.466 0 0 0 .903-3.61 4.366 4.366 0 0 0-2.026-2.915l-4.197-2.563-16.953-9.237a2.345 2.345 0 0 1-1.13-1.402 2.373 2.373 0 0 1-.081-.914 2.357 2.357 0 0 1 1.677-2.005 2.352 2.352 0 0 1 1.79.192l23.465 12.78a7.59 7.59 0 0 0 5.973.53 7.597 7.597 0 0 0 4.496-3.969c.032-.078.059-.158.081-.239a4.75 4.75 0 0 0-2.107-5.32l-1.701-1.02-25.189-15.072a2.348 2.348 0 0 1 2.414-4.03l24.002 14.36 1.187.712 4.81 2.875a6.614 6.614 0 0 0 6.994-11.227l-.04.027z"/>
        <path d="M52.92 81.256a5.413 5.413 0 0 0-2.468-3.497 5.646 5.646 0 0 0-2.951-.844 5.415 5.415 0 0 0-4.45 2.31l-6.71 9.598a5.465 5.465 0 0 0 1.304 7.559l.217.157a5.415 5.415 0 0 0 4.093.903 5.36 5.36 0 0 0 3.217-1.913l7.071-10.347a5.357 5.357 0 0 0 .677-3.926zM29.684 2.643.33 49.13a1.805 1.805 0 0 0 .562 2.49l16.502 10.42c.843.533 1.958.28 2.49-.562L49.24 14.99a1.805 1.805 0 0 0-.563-2.49L32.174 2.08a1.805 1.805 0 0 0-2.49.563z"/>
    </g>
    <defs>
        <clipPath id="hucdkxjc4a">
            <path fill="#fff" transform="translate(.052)" d="M0 0h201.698v120H0z"/>
        </clipPath>
    </defs>
</svg>
