<svg width="200" height="200" viewBox="0 0 200 200" fill="none" xmlns="http://www.w3.org/2000/svg">
    <rect width="200" height="200" rx="24" fill="#fff"/>
    <g clip-path="url(#nx1dr6qmab)" fill="url(#zj0s3tolza)">
        <path d="M127.042 129.051H44.688V72.194h32.265a11.914 11.914 0 0 1-1.336-1.063c-1.582-1.455-2.402-3.511-2.686-5.605H40.724c-1.514 0-2.723 1.211-2.723 2.678v72.323c0 1.501 1.209 2.694 2.723 2.694h46.562l-3.216 18.503h-7.862c-.596 0-1.089.477-1.089 1.074v2.625c0 .597.493 1.074 1.089 1.074h44.266c.596 0 1.089-.478 1.089-1.074v-2.624c0-.597-.493-1.074-1.089-1.074h-7.862l-3.218-18.503h19.299l-1.65-14.171z"/>
        <path d="M99.097 138.993h-1.514a2.752 2.752 0 0 1-2.74-2.746 2.753 2.753 0 0 1 2.74-2.746h1.514a2.751 2.751 0 0 1 2.74 2.746 2.752 2.752 0 0 1-2.74 2.746zM155.973 65.526H99.007c.931.443 1.851.928 2.759 1.456l6.733 5.212h43.475v46.267l6.688 4.638V68.204a2.694 2.694 0 0 0-2.689-2.678zM161.119 130.992l-27.561-19.146c-1.447-1.006-3.404.171-3.197 1.924l3.909 33.376c.197 1.689 2.243 2.416 3.459 1.231l6.941-6.766 5.811 9.699a2.043 2.043 0 0 0 2.806.702l3.177-1.911a2.053 2.053 0 0 0 .702-2.813l-5.812-9.698 9.226-2.959c1.614-.52 1.933-2.671.539-3.639z"/>
        <path d="M111.639 78.838C106.8 67.632 88.802 66.52 88.802 60.378c0-3.732 1.957-4.852 5.961-4.852 3.24 0 5.984 1.318 9.087 3.957a.795.795 0 0 0 1.121-.08l6.873-7.94a.88.88 0 0 0-.033-1.174c-3.443-3.465-7.523-6.12-12.726-7.13-.43-.084-.783-.495-.783-.936v-7.926a.796.796 0 0 0-.797-.797h-8.84a.797.797 0 0 0-.797.797v8.112c0 .44-.348.87-.773.98-8.563 2.158-13.57 8.583-13.57 17.737 0 16.333 24.03 17.36 24.03 24.825 0 3.642-1.862 5.227-6.52 5.227-3.744 0-7.486-1.368-12.21-4.756a.74.74 0 0 0-1.07.203l-6.037 9.48c-.235.372-.165.913.174 1.195 4.376 3.668 10.255 5.729 15.188 6.465a.94.94 0 0 1 .788.905v7.737c0 .44.356.798.797.798h8.84c.44 0 .797-.356.797-.798v-7.434a19.858 19.858 0 0 1-1.24-6.925c.003-9.146 6.184-16.87 14.577-19.21z"/>
        <path d="M116.966 113.204c8.353 0 15.125-6.788 15.125-15.154 0-8.37-6.772-15.156-15.125-15.156-8.352 0-15.124 6.786-15.124 15.155 0 8.367 6.772 15.155 15.124 15.155zm-8.337-15.715 7.775-7.792a.797.797 0 0 1 1.125 0l7.774 7.792c.309.31.205.563-.233.563h-4.337v8.111a.8.8 0 0 1-.797.798h-5.94a.8.8 0 0 1-.797-.798v-8.11h-4.338c-.437 0-.542-.254-.232-.564z"/>
    </g>
    <defs>
        <linearGradient id="zj0s3tolza" x1="100" y1="-100" x2="-100" y2="100" gradientUnits="userSpaceOnUse">
            <stop stop-color="#32FFB5"/>
            <stop offset="1" stop-color="#206DE0"/>
        </linearGradient>
        <clipPath id="nx1dr6qmab">
            <path fill="url(#zj0s3tolza)" transform="translate(38 33.5)" d="M0 0h124v133H0z"/>
        </clipPath>
    </defs>
</svg>
