<svg width="211" height="165" viewBox="0 0 211 165" fill="none" xmlns="http://www.w3.org/2000/svg">
    <g clip-path="url(#vw5rd6sgaa)">
        <path d="M195.217 0h-63.774a15.09 15.09 0 0 0-15.091 15.091V149.91A15.092 15.092 0 0 0 131.443 165h63.774a15.09 15.09 0 0 0 15.091-15.091V15.091A15.087 15.087 0 0 0 195.217 0zM163.33 159.782a7.608 7.608 0 1 1 .002-15.217 7.608 7.608 0 0 1-.002 15.217zm38.783-22.444a2.623 2.623 0 0 1-2.623 2.624h-72.315a2.624 2.624 0 0 1-2.623-2.624V19.028a2.623 2.623 0 0 1 2.623-2.623h72.315a2.623 2.623 0 0 1 2.623 2.623v118.31zM79.511 0H15.737A15.091 15.091 0 0 0 .646 15.091V149.91A15.092 15.092 0 0 0 15.736 165h63.775a15.09 15.09 0 0 0 15.087-15.091V15.091A15.091 15.091 0 0 0 79.51 0zM47.624 159.782a7.61 7.61 0 0 1-1.484-15.071 7.604 7.604 0 0 1 7.81 3.235 7.607 7.607 0 0 1-3.414 11.257 7.615 7.615 0 0 1-2.912.579zm38.778-22.444a2.623 2.623 0 0 1-2.623 2.624H11.464a2.623 2.623 0 0 1-2.623-2.624V19.028a2.623 2.623 0 0 1 2.623-2.623H83.78a2.623 2.623 0 0 1 2.623 2.623v118.31z" fill="#65788A"/>
        <path d="M149.953 93.38a2.877 2.877 0 0 1-2.371-1.254l-8.643-12.72a2.877 2.877 0 0 1-.159-2.972 2.843 2.843 0 0 1 2.521-1.533h3.024a39.77 39.77 0 0 0-38.848-31.91A39.366 39.366 0 0 0 70.1 64.794a5.252 5.252 0 0 1-4.706 2.926c-.68 0-1.353-.132-1.98-.391a5.264 5.264 0 0 1-3.252-5.117c.037-.712.218-1.41.535-2.05a50.081 50.081 0 0 1 94.26 14.738h3.592a2.86 2.86 0 0 1 2.376 4.468l-8.6 12.747a2.852 2.852 0 0 1-2.372 1.263zM105.477 132.488A50.099 50.099 0 0 1 56.001 90.09H52.41a2.86 2.86 0 0 1-2.376-4.468l8.6-12.748a2.86 2.86 0 0 1 4.744 0l8.642 12.715a2.866 2.866 0 0 1-2.366 4.478h-3.02a39.775 39.775 0 0 0 38.844 31.943 39.366 39.366 0 0 0 35.377-21.805 5.251 5.251 0 0 1 4.706-2.926c.679 0 1.352.132 1.98.391a5.274 5.274 0 0 1 2.926 3.024 5.202 5.202 0 0 1-.21 4.142 49.778 49.778 0 0 1-44.779 27.652z" fill="#fff"/>
        <path d="M103.445 81.801a1.92 1.92 0 0 1-.512-.07c-4.496-1.281-6.78-3.303-6.78-6.01 0-2.973 2.857-5.591 6.952-6.337a1.862 1.862 0 0 1 2.204 1.831v8.722a1.862 1.862 0 0 1-1.864 1.864z" fill="#fff"/>
        <path d="M105.477 113.213a30.712 30.712 0 0 1-5.992-60.836A30.712 30.712 0 0 1 136.19 82.5a30.755 30.755 0 0 1-9.006 21.707 30.754 30.754 0 0 1-21.707 9.006zm-9.495-24.106a.168.168 0 0 0-.168.167c0 3.332 3.313 6.183 7.869 6.775a1.865 1.865 0 0 1 1.626 1.863v3.42c0 .045.018.088.049.121.031.032.074.05.119.052a.175.175 0 0 0 .172-.173v-3.42a1.862 1.862 0 0 1 1.622-1.863c4.561-.592 7.869-3.443 7.869-6.775 0-4.659-6.057-6.112-8.07-6.602a1.864 1.864 0 0 1-1.397-1.807v-9.65a1.862 1.862 0 0 1 2.203-1.83c4.091.759 6.952 3.363 6.952 6.336a.168.168 0 0 0 .286.119.165.165 0 0 0 .049-.12c0-3.33-3.308-6.177-7.869-6.774a1.866 1.866 0 0 1-1.621-1.863v-3.406a.176.176 0 0 0-.052-.119.175.175 0 0 0-.121-.049.167.167 0 0 0-.167.168v3.42a1.866 1.866 0 0 1-1.627 1.863c-4.556.597-7.869 3.444-7.869 6.775 0 3.112 2.642 5.274 8.074 6.606a1.863 1.863 0 0 1 1.398 1.808v9.645a1.862 1.862 0 0 1-1.863 1.863c-.114 0-.228-.009-.341-.028-4.095-.759-6.951-3.368-6.951-6.34a.173.173 0 0 0-.172-.182z" fill="#fff"/>
        <path d="M107.513 95.643a1.866 1.866 0 0 1-1.864-1.863v-8.722a1.86 1.86 0 0 1 .76-1.486 1.861 1.861 0 0 1 1.631-.308c4.505 1.272 6.788 3.294 6.788 6.01 0 2.973-2.861 5.591-6.952 6.341-.12.02-.241.03-.363.028z" fill="#fff"/>
        <path d="M105.477 41.127a41.506 41.506 0 0 1 41.047 35.638h-5.218a1.018 1.018 0 0 0-.999 1.08c.011.184.071.361.174.513l8.643 12.72a1 1 0 0 0 1.658 0l8.601-12.771a1.006 1.006 0 0 0 .053-1.031 1.005 1.005 0 0 0-.887-.53h-5.218a48.211 48.211 0 0 0-39.622-41.683A48.212 48.212 0 0 0 62.365 60.97a3.379 3.379 0 1 0 6.057 2.963 41.335 41.335 0 0 1 37.055-22.806zM148.588 104.011a3.369 3.369 0 0 0 .291-2.665 3.379 3.379 0 0 0-6.348-.298 41.464 41.464 0 0 1-43.762 22.276 41.466 41.466 0 0 1-34.335-35.107h5.223a1.003 1.003 0 0 0 .825-1.566l-8.643-12.72a1.002 1.002 0 0 0-1.659 0l-8.61 12.762a1 1 0 0 0 .834 1.561h5.218a48.215 48.215 0 0 0 69.577 37.232 48.215 48.215 0 0 0 21.389-21.447v-.028z" fill="#65788A"/>
        <path d="M98.022 75.72c0 2.116 2.638 3.425 5.428 4.217v-8.722c-3.098.569-5.428 2.404-5.428 4.506z" fill="#65788A"/>
        <path d="M105.477 53.65a28.85 28.85 0 1 0 28.85 28.85 28.889 28.889 0 0 0-28.85-28.85zm11.527 22.07a2.031 2.031 0 1 1-4.063 0c0-2.1-2.33-3.931-5.428-4.504v9.649c6.281 1.528 9.491 4.351 9.491 8.41 0 4.384-4.03 7.92-9.491 8.624v3.419a2.036 2.036 0 0 1-2.036 2.036 2.035 2.035 0 0 1-2.031-2.036v-3.42c-5.46-.712-9.496-4.24-9.496-8.624a2.036 2.036 0 0 1 4.068 0c0 2.106 2.329 3.933 5.428 4.506v-9.645c-6.318-1.547-9.496-4.37-9.496-8.414 0-4.384 4.035-7.92 9.496-8.624v-3.42a2.032 2.032 0 0 1 3.469-1.437c.382.381.597.898.598 1.437v3.42c5.461.713 9.491 4.24 9.491 8.624z" fill="#65788A"/>
        <path d="M107.513 93.78c3.089-.564 5.418-2.4 5.418-4.506 0-2.106-2.548-3.4-5.428-4.216l.01 8.722z" fill="#65788A"/>
    </g>
    <defs>
        <clipPath id="vw5rd6sgaa">
            <path fill="#fff" transform="translate(.646)" d="M0 0h209.663v165H0z"/>
        </clipPath>
    </defs>
</svg>
