<svg width="92" height="91" viewBox="0 0 92 91" fill="none" xmlns="http://www.w3.org/2000/svg">
    <rect x=".059" y=".131" width="91" height="90" rx="20" fill="#F9FCFF"/>
    <g clip-path="url(#11s76mpxpa)" fill="#C75075">
        <path d="M45.058 21.081c-2.975 0-5.883.881-8.356 2.532a15.029 15.029 0 0 0-5.54 6.743 15.01 15.01 0 0 0 3.261 16.374 15.045 15.045 0 0 0 16.392 3.256 15.037 15.037 0 0 0 6.75-5.534 15.013 15.013 0 0 0 2.533-8.348 15.033 15.033 0 0 0-4.41-10.618 15.065 15.065 0 0 0-10.63-4.405zm8.81 12.234-10.349 10.32a.404.404 0 0 1-.572 0l-6.698-6.68a.405.405 0 0 1 0-.57l2.496-2.494a.408.408 0 0 1 .572 0l3.919 3.909 7.569-7.55a.408.408 0 0 1 .572 0l2.496 2.494a.405.405 0 0 1-.006.57z"/>
        <path d="M68.697 33.306c-1.818-1.864-2.405-4.058-1.762-6.584.643-2.526-.29-4.139-2.801-4.84-2.513-.714-4.124-2.322-4.834-4.825s-2.324-3.436-4.845-2.799c-2.527.642-4.724.055-6.59-1.76-1.867-1.814-3.735-1.814-5.603 0-1.868 1.818-4.065 2.405-6.591 1.76-2.526-.644-4.144.289-4.854 2.799-.71 2.503-2.319 4.11-4.828 4.82-2.508.71-3.444 2.324-2.807 4.845.641 2.524.054 4.718-1.762 6.584-1.815 1.866-1.815 3.731 0 5.597 1.818 1.865 2.405 4.06 1.762 6.584-.643 2.523.29 4.14 2.802 4.847 2.508.707 4.117 2.313 4.826 4.82.708 2.505 2.323 3.438 4.845 2.798 2.527-.642 4.724-.055 6.59 1.76 1.867 1.815 3.735 1.815 5.603 0 1.868-1.817 4.065-2.404 6.591-1.76 2.526.643 4.141-.29 4.845-2.798.71-2.507 2.318-4.113 4.826-4.82 2.508-.707 3.45-2.323 2.825-4.847-.642-2.524-.055-4.719 1.762-6.584 1.816-1.866 1.816-3.731 0-5.597zm-7.525 9.598a17.533 17.533 0 0 1-8.748 9.08 17.56 17.56 0 0 1-12.586.869 17.54 17.54 0 0 1-9.915-7.793 17.51 17.51 0 0 1 4.66-23.054 17.557 17.557 0 0 1 23.427 2.338 17.515 17.515 0 0 1 4.537 11.76 17.385 17.385 0 0 1-1.378 6.8h.003z"/>
        <path fill-rule="evenodd" clip-rule="evenodd" d="M59.491 59.074a5.389 5.389 0 0 1-3.612 1.3 8.127 8.127 0 0 1-1.979-.263 5.521 5.521 0 0 0-1.355-.184c-1.163 0-2.157.44-3.127 1.383-1.035 1.008-2.132 1.636-3.271 1.88l5.037 13.941 5.472-7.827 9.219 2.525-5.162-14.278a5.83 5.83 0 0 1-1.222 1.523zM40.701 61.31c-.97-.943-1.964-1.383-3.127-1.383a5.518 5.518 0 0 0-1.36.184 8.127 8.127 0 0 1-1.979.264 5.389 5.389 0 0 1-3.612-1.301 5.993 5.993 0 0 1-1.441-1.945l-5.317 14.7 9.218-2.525 5.475 7.827 5.072-14.025c-1.017-.29-1.998-.89-2.929-1.796z"/>
    </g>
    <defs>
        <clipPath id="11s76mpxpa">
            <path fill="#fff" transform="translate(20.059 11.131)" d="M0 0h50v66H0z"/>
        </clipPath>
    </defs>
</svg>
