<svg width="126" height="165" viewBox="0 0 126 165" fill="none" xmlns="http://www.w3.org/2000/svg">
    <g clip-path="url(#syjltohzra)" fill="#65788A">
        <path d="M62.725 24.875a37.56 37.56 0 1 0 37.562 37.557 37.603 37.603 0 0 0-37.562-37.557zm22 30.583L58.883 81.26a1.012 1.012 0 0 1-1.102.22 1.012 1.012 0 0 1-.328-.22L40.725 64.56a1.012 1.012 0 0 1 0-1.426l6.234-6.234a1.02 1.02 0 0 1 1.43 0l9.786 9.772 18.902-18.873a1.02 1.02 0 0 1 1.43 0l6.233 6.234a1.012 1.012 0 0 1-.015 1.426z"/>
        <path d="M121.759 55.436c-4.54-4.659-6.006-10.145-4.4-16.46 1.606-6.313-.726-10.347-6.996-12.1-6.275-1.784-10.299-5.805-12.071-12.063-1.772-6.257-5.806-8.59-12.1-6.996-6.312 1.604-11.798.137-16.46-4.4-4.661-4.537-9.325-4.537-13.992 0-4.664 4.545-10.15 6.011-16.46 4.4-6.309-1.61-10.35.721-12.122 6.996-1.772 6.258-5.79 10.274-12.056 12.049-6.265 1.775-8.601 5.813-7.01 12.115 1.601 6.309.134 11.795-4.4 16.46-4.535 4.663-4.535 9.327 0 13.991 4.54 4.664 6.006 10.15 4.4 16.46-1.606 6.31.726 10.349 6.996 12.118 6.265 1.768 10.282 5.784 12.052 12.049 1.77 6.265 5.803 8.597 12.1 6.996 6.312-1.604 11.798-.137 16.46 4.4 4.661 4.537 9.325 4.537 13.992 0 4.664-4.542 10.15-6.008 16.46-4.4 6.309 1.608 10.342-.724 12.1-6.996 1.772-6.265 5.789-10.281 12.052-12.049 6.263-1.767 8.614-5.806 7.055-12.118-1.604-6.31-.137-11.796 4.4-16.46 4.536-4.664 4.536-9.328 0-13.992zm-18.792 23.995a43.811 43.811 0 0 1-53.28 24.873A43.814 43.814 0 1 1 106.4 62.432a43.518 43.518 0 0 1-3.439 16.999h.007z"/>
        <path fill-rule="evenodd" clip-rule="evenodd" d="M98.772 119.856a13.446 13.446 0 0 1-9.02 3.252 20.214 20.214 0 0 1-4.942-.66 13.812 13.812 0 0 0-3.385-.458c-2.904 0-5.386 1.1-7.81 3.458-2.585 2.519-5.324 4.088-8.17 4.697L78.027 165l13.666-19.569 23.023 6.314-12.892-35.695a14.571 14.571 0 0 1-3.05 3.806zM51.846 125.448c-2.424-2.358-4.906-3.458-7.81-3.458a13.803 13.803 0 0 0-3.395.458 20.263 20.263 0 0 1-4.943.66 13.45 13.45 0 0 1-9.02-3.252 14.979 14.979 0 0 1-3.6-4.862L9.8 151.745l23.02-6.314L46.493 165l12.668-35.064c-2.541-.723-4.99-2.222-7.315-4.488z"/>
    </g>
    <defs>
        <clipPath id="syjltohzra">
            <path fill="#fff" transform="translate(.293)" d="M0 0h124.868v165H0z"/>
        </clipPath>
    </defs>
</svg>
