<svg width="200" height="102" viewBox="0 0 200 102" fill="none" xmlns="http://www.w3.org/2000/svg">
    <g clip-path="url(#egxqd7xmza)" fill="#65788A">
        <path d="M191.883 58.745c-3.497-1.695-7.933-2.703-12.642-3.186 2.081 1.352 3.405 4.126 3.84 7.243.343 2.635.207 5.731-.55 8.802.228.186.456.39.686.598a7.68 7.68 0 0 1 2.241 5.456 7.67 7.67 0 0 1-2.241 5.432 7.63 7.63 0 0 1-5.418 2.246c-2.125 0-4.047-.848-5.418-2.246a7.69 7.69 0 0 1-2.264-5.432 7.7 7.7 0 0 1 2.264-5.456 7.644 7.644 0 0 1 7.177-2.04c.503-2.453.618-4.86.319-6.922-.594-4.4-2.994-6.555-5.807-7.954h-.005l-.583-1.902a77.763 77.763 0 0 0 4.702-.273c3.201-.276 6.104-.711 8.229-1.192.869-.205 1.395-1.078 1.212-1.947a1.888 1.888 0 0 0-.366-.711c-2.4-3.254-3.018-9.03-3.636-15.22-1.12-10.752-2.332-22.6-13.259-27.253-3.453-1.49-6.929-1.926-10.564-1.33-3.382.572-6.858 2.015-10.493 4.377-9.329-1.422-12.527 5.983-14.268 15.22-.479 2.59-.869 5.364-1.233 8.09-.869 6.58-1.737 12.996-4.161 16.229a1.588 1.588 0 0 0 .296 2.246c.183.137.39.229.617.276v.02c2.105.481 5.031.92 8.209 1.192 1.519.135 3.111.226 4.715.273l-.577 1.9c-.172.003-.355.005-.548.005-.641.021-1.211.047-1.738.069a1.612 1.612 0 0 0-1.531 1.695c.024.598.39 1.1.869 1.354 2.515 1.422 4.688 3.23 6.151 5.5 1.259 1.971 2.013 4.333 2.013 7.151V95.17c0 .895.707 1.63 1.599 1.63h48.034c.869 0 1.6-.735 1.6-1.63V68.948c.004-4.7-2.945-8.001-7.471-10.203zm-45.975-2.29.937-3.048h.184a19.719 19.719 0 0 0 5.098 3.942c2.288 1.239 4.573 1.879 6.355 1.879 1.806 0 4.094-.64 6.379-1.88.237-.126.474-.263.712-.406l.112-.071a16 16 0 0 0 .585-.37c.064-.042.127-.087.19-.13.165-.11.329-.223.494-.343.082-.059.166-.122.248-.184.141-.103.28-.21.419-.318l.302-.242a18.06 18.06 0 0 0 .705-.6l.233-.212c.155-.142.307-.288.46-.436.021-.019.04-.04.061-.061.188-.186.376-.375.559-.572h.202l.913 3.047c-1.942 2.062-3.771 3.713-5.714 5.067-2.01 1.398-4.206 2.474-6.857 3.322-2.652-.848-4.824-1.926-6.837-3.322-1.968-1.35-3.774-3-5.74-5.063zm3.063-5.73a14.65 14.65 0 0 1-2.675-4.655c-.618-1.695-.937-3.53-1.029-5.455 0-.1-.016-.198-.044-.297a1.61 1.61 0 0 0-1.649-1.239 1.637 1.637 0 0 0-.662.184c-.36.163-.646.153-.865.03-.22-.433-.42-1.035-.551-1.704-.252-1.126-.343-2.362-.343-3.325 0-.986.183-1.787.455-2.406.252-.62.594-1.053.937-1.307l7.119-3.66c.075-.034.141-.06.22-.122.503-.32.984-.595 1.44-.824 2.217 4.286 5.533 6.325 9.328 7.196 1.727.393 3.533.528 5.364.52 2.377-.007 4.801-.252 7.166-.499.225-.021.432-.096.62-.202l.049-.029c.045-.028.089-.058.129-.089.036-.026.068-.052.101-.078a.774.774 0 0 0 .066-.066c.042-.04.082-.082.12-.127.014-.016.026-.035.04-.054.037-.05.073-.099.105-.153.019-.033.033-.068.05-.101.021-.043.042-.083.058-.125.033-.082.059-.17.078-.257.033-.174.082-.339.146-.49a.912.912 0 0 1 .037-.077c.024-.052.049-.104.078-.15.004-.01.009-.017.014-.027.016-.026.035-.05.051-.073.158.182.271.408.407.657.298.64.481 1.467.481 2.546 0 .826-.068 1.878-.228 2.865-.131.666-.289 1.31-.507 1.827-.289.34-.653.478-1.071.283a1.616 1.616 0 0 0-.507-.144l-.111-.016a1.582 1.582 0 0 0-1.669 1.535c-.115 1.926-.435 3.758-1.029 5.456a14.65 14.65 0 0 1-2.675 4.655 16.276 16.276 0 0 1-4.685 3.781c-1.806.987-3.544 1.49-4.848 1.49-1.28 0-3.017-.506-4.823-1.49a15.981 15.981 0 0 1-4.688-3.784zm1.287 13.751c2.276 1.505 4.739 2.673 7.766 3.598.32.092.642.092.937 0 3.021-.923 5.477-2.086 7.751-3.588l-8.23 14.474-8.224-14.484z"/>
        <path d="M174.645 74.493a4.476 4.476 0 0 0-1.304 3.165c0 1.215.503 2.338 1.304 3.138.822.803 1.921 1.307 3.154 1.307a4.436 4.436 0 0 0 3.13-1.307 4.465 4.465 0 0 0 0-6.303 4.436 4.436 0 0 0-3.13-1.307c-1.233.002-2.33.504-3.154 1.307zm5.258 3.165a2.1 2.1 0 0 1-2.102 2.107 2.1 2.1 0 0 1-2.104-2.108c0-1.167.937-2.133 2.104-2.133 1.165 0 2.102.963 2.102 2.133zM59.755 58.404c.48-.252.845-.756.869-1.354a1.614 1.614 0 0 0-1.531-1.695c-.526-.022-1.097-.045-1.738-.069-.195 0-.376-.002-.547-.004l-.578-1.9a81.024 81.024 0 0 0 4.716-.274c3.177-.275 6.103-.71 8.208-1.191v-.021c.228-.047.434-.137.617-.276a1.588 1.588 0 0 0 .296-2.246c-2.423-3.23-3.292-9.65-4.161-16.228-.367-2.727-.754-5.5-1.233-8.09-1.738-9.238-4.94-16.643-14.267-15.221-3.636-2.362-7.112-3.805-10.494-4.377-3.635-.598-7.111-.16-10.563 1.33-10.928 4.65-12.142 16.499-13.26 27.25-.618 6.19-1.235 11.966-3.636 15.22-.16.205-.298.436-.366.712-.183.87.343 1.742 1.212 1.947 2.125.48 5.028.918 8.229 1.191 1.51.135 3.095.229 4.702.273l-.583 1.903h-.004c-2.812 1.399-5.212 3.55-5.808 7.954-.296 2.063-.184 4.469.32 6.922a7.644 7.644 0 0 1 7.177 2.04 7.7 7.7 0 0 1 2.263 5.455 7.69 7.69 0 0 1-2.264 5.432c-1.371 1.399-3.292 2.247-5.418 2.247a7.63 7.63 0 0 1-5.418-2.247 7.67 7.67 0 0 1-2.24-5.432 7.68 7.68 0 0 1 2.24-5.455c.23-.208.458-.413.686-.599-.754-3.07-.89-6.166-.55-8.801.435-3.118 1.762-5.891 3.84-7.243-4.709.483-9.145 1.49-12.642 3.186C3.31 60.947.36 64.248.36 68.948v26.221c0 .895.732 1.63 1.599 1.63h48.034c.893 0 1.6-.735 1.6-1.63V71.055c0-2.818.753-5.18 2.012-7.15 1.463-2.27 3.636-4.081 6.151-5.501zm-28.053-7.679a14.655 14.655 0 0 1-2.675-4.655c-.594-1.695-.914-3.53-1.029-5.455a1.583 1.583 0 0 0-1.67-1.535.831.831 0 0 0-.11.016 1.63 1.63 0 0 0-.507.144c-.42.195-.782.056-1.071-.283-.216-.518-.374-1.16-.508-1.827a18.79 18.79 0 0 1-.227-2.866c0-1.078.183-1.902.481-2.545.136-.25.25-.476.407-.657.016.023.035.047.051.073l.014.023c.028.05.054.1.078.153.012.026.026.052.037.078.064.15.113.316.146.49.019.087.044.174.077.257.017.044.04.084.06.124.016.033.03.069.048.102.031.054.069.103.106.153.014.019.026.037.04.054.038.045.078.087.12.127.021.021.042.045.066.066.033.028.065.054.1.078.043.033.085.063.13.09l.05.027c.187.106.394.182.62.203 2.364.247 4.785.492 7.164.5 1.832.006 3.638-.13 5.364-.521 3.796-.872 7.11-2.91 9.329-7.196.458.228.937.504 1.44.824.08.061.143.087.22.123l7.119 3.659c.343.252.685.687.937 1.306.274.62.455 1.423.455 2.407 0 .963-.091 2.2-.343 3.325-.133.668-.33 1.269-.551 1.704-.219.123-.506.132-.865-.03a1.69 1.69 0 0 0-.662-.184 1.609 1.609 0 0 0-1.649 1.241 1.14 1.14 0 0 0-.042.294c-.092 1.926-.411 3.758-1.029 5.456a14.656 14.656 0 0 1-2.675 4.655 15.903 15.903 0 0 1-4.685 3.782c-1.806.986-3.544 1.49-4.824 1.49-1.303 0-3.041-.506-4.847-1.49a16.175 16.175 0 0 1-4.69-3.78zm-3.04 5.73.914-3.048h.202a18.344 18.344 0 0 0 .62.631 19.462 19.462 0 0 0 .693.648 20.287 20.287 0 0 0 2.17 1.693c.064.042.127.087.19.13.195.127.39.249.585.37l.113.07c.237.141.474.278.712.407 2.285 1.239 4.572 1.879 6.378 1.879 1.783 0 4.07-.64 6.355-1.879a19.724 19.724 0 0 0 5.099-3.942h.183l.937 3.047c-1.966 2.063-3.772 3.714-5.737 5.067-2.013 1.4-4.185 2.475-6.837 3.323-2.651-.848-4.847-1.926-6.857-3.323-1.947-1.36-3.777-3.011-5.72-5.074zm4.346 8.033c2.27 1.5 4.73 2.663 7.75 3.586.298.092.617.092.937 0 3.027-.925 5.49-2.093 7.766-3.598l-8.224 14.486-8.23-14.474z"/>
        <path d="M18.785 80.796a4.438 4.438 0 0 0 3.13 1.307c1.236 0 2.332-.506 3.155-1.307a4.46 4.46 0 0 0 0-6.303c-.823-.803-1.922-1.307-3.154-1.307a4.43 4.43 0 0 0-3.131 1.307 4.46 4.46 0 0 0 0 6.303zm3.133-5.272c1.167 0 2.104.963 2.104 2.133a2.1 2.1 0 0 1-2.104 2.108 2.1 2.1 0 0 1-2.102-2.108c-.002-1.17.935-2.133 2.102-2.133zM118.062 77.13a5.134 5.134 0 0 0-1.508 3.645c0 1.444.571 2.727 1.508 3.666a5.123 5.123 0 0 0 3.659 1.514 5.112 5.112 0 0 0 3.635-1.514 5.145 5.145 0 0 0 1.511-3.666 5.124 5.124 0 0 0-1.511-3.645 5.108 5.108 0 0 0-3.635-1.514 5.122 5.122 0 0 0-3.659 1.514zm6.012 3.645c0 1.307-1.052 2.383-2.353 2.383a2.392 2.392 0 0 1-2.377-2.383 2.374 2.374 0 0 1 2.377-2.362 2.353 2.353 0 0 1 2.353 2.362z"/>
        <path d="M137.358 59.824c-3.887-1.903-8.871-3.026-14.153-3.554 2.4 1.375 3.749 4.47 4.23 7.93.387 2.958.207 6.44-.662 9.879.319.228.594.48.869.755a8.404 8.404 0 0 1 2.444 5.936 8.456 8.456 0 0 1-2.444 5.96c-1.532 1.514-3.612 2.453-5.921 2.453a8.4 8.4 0 0 1-5.944-2.453 8.454 8.454 0 0 1-2.447-5.96 8.39 8.39 0 0 1 2.447-5.936 8.4 8.4 0 0 1 5.944-2.453 9.27 9.27 0 0 1 2.102.252c.618-2.798.733-5.616.411-8.001-.709-5.157-3.405-6.991-6.837-8.687h-.009l-1.961-6.456a20.396 20.396 0 0 0 3.091-8.926c.984.044 1.829-.344 2.515-1.053.641-.664 1.12-1.582 1.44-2.613.615-1.856.845-4.241.845-5.936 0-1.743-.343-3.21-.89-4.354-.46-.98-1.055-1.745-1.7-2.315 1.479-6.642.075-12.001-2.896-16.023-2.057-2.75-4.869-4.836-7.978-6.235A23.77 23.77 0 0 0 100.138 0c-5.146.02-9.99 1.81-12.896 5.455a9.452 9.452 0 0 0-1.989.368c-2.308.664-4.162 2.13-5.394 4.261-1.168 2.042-1.762 4.677-1.67 7.839.06 2.004.38 4.231 1.014 6.673a7.21 7.21 0 0 0-1.496 2.244c-.479 1.123-.777 2.498-.777 4.125 0 1.696.228 4.08.822 5.936.343 1.032.822 1.95 1.463 2.614.686.711 1.531 1.1 2.515 1.052a20.381 20.381 0 0 0 3.089 8.922l-1.961 6.459h-.005c-2.926 1.627-5.03 3.826-6.172 7.059a13.12 13.12 0 0 0-.733 3.92 7.321 7.321 0 0 1 2.447-.068 7.976 7.976 0 0 1 2.95.94 8.726 8.726 0 0 1 2.469 1.902 7.996 7.996 0 0 1 1.554 2.637l4.253 12.08c.343.963.526 1.766.55 2.477.023.94-.228 1.695-.8 2.361-.482.549-1.145.961-2.014 1.307-.73.3-1.599.549-2.651.824a1.58 1.58 0 0 1-1.966-1.123 1.622 1.622 0 0 1 1.144-1.992c.96-.252 1.714-.483 2.264-.687.41-.16.686-.297.777-.436.024-.021.024-.068.024-.184 0-.32-.136-.803-.367-1.464L82.33 73.42a5.145 5.145 0 0 0-.913-1.558 6.608 6.608 0 0 0-1.555-1.215 5.31 5.31 0 0 0-1.85-.575 4.402 4.402 0 0 0-1.81.116l-2.742.732a4.485 4.485 0 0 0-1.623.803c-.526.39-.96.871-1.303 1.422-.343.572-.618 1.192-.733 1.834a4.503 4.503 0 0 0-.045 1.834l2.356 12.584c.115.664.251 1.144.41 1.443.045.092.092.137.116.137.162.068.458.044.869 0 .594-.092 1.371-.276 2.332-.549a1.638 1.638 0 0 1 1.99 1.147 1.637 1.637 0 0 1-1.145 1.992c-1.073.275-1.942.482-2.72.598-.913.136-1.69.113-2.376-.116-.845-.299-1.44-.824-1.898-1.65-.319-.62-.55-1.399-.753-2.43l-2.333-12.583a8.06 8.06 0 0 1 .045-3.05 8.927 8.927 0 0 1 1.167-2.91 8.93 8.93 0 0 1 2.081-2.29 8.165 8.165 0 0 1 2.72-1.331l.115-.021c-.045-1.995.275-4.036.916-5.845.73-2.041 2.102-4.469 3.955-5.707-5.487.504-10.698 1.627-14.723 3.6-4.984 2.43-8.253 6.075-8.253 11.231v29.318c0 .895.733 1.627 1.623 1.627h87.767a1.63 1.63 0 0 0 1.622-1.627V71.055c-.004-5.157-3.273-8.802-8.28-11.231zM85.85 57.142l1.367-4.524a22.513 22.513 0 0 0 5.749 4.446l.145.078c.087.047.174.091.261.136 1.848.954 3.678 1.554 5.28 1.79l.025.004c.092.015.181.024.27.036.06.007.115.014.174.019l.212.02c.08.008.16.013.237.017l.155.01c.131.007.263.01.39.01.126 0 .258-.006.392-.01l.169-.01c.073-.004.148-.01.221-.016l.234-.021.132-.015c1.729-.202 3.732-.84 5.752-1.902.023-.012.044-.024.068-.035.091-.047.18-.097.272-.146.118-.064.235-.13.352-.196.024-.014.047-.028.073-.04a22.543 22.543 0 0 0 5.259-4.17l1.366 4.523c-2.24 2.338-4.297 4.241-6.514 5.779-2.288 1.558-4.756 2.795-7.774 3.758-2.995-.963-5.486-2.2-7.75-3.758-2.22-1.543-4.3-3.445-6.517-5.783zm-3.591-20.149c-.252.207-.456.3-.594.344-.047 0-.092-.024-.16-.092-.251-.252-.482-.756-.686-1.351-.479-1.491-.662-3.485-.662-4.929 0-1.168.207-2.107.526-2.842.228-.57.524-.982.84-1.302 2.164.09 4.374-.565 6.36-1.747a15.252 15.252 0 0 0 4.023-3.461c2.699 3.53 7.248 5.891 12.048 6.922 4.871 1.053 10.059.756 13.878-1.055.343-.171.679-.355 1.007-.548.252.275.479.62.686 1.031.343.756.571 1.743.571 3.002 0 1.446-.183 3.438-.662 4.929-.207.595-.435 1.1-.686 1.351-.068.068-.115.092-.16.092a2.142 2.142 0 0 1-.547-.3c-.298-.227-.641-.367-1.008-.367a1.63 1.63 0 0 0-1.622 1.628c0 3.96-1.208 7.278-3.009 9.929-.038.047-.07.097-.101.146-.035.052-.073.101-.108.15-.12.173-.244.337-.369.502-.105.14-.211.278-.321.415a19.181 19.181 0 0 1-2.243 2.331c-.115.101-.228.205-.343.301a19.785 19.785 0 0 1-2.288 1.65c-1.794 1.098-3.576 1.797-5.089 2.08-.009.002-.019.002-.026.005-.117.02-.235.04-.35.058a7 7 0 0 1-.42.05c-.052.005-.101.007-.15.012a6.898 6.898 0 0 1-.482.02c-.152 0-.312-.009-.472-.018l-.16-.012a8.644 8.644 0 0 1-.399-.047c-1.576-.228-3.51-.951-5.46-2.143a19.461 19.461 0 0 1-3.737-3.002c-.22-.228-.439-.466-.653-.71-.072-.083-.14-.17-.213-.253-.122-.146-.245-.292-.364-.442a16.45 16.45 0 0 1-.54-.72c-1.943-2.711-3.27-6.151-3.27-10.3a1.62 1.62 0 0 0-.319-.96 1.613 1.613 0 0 0-2.266-.347zm8.083 28.423c.066.044.13.094.193.139 2.651 1.855 5.556 3.254 9.122 4.353.319.092.662.092.96-.02 3.544-1.08 6.447-2.478 9.101-4.333.058-.04.117-.085.176-.127l-9.779 17.203-9.773-17.215z"/>
    </g>
    <defs>
        <clipPath id="egxqd7xmza">
            <path fill="#fff" transform="translate(.358)" d="M0 0h199v102H0z"/>
        </clipPath>
    </defs>
</svg>
