<svg width="183" height="165" viewBox="0 0 183 165" fill="none" xmlns="http://www.w3.org/2000/svg">
    <g clip-path="url(#d4f8r2geoa)" fill="#65788A ">
        <path d="M60.235 86.26c1.592-1.343.837-5.917.687-8.053-.065-.934 0-2.03-1.016-2.652-3.127-1.933-6.258-3.862-9.61-5.402-1.185-.548-2.168.325-2.599.72-.43.393-2.095 2.501-2.59 3.074-1.11 1.275-1.751 2.652-1.22 4.414a2.77 2.77 0 0 1-.052 2.1c-.231.366-1.023 1.686-2.03 1.422a9.102 9.102 0 0 0-5.804.34c-.85.301-1.219.11-1.722-.405-.732-.748-1.073-1.73-1.6-2.6-1.954-3.212-3.794-6.433-3.453-10.41.077-.848 1.568-11.347 1.353-12.59-.191-1.104-.35-3.017.158-3.281.508-.264 1.625 1.352 2.266 1.49.841.18 3.716-.503 4.098-1.795.037-.13 2.21-7.526 2.242-8.31.118-3-.378-6.035.406-9.012a1.118 1.118 0 0 0-.142-.633c-.309-.707-.475-1.32.455-1.755.552-.26.621-.87.471-1.425-.224-.87-.56-1.707-.999-2.49-.654-1.158-1.681-2.466-1.706-3.168-.024-.703.195-.84.098-2.514-.098-1.673-.74-2.843-1.596-4.289-.857-1.446-5.252-4.602-10.288-4.602-5.036 0-7.717-.284-11.474 2.031-3.756 2.315-7.387 8.363-9.004 10.397-.637.813-1.052 1.446.508 1.467.58 0 .767.345.715.893-.073.76-.102 1.527-.17 2.287-.655 7.002.722 13.809 2.09 20.587h.285c.528-.743.772-1.95 2.144-1.3-.88 3.03-.54 5.979.585 8.875a.215.215 0 0 0 .065.24c0 .194.033.405.045.584-.707 1.933-1.397 3.875-2.128 5.8a7.518 7.518 0 0 0 .337 6.478c.898 1.746 1.994 3.407 2.603 5.3-.511.955-.999 1.917-1.535 2.843-2.116 3.724-3.61 7.587-3.472 12.01.125 4.094-.098 8.2-.094 12.298a5.85 5.85 0 0 1-1.218 3.769c-.435.345.345 2.197 1.336 2.031.99-.167 1.36.312 1.543 1.145-.085 2.197-.207 4.398-.243 6.6-.07 4.15-1.117 7.948-3.741 11.262-1.41 1.783-1.742 3.964-1.519 6.121.43 3.572.536 7.175.317 10.767-.163 2.03.053 4.24-1.568 5.97a27.499 27.499 0 0 0-2.14 2.928c-.455.638-.455 1.251.142 1.803.406.366 4.971 5.15 7.144 6.852 1.564 1.218 9.2-.175 11.043-.743 1.3-.406 1.685-1.219.694-2.116-.99-.898-1.872-1.154-5.015-1.86-3.371-1.767-6.251-4.699-6.17-7.477.081-2.778.43-3.583.93-5.305a976.825 976.825 0 0 1 4.81-16.12c.9-2.916 3.228-6.14 3.476-8.443.247-2.303.406-5.967 1.734-6.681 1.328-.715 4.467-.813 5.527 1.283 1.06 2.096.338 13.362 1.113 20.023.776 6.661 5.593 12.184 6.028 14.576.434 2.393-.31 5.561-.317 6.279-.439 1.528-.2 1.869 1.303 1.909 2.437.061 4.955-.406 7.352.313 2.294.691 7.192.386 8.67.232 1.48-.155 2.117-.874 2.117-2.165 0-1.198-1.576-1.397-2.518-1.357-1.75.077-9.228-4.398-11.084-5.572a2.676 2.676 0 0 1-1.283-2.201c-.516-4.326-1.121-8.639-1.442-12.997-.439-5.897-1.832-11.737-.934-17.7a7.593 7.593 0 0 0 0-5.393c0-.199 0-.406.02-.589.183-1.02.719-4.362.812-4.537.118-.674-.349-1.19-.503-1.795-1.142-4.403-2.348-8.785-3.49-13.187-.608-2.437-1.867-6.426-1.774-7.441.094-1.015 1.219-1.218 2.21-.833.99.386 4.548 6.974 8.191 7.474 3.644.499 5.439.767 5.95-1.524.512-2.29.163-5.653 2.368-5.686 2.206-.032 2.701 2.1 5.406 2.34 2.705.24 5.82.422 7.416-.918zM130.368 59.171c1.426-3.204 5.012-9.748 4.244-10.499-.767-.751-13.886 9.687-13.776 10.67.11.982.207.869-.439 1.4-.645.533-.235 1.699-.182 1.958-.321.378-.63.76-.955 1.13-5.576 6.307-11.949 17.943-16.701 18.897-4.751.955-6.904-3.87-6.99-6.965-.085-3.095.094-4.378.334-5.589.163-.9.27-1.81.32-2.725.407-3.407 1.186-8.797 1.702-11.331.516-2.534-.564-11.514-2.124-15.49-.723-1.187-.552-2.592-.918-3.871-.268-.934-3.76-3.278-3.33-3.814.43-.536 1.624.11 2.25.496.946.58 1.864 1.218 2.794 1.815.934.406.91 1.06 2.803 1.166 1.892.105 2.266-2.388 2.437-3.814.129-.99.024-8.509.162-8.529 1.259-.406 1.109-1.218.889-2.25a10.043 10.043 0 0 0-.877-2.21c-.581-1.242-2.03-2.33-1.97-3.598.061-1.267.715-1.373.061-2.485-.654-1.113-1.344-2.173-1.003-3.436.341-1.263-.78-2.75-2.437-4.139-1.657-1.389-6.198-3.521-6.774-3.087-.577.435.036 1.316-.744 1.503a23.682 23.682 0 0 0-9.3 4.496c-1.422 1.121-3.826 3.026-3.765 3.923.06.898 1.6-.24 1.153 1.34-.136.47-.245.948-.325 1.43-1.145 7.815 1.219 20.255 1.02 24.04-.2 3.785-2.713 10.434-2.977 11.352-.35 1.218-.614 2.59.097 3.655.523.755.793 1.657.772 2.575.045 1.056-.812 1.45-1.182 4.061-.37 2.612.873 5.54 1.056 5.991.589 1.487 2.165 1.864 2.03 4.338-.133 2.473-4.467 13.17-3.525 19.495-.02 2.883 1.47 3.115.407 8.638-1.065 5.524 3.082 8.911 3.22 10.296.138 1.385-1.425 2.246-2.286 3.249a3088.316 3088.316 0 0 1-18.906 21.327 1.465 1.465 0 0 0 .065 2.03c.357.358 1.466 1.044 2.372-.04 5.978-7.148 15.58-21.335 18.036-21.367 2.458-.033.72 9.268-1.547 13.049-1.552 2.587-3.184 5.333-3.217 8.501-.05 3.466.078 6.932.382 10.385.268 2.94-1.75 9.512-1.97 10.092-.487 1.3-.95 2.6-.962 4.017a1.22 1.22 0 0 0 .995 1.357c3.249.877 5.596 2.266 10.657 2.03 5.06-.235 6.389-.45 8.87-1.961a.817.817 0 0 0 .341-.813c-.052-1.129-.56-1.864-1.762-1.973-.76-.069-1.52-.11-2.279-.187-2.9-.289-7.558-3.562-8.602-5.28-1.044-1.718 0-4.334.337-5.808.926-3.879 1.824-7.774 2.937-11.599.958-3.302 1.56-6.755 3.297-9.78 1.739-3.026 1.966-9.849 3.656-9.748 1.69.102 1.766 4.614 1.32 7.132-.544 3.107-.97 6.214-.833 9.374.106 2.437 3.501 9.309 4.147 10.62 1.12 2.291 2.323 4.521 1.397 7.23-.374 1.088-.97 4.776-1.044 5.467-.073.69-.317 1.413.443 1.904.65.166 1.323.216 1.99.147 2.876 0 7.359 1.027 10.19 1.027 2.831 0 3.785-.276 5.589-.914 1.145-.406 1.332-1.308.544-2.221-.374-.443-.881-.406-1.369-.406-1.689 0-5.791-2.547-6.392-3.079-1.507-1.336-4.647-4.427-4.647-4.427-.71-.642-.942-1.466-1.068-2.392-.54-4.001-1.027-8.013-1.218-12.046-.147-3.185-.585-6.434.235-9.541 1.024-3.899.26-11.018 1.373-13.106 1.113-2.088 1.007-6.99.695-8.574-.65-3.298-2.112-6.262-1.954-9.893.158-3.631 13.882-16.738 17.692-20.56 2.599-2.607 4.873-5.515 7.582-8.037 1.048.483 1.15-.776 2.112-.922.963-.146 1.19.406 1.885 0 .694-.406 3.371-4.926 3.46-5.097zM182.57 159.98c0-2.067-2.238-2.904-3.351-3.152-1.917-.426-3.907-.593-5.641-1.645-1.093-.662-4.342-3.683-5.227-9.386-.886-5.702-3.31-10.929-4.768-16.444-.91-3.449-2.738-6.755-1.515-10.605.544-1.714.442-3.655.528-5.483a83.635 83.635 0 0 0-1.999-22.5c-.316-1.401 4.277-2.815 4.74-1.625.138.35 1.166 3.038 1.58 3.497.812.91 1.129.593 1.381-.378.353-1.344.776-2.672 1.125-4.02.349-1.349.378-5.04-2.677-8.087-3.054-3.046-3.76-5.771-3.809-10.807-.329-18.171 3.054-16.384 3.046-25.149-.008-8.764-1.921-9.434-2.254-11.083-.333-1.65-2.096-4.114-1.072-5.516 1.023-1.4 2.916-.373 4.378-.556 1.462-.183 2.031-.78 1.718-2.201-.443-1.921.284-3.802.093-5.71a.812.812 0 0 1 .362-.687c.995-.784.759-1.698.292-2.652-.256-.52-2.477-1.26-1.759-2.787.719-1.527-.142-.633-.43-3.602-.288-2.969-1.145-3.412-.95-4.8.195-1.39 2.315-1.983.812-3.656s-3.586-.719-5.341-.585c-2.278.179-4.979-.215-8.419 3.392-3.44 3.606-1.332 7.127-1.722 9.272-.39 2.144-.67 4.325.406 6.437.325.642-.025 1.405-.256 2.088-.077.227-.219.447-.463.406-1.592-.341-1.852.678-1.998 1.88a5.698 5.698 0 0 1-.674 2.307c-2.271 4.52-5.28 10.45-5.812 13.976-.532 3.525.662 3.192.645 6.522-.016 3.33-1.88 5.959-2.591 7.055-.812 1.263-1.807 1.625-2.327 4.013s-.309 6.092-.049 9.475 1.219 4.106 1.998 6.092c1.195 3.083 3.152 5.979 1.893 9.614-.552 1.588-.516 3.37-.893 5.032-.476 2.112-.248 3.935 1.218 5.686.479.568 1.239.905 1.491 1.665-.813 4.289-1.048 4.508-2.437 12.854-1.389 8.347-4.671 13.46-5.37 14.873-1.056 2.137-2.067 4.281-2.294 6.718-.301 3.27-.679 6.531-1.077 9.788-.454 3.729-1.925 7.205-2.745 10.844-.276 1.219-1.604 3.201-.313 6.092 1.292 2.892 9.431 6.45 10.702 6.616 2.843.378 5.662.366 8.318-.922.759-.365 2.372-1.421 2.075-2.436.033-1.105-1.511-1.739-4.808-2.571-4.626-1.166-4.618-8.57-4.622-9.147 0-2.721-.679-5.442.126-8.163 1.624-5.52 3.505-10.966 5.495-16.347.613-1.662 1.762-4.976 1.762-4.976s1.316-4.264 2.843-4.224c1.527.041 1.755 2.064 1.877 5.455 0 .43.178 2.079.122 2.75-.232 2.684-.407 5.377-.671 8.057-.276 2.9 1.154 5.329 2.181 7.843 1.259 3.079 2.657 6.092 4.135 9.09 1.149 2.327 1.182 5.093 1.218 7.265.037 2.173-1.734 8.395 2.06 8.741 3.793.345 11.327.024 16.972-.561 1.686-.126 2.742-.869 2.742-2.932z"/>
    </g>
    <defs>
        <clipPath id="d4f8r2geoa">
            <path fill="#fff" d="M0 0h182.566v165H0z"/>
        </clipPath>
    </defs>
</svg>
