<svg width="200" height="200" viewBox="0 0 200 200" fill="none" xmlns="http://www.w3.org/2000/svg">
    <rect width="200" height="200" rx="24" fill="url(#8pqsbty0ka)"/>
    <path d="M78.89 102.583c1.083-.915.57-4.025.468-5.477-.045-.636 0-1.381-.691-1.804-2.127-1.315-4.256-2.627-6.535-3.673-.806-.373-1.475.22-1.767.489-.293.267-1.426 1.7-1.762 2.09-.754.868-1.19 1.804-.83 3.003.177.462.164.975-.035 1.427-.157.25-.696 1.147-1.381.967a6.19 6.19 0 0 0-3.947.232c-.577.205-.828.075-1.17-.276-.498-.508-.73-1.177-1.09-1.768-1.328-2.184-2.579-4.375-2.347-7.079.053-.577 1.066-7.716.92-8.561-.13-.752-.238-2.053.108-2.232.345-.18 1.104.92 1.54 1.013.573.122 2.528-.342 2.788-1.22.025-.089 1.502-5.118 1.524-5.651.08-2.041-.257-4.105.276-6.13a.76.76 0 0 0-.096-.43c-.21-.48-.323-.898.31-1.193.375-.177.422-.591.32-.97a7.1 7.1 0 0 0-.68-1.693c-.445-.787-1.143-1.676-1.16-2.154-.017-.478.133-.572.066-1.71-.066-1.138-.502-1.933-1.085-2.916-.583-.983-3.571-3.13-6.996-3.13-3.425 0-5.248-.193-7.803 1.381-2.554 1.575-5.024 5.687-6.123 7.071-.434.553-.715.983.345.997.395 0 .522.235.486.608-.05.516-.069 1.038-.115 1.555-.445 4.761.491 9.39 1.422 14h.193c.36-.505.525-1.326 1.459-.884-.6 2.06-.368 4.066.397 6.035a.146.146 0 0 0 .044.163c0 .133.023.276.03.398-.48 1.314-.95 2.635-1.447 3.944a5.112 5.112 0 0 0 .23 4.405c.61 1.188 1.356 2.317 1.77 3.605-.348.649-.68 1.303-1.044 1.933-1.439 2.533-2.455 5.159-2.361 8.167.085 2.784-.067 5.576-.064 8.363a3.977 3.977 0 0 1-.828 2.563c-.296.235.234 1.494.908 1.381.674-.113.925.213 1.05.779-.058 1.494-.141 2.991-.166 4.488-.047 2.823-.76 5.405-2.544 7.659-.958 1.213-1.184 2.696-1.033 4.162.293 2.43.365 4.88.216 7.322-.11 1.381.036 2.884-1.066 4.06a18.708 18.708 0 0 0-1.456 1.992c-.31.433-.31.85.097 1.226.276.249 3.38 3.502 4.858 4.66 1.063.828 6.256-.119 7.51-.506.884-.276 1.146-.829.472-1.439-.674-.61-1.273-.784-3.41-1.265-2.293-1.201-4.252-3.195-4.196-5.085.055-1.889.292-2.436.632-3.607a663.884 663.884 0 0 1 3.27-10.962c.613-1.983 2.196-4.176 2.365-5.742.168-1.566.276-4.057 1.179-4.543.903-.487 3.038-.553 3.759.872.72 1.426.23 9.087.757 13.617.527 4.529 3.803 8.286 4.099 9.912.295 1.627-.21 3.782-.216 4.27-.298 1.039-.135 1.271.887 1.299 1.657.041 3.37-.277 4.999.212 1.56.47 4.891.263 5.897.158 1.005-.105 1.439-.594 1.439-1.473 0-.814-1.072-.95-1.713-.922-1.19.052-6.275-2.991-7.537-3.789a1.828 1.828 0 0 1-.873-1.497c-.35-2.942-.762-5.875-.98-8.839-.299-4.01-1.246-7.982-.636-12.036a5.166 5.166 0 0 0 0-3.668c0-.135 0-.276.014-.401.124-.693.489-2.966.552-3.085.08-.458-.237-.809-.342-1.22-.776-2.994-1.596-5.975-2.373-8.968-.414-1.658-1.27-4.37-1.207-5.06.064-.691.829-.829 1.503-.567.674.263 3.093 4.743 5.57 5.082 2.478.34 3.699.522 4.047-1.035.348-1.558.11-3.845 1.61-3.867 1.5-.022 1.837 1.428 3.676 1.591 1.84.163 3.958.287 5.044-.624zM126.584 84.16c.97-2.179 3.408-6.629 2.886-7.14-.522-.51-9.443 6.588-9.368 7.256.074.669.141.591-.298.953-.44.362-.161 1.154-.125 1.331-.218.257-.428.517-.649.768-3.792 4.29-8.125 12.202-11.357 12.851-3.231.65-4.695-2.632-4.753-4.736-.058-2.105.063-2.978.226-3.8.111-.613.184-1.232.218-1.854.277-2.317.807-5.982 1.158-7.706.35-1.723-.384-7.83-1.445-10.534-.491-.806-.375-1.762-.624-2.632-.182-.635-2.558-2.229-2.265-2.594.293-.364 1.105.075 1.53.337.644.395 1.268.829 1.901 1.235.635.276.618.72 1.905.793 1.287.072 1.541-1.624 1.657-2.594.089-.674.017-5.786.111-5.8.856-.276.754-.828.605-1.53a6.832 6.832 0 0 0-.597-1.503c-.395-.845-1.381-1.585-1.339-2.447.041-.861.486-.933.041-1.69-.445-.757-.914-1.477-.682-2.337.232-.858-.53-1.87-1.657-2.814s-4.215-2.395-4.607-2.099c-.392.295.025.895-.506 1.022a16.104 16.104 0 0 0-6.325 3.057c-.966.763-2.601 2.058-2.56 2.668.042.61 1.088-.163.785.912-.093.32-.167.644-.221.972-.78 5.314.828 13.774.693 16.348s-1.845 7.096-2.025 7.72c-.237.828-.417 1.762.067 2.486a2.96 2.96 0 0 1 .524 1.75c.03.719-.552.987-.803 2.763-.252 1.775.593 3.767.718 4.073.4 1.011 1.472 1.268 1.38 2.95-.09 1.682-3.037 8.957-2.397 13.258-.013 1.961 1 2.118.277 5.874-.724 3.756 2.096 6.06 2.19 7.002.094.942-.97 1.527-1.555 2.209-4.265 4.856-8.55 9.69-12.857 14.503a.998.998 0 0 0 .044 1.381c.243.243.997.71 1.613-.027 4.066-4.861 10.595-14.509 12.266-14.531 1.67-.022.489 6.303-1.052 8.874-1.055 1.76-2.166 3.627-2.188 5.781a69.27 69.27 0 0 0 .26 7.062c.182 2-1.19 6.469-1.34 6.864-.331.884-.646 1.767-.654 2.731a.829.829 0 0 0 .676.923c2.21.596 3.806 1.541 7.248 1.381 3.441-.16 4.344-.307 6.032-1.334a.552.552 0 0 0 .232-.553c-.036-.767-.381-1.267-1.199-1.342-.516-.047-1.033-.075-1.55-.127-1.971-.196-5.14-2.422-5.85-3.591-.709-1.168 0-2.947.23-3.949.63-2.638 1.24-5.287 1.997-7.888.652-2.246 1.06-4.593 2.243-6.651 1.182-2.058 1.337-6.698 2.486-6.629 1.148.069 1.2 3.138.897 4.85-.37 2.113-.66 4.226-.566 6.375.072 1.657 2.381 6.33 2.82 7.222.762 1.558 1.58 3.074.95 4.917-.254.74-.66 3.248-.71 3.717-.05.47-.215.961.301 1.296.442.112.9.146 1.354.099 1.955 0 5.004.699 6.929.699 1.925 0 2.574-.188 3.801-.622.779-.276.906-.889.37-1.51-.254-.302-.599-.277-.931-.277-1.149 0-3.938-1.731-4.347-2.093-1.025-.909-3.16-3.011-3.16-3.011-.483-.436-.641-.997-.726-1.627-.368-2.72-.699-5.449-.829-8.191-.099-2.166-.398-4.375.16-6.488.696-2.652.177-7.493.934-8.913.757-1.42.685-4.753.472-5.831-.442-2.242-1.436-4.259-1.328-6.728.107-2.469 9.44-11.382 12.031-13.98 1.767-1.774 3.314-3.751 5.156-5.467.713.329.782-.527 1.436-.627.655-.099.81.277 1.282 0 .472-.276 2.292-3.35 2.353-3.466zM162.083 152.714c0-1.405-1.522-1.974-2.278-2.143-1.304-.29-2.657-.403-3.837-1.118-.743-.451-2.952-2.505-3.554-6.383-.603-3.878-2.251-7.433-3.243-11.183-.619-2.345-1.862-4.594-1.03-7.212.37-1.165.301-2.486.359-3.729a56.873 56.873 0 0 0-1.359-15.301c-.215-.953 2.908-1.914 3.223-1.105.094.238.793 2.066 1.075 2.379.552.618.767.403.939-.257.24-.915.527-1.818.765-2.735.237-.917.257-3.427-1.82-5.499-2.077-2.071-2.558-3.924-2.591-7.35-.224-12.356 2.077-11.141 2.071-17.101-.005-5.96-1.306-6.416-1.533-7.538-.226-1.121-1.425-2.797-.729-3.75.696-.953 1.983-.255 2.978-.379.994-.124 1.381-.53 1.168-1.497-.301-1.306.193-2.585.064-3.883a.542.542 0 0 1 .245-.467c.677-.533.517-1.154.199-1.803-.174-.354-1.685-.857-1.196-1.895.489-1.039-.096-.43-.292-2.45-.197-2.019-.779-2.32-.647-3.264.133-.945 1.575-1.348.553-2.486-1.022-1.138-2.439-.49-3.632-.398-1.55.121-3.387-.146-5.726 2.306-2.339 2.453-.906 4.847-1.171 6.306-.265 1.458-.456 2.941.276 4.377.221.437-.016.956-.174 1.42-.052.155-.149.304-.315.276-1.082-.232-1.259.462-1.358 1.28a3.875 3.875 0 0 1-.459 1.568c-1.544 3.074-3.591 7.106-3.952 9.504-.362 2.397.45 2.17.439 4.435-.011 2.265-1.279 4.052-1.762 4.798-.553.859-1.229 1.105-1.583 2.729-.353 1.624-.21 4.143-.033 6.443.177 2.301.829 2.793 1.359 4.143.812 2.097 2.143 4.066 1.287 6.538-.376 1.08-.351 2.292-.608 3.422-.323 1.436-.168 2.676.829 3.867.326.386.842.616 1.013 1.132-.552 2.917-.712 3.066-1.657 8.742-.944 5.675-3.176 9.153-3.651 10.114-.718 1.453-1.406 2.911-1.56 4.568a227.868 227.868 0 0 1-.732 6.656c-.31 2.536-1.31 4.9-1.867 7.375-.188.828-1.091 2.176-.213 4.143.878 1.966 6.413 4.386 7.278 4.499 1.933.257 3.85.249 5.656-.627.517-.249 1.613-.967 1.411-1.657.023-.751-1.027-1.182-3.27-1.748-3.146-.793-3.14-5.828-3.143-6.22 0-1.851-.461-3.701.086-5.552 1.105-3.753 2.383-7.457 3.737-11.117.417-1.129 1.198-3.383 1.198-3.383s.895-2.9 1.934-2.873c1.038.028 1.193 1.404 1.276 3.71 0 .293.121 1.414.083 1.87-.158 1.825-.277 3.656-.456 5.479-.188 1.972.784 3.624 1.483 5.334a96.513 96.513 0 0 0 2.812 6.181c.781 1.582.803 3.463.828 4.941.025 1.478-1.179 5.709 1.401 5.944 2.579.235 7.703.016 11.542-.381 1.146-.086 1.864-.591 1.864-1.995z" fill="#fff"/>
    <defs>
        <linearGradient id="8pqsbty0ka" x1="100" y1="-100" x2="-100" y2="100" gradientUnits="userSpaceOnUse">
            <stop stop-color="#32C5FF"/>
            <stop offset=".513" stop-color="#B620E0"/>
        </linearGradient>
    </defs>
</svg>
