<svg width="200" height="200" viewBox="0 0 200 200" fill="none" xmlns="http://www.w3.org/2000/svg">
    <rect width="200" height="200" rx="24" fill="#fff"/>
    <g clip-path="url(#q02qm179rb)">
        <g clip-path="url(#guj3smxcjc)" fill="url(#r4o06xj0ka)">
            <path d="M102.361 142.185c.232-.04.45-.146.627-.306 4.602-4.118 7.535-8.946 11.478-15.872a.865.865 0 0 1 .525-.447.826.826 0 0 1 .675.088.856.856 0 0 1 .257.241.921.921 0 0 1 .145.326.928.928 0 0 1-.123.692c-3.151 5.518-5.676 9.746-8.913 13.379l7.813-.288c.357-.012.707-.11 1.021-.286a2.33 2.33 0 0 0 .79-.727c8.832-13.296 11.893-26.822 12.948-34.071.159-1.088.279-2.037.352-2.819.019-.18.002-.361-.052-.533a1.271 1.271 0 0 0-.261-.463 1.215 1.215 0 0 0-.935-.43h-4.836a1.226 1.226 0 0 0-.667.202c-.2.131-.36.317-.463.537l-.441.955a3.34 3.34 0 0 1-.15.378c-.106.217-.221.45-.341.69-3.025 6.06-10.925 19.609-25.05 29.485a.861.861 0 0 1-.313.153.824.824 0 0 1-.669-.116.87.87 0 0 1-.247-.25.907.907 0 0 1-.127-.69.899.899 0 0 1 .396-.569c13.788-9.636 21.509-22.871 24.475-28.804l.436-.946a1.322 1.322 0 0 0-.144-1.019 1.264 1.264 0 0 0-.35-.381 1.223 1.223 0 0 0-.469-.205l-3.418-.716a1.205 1.205 0 0 0-.647.041c-.208.073-.394.201-.539.372-3.859 4.577-18.205 20.123-41.944 29.488a.57.57 0 0 1-.098.037c-.209.084-.415.171-.625.251-.182.07-.347.183-.48.329a1.328 1.328 0 0 0-.293.514 1.302 1.302 0 0 0 .132 1.085c4.473 7.062 19.873 12.461 30.525 10.695zM124.634 158.516h-7.169a.74.74 0 0 1-.214.032H82.247a.746.746 0 0 1-.215-.032h-7.169a2.47 2.47 0 0 0-1.776.761 2.643 2.643 0 0 0-.735 1.836v1.767c0 .688.264 1.349.735 1.836a2.47 2.47 0 0 0 1.776.761h49.771c.666 0 1.305-.274 1.776-.761a2.643 2.643 0 0 0 .736-1.836v-1.767c0-.688-.265-1.349-.736-1.836a2.471 2.471 0 0 0-1.776-.761z"/>
            <path d="M110.746 102.063a6.398 6.398 0 0 1-1.43-2.115 6.587 6.587 0 0 1-.504-2.528v-.753a5.083 5.083 0 0 1-4.744-.168 1.471 1.471 0 0 0-1.481.087 6.77 6.77 0 0 1-2.844 1.34 6.648 6.648 0 0 1-3.123-.1 6.798 6.798 0 0 1-2.756-1.522 7.101 7.101 0 0 1-1.82-2.627c-.229-.577-.837-.765-1.359-.713v4.456a6.521 6.521 0 0 1-1.588 4.287 6.116 6.116 0 0 1-3.956 2.082l-12.987 1.417a11.709 11.709 0 0 0-5.148 1.866 12.201 12.201 0 0 0-3.813 4.035 2.836 2.836 0 0 0-.228 2.361c1.925 5.578 5.388 10.45 9.962 14.014 18.922-7.541 31.711-19.009 37.819-25.419zM122.365 141.253a6.015 6.015 0 0 0-.58-2.572c-.381-.8-.933-1.5-1.616-2.046a78.089 78.089 0 0 1-2.104 3.354 4.066 4.066 0 0 1-1.378 1.277 3.925 3.925 0 0 1-1.786.503l-9.627.361c-.377.367-.762.733-1.164 1.091a2.9 2.9 0 0 1-1.476.719c-1.553.25-3.122.372-4.694.366-6.9 0-14.583-2.147-20.306-5.457-.33.756-.5 1.577-.5 2.407a7.451 7.451 0 0 0 2.073 5.17 6.96 6.96 0 0 0 4.999 2.145h31.086a6.965 6.965 0 0 0 5-2.146 7.45 7.45 0 0 0 2.073-5.172zM73.47 73.36c.29.117.554.294.773.522.22.228.391.5.503.8a2.423 2.423 0 0 1-.095 1.908c-.965 1.965-1.577 4.871.999 7.535.028.028.059.06.087.095l.022.026c2.31 1.757 5.642 2.459 8.254.378a7.002 7.002 0 0 1-1.849-4.278 7.065 7.065 0 0 1 1.224-4.513.615.615 0 0 0-.117-.75 3.975 3.975 0 0 1-1.038-1.998 4.058 4.058 0 0 1 .2-2.258.724.724 0 0 0-.142-.716c-1.777-1.469-2.483-4.271-1.64-6.516 1.057-2.831 2.606-4.17 5.176-4.48a.347.347 0 0 1 .056 0h.072l.129.015h.039c1.14.163 2.294.21 3.443.142a4.2 4.2 0 0 0 1.707-.728 4.37 4.37 0 0 0 1.25-1.404 4.565 4.565 0 0 0 .332-3.712 2.552 2.552 0 0 1 .06-1.848 2.43 2.43 0 0 1 1.28-1.29c.958-.383 1.396-1.275 1.605-1.956a3.226 3.226 0 0 1 1.155-1.602 3.054 3.054 0 0 1 1.845-.594h7.333c2.562.004 5.046.903 7.051 2.552 2.005 1.648 3.411 3.95 3.991 6.53a4.268 4.268 0 0 0 2.042-1.43 4.543 4.543 0 0 0 .454-4.862 4.34 4.34 0 0 0-1.74-1.809 2.28 2.28 0 0 1-.879-.948 2.375 2.375 0 0 1-.237-1.291 2.905 2.905 0 0 0-.672-1.96 2.851 2.851 0 0 0-1.605-.655 2.256 2.256 0 0 1-1.481-.674 2.406 2.406 0 0 1-.679-1.519c-.086-1.258-.641-2.5-1.654-3.685-2.986-2.02-5.835-.967-7.225.865-.345.441-.831.741-1.37.847a2.252 2.252 0 0 1-1.574-.27 2.313 2.313 0 0 0-2.098-.097c-.448.2-.947.246-1.422.129-.475-.117-.9-.39-1.213-.779a4.275 4.275 0 0 0-1.846-1.295 4.143 4.143 0 0 0-2.226-.158 4.223 4.223 0 0 0-2 1.023 4.439 4.439 0 0 0-1.23 1.925 2.378 2.378 0 0 1-.441.81c-.197.236-.438.43-.709.57a2.175 2.175 0 0 1-1.727.124c-1.675-.578-4.186-.78-6.633 1.572-1.524 2.136-2.018 4.476-1.412 6.615a2.455 2.455 0 0 1-.246 1.93 2.34 2.34 0 0 1-.667.718 2.253 2.253 0 0 1-.893.373c-.94.18-1.889.745-2.818 1.683-1.091 1.919-.996 3.962.237 5.483.76.94.865 2.28.28 3.498a2.483 2.483 0 0 0-.23 1.37 3.332 3.332 0 0 1-.125 1.59c-.17.51-.46.97-.846 1.334a4.192 4.192 0 0 0-1.173 1.762 4.32 4.32 0 0 0-.177 2.131 4.25 4.25 0 0 0 .864 1.944c.447.56 1.025.99 1.68 1.248l-.013.028zM84.206 150.341c-.373 0-.746-.024-1.116-.072v6.475h33.29v-6.475a8.84 8.84 0 0 1-1.102.072H84.206zM136.304 111.107a12.078 12.078 0 0 0-5.171-4.819 88.016 88.016 0 0 1-7.043 22.94c5.784-3.609 10.181-9.178 12.446-15.76a2.856 2.856 0 0 0-.232-2.361z"/>
            <path d="M89.831 61.023c-.97.089-1.946.089-2.916 0 .458 2.733 2.19 10.014 8.12 15.007a4.06 4.06 0 0 0 2.395.947 4.037 4.037 0 0 0 2.475-.693c.377-.254.734-.48 1.077-.681l.209-.119.296-.17.257-.13.234-.121.226-.104c.084-.04.171-.084.257-.118.313-.135.625-.253.938-.355a13.05 13.05 0 0 1 3.521-.537c.466-.017.957-.026 1.496-.026 1.843 0 3.66.452 5.302 1.319a1.216 1.216 0 0 0 1.763-.808c.173-.72.26-1.46.26-2.202v-14.38c-.003-2.638-1.018-5.167-2.822-7.032-1.803-1.865-4.249-2.913-6.8-2.916h-7.32a1.362 1.362 0 0 0-.83.248c-.245.172-.431.42-.53.707-.447 1.492-1.376 2.598-2.621 3.085a.68.68 0 0 0-.346.37.711.711 0 0 0-.003.514 6.386 6.386 0 0 1-.467 5.218 6.115 6.115 0 0 1-1.766 1.968c-.72.514-1.541.859-2.405 1.01z"/>
            <path d="M120.627 75.894c0-2.02-1.348-4.441-3.156-5.134v1.443c0 .885-.104 1.767-.31 2.626a3.052 3.052 0 0 1-.583 1.202c-.28.35-.633.63-1.032.819a2.885 2.885 0 0 1-2.587-.055 9.74 9.74 0 0 0-3.349-1.057 9.333 9.333 0 0 0-1.172-.072c-.494 0-.94 0-1.359.02-.321 0-.628.026-.918.052h-.061a9.661 9.661 0 0 0-2.171.404h-.023c-.131.044-.262.087-.393.136l-.112.046c-.1.04-.2.078-.301.124-.1.047-.179.081-.279.124l-.151.07-.279.15-.139.075c-.438.24-.899.522-1.395.865a5.75 5.75 0 0 1-3.224 1.016 5.703 5.703 0 0 1-3.677-1.35c-6.647-5.576-8.372-13.581-8.78-16.343-1.394.387-2.232 1.325-2.94 3.195-.572 1.53-.084 3.5 1.116 4.49.373.333.638.777.756 1.272a2.538 2.538 0 0 1-.095 1.49 2.258 2.258 0 0 0 .011 1.636c.106.263.262.501.458.701a2.414 2.414 0 0 1 .304 3.042 5.203 5.203 0 0 0-.812 1.907 5.287 5.287 0 0 0-.01 2.084c.136.688.407 1.34.797 1.915.39.575.889 1.06 1.468 1.427.54.348.955.87 1.182 1.484a3.11 3.11 0 0 1 .073 1.922 2.98 2.98 0 0 0 0 1.679c.124.434.352.828.663 1.146.31.318.694.55 1.115.672.371.117.762.152 1.147.104 1.417-.188 2.71.534 3.212 1.79a5.29 5.29 0 0 0 1.898 2.397c.849.587 1.847.9 2.868.898a4.982 4.982 0 0 0 3.145-1.111 3.146 3.146 0 0 1 3.348-.234 3.437 3.437 0 0 0 2.308.41 3.505 3.505 0 0 0 2.048-1.172 2.955 2.955 0 0 1 1.675-.95 2.893 2.893 0 0 1 1.889.298 3.671 3.671 0 0 0 2.26.386 3.732 3.732 0 0 0 2.06-1.034 3.949 3.949 0 0 0 1.106-2.074 4.038 4.038 0 0 0-.255-2.354 3.287 3.287 0 0 1 .429-3.146c.355-.449.547-1.01.544-1.59 0-.284-.046-.566-.136-.834a2.97 2.97 0 0 1-.137-1.614 2.92 2.92 0 0 1 .725-1.436c.723-.756 1.231-2.69 1.231-3.957zm-8.628 4.854a.877.877 0 0 1-.498.442.829.829 0 0 1-.655-.052 6.513 6.513 0 0 0-2.977-.699 7.177 7.177 0 0 0-3.854.938.832.832 0 0 1-.655.051.865.865 0 0 1-.497-.443.913.913 0 0 1-.049-.677.879.879 0 0 1 .428-.515 8.81 8.81 0 0 1 4.627-1.128c1.3-.005 2.583.3 3.75.891a.862.862 0 0 1 .43.514.911.911 0 0 1-.05.678z"/>
        </g>
    </g>
    <defs>
        <clipPath id="q02qm179rb">
            <path fill="url(#r4o06xj0ka)" transform="translate(42 34.5)" d="M0 0h116v131H0z"/>
        </clipPath>
        <clipPath id="guj3smxcjc">
            <path fill="url(#r4o06xj0ka)" transform="translate(62.817 35.284)" d="M0 0h73.867v130.216H0z"/>
        </clipPath>
        <linearGradient id="r4o06xj0ka" x1="-20" y1="220" x2="223" y2="0" gradientUnits="userSpaceOnUse">
            <stop stop-color="#E65C00"/>
            <stop offset="1" stop-color="#F9D423"/>
        </linearGradient>
    </defs>
</svg>
