<svg width="154" height="167" viewBox="0 0 154 167" fill="none" xmlns="http://www.w3.org/2000/svg">
    <g clip-path="url(#ggh0u2t2pa)" fill="#65788A">
        <path d="M80.231 137.278a1.67 1.67 0 0 0 .825-.39c6.042-5.25 9.894-11.405 15.071-20.234a1.133 1.133 0 0 1 1.145-.605 1.124 1.124 0 0 1 .959.871 1.14 1.14 0 0 1-.162.882c-4.137 7.034-7.453 12.424-11.704 17.055l10.26-.368a3.013 3.013 0 0 0 2.379-1.291c11.598-16.949 15.617-34.192 17.003-43.433.208-1.387.366-2.597.461-3.594a1.612 1.612 0 0 0-.41-1.27 1.626 1.626 0 0 0-1.228-.548h-6.35a1.655 1.655 0 0 0-1.484.942l-.579 1.218a4.184 4.184 0 0 1-.198.482c-.139.276-.289.574-.447.879-3.972 7.726-14.346 24.998-32.895 37.587a1.128 1.128 0 0 1-1.29.048 1.133 1.133 0 0 1-.305-1.615c.09-.124.203-.23.334-.309 18.106-12.284 28.245-29.155 32.141-36.72l.571-1.206a1.66 1.66 0 0 0-.188-1.299 1.649 1.649 0 0 0-1.076-.746l-4.489-.913a1.628 1.628 0 0 0-1.557.527c-5.068 5.834-23.907 25.653-55.08 37.591a.822.822 0 0 1-.128.047c-.275.107-.546.217-.82.321a1.67 1.67 0 0 0-1.016 1.074 1.614 1.614 0 0 0 .173 1.383c5.873 9.002 26.097 15.886 40.084 13.634zM109.48 158.097h-9.413c-.092.027-.187.04-.283.041H53.818a1.036 1.036 0 0 1-.282-.041h-9.414c-.874 0-1.713.349-2.332.97a3.318 3.318 0 0 0-.966 2.341v2.252c0 .878.348 1.72.966 2.341.619.621 1.458.97 2.332.97h65.358a3.29 3.29 0 0 0 2.332-.97 3.315 3.315 0 0 0 .966-2.341v-2.252c0-.878-.347-1.72-.966-2.341a3.29 3.29 0 0 0-2.332-.97z"/>
        <path d="M91.243 86.13a8.15 8.15 0 0 1-2.54-5.92v-.96a6.847 6.847 0 0 1-6.23-.213 1.987 1.987 0 0 0-1.945.11 9 9 0 0 1-7.835 1.581 9.007 9.007 0 0 1-3.62-1.94 9.054 9.054 0 0 1-2.389-3.349c-.3-.735-1.1-.975-1.785-.908v5.68a8.17 8.17 0 0 1-2.085 5.465 8.109 8.109 0 0 1-5.196 2.654l-17.054 1.806a15.673 15.673 0 0 0-6.76 2.38 15.747 15.747 0 0 0-5.006 5.144 3.535 3.535 0 0 0-.3 3.009 38.614 38.614 0 0 0 13.081 17.865c24.848-9.613 41.642-24.233 49.664-32.404zM106.501 136.089a7.46 7.46 0 0 0-2.884-5.886 99.849 99.849 0 0 1-2.763 4.275 5.282 5.282 0 0 1-4.155 2.27l-12.642.46c-.495.467-1 .934-1.528 1.39a3.848 3.848 0 0 1-1.939.916c-2.039.319-4.1.475-6.163.468-9.062 0-19.15-2.737-26.666-6.957a7.441 7.441 0 0 0-.656 3.068 9.352 9.352 0 0 0 2.722 6.591 9.276 9.276 0 0 0 6.564 2.735h40.82a9.28 9.28 0 0 0 6.567-2.736 9.354 9.354 0 0 0 2.723-6.594zM42.294 49.54a2.932 2.932 0 0 1 1.674 1.685 3.009 3.009 0 0 1-.124 2.431c-1.268 2.506-2.07 6.21 1.312 9.606.036.037.077.077.113.121l.03.033c3.034 2.241 7.409 3.135 10.839.483a8.811 8.811 0 0 1-.82-11.206.764.764 0 0 0-.155-.957 5.033 5.033 0 0 1-1.1-5.426.897.897 0 0 0-.186-.913c-2.334-1.872-3.261-5.445-2.155-8.307 1.39-3.609 3.423-5.316 6.798-5.71a.472.472 0 0 1 .073 0h.095l.169.019h.051c1.498.207 3.012.267 4.522.18a5.605 5.605 0 0 0 3.884-2.717 5.654 5.654 0 0 0 .436-4.733 3.164 3.164 0 0 1 .077-2.355 3.146 3.146 0 0 1 1.682-1.644c1.257-.489 1.832-1.626 2.107-2.494a4.12 4.12 0 0 1 1.517-2.042 4.093 4.093 0 0 1 2.422-.758h9.63a14.87 14.87 0 0 1 9.26 3.253 14.973 14.973 0 0 1 5.24 8.325 5.605 5.605 0 0 0 2.682-1.824 5.648 5.648 0 0 0 .596-6.198 5.618 5.618 0 0 0-2.285-2.305 2.94 2.94 0 0 1-1.465-2.854 3.633 3.633 0 0 0-.883-2.498 3.802 3.802 0 0 0-2.107-.836 3 3 0 0 1-1.945-.86 3.022 3.022 0 0 1-.892-1.936c-.113-1.604-.843-3.186-2.173-4.698-3.92-2.575-7.662-1.232-9.487 1.104a3.035 3.035 0 0 1-3.866.736 3.105 3.105 0 0 0-2.755-.125 2.953 2.953 0 0 1-3.46-.828 5.596 5.596 0 0 0-7.974-.549 5.642 5.642 0 0 0-1.615 2.455 3.004 3.004 0 0 1-1.51 1.758 2.922 2.922 0 0 1-2.268.158c-2.199-.735-5.497-.993-8.71 2.005-2.001 2.723-2.65 5.706-1.855 8.433a3.037 3.037 0 0 1-1.198 3.376c-.353.24-.753.402-1.172.475-1.235.228-2.481.95-3.702 2.145-1.432 2.447-1.308 5.051.312 6.99.997 1.2 1.136 2.906.366 4.459a3.089 3.089 0 0 0-.3 1.747 4.129 4.129 0 0 1-1.275 3.727 5.355 5.355 0 0 0-.638 7.441 5.315 5.315 0 0 0 2.206 1.59l-.018.038zM56.39 147.674c-.49 0-.979-.03-1.465-.091v8.255H98.64v-8.255c-.48.06-.964.091-1.447.091H56.39zM124.805 97.66a15.691 15.691 0 0 0-6.79-6.144 109.814 109.814 0 0 1-9.249 29.244 38.527 38.527 0 0 0 16.343-20.091 3.515 3.515 0 0 0-.304-3.01z"/>
        <path d="M63.778 33.812a21.69 21.69 0 0 1-3.83 0c.602 3.484 2.877 12.766 10.664 19.13a5.422 5.422 0 0 0 6.395.325c.494-.324.963-.611 1.414-.869l.275-.15.388-.218.337-.165.308-.155.297-.132c.11-.052.224-.107.337-.151.41-.172.82-.322 1.231-.453a17.623 17.623 0 0 1 4.625-.684 54.2 54.2 0 0 1 1.964-.033c2.42 0 4.806.576 6.962 1.681a1.637 1.637 0 0 0 2.002-.395c.152-.184.26-.402.314-.635.227-.918.341-1.86.34-2.807V29.77a12.721 12.721 0 0 0-3.704-8.964 12.62 12.62 0 0 0-8.93-3.717h-9.612a1.827 1.827 0 0 0-1.788 1.218c-.586 1.902-1.806 3.31-3.44 3.932a.878.878 0 0 0-.459 1.126 7.92 7.92 0 0 1-.614 6.653 7.88 7.88 0 0 1-2.318 2.508 7.844 7.844 0 0 1-3.158 1.287z"/>
        <path d="M104.218 52.77c0-2.575-1.77-5.662-4.144-6.545v1.84c0 1.128-.136 2.252-.407 3.348a3.838 3.838 0 0 1-2.122 2.575 3.878 3.878 0 0 1-3.397-.07 13.068 13.068 0 0 0-5.936-1.439c-.648 0-1.235 0-1.784.026-.422 0-.825.033-1.206.066h-.08c-.967.065-1.923.238-2.851.515h-.03c-.172.056-.344.11-.516.173l-.147.06c-.132.05-.264.098-.396.157-.132.06-.234.103-.366.159l-.198.088-.367.191-.183.096c-.575.305-1.18.666-1.832 1.104a7.708 7.708 0 0 1-4.232 1.294 7.626 7.626 0 0 1-4.83-1.721c-8.729-7.108-10.993-17.313-11.528-20.834-1.832.493-2.932 1.689-3.862 4.073-.752 1.95-.11 4.462 1.465 5.724a3.137 3.137 0 0 1 .869 3.52 2.808 2.808 0 0 0 .014 2.086c.14.335.344.64.602.895a3.003 3.003 0 0 1 .399 3.877 6.532 6.532 0 0 0-1.078 5.088 6.532 6.532 0 0 0 2.972 4.26 3.838 3.838 0 0 1 1.553 1.892c.298.784.331 1.644.096 2.45a3.694 3.694 0 0 0 0 2.14 3.409 3.409 0 0 0 2.335 2.318c.487.15 1 .194 1.506.133 1.861-.24 3.558.68 4.217 2.28a6.782 6.782 0 0 0 2.493 3.057 6.742 6.742 0 0 0 3.766 1.145 6.664 6.664 0 0 0 4.13-1.416 4.244 4.244 0 0 1 4.397-.298 4.627 4.627 0 0 0 5.72-.972 3.897 3.897 0 0 1 4.68-.832 4.948 4.948 0 0 0 5.673-.825 5.004 5.004 0 0 0 1.117-5.646 4.082 4.082 0 0 1 .564-4.01 3.194 3.194 0 0 0 .715-2.026 3.288 3.288 0 0 0-.18-1.064 3.697 3.697 0 0 1 .773-3.888c.949-.964 1.616-3.429 1.616-5.044zm-11.33 6.188a1.13 1.13 0 0 1-1.09.616 1.12 1.12 0 0 1-.423-.12 8.766 8.766 0 0 0-3.91-.89 9.65 9.65 0 0 0-5.06 1.196 1.123 1.123 0 0 1-1.514-.5 1.135 1.135 0 0 1 .498-1.52 11.846 11.846 0 0 1 6.076-1.438 11.068 11.068 0 0 1 4.925 1.137 1.12 1.12 0 0 1 .617 1.094 1.128 1.128 0 0 1-.119.425z"/>
    </g>
    <defs>
        <clipPath id="ggh0u2t2pa">
            <path fill="#fff" transform="translate(28.303 1)" d="M0 0h97v166H0z"/>
        </clipPath>
    </defs>
</svg>
