<svg width="200" height="200" viewBox="0 0 200 200" fill="none" xmlns="http://www.w3.org/2000/svg">
    <rect width="200" height="200" rx="24" fill="url(#dlh38s4mla)"/>
    <g clip-path="url(#otvxl9na9b)" fill="#fff">
        <path d="M145.143 156.816H54.857c-1.843 0-3.32 1.638-3.32 3.646v3.892c0 2.011 1.49 3.646 3.32 3.646h90.286c1.843 0 3.321-1.635 3.321-3.646v-3.892c0-2.011-1.49-3.646-3.321-3.646zM160.507 47.605a32.078 32.078 0 0 0-10.916-10.965 32.508 32.508 0 0 0-14.835-4.637H65.244a32.511 32.511 0 0 0-14.836 4.637 32.073 32.073 0 0 0-10.915 10.965 24.614 24.614 0 0 0-3.244 9.134c-.464 3.225-.28 6.51.54 9.666a24.677 24.677 0 0 0 4.242 8.724 24.978 24.978 0 0 0 7.298 6.453 19.52 19.52 0 0 0 19.421.163 19.255 19.255 0 0 0 7.076-6.875l.019-.03a14.335 14.335 0 0 0 2.055-7.413c0-2.505-.65-4.968-1.883-7.156a14.51 14.51 0 0 0-5.367-5.444 11.051 11.051 0 0 0-5.635-1.52c-1.906 0-3.78.482-5.444 1.401a10.946 10.946 0 0 0-4.169 4.053 7.159 7.159 0 0 0-.989 3.619c0 1.376.15 2.987 2.17 4.615.131.106.306.237.509.39 1.041.765 3.21 2.366 2.897 3.852a3.515 3.515 0 0 1-1.52 2.22 3.587 3.587 0 0 1-2.661.514h-.025a9.756 9.756 0 0 1-3.686-1.604 11.105 11.105 0 0 1-3.595-4.403 13.14 13.14 0 0 1-1.201-5.593 14.138 14.138 0 0 1 1.985-7.21l.024-.04a18.12 18.12 0 0 1 6.662-6.486 18.372 18.372 0 0 1 9.037-2.364c3.25.003 6.44.868 9.235 2.507 4.994 2.916 8.613 7.674 10.06 13.227a21.425 21.425 0 0 1-2.34 16.39c-.036.052-.067.094-.095.14a1.053 1.053 0 0 0-.052.981c.233.497.354 1.038.357 1.586v40.832A3.818 3.818 0 0 1 80 124.577a3.905 3.905 0 0 1-2.705 1.086c-1.01 0-1.98-.39-2.705-1.086a3.817 3.817 0 0 1-1.174-2.643V88.4a1.049 1.049 0 0 0-.54-.924 1.078 1.078 0 0 0-1.079.013c-.129.075-.255.16-.384.246-.129.085-.212.145-.326.21a26.61 26.61 0 0 1-10.408 3.192 1.08 1.08 0 0 0-.69.343c-.18.195-.28.448-.281.712v40.272a1.053 1.053 0 0 0 .662.978c.13.053.27.08.41.08h78.436a1.086 1.086 0 0 0 .756-.31 1.051 1.051 0 0 0 .314-.748v-40.27a1.057 1.057 0 0 0-.28-.71 1.078 1.078 0 0 0-.688-.343 26.64 26.64 0 0 1-10.412-3.194 5.377 5.377 0 0 1-.325-.21 6.406 6.406 0 0 0-.385-.245 1.078 1.078 0 0 0-1.473.378 1.063 1.063 0 0 0-.146.533v33.531a3.816 3.816 0 0 1-1.173 2.643 3.907 3.907 0 0 1-2.705 1.086c-1.01 0-1.981-.39-2.705-1.086a3.821 3.821 0 0 1-1.174-2.643V81.102a3.74 3.74 0 0 1 .36-1.586 1.065 1.065 0 0 0-.056-.981c-.027-.046-.058-.089-.095-.14a21.424 21.424 0 0 1-2.34-16.39c1.448-5.553 5.066-10.311 10.06-13.227a18.321 18.321 0 0 1 9.239-2.507h.021a18.365 18.365 0 0 1 9.037 2.364 18.115 18.115 0 0 1 6.659 6.486l.025.04a14.108 14.108 0 0 1 1.984 7.21 13.19 13.19 0 0 1-1.198 5.572 11.109 11.109 0 0 1-3.604 4.409 9.76 9.76 0 0 1-3.686 1.604h-.025a3.58 3.58 0 0 1-2.66-.514 3.506 3.506 0 0 1-1.518-2.22c-.307-1.486 1.843-3.087 2.894-3.853.206-.152.381-.283.51-.389 2.021-1.629 2.178-3.239 2.169-4.615a7.161 7.161 0 0 0-1.02-3.674 10.917 10.917 0 0 0-4.129-3.992 11.279 11.279 0 0 0-5.438-1.4 11.05 11.05 0 0 0-5.634 1.519 14.514 14.514 0 0 0-5.38 5.444 14.575 14.575 0 0 0-1.889 7.165 14.335 14.335 0 0 0 2.055 7.413l.019.03a19.244 19.244 0 0 0 7.076 6.875 19.52 19.52 0 0 0 19.421-.163 24.976 24.976 0 0 0 7.295-6.454 24.684 24.684 0 0 0 4.24-8.725c.82-3.156 1.003-6.44.539-9.665a24.624 24.624 0 0 0-3.244-9.133zm-53.297 73.223a7.022 7.022 0 0 1-2.095 4.992 7.19 7.19 0 0 1-5.051 2.066h-.15a7.19 7.19 0 0 1-5.044-2.07 7.028 7.028 0 0 1-2.093-4.988V70.781a7.028 7.028 0 0 1 2.093-4.988 7.187 7.187 0 0 1 5.044-2.07h.15a7.183 7.183 0 0 1 5.043 2.07 7.028 7.028 0 0 1 2.091 4.988l.012 50.047zM100 150.8h37.34c1.616 0 2.934-1.637 2.934-3.646v-3.892c0-2.048-1.291-3.646-2.934-3.646H62.66c-1.643 0-2.93 1.601-2.93 3.646v3.892c0 2.009 1.315 3.646 2.93 3.646H100z"/>
    </g>
    <defs>
        <linearGradient id="dlh38s4mla" x1="212.5" y1="-14.583" x2="-8.333" y2="210.417" gradientUnits="userSpaceOnUse">
            <stop stop-color="#FFE000"/>
            <stop offset="1" stop-color="#799F0C"/>
        </linearGradient>
        <clipPath id="otvxl9na9b">
            <path fill="#fff" transform="translate(36 32)" d="M0 0h128v136H0z"/>
        </clipPath>
    </defs>
</svg>
