<svg width="155" height="165" viewBox="0 0 155 165" fill="none" xmlns="http://www.w3.org/2000/svg">
    <g clip-path="url(#x6cedjcsla)" fill="#65788A">
        <path d="M131.803 151.431H23.295c-2.216 0-3.992 1.987-3.992 4.424v4.721c0 2.441 1.791 4.424 3.992 4.424h108.508c2.215 0 3.991-1.983 3.991-4.424v-4.721c0-2.441-1.791-4.424-3.991-4.424zM150.268 18.932a38.732 38.732 0 0 0-13.119-13.303 38.812 38.812 0 0 0-17.83-5.626H35.778a38.814 38.814 0 0 0-17.83 5.626A38.735 38.735 0 0 0 4.829 18.932 30.046 30.046 0 0 0 1.58 41.74a30.058 30.058 0 0 0 5.098 10.585c2.38 3.16 5.36 5.82 8.77 7.83a23.292 23.292 0 0 0 11.816 3.236 23.29 23.29 0 0 0 11.526-3.04 23.242 23.242 0 0 0 8.504-8.34l.022-.036a17.517 17.517 0 0 0 2.47-8.995 17.806 17.806 0 0 0-2.263-8.68 17.524 17.524 0 0 0-6.45-6.606A13.186 13.186 0 0 0 34.3 25.85c-2.29 0-4.543.584-6.543 1.7a13.213 13.213 0 0 0-5.01 4.916 8.748 8.748 0 0 0-1.189 4.39c0 1.67.181 3.624 2.607 5.6.159.129.37.288.613.472 1.252.929 3.858 2.871 3.482 4.674a4.264 4.264 0 0 1-1.828 2.694 4.278 4.278 0 0 1-3.198.623h-.03a11.67 11.67 0 0 1-4.43-1.946 13.448 13.448 0 0 1-4.32-5.341 16.07 16.07 0 0 1-1.444-6.786 17.277 17.277 0 0 1 2.386-8.748l.03-.048a21.875 21.875 0 0 1 8.005-7.869 21.92 21.92 0 0 1 10.862-2.868 21.843 21.843 0 0 1 11.099 3.04 26.25 26.25 0 0 1 12.09 16.05 26.208 26.208 0 0 1-2.812 19.883c-.044.063-.08.115-.114.17a1.285 1.285 0 0 0-.063 1.19c.28.604.425 1.26.428 1.925v49.538a4.651 4.651 0 0 1-1.41 3.207 4.667 4.667 0 0 1-6.502 0 4.651 4.651 0 0 1-1.41-3.207V68.426a1.281 1.281 0 0 0-1.3-1.288c-.228.002-.451.065-.646.182-.155.092-.307.196-.462.299-.155.103-.255.177-.391.254a31.765 31.765 0 0 1-12.51 3.874 1.293 1.293 0 0 0-1.166 1.28v48.859a1.282 1.282 0 0 0 1.288 1.283h94.267a1.278 1.278 0 0 0 1.188-.792c.064-.155.097-.322.097-.491V73.03a1.287 1.287 0 0 0-1.163-1.28 31.792 31.792 0 0 1-12.513-3.873 6.316 6.316 0 0 1-.391-.255 7.647 7.647 0 0 0-.462-.298 1.287 1.287 0 0 0-1.771.46c-.114.196-.174.419-.175.646v40.68a4.652 4.652 0 0 1-1.41 3.207 4.669 4.669 0 0 1-6.502 0 4.657 4.657 0 0 1-1.411-3.207V59.572c.003-.665.15-1.322.432-1.924.086-.19.124-.397.112-.604a1.284 1.284 0 0 0-.178-.587c-.033-.055-.07-.107-.114-.17a26.206 26.206 0 0 1-2.813-19.884 26.25 26.25 0 0 1 12.091-16.048 21.859 21.859 0 0 1 11.103-3.041h.026a21.907 21.907 0 0 1 10.86 2.867 21.862 21.862 0 0 1 8.003 7.87l.03.048a17.242 17.242 0 0 1 2.385 8.748 16.117 16.117 0 0 1-1.44 6.76 13.452 13.452 0 0 1-4.331 5.349 11.67 11.67 0 0 1-4.431 1.946h-.029a4.27 4.27 0 0 1-5.022-3.318c-.369-1.802 2.216-3.745 3.479-4.674.247-.184.457-.342.612-.471 2.43-1.976 2.618-3.93 2.607-5.6a8.741 8.741 0 0 0-1.226-4.456 13.172 13.172 0 0 0-4.962-4.844 13.453 13.453 0 0 0-6.535-1.7 13.189 13.189 0 0 0-6.772 1.844 17.527 17.527 0 0 0-6.465 6.605 17.808 17.808 0 0 0-2.271 8.692 17.517 17.517 0 0 0 2.47 8.995l.022.036a23.247 23.247 0 0 0 8.505 8.34 23.29 23.29 0 0 0 11.526 3.04 23.292 23.292 0 0 0 11.815-3.237 30.11 30.11 0 0 0 8.767-7.83 30.06 30.06 0 0 0 5.744-22.311 30.056 30.056 0 0 0-3.899-11.081zm-64.054 88.836a8.563 8.563 0 0 1-2.518 6.057 8.59 8.59 0 0 1-6.07 2.506h-.18a8.596 8.596 0 0 1-6.063-2.511 8.566 8.566 0 0 1-2.515-6.052V47.05a8.567 8.567 0 0 1 2.516-6.052 8.595 8.595 0 0 1 6.061-2.511h.181a8.592 8.592 0 0 1 6.06 2.511A8.563 8.563 0 0 1 86.2 47.05l.014 60.718zM77.549 144.133h44.875c1.943 0 3.527-1.987 3.527-4.424v-4.722c0-2.484-1.551-4.423-3.527-4.423H32.673c-1.976 0-3.523 1.943-3.523 4.423v4.722c0 2.437 1.58 4.424 3.523 4.424h44.876z"/>
    </g>
    <defs>
        <clipPath id="x6cedjcsla">
            <path fill="#fff" transform="translate(.631)" d="M0 0h153.835v165H0z"/>
        </clipPath>
    </defs>
</svg>
