<svg width="200" height="200" viewBox="0 0 200 200" fill="none" xmlns="http://www.w3.org/2000/svg">
    <rect width="200" height="200" rx="24" fill="#fff"/>
    <g clip-path="url(#ef6uf9sf7b)" fill="url(#n2ttyu7cja)">
        <path d="M80.332 38.331c0 .595-.033 1.19-.1 1.781 4.024-.887 7.062-2.657 9.043-5.284 2.687-3.554 2.787-7.845 2.67-9.767-4.779.514-10.684 1.49-16.391 3.336 1.953 1.72 4.778 5.044 4.778 9.934zM72.413 46.739c.074.38.142.75.206 1.116 2.587-2.185 4.937-4.722 4.937-9.52 0-5.137-4.012-8.167-5.03-8.86-4.725 1.836-9.141 4.343-12.452 7.774-.131.133-.27.259-.415.377 3.821.784 11.591 3.116 12.754 9.113zM59.581 79.124c1.992-2.397 2.673-6.123 2.903-8.136a4.348 4.348 0 0 1 .6-1.753 4.512 4.512 0 0 1 1.286-1.367 12.775 12.775 0 0 0 3.148-3.168C57 64.433 53.03 55.502 51.627 50.45c-1.797 6.144-2.602 14.908-.38 27.12v.054c.022.14.458 3.5-1.683 5.983-1.128 1.308-.936 7.428 4.385 18.27a45.34 45.34 0 0 1 2.456 6.095c.56-2.109 1.113-3.797 1.124-3.835.07-.21.1-.431.085-.651-.411-6.136-1.028-20.79 1.967-24.362z"/>
        <path d="M91.537 36.383c-2.598 3.459-6.615 5.668-11.935 6.585-1.283 3.767-4.038 6.003-6.38 7.904l-.189.15c.3 2.698.18 5.423-.354 8.086 11.145-4.794 22.623-6.626 34.164-5.48a75.194 75.194 0 0 1 21.815 5.703 13.11 13.11 0 0 1 .627-3.942c.106-.294.315-.544.59-.705.276-.162.601-.226.92-.182 11.513 1.613 15.172-8.452 15.597-9.756a43.13 43.13 0 0 0-6.455-7.456 38.326 38.326 0 0 0-10.407-7.05c-.557 4.753-3.545 17.122-19.599 19.862a1.416 1.416 0 0 1-1.168-.338 1.308 1.308 0 0 1-.162-1.793c.207-.266.51-.447.848-.51 15.71-2.678 17.284-15.31 17.433-18.386-8.969-3.606-18.178-4.393-22.602-4.551.461 3.181 2.017 19.273-12.76 22.745a1.417 1.417 0 0 1-1.243-.306 1.307 1.307 0 0 1-.217-1.76 1.39 1.39 0 0 1 .803-.54c5.718-1.342 9.242-5.075 10.475-11.091a26.08 26.08 0 0 0 .117-9.072l-1.272.044v-.03c-1.287.027-3.19.102-5.484.287.174 2.26.078 7.27-3.162 11.582zM68.925 61.998c1.4-3.424 1.811-6.924 1.3-11.355v-.066a44.368 44.368 0 0 0-.527-3.349c-.574-2.962-3.804-4.773-6.413-5.77a28.659 28.659 0 0 0-6.026-1.53.961.961 0 0 1-.106-.025 24.363 24.363 0 0 0-3.9 6.086c.225.216.366.5.401.804.078.661 1.886 15.91 15.271 15.205z"/>
        <path d="M131.667 57.293c-.298 1.53-.539 4.514 1.209 7.192 2.46 3.736 9.34 4.147 11.081 3.592 1.74-.555 4.845-1.551 6.915-4 .458-6.27-.258-11.441-2.743-16.366-1.865 3.689-6.629 10.377-16.462 9.582zM99.991 175.394l-.308.03c-.426.045-.855.065-1.29.072.804 0 1.612 0 2.42-.031-.173 0-.354-.024-.514-.041l-.308-.03zM86.397 89.781c-3.48-1.42-8.153-1.712-11.698 0 3.556 1.713 8.217 1.425 11.698 0zM114.287 89.781c3.57 1.712 8.231 1.425 11.715 0-3.484-1.421-8.145-1.709-11.715 0z"/>
        <path d="M139.94 104.955a4.191 4.191 0 0 1-.212-1.647c.021-.343.057-.791.099-1.37 1.195-15.694.248-20.42-.755-21.622-2.382-2.853-2.836-6.767-3.084-9.106l-.032-.267c-.096-.343-1.042-1.37-1.733-1.85l-.021-.017a9.713 9.713 0 0 1-3.666-3.16 11.123 11.123 0 0 1-1.513-3.49c-5.059-2.219-12.761-5.154-22.446-6.12-11.786-1.174-23.523.922-34.89 6.22-.164.43-.355.862-.532 1.29a15.174 15.174 0 0 1-5.176 6.236 1.798 1.798 0 0 0-.51.542c-.13.213-.212.45-.241.695-.262 2.308-1.063 6.612-3.502 9.527-1.546 1.849-2.099 11.105-1.35 22.509a4.26 4.26 0 0 1-.213 1.647c-.592 1.774-2.184 7.267-2.173 9.589a43.29 43.29 0 0 1 .599 6.849c.009 2.446.478 4.87 1.386 7.154a24.049 24.049 0 0 0 1.857 3.691 16.407 16.407 0 0 1 2.003 4.815c.088.366.17.75.244 1.147a15.594 15.594 0 0 0 2.017 5.202 18.823 18.823 0 0 1 2.177 5.082c.592 2.312 2.127 4.284 3.328 5.534a18.907 18.907 0 0 1 3.386 4.904c.7 1.353 1.209 2.79 1.513 4.274.15.983 2.772 2.739 6.1 4.051.248.099.486.221.71.363.953.589 4.023 5.137 17.472 5.137 12.509 0 14.93-4.558 15.884-5.137.225-.141.462-.262.709-.363 3.328-1.329 5.951-3.082 6.1-4.051a16.549 16.549 0 0 1 1.514-4.274 18.884 18.884 0 0 1 3.385-4.904c1.191-1.25 2.737-3.222 3.329-5.534a18.806 18.806 0 0 1 2.176-5.082 15.609 15.609 0 0 0 2.017-5.202c.074-.397.156-.781.245-1.147a16.367 16.367 0 0 1 1.999-4.832 24.02 24.02 0 0 0 1.857-3.692 19.573 19.573 0 0 0 1.397-7.153c.021-2.457.25-4.908.684-7.329a21.424 21.424 0 0 0-1.772-8.088c-.142-.398-.259-.737-.366-1.021zm-39.094 5.209a12.018 12.018 0 0 1 4.54-1.926 12.218 12.218 0 0 1 4.959.042c.293.071.599.068.89-.007.29-.076.557-.222.773-.424a.852.852 0 0 0 .287-.713c-.081-.893-1.315-2.054-1.9-2.482a1.334 1.334 0 0 1-.543-.881c-.053-.352.041-.71.261-.994.22-.285.548-.474.912-.525.364-.051.734.04 1.029.253.284.202 2.779 2.054 3.006 4.376a3.431 3.431 0 0 1-.192 1.499 3.51 3.51 0 0 1-.822 1.285 4.574 4.574 0 0 1-1.96 1.155 4.701 4.701 0 0 1-2.294.081 9.353 9.353 0 0 0-4.233.05 9.151 9.151 0 0 0-3.746 1.906c-.251.218-.576.34-.914.342h-.071a1.427 1.427 0 0 1-.918-.342 9.126 9.126 0 0 0-3.744-1.907 9.335 9.335 0 0 0-4.232-.049 4.692 4.692 0 0 1-2.303-.077 4.572 4.572 0 0 1-1.968-1.159 3.515 3.515 0 0 1-.822-1.285 3.424 3.424 0 0 1-.192-1.499c.227-2.322 2.722-4.174 3.006-4.376.295-.203.66-.286 1.019-.232a1.4 1.4 0 0 1 .895.523 1.306 1.306 0 0 1-.259 1.856c-.585.424-1.815 1.589-1.9 2.482a.827.827 0 0 0 .058.39c.05.124.13.234.233.323a1.8 1.8 0 0 0 .773.424c.291.075.597.078.89.007a12.226 12.226 0 0 1 4.95-.038c1.633.324 3.178.979 4.532 1.922zm-31.939 15.068a1.304 1.304 0 0 1-.38.992 1.427 1.427 0 0 1-2.014 0 1.304 1.304 0 0 1-.38-.992v-6.356c.017-.344.17-.668.43-.905.257-.238.6-.37.957-.37.356 0 .699.132.957.37.258.237.412.561.43.905v6.356zm-.322-41.509c-.296 0-.583-.09-.822-.258a1.342 1.342 0 0 1-.503-.679 1.297 1.297 0 0 1 .01-.835c.096-.27.278-.503.52-.666 11.071-7.493 20.479-4.616 24.01-3.041.355.158.754.2 1.136.123.383-.078.73-.272.99-.555l.99-1.054c.246-.264.59-.423.958-.441.367-.018.727.105 1 .343.273.238.437.571.456.926.019.355-.109.702-.355.966l-.986 1.062a4.648 4.648 0 0 1-2.497 1.383 4.756 4.756 0 0 1-2.859-.318c-3.846-1.713-11.719-3.64-21.268 2.798-.229.155-.5.241-.78.246zm2.878 7.284a1.71 1.71 0 0 1-.39-.558 1.662 1.662 0 0 1 0-1.319 1.71 1.71 0 0 1 .39-.558c5.317-3.91 13.527-3.082 18.365-.058.193.156.349.35.455.57a1.613 1.613 0 0 1 0 1.407c-.106.22-.262.415-.455.57-2.548 1.607-6.026 2.59-9.535 2.59-3.144.003-6.306-.802-8.83-2.65v.006zm4.608 43.317a1.329 1.329 0 0 1-.388.96 1.392 1.392 0 0 1-.98.409c-.365 0-.716-.139-.976-.387a1.32 1.32 0 0 1-.413-.938c-.174-13.455 11.2-19.177 11.697-19.41.33-.161.71-.189 1.061-.078.35.112.64.353.807.67.167.318.195.687.08 1.025a1.357 1.357 0 0 1-.693.78c-.454.185-10.354 5.212-10.202 16.962l.007.007zm15.413 17.485c-.245.182-2.226 1.791-.71 5.438.834 2 .89 3.767.164 5.212a5.098 5.098 0 0 1-1.257 1.566 5.306 5.306 0 0 1-1.78.982 1.43 1.43 0 0 1-1.057-.105 1.35 1.35 0 0 1-.67-.796 1.3 1.3 0 0 1 .108-1.02c.175-.313.472-.546.824-.647a2.498 2.498 0 0 0 1.344-1.168c.354-.75.276-1.767-.249-3.024-2.389-5.736 1.49-8.496 1.656-8.609.298-.208.67-.294 1.033-.238.363.056.688.25.904.538.216.288.304.646.246.997a1.334 1.334 0 0 1-.556.874zm11.676-7.335c-.064.079-2.719 3.643-.918 11.266.904 3.826.791 6.962-.33 9.325-.918 1.935-2.215 2.637-2.36 2.713-.326.166-.706.2-1.058.096a1.377 1.377 0 0 1-.817-.655 1.299 1.299 0 0 1-.1-1.021 1.35 1.35 0 0 1 .677-.79s2.992-1.839 1.283-9.072c-2.126-9.037 1.294-13.355 1.44-13.52a1.422 1.422 0 0 1 1.916-.185c.283.214.468.526.518.869.05.344-.04.693-.251.974zm11.666 19.632a1.33 1.33 0 0 1-.668.799 1.424 1.424 0 0 1-1.058.102 5.314 5.314 0 0 1-1.782-.982 5.095 5.095 0 0 1-1.256-1.566c-.727-1.459-.67-3.212.163-5.215 1.584-3.798-.67-5.408-.709-5.425a1.36 1.36 0 0 1-.371-.381 1.305 1.305 0 0 1 .048-1.488 1.423 1.423 0 0 1 1.936-.312c.166.113 4.044 2.873 1.655 8.609-.532 1.271-.609 2.298-.234 3.051.282.526.756.932 1.33 1.141a1.391 1.391 0 0 1 .826.646 1.31 1.31 0 0 1 .109 1.021h.011zm5.299-13.66a1.416 1.416 0 0 1-1.96.045 1.323 1.323 0 0 1-.429-.938 1.313 1.313 0 0 1 .383-.956c.464-.476 1.638-2.055 1.457-3.497-.113-.9-.709-1.688-1.861-2.397-4.254-2.684-4.381-7.03-4.077-9.383a5.42 5.42 0 0 0-.228-2.564 5.57 5.57 0 0 0-1.388-2.196c-3.662-3.39-10.779-2.013-10.85-2a6.008 6.008 0 0 0-1.418 0c-.103-.02-7.217-1.37-10.85 2a5.588 5.588 0 0 0-1.39 2.196 5.435 5.435 0 0 0-.23 2.564c.304 2.353.18 6.699-4.077 9.383-1.138.719-1.748 1.507-1.861 2.397-.18 1.452.996 3.021 1.464 3.5.185.191.308.43.355.688.046.257.014.522-.094.762-.107.24-.284.445-.51.589-.226.144-.49.221-.761.221a1.416 1.416 0 0 1-1.004-.414c-.102-.106-2.566-2.637-2.208-5.643.21-1.713 1.251-3.189 3.105-4.353 2.836-1.794 3.112-4.692 2.836-6.808a8.036 8.036 0 0 1 .368-3.792 8.264 8.264 0 0 1 2.081-3.235c4.7-4.356 12.981-2.76 13.332-2.692.049.012.096.027.142.045a.967.967 0 0 1 .138-.045c.355-.068 8.632-1.664 13.332 2.692a8.272 8.272 0 0 1 2.084 3.234 8.044 8.044 0 0 1 .369 3.793c-.273 2.116 0 5.014 2.836 6.808 1.85 1.164 2.896 2.63 3.101 4.353.366 3.006-2.091 5.537-2.197 5.643h.01zm6.126-14.77h-.029a1.405 1.405 0 0 1-.98-.409 1.322 1.322 0 0 1-.388-.961c.156-11.749-9.741-16.78-10.163-16.985a1.401 1.401 0 0 1-.427-.323 1.332 1.332 0 0 1-.332-.977 1.323 1.323 0 0 1 .481-.917 1.402 1.402 0 0 1 1.011-.321c.182.013.359.061.522.141.486.236 11.861 5.955 11.698 19.41a1.319 1.319 0 0 1-.412.954 1.406 1.406 0 0 1-.992.388h.011zm3.19-44.621c-2.549 1.606-6.026 2.589-9.532 2.589-3.148 0-6.309-.795-8.83-2.644a1.696 1.696 0 0 1-.396-.556 1.641 1.641 0 0 1 0-1.323c.092-.209.227-.398.396-.556 5.317-3.91 13.523-3.082 18.362-.058.193.156.348.35.454.571a1.607 1.607 0 0 1 0 1.406c-.106.22-.261.415-.454.571zm4.119 34.18a1.327 1.327 0 0 1-.381.993 1.425 1.425 0 0 1-2.014 0 1.317 1.317 0 0 1-.381-.993v-6.359a1.32 1.32 0 0 1 .431-.905c.258-.238.601-.37.957-.37.357 0 .699.132.958.37.258.237.412.561.43.905v6.359zm-.082-42.09a1.36 1.36 0 0 1-.495.42c-.199.1-.419.152-.642.151a1.45 1.45 0 0 1-.794-.24c-9.536-6.438-17.409-4.516-21.269-2.797-.892.4-1.894.513-2.858.321a4.622 4.622 0 0 1-2.494-1.386l-.993-1.059a1.313 1.313 0 0 1-.355-.966c.019-.355.183-.688.456-.925a1.416 1.416 0 0 1 1-.344c.367.019.712.177.958.441l.989 1.055c.261.282.608.476.99.554.383.078.782.035 1.137-.123 3.545-1.578 12.935-4.451 24.009 3.031.15.1.278.228.377.376a1.302 1.302 0 0 1-.026 1.49h.01z"/>
        <path d="M148.742 77.624v-.092c.727-3.425 1.308-6.572 1.698-9.472a21.058 21.058 0 0 1-5.629 2.55 9.717 9.717 0 0 1-2.744.326 18.804 18.804 0 0 1-3.378-.325.251.251 0 0 1 0 .055l.032.274c.23 2.054.613 5.479 2.481 7.712 2.028 2.42 2.432 9.451 1.361 23.502a127.48 127.48 0 0 0-.095 1.332c-.014.221.013.443.081.654.082.24.199.534.337.88.252.641.564 1.435.861 2.373a44.853 44.853 0 0 1 2.294-5.52c5.317-10.842 5.512-16.962 4.385-18.27-2.141-2.479-1.705-5.838-1.684-5.979zM98.219 175.5h.188a29.03 29.03 0 0 1-1.574-.055c.45.034.914.055 1.386.055zM100.813 175.466c.32.02.642.034.965.034a19.4 19.4 0 0 0 3.693-.384l-.234.028a66.735 66.735 0 0 1-4.424.322z"/>
    </g>
    <defs>
        <linearGradient id="n2ttyu7cja" x1="12.5" y1="0" x2="200" y2="222.917" gradientUnits="userSpaceOnUse">
            <stop stop-color="#AA5AFF"/>
            <stop offset="1" stop-color="#C793FF"/>
        </linearGradient>
        <clipPath id="ef6uf9sf7b">
            <path fill="#fff" transform="translate(49 24.5)" d="M0 0h102v151H0z"/>
        </clipPath>
    </defs>
</svg>
