<svg width="109" height="165" viewBox="0 0 109 165" fill="none" xmlns="http://www.w3.org/2000/svg">
    <g clip-path="url(#vc6toh3ooa)" fill="#65788A">
        <path d="M33.785 15.114c0 .65-.034 1.3-.105 1.946 4.248-.97 7.454-2.904 9.546-5.774 2.837-3.884 2.941-8.573 2.818-10.672C41 1.175 34.766 2.242 28.74 4.258c2.062 1.879 5.044 5.512 5.044 10.856zM25.425 24.3c.079.416.15.82.217 1.22 2.732-2.387 5.213-5.16 5.213-10.402 0-5.613-4.236-8.925-5.31-9.68-4.988 2.005-9.65 4.744-13.146 8.494a5.582 5.582 0 0 1-.437.412c4.034.856 12.236 3.405 13.463 9.957zM11.88 59.689c2.102-2.62 2.82-6.691 3.064-8.891a4.866 4.866 0 0 1 1.99-3.41 13.742 13.742 0 0 0 3.324-3.46C9.155 43.635 4.964 33.875 3.482 28.356 1.585 35.07.736 44.646 3.082 57.99v.06c.022.153.483 3.824-1.778 6.537-1.19 1.43-.987 8.116 4.63 19.964a50.588 50.588 0 0 1 2.592 6.66c.592-2.305 1.175-4.15 1.187-4.19.075-.23.105-.471.09-.712-.435-6.705-1.086-22.717 2.076-26.62z"/>
        <path d="M45.614 12.985c-2.743 3.78-6.983 6.193-12.6 7.196-1.354 4.116-4.262 6.56-6.735 8.636l-.199.165c.316 2.947.19 5.925-.374 8.835 11.765-5.24 23.881-7.241 36.066-5.988A77.234 77.234 0 0 1 84.8 38.06c.007-1.46.23-2.911.662-4.306a1.466 1.466 0 0 1 1.594-.97c12.154 1.763 16.016-9.235 16.465-10.66a46.706 46.706 0 0 0-6.814-8.147A40.412 40.412 0 0 0 85.72 6.272c-.587 5.194-3.742 18.71-20.69 21.703-.083.015-.168.022-.254.023a1.467 1.467 0 0 1-.254-2.908C81.106 22.164 82.768 8.36 82.925 5 73.458 1.058 63.736.197 59.066.025c.486 3.477 2.13 21.06-13.471 24.855a1.58 1.58 0 0 1-.348.04 1.467 1.467 0 0 1-.344-2.888c6.035-1.467 9.755-5.546 11.057-12.12.6-3.274.642-6.626.124-9.913L54.74.049V.015c-1.358.03-3.367.112-5.789.314.184 2.47.083 7.945-3.337 12.656zM21.743 40.975c1.478-3.742 1.912-7.566 1.374-12.409v-.07a50.06 50.06 0 0 0-.558-3.66c-.606-3.237-4.015-5.217-6.77-6.306a29.425 29.425 0 0 0-6.36-1.672.961.961 0 0 1-.113-.027 26.756 26.756 0 0 0-4.116 6.65c.237.236.386.547.423.88.082.722 1.99 17.385 16.12 16.614z"/>
        <path d="M87.977 35.833c-.315 1.673-.57 4.932 1.276 7.859 2.597 4.082 9.86 4.531 11.697 3.925 1.838-.606 5.116-1.695 7.301-4.37.483-6.852-.273-12.503-2.896-17.884-1.969 4.03-6.998 11.339-17.378 10.47zM54.538 164.884l-.325.034c-.45.049-.902.071-1.362.079.849 0 1.702 0 2.555-.034-.183 0-.374-.026-.542-.045l-.326-.034zM40.188 71.334c-3.675-1.553-8.607-1.871-12.349 0 3.753 1.87 8.674 1.556 12.349 0zM69.63 71.334c3.768 1.87 8.689 1.556 12.367 0-3.678-1.553-8.599-1.868-12.367 0z"/>
        <path d="M96.71 87.915a4.733 4.733 0 0 1-.224-1.8c.022-.374.06-.864.105-1.497 1.26-17.15.262-22.313-.797-23.627-2.515-3.117-2.994-7.394-3.256-9.95l-.033-.292c-.102-.374-1.1-1.497-1.83-2.02l-.023-.02a10.365 10.365 0 0 1-3.869-3.453 12.396 12.396 0 0 1-1.598-3.813c-5.34-2.425-13.471-5.632-23.694-6.687-12.442-1.284-24.832 1.006-36.833 6.795-.172.472-.374.943-.561 1.411a16.465 16.465 0 0 1-5.463 6.814 1.938 1.938 0 0 0-.794 1.351c-.277 2.522-1.122 7.226-3.697 10.41-1.631 2.021-2.215 12.136-1.426 24.597.04.608-.036 1.22-.224 1.8-.625 1.938-2.305 7.94-2.294 10.477.402 2.475.614 4.977.633 7.484.01 2.673.505 5.322 1.463 7.817a26.577 26.577 0 0 0 1.96 4.034 18.272 18.272 0 0 1 2.115 5.261c.093.401.18.82.258 1.254a17.403 17.403 0 0 0 2.13 5.684 20.952 20.952 0 0 1 2.297 5.553c.625 2.526 2.245 4.681 3.514 6.047a20.693 20.693 0 0 1 3.573 5.359 18.48 18.48 0 0 1 1.598 4.67c.157 1.074 2.926 2.993 6.44 4.427.261.108.512.241.748.396 1.007.644 4.248 5.613 18.445 5.613 13.205 0 15.761-4.98 16.768-5.613a4.91 4.91 0 0 1 .748-.396c3.514-1.452 6.283-3.368 6.44-4.427a18.48 18.48 0 0 1 1.598-4.67 20.693 20.693 0 0 1 3.573-5.359c1.258-1.366 2.89-3.521 3.514-6.047a20.952 20.952 0 0 1 2.298-5.553 17.403 17.403 0 0 0 2.129-5.684c.079-.434.165-.853.258-1.254a18.274 18.274 0 0 1 2.11-5.28 26.586 26.586 0 0 0 1.962-4.034 22.034 22.034 0 0 0 1.474-7.817 49.4 49.4 0 0 1 .722-8.008 24.098 24.098 0 0 0-1.871-8.838c-.15-.434-.273-.805-.385-1.115zm-41.27 5.691a12.481 12.481 0 0 1 10.029-2.058 1.871 1.871 0 0 0 1.755-.471.935.935 0 0 0 .303-.779c-.086-.976-1.389-2.245-2.006-2.713a1.464 1.464 0 0 1 1.751-2.346c.3.221 2.934 2.245 3.173 4.782a3.867 3.867 0 0 1-1.07 3.043 4.797 4.797 0 0 1-4.49 1.35 9.547 9.547 0 0 0-8.423 2.137 1.456 1.456 0 0 1-.966.374h-.075a1.474 1.474 0 0 1-.969-.374 9.527 9.527 0 0 0-8.42-2.136 4.796 4.796 0 0 1-4.508-1.351 3.866 3.866 0 0 1-1.07-3.042c.239-2.538 2.873-4.562 3.172-4.783a1.463 1.463 0 0 1 1.748 2.346c-.617.465-1.916 1.737-2.006 2.713a.931.931 0 0 0 .307.779 1.872 1.872 0 0 0 1.755.471 12.484 12.484 0 0 1 10.01 2.058zm-33.715 16.465a1.468 1.468 0 1 1-2.93 0v-6.945a1.466 1.466 0 0 1 2.93 0v6.945zm-.341-45.357a1.463 1.463 0 0 1-.838-2.664c11.686-8.188 21.617-5.044 25.344-3.323a1.927 1.927 0 0 0 2.246-.471l1.044-1.153a1.464 1.464 0 0 1 2.174 1.96l-1.04 1.16a4.865 4.865 0 0 1-5.655 1.165c-4.06-1.871-12.37-3.978-22.452 3.057-.24.17-.528.264-.823.27zm3.038 7.96a1.871 1.871 0 0 1 0-2.661c5.613-4.273 14.28-3.368 19.388-.064a1.815 1.815 0 0 1 0 2.785c-2.69 1.755-6.362 2.828-10.066 2.828-3.32.004-6.657-.875-9.322-2.896v.008zm4.865 47.332a1.46 1.46 0 0 1-.882 1.377 1.45 1.45 0 0 1-.562.12 1.467 1.467 0 0 1-1.467-1.448C26.192 105.353 38.2 99.1 38.724 98.845a1.467 1.467 0 1 1 1.325 2.62c-.479.202-10.93 5.695-10.77 18.534l.008.007zm16.27 19.107c-.258.198-2.35 1.957-.748 5.942.88 2.186.94 4.116.172 5.696a5.548 5.548 0 0 1-3.207 2.784 1.463 1.463 0 0 1-1.708-2.1c.185-.341.498-.596.87-.707a2.665 2.665 0 0 0 1.418-1.276c.374-.819.292-1.931-.262-3.304-2.522-6.268 1.572-9.284 1.748-9.408a1.465 1.465 0 0 1 1.717 2.373zm12.326-8.015c-.067.086-2.87 3.981-.969 12.311.955 4.18.835 7.607-.348 10.189-.969 2.114-2.338 2.882-2.492 2.964a1.465 1.465 0 1 1-1.37-2.59s3.159-2.009 1.355-9.912c-2.245-9.875 1.366-14.594 1.52-14.774a1.465 1.465 0 0 1 2.023-.202 1.465 1.465 0 0 1 .282 2.014zm12.315 21.452a1.46 1.46 0 0 1-.705.873 1.446 1.446 0 0 1-1.117.112 5.549 5.549 0 0 1-3.207-2.784c-.767-1.595-.707-3.51.172-5.7 1.673-4.149-.707-5.908-.748-5.927a1.466 1.466 0 0 1-.34-2.043 1.467 1.467 0 0 1 2.043-.341c.175.124 4.27 3.14 1.747 9.408-.561 1.388-.644 2.511-.247 3.334a2.622 2.622 0 0 0 1.403 1.246 1.474 1.474 0 0 1 .873.706 1.462 1.462 0 0 1 .115 1.116h.011zm5.595-14.926a1.466 1.466 0 0 1-2.522-.976c-.01-.388.136-.764.404-1.045.49-.52 1.729-2.245 1.538-3.821-.12-.984-.749-1.844-1.965-2.619-4.49-2.934-4.625-7.682-4.303-10.253a6.134 6.134 0 0 0-1.706-5.202c-3.866-3.704-11.38-2.2-11.455-2.185-.497-.061-1-.061-1.496 0-.109-.022-7.62-1.497-11.455 2.185a6.141 6.141 0 0 0-1.71 5.202c.322 2.571.19 7.319-4.303 10.253-1.201.786-1.845 1.646-1.965 2.619-.19 1.587 1.052 3.301 1.546 3.825a1.464 1.464 0 0 1 .276 1.584 1.467 1.467 0 0 1-1.919.768 1.465 1.465 0 0 1-.483-.335c-.108-.116-2.709-2.882-2.331-6.167.22-1.871 1.32-3.484 3.278-4.756 2.994-1.961 3.285-5.127 2.994-7.439a9.074 9.074 0 0 1 2.585-7.679c4.962-4.76 13.703-3.016 14.074-2.941.05.013.1.029.15.048a.933.933 0 0 1 .146-.048c.374-.075 9.111-1.819 14.073 2.941a9.079 9.079 0 0 1 2.59 7.679c-.288 2.312 0 5.478 2.993 7.439 1.954 1.272 3.058 2.874 3.275 4.756.385 3.285-2.208 6.051-2.32 6.167h.01zm6.466-16.14h-.03a1.45 1.45 0 0 1-1.034-.447 1.455 1.455 0 0 1-.41-1.049c.164-12.839-10.283-18.336-10.729-18.561a1.47 1.47 0 0 1-.647-1.972 1.469 1.469 0 0 1 1.972-.647c.513.258 12.52 6.507 12.349 21.209a1.467 1.467 0 0 1-1.482 1.467h.011zm3.368-48.758c-2.69 1.755-6.362 2.829-10.063 2.829-3.322 0-6.66-.868-9.32-2.889a1.85 1.85 0 0 1 0-2.66c5.612-4.274 14.275-3.368 19.383-.064a1.816 1.816 0 0 1 0 2.784zm4.348 37.349a1.47 1.47 0 0 1-1.465 1.541 1.474 1.474 0 0 1-1.063-.456 1.47 1.47 0 0 1-.402-1.085v-6.949a1.466 1.466 0 0 1 2.93 0v6.949zm-.086-45.993a1.456 1.456 0 0 1-1.201.625 1.497 1.497 0 0 1-.838-.262c-10.066-7.035-18.377-4.936-22.453-3.057a4.843 4.843 0 0 1-5.65-1.164L58.7 59.068a1.464 1.464 0 0 1 2.174-1.961l1.044 1.152a1.93 1.93 0 0 0 2.246.472c3.742-1.725 13.654-4.865 25.344 3.312a1.461 1.461 0 0 1 .37 2.039h.012z"/>
        <path d="M106.002 58.05v-.101c.767-3.742 1.381-7.181 1.792-10.35a21.854 21.854 0 0 1-5.942 2.787c-.943.26-1.919.38-2.896.355a19.19 19.19 0 0 1-3.566-.355v.06l.033.3c.244 2.244.648 5.986 2.62 8.426 2.14 2.646 2.567 10.328 1.437 25.682-.045.606-.079 1.1-.101 1.455-.015.242.014.484.086.715.086.262.21.584.355.962.266.7.595 1.567.909 2.593a49.768 49.768 0 0 1 2.422-6.032c5.613-11.847 5.818-18.534 4.628-19.964-2.26-2.71-1.799-6.38-1.777-6.533zM52.667 165h.198c-.553 0-1.122-.03-1.66-.06.474.038.965.06 1.462.06zM55.406 164.963c.337.022.678.037 1.018.037a19.882 19.882 0 0 0 3.9-.419l-.248.03c-1.56.168-3.117.292-4.67.352z"/>
    </g>
    <defs>
        <clipPath id="vc6toh3ooa">
            <path fill="#fff" transform="translate(.71)" d="M0 0h107.676v165H0z"/>
        </clipPath>
    </defs>
</svg>
