<svg width="200" height="200" viewBox="0 0 200 200" fill="none" xmlns="http://www.w3.org/2000/svg">
    <rect width="200" height="200" rx="24" fill="#fff"/>
    <g clip-path="url(#lepjrpxz6b)" fill="url(#3svd5vk93a)">
        <path d="M142.331 103.004H57.666a4.686 4.686 0 0 0-3.235 1.294 4.615 4.615 0 0 0-1.428 3.158c-.004.118.01.236.04.35l3.35 12.963c.508 2.566 2.089 4.63 4.666 4.63h77.883c2.576 0 4.129-2.134 4.665-4.63l3.35-12.963c.03-.114.044-.232.04-.35a4.61 4.61 0 0 0-1.428-3.159 4.687 4.687 0 0 0-3.238-1.293zM71.94 168h56.117c.293-.002.576-.106.799-.295.222-.188.371-.449.419-.736l6.161-36.266a1.227 1.227 0 0 0-.275-.999 1.256 1.256 0 0 0-.943-.443H65.779a1.264 1.264 0 0 0-.943.443 1.233 1.233 0 0 0-.275.999l6.161 36.266c.048.287.197.548.42.736.222.189.505.293.798.295z"/>
        <path d="M68.648 60.89c-.11.078-.206.174-.283.283-1.197 1.675-1.063 3.425-.213 4.64a1.23 1.23 0 0 1 .118 1.208L58.418 89.36c-.07.156-.106.325-.107.495v13.942c0 .328.132.642.365.874.234.232.55.362.881.362h.24a1.256 1.256 0 0 0 .881-.362 1.237 1.237 0 0 0 .365-.874V90.41c0-.17.036-.339.104-.495l9.919-22.519h.143c.986 0 1.932-.389 2.63-1.08a3.676 3.676 0 0 0 1.089-2.61c0-2.844-3.253-4.938-6.28-2.817zM126.976 75.438c-.789-1.088-2.498-.302-2.211 1.019.266 1.199.4 2.423.399 3.65v18.518c0 .327.131.641.363.873.233.232.549.362.879.363h2.83c.329 0 .645-.131.878-.363.233-.232.364-.546.364-.873V86.234a18.265 18.265 0 0 0-3.502-10.796z"/>
        <path d="M68.474 86.23v12.392c0 .328.132.642.365.874.234.232.55.362.881.362h2.832c.33 0 .647-.13.881-.362.234-.232.365-.546.365-.874V80.108c0-1.228.132-2.452.396-3.651.29-1.309-1.42-2.116-2.208-1.019a18.274 18.274 0 0 0-3.512 10.793zM121.205 65.734H77.76a1.24 1.24 0 0 0-1.246 1.236v31.655a1.24 1.24 0 0 0 1.246 1.236h43.445a1.24 1.24 0 0 0 1.245-1.236V66.97a1.24 1.24 0 0 0-1.245-1.236zM99.48 64.386c9.013 0 16.319-7.25 16.319-16.193 0-8.943-7.306-16.193-16.318-16.193s-16.318 7.25-16.318 16.193c0 8.943 7.306 16.193 16.318 16.193z"/>
    </g>
    <defs>
        <linearGradient id="3svd5vk93a" x1="0" y1="208.333" x2="216.667" y2="-6.25" gradientUnits="userSpaceOnUse">
            <stop stop-color="#0052D4"/>
            <stop offset=".5" stop-color="#4364F7"/>
            <stop offset="1" stop-color="#6FB1FC"/>
        </linearGradient>
        <clipPath id="lepjrpxz6b">
            <path fill="#fff" transform="translate(53 32)" d="M0 0h94v136H0z"/>
        </clipPath>
    </defs>
</svg>
