<svg width="115" height="165" viewBox="0 0 115 165" fill="none" xmlns="http://www.w3.org/2000/svg">
    <g clip-path="url(#g7m7i8w2na)" fill="#65788A">
        <path d="M108.512 86.144H6.579a5.618 5.618 0 0 0-5.614 5.401c-.004.144.012.287.048.426l4.033 15.726c.613 3.113 2.516 5.618 5.618 5.618h93.767c3.102 0 4.972-2.589 5.618-5.618l4.033-15.726c.036-.139.052-.282.048-.425a5.62 5.62 0 0 0-5.618-5.402zM23.765 165h67.562a1.495 1.495 0 0 0 1.466-1.251l7.418-44a1.514 1.514 0 0 0-.331-1.211 1.508 1.508 0 0 0-1.136-.538H16.347a1.51 1.51 0 0 0-1.434 1.107c-.057.21-.068.429-.033.642l7.418 44A1.494 1.494 0 0 0 23.765 165z"/>
        <path d="M19.801 35.05a1.468 1.468 0 0 0-.34.344c-1.442 2.032-1.28 4.155-.258 5.629a1.499 1.499 0 0 1 .143 1.466L7.485 69.59c-.084.19-.128.395-.129.602v16.914a1.5 1.5 0 0 0 1.5 1.5h.29a1.5 1.5 0 0 0 1.5-1.5v-16.24c0-.206.042-.41.124-.6l11.942-27.32h.173a4.477 4.477 0 0 0 4.477-4.478c0-3.45-3.916-5.991-7.56-3.417zM90.025 52.701c-.95-1.32-3.007-.367-2.662 1.236.32 1.454.482 2.94.48 4.43v22.465a1.5 1.5 0 0 0 1.496 1.5h3.407a1.5 1.5 0 0 0 1.496-1.5V65.798a22.283 22.283 0 0 0-4.217-13.097z"/>
        <path d="M19.592 65.794v15.034a1.5 1.5 0 0 0 1.5 1.5h3.41a1.5 1.5 0 0 0 1.5-1.5V58.366c-.001-1.49.159-2.974.476-4.43.348-1.587-1.709-2.566-2.658-1.235a22.286 22.286 0 0 0-4.228 13.093zM83.077 40.927H30.772a1.5 1.5 0 0 0-1.5 1.5v38.405a1.5 1.5 0 0 0 1.5 1.5h52.305a1.5 1.5 0 0 0 1.5-1.5V42.427a1.5 1.5 0 0 0-1.5-1.5zM56.922 39.292c10.85 0 19.646-8.796 19.646-19.646C76.568 8.796 67.773 0 56.922 0c-10.85 0-19.646 8.796-19.646 19.646 0 10.85 8.796 19.646 19.646 19.646z"/>
    </g>
    <defs>
        <clipPath id="g7m7i8w2na">
            <path fill="#fff" transform="translate(.962)" d="M0 0h113.172v165H0z"/>
        </clipPath>
    </defs>
</svg>
