<svg width="141" height="165" viewBox="0 0 141 165" fill="none" xmlns="http://www.w3.org/2000/svg">
    <g clip-path="url(#shagx50xoa)">
        <path d="M139.104 82.799a3.438 3.438 0 0 0-.319-.554c-4.098-5.795-10.953-15.868-11.913-18.235-.202-.488.696-2.416 1.177-3.45 1.052-2.261 2.364-5.073 1.99-8.214-.026-.212-.048-.513-.081-.89-2.481-29.973-21.593-48.098-53.82-51.042C73.13.14 70.139 0 67.25 0 40.99 0 25.123 11.169 16.436 20.526 6.022 31.761.048 46.593.048 61.213c0 26.758 12.096 38.707 20.893 47.438 4.398 4.351 7.87 7.786 8.43 11.664 2.933 20.724-13.14 38.718-13.302 38.894a3.448 3.448 0 0 0 2.566 5.773h71.637a3.443 3.443 0 0 0 3.343-2.606c.044-.169 4.311-17.122 6.298-26.025.267-1.184 2.199-3.937 14.475-3.937 2.122 0 4.171.081 5.817.143 1.781.07 3.225.117 4.09.062a6.54 6.54 0 0 0 5.66-3.936c1.642-3.585.777-8.592-1.067-11.107-.48-1.15 0-4.9.649-6.172a6.092 6.092 0 0 0 2.034-6.008 3.47 3.47 0 0 0-.227-.634c.869-.935 1.352-2.005 1.07-3.324 0-.242-.018-.701-.025-1.1-.026-1.239-.063-2.998-.228-4.706.572-.294 1.408-.638 1.972-.873 2.537-1.045 5.407-2.228 5.913-5.238.549-3.357-.788-6.385-.942-6.722z" fill="#65788A"/>
        <path d="M120.534 43.384c0-4.824-.916-11.73-8.661-16.773-7.093-4.593-15.37-4.864-23.576-1.213a1.1 1.1 0 0 1-.894-2.009c6.506-2.9 14.339-2.811 14.339-2.811s.388-3.76-4.905-6.99c-5.293-3.23-12.143-.664-13.258-.367-3.8-4.373-10.054-7.023-16.86-6.539-3.585.253-7.442 2.757-10.491 4.212.762.325 1.497.71 2.199 1.15 2.698 1.701 4.417 4.033 5.01 6.756 2.116.225 4.17.847 6.056 1.833a1.1 1.1 0 1 1-1.048 1.935c-.367-.194-8.797-4.637-13.148 1.756a1.1 1.1 0 0 1-1.642.202c-.195-.173-4.894-4.205-10.744-.708l-.073.04c-.147.077-3.776 2.031-2.441 7.522a1.1 1.1 0 0 1-.81 1.33 1.1 1.1 0 0 1-1.327-.81c-.91-3.738.088-6.23 1.081-7.697a7.37 7.37 0 0 1 2.47-2.295c5.55-3.299 10.37-1.008 12.35.272a9.666 9.666 0 0 1 6.997-3.446c-1.466-4.926-5.132-6.176-7.276-6.821a16.068 16.068 0 0 0-5.865-.796c-2.47.161-4.866.916-6.983 2.2a13.391 13.391 0 0 0-2.708 2.199c-.638.685-.876 1.792-1.745 2.31-1.041.619-2.874.19-4.061.274-8.797.623-15.326 7.247-14.604 14.794-4.592 2.199-7.517 6.598-7.056 11.388.462 4.791 7.042 7.91 8.798 15.395 1.755 7.485 3.507 7.269 4.677 8.43 1.169 1.163 4.109 3.028 10.59 3.96 10.882 1.957 12.623-.653 16.582-.624 3.958.03 5.344 1.133 7.968.946 4.333-.308 7.119-5.78 11.88-6.393-2.525-1.396-6.796-4.904-7.51-12.829a1.105 1.105 0 0 1 2.199-.198c.868 9.644 9.215 12.764 10.333 13.262 1.118.499 3.995 1.518 6.73 1.323a19.59 19.59 0 0 0 8.976-2.877c.62-.392 2.654-2.057 3.145-2.958.491-.902 1.961-4.67-.447-10.905a1.1 1.1 0 0 1 2.049-.795c2.375 6.147 1.239 9.46.612 10.63a23.618 23.618 0 0 1 3.783-1.434c6.543-1.884 19.309-5.674 19.309-15.83zm-84.338 9.058a18.07 18.07 0 0 1-16.4 4.087 1.1 1.1 0 0 1 .606-2.115c.326.091 8.086 2.199 14.295-3.581a1.1 1.1 0 0 1 1.5 1.609zm17.191-.924a1.1 1.1 0 0 1-1.1 1.026h-.073a1.1 1.1 0 0 1-1.026-1.165c0-.279.311-6.796-6.825-8.966-7.294-2.221-11.294 1.917-11.459 2.097a1.099 1.099 0 1 1-1.612-1.496c.201-.22 5.047-5.34 13.712-2.705 8.834 2.672 8.387 11.11 8.383 11.194v.015zm57.045-10.256a1.099 1.099 0 0 1-1.426-.608c-.131-.32-3.232-7.559-13.595-6.041-.333.044-7.671 1.078-8.929 8.335a1.099 1.099 0 0 1-1.297.905c-.044 0-4.399-.832-7.445 1.118a12.118 12.118 0 0 0-4.329 4.799 1.1 1.1 0 0 1-1.015.667 1.1 1.1 0 0 1-.429-.085 1.1 1.1 0 0 1-.583-1.437 14.13 14.13 0 0 1 5.183-5.81c2.79-1.788 6.257-1.74 7.987-1.572 2.042-7.94 10.487-9.09 10.575-9.101 12.114-1.774 15.897 7.309 15.93 7.4a1.092 1.092 0 0 1-.263 1.198c-.105.101-.228.18-.364.232z" fill="#fff"/>
    </g>
    <defs>
        <clipPath id="shagx50xoa">
            <path fill="#fff" transform="translate(.048)" d="M0 0h140.13v165H0z"/>
        </clipPath>
    </defs>
</svg>
