<svg width="200" height="200" viewBox="0 0 200 200" fill="none" xmlns="http://www.w3.org/2000/svg">
    <rect width="200" height="200" rx="24" fill="url(#cw2abc8h1a)"/>
    <g clip-path="url(#wj9e992tdb)">
        <path d="M157.111 100.244a2.735 2.735 0 0 0-.264-.452c-3.392-4.742-9.066-12.983-9.861-14.92-.167-.4.576-1.977.974-2.823.87-1.85 1.957-4.15 1.647-6.72-.021-.174-.039-.42-.067-.729-2.054-24.523-17.874-39.353-44.552-41.761a82.212 82.212 0 0 0-7.358-.339c-21.737 0-34.873 9.138-42.064 16.794C46.946 58.486 42 70.62 42 82.584c0 21.892 10.013 31.669 17.295 38.812 3.641 3.56 6.515 6.37 6.98 9.543 2.426 16.957-10.879 31.679-11.012 31.823a2.792 2.792 0 0 0-.5 3.047c.226.501.594.926 1.06 1.224.466.298 1.01.455 1.564.452h59.301a2.87 2.87 0 0 0 1.755-.596 2.819 2.819 0 0 0 1.013-1.536c.036-.138 3.568-14.009 5.213-21.293.221-.969 1.82-3.221 11.982-3.221 1.757 0 3.453.066 4.815.117 1.475.057 2.67.096 3.387.051a5.463 5.463 0 0 0 2.806-.951 5.36 5.36 0 0 0 1.878-2.27c1.36-2.933.644-7.03-.883-9.087-.397-.942 0-4.01.538-5.05a4.988 4.988 0 0 0 1.54-2.224 4.932 4.932 0 0 0 .144-2.692 2.854 2.854 0 0 0-.189-.519c.72-.764 1.12-1.64.886-2.72 0-.198-.015-.572-.021-.899-.021-1.014-.051-2.454-.188-3.851.473-.24 1.165-.522 1.633-.714 2.099-.855 4.475-1.823 4.894-4.285.455-2.747-.653-5.225-.78-5.501z" fill="#fff"/>
        <path d="M141.739 67.996c0-3.946-.758-9.596-7.17-13.723-5.871-3.758-12.722-3.98-19.516-.993a.918.918 0 0 1-.943-.123.896.896 0 0 1 .203-1.52c5.385-2.373 11.87-2.3 11.87-2.3s.321-3.078-4.06-5.72c-4.382-2.642-10.053-.542-10.975-.3-3.147-3.577-8.323-5.746-13.958-5.35-2.967.207-6.16 2.255-8.684 3.446.631.267 1.24.581 1.82.942 2.234 1.391 3.657 3.299 4.149 5.527 1.751.184 3.452.693 5.012 1.5a.89.89 0 0 1 .367 1.22.92.92 0 0 1-1.235.363c-.303-.159-7.282-3.794-10.883 1.436a.906.906 0 0 1-.642.388.92.92 0 0 1-.718-.223c-.16-.14-4.05-3.44-8.893-.578l-.061.033c-.121.063-3.125 1.661-2.02 6.154a.89.89 0 0 1-.348.94.915.915 0 0 1-1.422-.515c-.752-3.059.073-5.098.895-6.297a6.074 6.074 0 0 1 2.045-1.878c4.594-2.699 8.584-.825 10.223.222a7.988 7.988 0 0 1 2.596-2.013 8.076 8.076 0 0 1 3.196-.806c-1.213-4.03-4.248-5.053-6.023-5.581a13.445 13.445 0 0 0-4.855-.65 12.85 12.85 0 0 0-5.78 1.798 11.06 11.06 0 0 0-2.242 1.8c-.528.56-.725 1.466-1.444 1.89-.862.506-2.38.155-3.362.224-7.283.51-12.687 5.93-12.089 12.104-3.802 1.8-6.223 5.398-5.84 9.318.381 3.92 5.828 6.472 7.281 12.596 1.454 6.124 2.904 5.947 3.872 6.898.968.95 3.401 2.477 8.766 3.238 9.009 1.602 10.45-.533 13.727-.51 3.277.025 4.424.927 6.597.774 3.586-.252 5.892-4.73 9.834-5.23-2.091-1.142-5.626-4.013-6.218-10.496a.893.893 0 0 1 .21-.66.917.917 0 0 1 1.286-.115.9.9 0 0 1 .325.613c.72 7.89 7.628 10.442 8.554 10.85.925.408 3.307 1.242 5.57 1.083a16.35 16.35 0 0 0 7.431-2.355c.513-.32 2.197-1.682 2.604-2.42.406-.737 1.623-3.82-.37-8.922a.888.888 0 0 1 .033-.673.903.903 0 0 1 .497-.462.92.92 0 0 1 .682.01c.217.09.391.26.484.474 1.966 5.03 1.025 7.74.506 8.698a19.688 19.688 0 0 1 3.132-1.173c5.416-1.541 15.984-4.642 15.984-12.953zm-69.815 7.41a15.018 15.018 0 0 1-6.368 3.338 15.13 15.13 0 0 1-7.207.007.909.909 0 0 1-.546-.429.891.891 0 0 1 .354-1.223.92.92 0 0 1 .692-.079c.27.075 6.694 1.8 11.834-2.93a.916.916 0 0 1 1.286.045.893.893 0 0 1-.045 1.272zm14.23-.755a.896.896 0 0 1-.286.598.916.916 0 0 1-.624.242h-.06a.915.915 0 0 1-.625-.303.893.893 0 0 1-.225-.65c0-.229.258-5.561-5.65-7.337-6.038-1.817-9.348 1.569-9.485 1.716a.91.91 0 0 1-.633.287.919.919 0 0 1-.862-.523.89.89 0 0 1 .16-.988c.167-.18 4.178-4.37 11.351-2.213 7.313 2.186 6.943 9.09 6.94 9.16v.011zm47.223-8.391a.92.92 0 0 1-.694-.009.904.904 0 0 1-.486-.489c-.11-.26-2.677-6.184-11.255-4.942-.276.036-6.35.881-7.391 6.82a.913.913 0 0 1-1.074.74c-.037 0-3.641-.68-6.163.915a9.956 9.956 0 0 0-3.583 3.925.91.91 0 0 1-.841.546.904.904 0 0 1-.841-.558.887.887 0 0 1 .004-.686 11.605 11.605 0 0 1 4.29-4.754c2.309-1.463 5.18-1.424 6.612-1.286 1.69-6.496 8.681-7.438 8.754-7.447 10.028-1.451 13.159 5.98 13.187 6.055a.897.897 0 0 1-.519 1.17z" fill="#DC2823"/>
    </g>
    <defs>
        <linearGradient id="cw2abc8h1a" x1="-345.833" y1="464.583" x2="191.667" y2="-2.083" gradientUnits="userSpaceOnUse">
            <stop offset=".654" stop-color="#B82118"/>
            <stop offset="1" stop-color="#FC2D2D"/>
        </linearGradient>
        <clipPath id="wj9e992tdb">
            <path fill="#fff" transform="translate(42 32.5)" d="M0 0h116v135H0z"/>
        </clipPath>
    </defs>
</svg>
