<svg width="18" height="18" viewBox="0 0 18 18" xmlns="http://www.w3.org/2000/svg">
    <path d="M.818 3.604c0-1.988 1.465-3.6 3.273-3.6h9.818c1.808 0 3.273 1.612 3.273 3.6v8.4c0 1.988-1.465 3.6-3.273 3.6h-2.752L9.41 17.799a.526.526 0 0 1-.411.205.526.526 0 0 1-.41-.205l-1.747-2.195H4.091c-1.808 0-3.273-1.612-3.273-3.6v-8.4zm8.182 0c.255 0 .475.194.532.467l.302 1.46c.14.675.619 1.202 1.232 1.356l1.328.332c.248.062.424.305.424.585 0 .28-.176.523-.424.585l-1.328.332c-.613.153-1.093.68-1.232 1.356l-.302 1.46c-.057.273-.277.467-.532.467s-.475-.194-.532-.467l-.302-1.46c-.14-.675-.619-1.203-1.232-1.356l-1.328-.332c-.248-.062-.424-.305-.424-.585 0-.28.176-.523.424-.585l1.328-.332c.613-.154 1.093-.681 1.232-1.356l.302-1.46c.057-.273.277-.467.532-.467z" fill="#FF9700" fill-rule="evenodd"/>
</svg>
