<svg width="40" height="35" viewBox="0 0 40 35" xmlns="http://www.w3.org/2000/svg">
    <g fill="#FFF" fill-rule="nonzero">
        <path d="M26.063 8.865H13.938c-4.833 0-8.75 3.865-8.75 8.633v8.868c0 2.29.921 4.486 2.562 6.105A8.81 8.81 0 0 0 13.938 35h12.124c4.833 0 8.75-3.865 8.75-8.634v-8.868c0-4.768-3.917-8.633-8.75-8.633zM31.58 24.22c-.01 3.725-3.062 6.745-6.837 6.765h-9.482c-3.784 0-6.857-3.018-6.875-6.752v-4.595c.021-3.732 3.093-6.746 6.875-6.746h9.482c3.767.02 6.817 3.029 6.837 6.746v4.582z"/>
        <path d="M24.744 14.174h-9.482c-3.057.004-5.536 2.447-5.543 5.464v4.595c.003 3.02 2.483 5.466 5.543 5.47h9.482c3.059-.004 5.537-2.452 5.537-5.47v-4.595c-.003-3.016-2.48-5.46-5.537-5.464zm-10.369 7.802c-1.318 0-2.386-1.054-2.387-2.354-.002-1.3 1.065-2.356 2.383-2.358 1.318-.002 2.388 1.05 2.391 2.35 0 1.302-1.067 2.358-2.387 2.362zm9.406 3.083a5.297 5.297 0 0 1-3.668 1.548 5.993 5.993 0 0 1-3.863-1.542.64.64 0 0 1-.031-.913.66.66 0 0 1 .925-.03c.119.117 2.931 2.639 5.762 0a.644.644 0 0 1 .9.055.623.623 0 0 1-.056.888l.031-.006zm1.875-3.083c-1.318 0-2.386-1.054-2.387-2.354-.001-1.3 1.065-2.356 2.383-2.358 1.318-.002 2.388 1.05 2.392 2.35 0 .63-.256 1.235-.71 1.679a2.41 2.41 0 0 1-1.709.683h.031z"/>
        <path d="M14.375 18.547c-.44 0-.837.262-1.005.664-.168.401-.074.863.238 1.17.313.306.781.396 1.188.228.406-.168.669-.56.667-.995a1.06 1.06 0 0 0-.32-.757c-.204-.2-.48-.312-.768-.31zM25.625 18.547c-.44 0-.837.262-1.005.664-.168.401-.074.863.238 1.17.313.306.781.396 1.188.228.406-.168.669-.56.667-.995a1.06 1.06 0 0 0-.32-.757c-.204-.2-.48-.312-.768-.31zM36.406 16.703v10.465c2.075-.512 3.594-2.676 3.594-5.23 0-2.553-1.519-4.723-3.594-5.235zM3.594 16.703C1.519 17.215 0 19.385 0 21.939c0 2.553 1.519 4.717 3.594 5.229v-9.67a4.228 4.228 0 0 1 0-.795zM19.219 4.277v3.44h1.562v-3.44a2.204 2.204 0 0 0 1.421-2.46A2.23 2.23 0 0 0 20 0a2.23 2.23 0 0 0-2.202 1.816 2.204 2.204 0 0 0 1.42 2.46z"/>
    </g>
</svg>
