<svg width="16" height="15" viewBox="0 0 16 15" xmlns="http://www.w3.org/2000/svg">
    <path d="M14.502 1.481c-1.994-1.975-5.24-1.975-7.234 0l-6.2 6.142a3.599 3.599 0 0 0 0 5.118 3.659 3.659 0 0 0 2.584 1.058 3.66 3.66 0 0 0 2.583-1.058l5.683-5.63c.415-.41.643-.955.643-1.535s-.228-1.125-.642-1.536a2.21 2.21 0 0 0-3.1 0L5.101 7.723a.719.719 0 0 0 0 1.024.736.736 0 0 0 1.033 0l3.717-3.682a.736.736 0 0 1 1.033 0 .716.716 0 0 1 0 1.024l-5.683 5.63a2.21 2.21 0 0 1-3.1 0 2.16 2.16 0 0 1 0-3.072l6.2-6.141a3.682 3.682 0 0 1 5.166 0 3.578 3.578 0 0 1 1.07 2.559c0 .967-.38 1.875-1.07 2.559l-6.2 6.141a.719.719 0 0 0 0 1.024.732.732 0 0 0 1.034 0l6.2-6.142A5.009 5.009 0 0 0 16 5.064a5.009 5.009 0 0 0-1.498-3.583z" fill="#000" fill-rule="nonzero"/>
</svg>
