<svg width="21" height="18" viewBox="0 0 21 18" xmlns="http://www.w3.org/2000/svg">
    <g fill="#000" fill-rule="nonzero">
        <path d="M.84 12.118h5.054c3.234 0 5.866-2.567 5.866-5.72 0-3.154-2.632-5.72-5.866-5.72C2.66.678-.01 3.244-.01 6.398c0 1.507.649 2.946 1.725 4.012L.84 12.118zM6.48 9.83H5.309V8.686H6.48V9.83zm-.586-6.864c1.294 0 2.346 1.026 2.346 2.288 0 .854-.482 1.632-1.26 2.028a.945.945 0 0 0-.5.832H5.309c0-.795.432-1.49 1.128-1.846a1.14 1.14 0 0 0 .631-1.014c0-.631-.526-1.144-1.173-1.144-.646 0-1.173.513-1.173 1.144H3.548c0-1.262 1.052-2.288 2.346-2.288z"/>
        <path d="M12.926 6.517c-.051 2.903-1.958 5.365-4.611 6.318.366 2.812 2.809 5.003 5.79 5.003h5.055l-.875-1.708c1.076-1.066 1.725-2.505 1.725-4.012 0-3.16-2.665-5.72-5.904-5.72-.404 0-.798.041-1.18.12zm4.112 7.317h-4.692V12.69h4.692v1.144zm0-2.288h-4.692v-1.144h4.692v1.144z"/>
    </g>
</svg>
