<svg width="16" height="16" viewBox="0 0 16 16" xmlns="http://www.w3.org/2000/svg">
    <g fill-rule="nonzero" fill="none">
        <path d="M11.968 1.163A7.723 7.723 0 0 0 8 .098c-1.43 0-2.754.353-3.968 1.058a7.807 7.807 0 0 0-2.88 2.88A7.766 7.766 0 0 0 .094 8.003c0 1.43.353 2.754 1.058 3.968a7.807 7.807 0 0 0 2.88 2.88A7.766 7.766 0 0 0 8 15.91c1.43 0 2.754-.353 3.968-1.058a7.807 7.807 0 0 0 2.88-2.88 7.766 7.766 0 0 0 1.058-3.968c0-1.431-.353-2.754-1.058-3.969a7.749 7.749 0 0 0-2.88-2.872z" fill="#DFE4EA"/>
        <path d="M11.938 3.486a.55.55 0 0 1 .292.08.603.603 0 0 1 .209.212.58.58 0 0 1 .079.3.6.6 0 0 1-.179.429L8.874 8.002 12.34 11.5a.604.604 0 0 1-.109.942.55.55 0 0 1-.292.08.54.54 0 0 1-.402-.173L7.999 8.772 4.464 12.35a.54.54 0 0 1-.402.172.55.55 0 0 1-.292-.079.603.603 0 0 1-.209-.212.604.604 0 0 1 .1-.73l3.465-3.498L3.66 4.507a.6.6 0 0 1-.179-.43.603.603 0 0 1 .288-.512.55.55 0 0 1 .292-.079c.157 0 .291.056.402.168L8 7.234l3.537-3.58a.544.544 0 0 1 .31-.161z" fill="#002237"/>
    </g>
</svg>
