<svg width="14" height="15" viewBox="0 0 14 15" xmlns="http://www.w3.org/2000/svg">
    <path d="M2.188 6.18V1.313a.42.42 0 0 0-.13-.308.42.42 0 0 0-.308-.13.42.42 0 0 0-.308.13.42.42 0 0 0-.13.308V6.18a1.77 1.77 0 0 0-.936.615c-.25.31-.376.67-.376 1.08 0 .41.125.77.376 1.08.25.31.563.515.937.615v4.867a.42.42 0 0 0 .13.308.42.42 0 0 0 .307.13.42.42 0 0 0 .308-.13.42.42 0 0 0 .13-.307V9.57c.382-.1.697-.305.943-.615s.369-.67.369-1.08c0-.41-.123-.77-.37-1.08a1.736 1.736 0 0 0-.942-.615zM1.75 8.75a.834.834 0 0 1-.622-.26.852.852 0 0 1-.253-.615c0-.237.084-.442.253-.615A.834.834 0 0 1 1.75 7c.246 0 .453.087.622.26a.852.852 0 0 1 .253.615.852.852 0 0 1-.253.615.834.834 0 0 1-.622.26zm5.688.055V1.313a.42.42 0 0 0-.13-.308A.42.42 0 0 0 7 .875a.42.42 0 0 0-.308.13.42.42 0 0 0-.13.308v7.492a1.77 1.77 0 0 0-.936.615c-.25.31-.376.67-.376 1.08 0 .41.125.77.376 1.08.25.31.563.515.936.615v2.242a.42.42 0 0 0 .13.308.42.42 0 0 0 .308.13.42.42 0 0 0 .308-.13.42.42 0 0 0 .13-.307v-2.243c.382-.1.697-.305.943-.615s.369-.67.369-1.08c0-.41-.123-.77-.37-1.08a1.736 1.736 0 0 0-.943-.615zM7 11.375a.834.834 0 0 1-.622-.26.852.852 0 0 1-.253-.615c0-.237.084-.442.253-.615A.834.834 0 0 1 7 9.625c.246 0 .453.087.622.26a.852.852 0 0 1 .253.615.852.852 0 0 1-.253.615.834.834 0 0 1-.622.26zm5.688-7.82V1.312a.42.42 0 0 0-.13-.307.42.42 0 0 0-.308-.13.42.42 0 0 0-.308.13.42.42 0 0 0-.13.308v2.242a1.77 1.77 0 0 0-.936.615c-.25.31-.376.67-.376 1.08 0 .41.125.77.376 1.08.25.31.563.515.937.615v7.492a.42.42 0 0 0 .13.308.42.42 0 0 0 .307.13.42.42 0 0 0 .308-.13.42.42 0 0 0 .13-.307V6.944c.382-.1.697-.305.943-.615S14 5.66 14 5.25c0-.41-.123-.77-.37-1.08a1.736 1.736 0 0 0-.943-.615zm-.438 2.57a.834.834 0 0 1-.622-.26.852.852 0 0 1-.253-.615c0-.237.084-.442.253-.615a.834.834 0 0 1 .622-.26c.246 0 .453.087.622.26a.852.852 0 0 1 .253.615.852.852 0 0 1-.253.615.834.834 0 0 1-.622.26z" fill="#000" fill-rule="nonzero"/>
</svg>
