<svg width="200" height="24" viewBox="0 0 200 24" xmlns="http://www.w3.org/2000/svg">
    <g fill="#070707" fill-rule="evenodd">
        <path d="M169.661 14c.184-.338.11-.645.11-.937.006-3.906.014-7.812-.006-11.717-.003-.572.132-.817.756-.787.963.047 1.931.05 2.893 0 .649-.034.805.198.803.815-.022 5.493-.013 10.986-.013 16.48 0 1.285-.023 2.57.011 3.855.015.544-.122.773-.716.743-1.087-.055-2.341.284-3.223-.15-.847-.416-1.323-1.594-1.94-2.453-2.431-3.385-4.852-6.776-7.28-10.164-.14-.198-.298-.384-.465-.597-.244.288-.145.573-.146.83-.007 3.881-.019 7.762.008 11.642.004.67-.157.95-.884.895-.858-.064-1.725-.014-2.589-.015-1.002 0-1.003 0-1.003-.966V4.389c0-1.058.018-2.117-.008-3.175-.013-.498.18-.665.669-.65a31.25 31.25 0 0 0 2.513-.003c.54-.025.878.156 1.193.6 2.878 4.058 5.779 8.101 8.677 12.145.172.24.287.537.64.693M10.602 16.331l.123-.182c1.642 0 3.285-.026 4.927.014.569.014.945-.154 1.287-.598a6.61 6.61 0 0 0 .07-8.024c-1.766-2.386-4.963-3.314-7.759-2.25-2.745 1.043-4.55 3.832-4.305 6.652.266 3.07 2.481 5.56 5.46 6.084.622.11 1.275.216 2.088-.086l-1.891-1.61m6.006.075 6.944 6.724c-.04.077-.08.154-.122.231-1.304 0-2.615-.084-3.91.024-1.224.103-2.174-.208-2.887-1.203-.323-.451-.69-.506-1.24-.313C7.878 24.504.218 18.89.508 10.982.717 5.316 5.31.815 11.258.45c5.37-.33 10.48 3.814 11.345 9.189.324 2.01.128 3.956-.589 5.866-.198.53-.463.749-1.046.727-1.166-.043-2.335-.018-3.502-.009-.241.002-.501-.076-.858.183M135.037 4.872c-3.704.01-6.679 2.961-6.68 6.625-.003 3.689 3.02 6.653 6.757 6.625 3.701-.027 6.66-2.995 6.643-6.663-.016-3.657-3.017-6.598-6.72-6.587m11.146 6.657c-.009 6.06-4.986 10.999-11.104 11.02-6.16.022-11.163-4.973-11.147-11.127.017-6.047 5.041-11 11.141-10.982 6.15.018 11.12 4.977 11.11 11.09M32.855 8.173c0-2.58.022-4.696-.014-6.813-.01-.643.213-.827.833-.8.963.043 1.931.048 2.893-.001.622-.031.768.198.765.78-.022 4.082-.019 8.164-.009 12.247.006 2.216 1.073 3.777 2.944 4.366 2.621.826 5.352-.901 5.496-3.62.136-2.563.062-5.138.072-7.708.007-1.789.017-3.578-.008-5.367-.007-.522.157-.713.695-.695 1.066.034 2.133.016 3.2.007.351-.003.581.065.575.493-.067 4.685.255 9.382-.146 14.052-.368 4.3-4.311 7.532-8.73 7.475-4.306-.054-8.052-3.402-8.473-7.625-.24-2.412-.025-4.836-.093-6.791M191.803 22.605c-3.214-.076-5.843-1.305-8.003-3.586-.35-.37-.298-.607.005-.947.606-.678 1.178-1.388 1.766-2.082.741-.873.74-.87 1.45-.007 1.3 1.582 2.975 2.395 5.038 2.378.666-.005 1.314-.141 1.906-.461 1.224-.662 1.36-2.23.256-3.081-.71-.548-1.565-.823-2.393-1.14-1.277-.49-2.573-.938-3.778-1.597-2.752-1.506-3.943-3.751-3.455-6.52.442-2.503 2.744-4.6 5.542-5.033 3.378-.523 6.23.638 8.803 2.71.352.284.218.481.012.744-.672.854-1.347 1.705-1.99 2.58-.276.376-.486.405-.845.096-1.065-.915-2.232-1.662-3.641-1.96-.765-.16-1.514-.136-2.242.162-.717.294-1.15.814-1.216 1.595-.062.732.377 1.166.946 1.513.937.57 1.978.909 2.99 1.308 1.133.447 2.271.875 3.342 1.46 2.096 1.144 3.22 2.88 3.204 5.272-.016 2.387-1.088 4.203-3.156 5.422-1.411.833-2.966 1.147-4.541 1.174M94.188 13.61c0 2.647-.028 5.294.018 7.94.012.748-.227.953-.947.905-.91-.06-1.83-.055-2.741 0-.66.038-.801-.213-.798-.82.02-5.092.012-10.184.011-15.276 0-1.596 0-1.596-1.597-1.596-1.244 0-2.489-.019-3.733.01-.486.01-.683-.125-.667-.632.03-.982.032-1.967 0-2.948-.018-.522.209-.63.68-.629 5.054.012 10.109.012 15.163 0 .476 0 .696.124.681.637-.028.982-.03 1.966 0 2.948.017.516-.198.63-.673.623-1.574-.024-3.15.012-4.724-.02-.542-.01-.687.173-.683.691.022 2.722.01 5.445.01 8.167M113.955 11.517c0 3.348-.016 6.697.013 10.045.006.672-.159.949-.884.893-.832-.063-1.673-.014-2.51-.014-1.08 0-1.081 0-1.081-1.04V3.726c0-1.735 0-1.736 1.682-2.268.7-.221 1.416-.403 2.1-.666.594-.228.688.002.686.528-.013 3.398-.006 6.797-.006 10.197M67.93 4.763c-2.131 0-4.263-.02-6.394.013-.577.01-.747-.167-.72-.726a27.86 27.86 0 0 0 0-2.719c-.03-.592.16-.776.765-.772 3.83.025 7.662.013 11.493.013.482 0 .965.014 1.446-.002.396-.014.535.158.53.54a65.38 65.38 0 0 0 .005 3.022c.015.499-.163.645-.655.64-2.157-.021-4.313-.009-6.47-.009M67.924 9.457c2.131 0 4.263.018 6.394-.012.56-.007.766.143.74.719a41.766 41.766 0 0 0-.006 2.87c.01.443-.124.629-.6.627-4.34-.013-8.68-.012-13.019 0-.46.002-.625-.148-.613-.609.026-1.006.03-2.015-.001-3.021-.015-.49.2-.584.634-.58 2.157.015 4.314.006 6.47.006M67.998 18.352c2.107 0 4.213.017 6.32-.011.56-.008.767.146.739.72a35.63 35.63 0 0 0-.004 2.72c.013.471-.115.67-.636.669-4.315-.017-8.63-.016-12.945-.001-.494.002-.671-.146-.654-.644.033-.931.039-1.866-.001-2.796-.024-.552.201-.671.709-.666 2.157.022 4.314.01 6.472.01"/>
    </g>
</svg>
