<svg width="201" height="31" viewBox="0 0 201 31" xmlns="http://www.w3.org/2000/svg" xmlns:xlink="http://www.w3.org/1999/xlink">
    <defs>
        <path id="7gd9rruhka" d="M0 0h41.61v31H0z"/>
        <path id="ow8wqavl5c" d="M0 0h21.248v23.914H0z"/>
        <path id="m0joejie7e" d="M0 0h33.642v31H0z"/>
    </defs>
    <g fill="none" fill-rule="evenodd">
        <path d="M189.23 17.526c.822-3.054 1.646-6.107 2.464-9.162.584-2.181 1.164-4.364 1.734-6.55.155-.594.384-.946 1.124-.92 1.832.061 3.667.049 5.5.005.74-.017.95.243.948.962-.022 7-.019 14-.003 21.001.001.64-.157.902-.862.932-2.949.125-2.948.15-2.948-2.783V6.215c0-.239.016-.479-.004-.716-.022-.255.11-.64-.276-.681-.34-.036-.389.31-.462.584-.63 2.374-1.264 4.747-1.908 7.118-.944 3.48-1.922 6.95-2.828 10.44-.169.65-.463.864-1.066.817-.08-.006-.16.003-.239 0-1.226-.066-2.72.472-3.609-.22-.873-.68-.82-2.223-1.137-3.4-1.29-4.781-2.596-9.558-3.916-14.331-.102-.369.027-1.064-.582-.968-.46.072-.233.682-.233 1.045-.015 5.53-.04 11.058.016 16.586.012 1.081-.314 1.34-1.348 1.312-2.477-.065-2.478-.014-2.478-2.537 0-6.364.02-12.728-.02-19.091-.007-.965.214-1.335 1.243-1.282 1.67.085 3.35.082 5.02-.002.876-.044 1.167.323 1.367 1.077 1.337 5.056 2.705 10.103 4.066 15.152.037.138.106.268.16.401l.277.007" fill="#020203"/>
        <g>
            <mask id="sa4ef7vx6b" fill="#fff">
                <use xlink:href="#7gd9rruhka"/>
            </mask>
            <path d="M9.37 5.099c-1.382 4.23-2.645 8.104-3.95 12.106h6.137c1.777 0 1.777 0 1.21-1.727L9.37 5.098M30.895 31c-6.835-.066-12.056-2.864-15.305-8.978-.408-.767-.928-1.025-1.797-1.007-2.749.057-5.503.079-8.25-.007-1.082-.034-1.647.313-1.803 1.346-.15.998-.552 1.244-1.589.865-2.473-.904-2.487-.839-1.66-3.363C2.525 13.633 4.564 7.412 6.568 1.18c.257-.8.606-1.19 1.504-1.116 1.187.097 2.602-.314 3.515.203.94.532.893 2.1 1.272 3.215 1.433 4.206 2.794 8.436 4.255 12.632.96 2.754 2.275 5.324 4.353 7.45 2.044 2.092 4.599 3.064 7.433 3.409 3.51.426 6.825-.09 9.792-2.146.033-.023.067-.056.103-.06 1.54-.184 1.681 1.389 2.543 2.06.657.512-.036.87-.443 1.15-3.009 2.075-6.353 3.056-10.001 3.022" fill="#020203" mask="url(#sa4ef7vx6b)"/>
        </g>
        <path d="M137.78 8.31c0 1.256.016 2.512-.008 3.767-.011.59.147.899.804.887 1.722-.032 3.45.059 5.166-.039 2.366-.135 4.068-1.78 4.194-3.89.157-2.62-1.107-4.383-3.603-4.921-1.978-.427-3.99-.11-5.986-.178-.603-.02-.565.442-.567.85-.003 1.175 0 2.35 0 3.524m-4.048 3.418c0-3.535.022-7.07-.016-10.604-.009-.829.205-1.138 1.074-1.124 2.972.05 5.947-.002 8.92.031 3.559.04 6.84 2.431 7.78 5.955.995 3.725.117 7.007-2.987 9.305-.713.527-.843.898-.429 1.659.768 1.41 1.737 2.534 3.376 2.862.606.12.906.413.85 1.078-.047.565-.007 1.137-.01 1.706-.004 1.427-.1 1.469-1.545 1.169-3.063-.636-5.005-2.655-6.299-5.35-.522-1.088-1.235-1.527-2.325-1.542-1.125-.016-2.251.03-3.375-.016-.725-.03-1.002.214-.98.97.044 1.543-.02 3.089.026 4.631.024.763-.261.981-.98.965-3.717-.088-3.024.529-3.072-3.04-.04-2.885-.008-5.77-.008-8.655" fill="#020203"/>
        <g transform="translate(108.927)">
            <mask id="q0sd2w2ogd" fill="#fff">
                <use xlink:href="#ow8wqavl5c"/>
            </mask>
            <path d="M16.246 11.95c1.325.001 2.652.027 3.976-.009.757-.02 1.039.276 1.025 1.048-.066 3.776-.934 7.206-4.386 9.248-3.673 2.173-7.513 2.265-11.219.098C1.411 19.862-.48 15.248.103 10.204.714 4.915 4.568.814 9.334.135c4.106-.584 7.513.718 10.191 3.96.465.564.548 1.042-.188 1.43-.137.074-.257.18-.386.267-1.794 1.215-1.794 1.215-3.344-.248-3.26-3.074-8.982-1.95-10.893 2.253-1.514 3.329-1.284 6.632.9 9.635 2.468 3.395 8.68 3.36 10.806-.022.243-.388.681-.835.463-1.27-.205-.41-.78-.166-1.187-.175a68.36 68.36 0 0 0-3.626 0c-.657.02-.895-.218-.88-.891.085-3.793-.534-3.04 2.95-3.121.702-.017 1.404-.003 2.106-.002" fill="#020203" mask="url(#q0sd2w2ogd)"/>
        </g>
        <path d="M164.262 5.698c-1.192 3.716-2.263 7.073-3.35 10.425-.236.727.065.91.724.904 1.755-.018 3.512-.051 5.264.013.937.033.918-.344.678-1.04a277.951 277.951 0 0 1-1.783-5.37c-.491-1.524-.951-3.056-1.533-4.932M164.22.905c2.423 0 2.425-.001 3.165 2.298 2.004 6.223 3.992 12.451 6.027 18.664.276.844.215 1.226-.715 1.516-2.474.77-2.492.83-3.283-1.608-.238-.732-.579-.992-1.331-.98-2.54.04-5.082.038-7.622 0-.737-.011-1.102.204-1.344.953-.824 2.549-.848 2.51-3.41 1.603-.737-.261-.868-.618-.642-1.315a5721.032 5721.032 0 0 0 6.548-20.36c.184-.576.465-.843 1.083-.782.504.051 1.016.01 1.524.01M45.166 11.442c0-3.462.018-6.924-.015-10.386-.006-.755.197-1.033 1.018-1.045 3.104-.047 3.103-.076 3.103 2.93 0 2.23.031 4.458-.016 6.686-.017.814.218.932.972.69 3.838-1.229 7.087-5.277 7.324-9.287.046-.771.271-1.101 1.065-1.005.28.034.567.006.85.006 2.39 0 2.397 0 1.986 2.332-.561 3.186-1.997 5.95-4.323 8.23-.625.614-.727.924-.008 1.548 2.934 2.547 4.321 5.871 4.821 9.613.118.884-.094 1.361-1.14 1.246-.841-.092-1.793.168-2.523-.133-.925-.381-.408-1.5-.598-2.271-.594-2.412-1.794-4.402-3.676-6.036-.78-.677-1.493-.96-2.59-.523-2.109.84-2.144.756-2.144 2.999 0 1.631-.022 3.263.01 4.894.014.75-.245 1.048-1.052 1.072-3.065.091-3.064.116-3.064-2.845v-8.715M31.967.01c2.56.05 5.006.536 7.26 1.88.667.397.712.722.209 1.237-.027.027-.044.065-.068.096-.506.655-.893 1.527-1.551 1.905-.693.397-1.372-.496-2.112-.689-1.823-.475-3.637-.839-5.523-.42-.504.111-.98.278-1.405.558-1.46.96-1.42 2.828.112 3.671 1.766.972 3.781 1.178 5.658 1.815 1.788.605 3.522 1.313 4.752 2.871 2.378 3.013 2.239 9.18-3.972 10.627-4.348 1.013-8.308-.227-11.926-2.775-.416-.293-.54-.543-.136-.92.028-.027.051-.06.076-.09.569-.707 1.008-1.685 1.74-2.049.846-.422 1.47.724 2.26 1.057 2.265.952 4.55 1.621 7.03 1.071 1.507-.333 2.425-1.124 2.552-2.248.168-1.48-.417-2.502-1.87-3.223-1.693-.841-3.572-1.079-5.336-1.695-.883-.308-1.762-.601-2.59-1.066-2.392-1.343-3.383-3.392-3.067-6.137.263-2.274 2.082-4.314 4.451-4.995 1.13-.325 2.273-.539 3.456-.482" fill="#020203"/>
        <g>
            <g transform="translate(69.628)">
                <mask id="ros0zua4bf" fill="#fff">
                    <use xlink:href="#m0joejie7e"/>
                </mask>
                <path d="M13.678 28.133c.42-.388.704-.597.922-.86.814-.986 1.582-2.011 2.413-2.982 1.357-1.584 3-2.581 5.183-2.52 1.464.04 2.943.07 4.393-.093 2.4-.27 3.456-1.18 3.892-3.54.449-2.432.755-4.904.922-7.372.117-1.734.011-3.505-.211-5.232-.203-1.572-1.283-2.68-2.826-2.887-1.796-.242-3.64-.23-5.458-.164-1.422.051-2.837.524-4.252.51-3.307-.035-6.61-.334-9.917-.368C5.393 2.59 3.411 4.217 3.125 7.57c-.312 3.65-.257 7.337-.25 11.008.002 1.365.637 1.953 2.031 2.042 1.179.075 2.387.014 3.556-.163 2.545-.386 4.399.948 4.694 3.486.152 1.308.325 2.613.522 4.19M.003 14.978c-.031-3.21.142-6.387 1.26-9.453C2.725 1.518 4.243.325 8.535.288c3.309-.028 6.62.185 9.928.168C20.61.445 22.764.29 24.9.061c3.95-.423 7.258 1.377 8.264 4.769.357 1.205.544 2.536.457 3.784-.232 3.309-.56 6.618-1.028 9.901-.475 3.332-2.36 5.116-5.71 5.463-1.768.184-3.576-.04-5.351.107-.702.058-1.495.486-2.016.986-1.177 1.132-2.165 2.459-3.318 3.62-.724.728-1.545 1.405-2.43 1.92-1.477.857-2.622.264-2.797-1.44-.158-1.545-.198-3.11-.19-4.666.005-1.136-.416-1.562-1.566-1.494-1.576.094-3.21.305-4.73.006-3-.59-4.498-2.703-4.482-5.76.004-.76 0-1.52 0-2.28" fill="#1D1D1B" mask="url(#ros0zua4bf)"/>
            </g>
            <path d="M95.996 12.063c-.03 1.731-.247 2-1.805 1.926-1.94-.091-2.065.117-2.177-2.42-.07-1.573.044-1.603 2.231-1.559 1.663.034 1.783.175 1.75 2.053M79.928 10.003c2.07.025 2.093.047 2.068 2.025-.024 1.8-.193 2.02-1.74 1.965-2.097-.074-2.074-.05-2.234-2.393-.104-1.53.1-1.62 1.906-1.597M86.95 10.004c1.958.025 2.07.128 2.048 1.884-.024 1.902-.217 2.133-1.77 2.11-1.971-.027-2.258-.34-2.226-2.426.024-1.55.077-1.592 1.948-1.568" fill="#1D1D1B"/>
        </g>
    </g>
</svg>
