<svg width="72" height="72" viewBox="0 0 72 72" xmlns="http://www.w3.org/2000/svg">
    <g fill-rule="nonzero" fill="none">
        <path d="M31.37 70.404a.605.605 0 0 1-.327-1.116l7.268-4.64-9.432 5.447a.604.604 0 0 1-.63-1.031l13.302-8.588-15.721 9.08a.604.604 0 0 1-.623-1.038l7.032-4.386-8.456 4.887a.604.604 0 0 1-.627-1.035l16.281-10.363-18.194 10.52a.604.604 0 1 1-.62-1.04l3.493-2.143-4.387 2.536a.604.604 0 0 1-.623-1.036L33.73 57.32l-15.936 9.21a.604.604 0 0 1-.618-1.04l4.736-2.89-5.463 3.147a.605.605 0 1 1-.618-1.04l6.651-4.068-7.355 4.25a.604.604 0 0 1-.626-1.035l23.907-15.162L13.05 63.341a.604.604 0 0 1-.624-1.035L36.29 47.258 11.223 61.74a.604.604 0 0 1-.62-1.038l16.378-10.115L9.93 60.443a.605.605 0 1 1-.624-1.038l23.606-14.819-24.47 14.147a.604.604 0 1 1-.616-1.042l3.056-1.857-3.249 1.878a.604.604 0 0 1-.621-1.038l19.844-12.347-20.35 11.761a.604.604 0 0 1-.624-1.036L28.376 40.95 5.388 54.239a.605.605 0 1 1-.62-1.04l16.388-10.135-16.598 9.592a.604.604 0 0 1-.617-1.04l5.08-3.091-5.025 2.905a.604.604 0 1 1-.625-1.036l23.876-15.099L3.141 49.227a.604.604 0 0 1-.625-1.031l19.738-12.348L2.525 47.242a.604.604 0 0 1-.622-1.038L20.086 34.85 2.046 45.274a.604.604 0 0 1-.619-1.037L22.412 30.98 1.67 42.965a.604.604 0 0 1-.62-1.039l10.57-6.522-10.123 5.85a.604.604 0 0 1-.62-1.038l12.667-7.868-12.13 7.011a.605.605 0 1 1-.617-1.041l2.355-1.438-1.724.996a.604.604 0 0 1-.624-1.036l14.562-9.131-13.797 7.975a.604.604 0 0 1-.624-1.034l19.39-12.453L2.004 32.791a.604.604 0 0 1-.624-1.035l12.726-8.044L2.588 30.37a.604.604 0 0 1-.631-1.032l14.641-9.476-12.994 7.513a.604.604 0 0 1-.624-1.036l3.078-1.93-1.564.903a.604.604 0 0 1-.638-1.026l11.27-7.542-8.586 4.963a.606.606 0 1 1-.638-1.032l2.563-1.677a.604.604 0 0 1-.586-1.048l5.15-3.788a.605.605 0 0 1-.11-1.098l7.516-4.344a.604.604 0 0 1 .66 1.012l-3.659 2.69 9.636-5.568a.604.604 0 0 1 .632 1.031l-2.497 1.63L30.46 6.48a.604.604 0 0 1 .639 1.027l-11.261 7.534 14.736-8.516a.604.604 0 0 1 .624 1.036L32.13 9.485l4.69-2.71a.604.604 0 0 1 .631 1.032l-14.658 9.485 17.12-9.89a.604.604 0 1 1 .626 1.035l-12.709 8.031 14.313-8.271a.604.604 0 0 1 .628 1.032l-19.4 12.456L43.814 9.871a.604.604 0 0 1 .623 1.037L29.88 20.035l15.271-8.824a.604.604 0 0 1 .618 1.04l-2.346 1.434 2.66-1.54a.604.604 0 1 1 .622 1.039l-12.686 7.88 13.302-7.686a.604.604 0 0 1 .62 1.038l-10.567 6.52L48.47 14.52a.604.604 0 1 1 .625 1.037L28.09 28.827l21.975-12.702a.604.604 0 0 1 .621 1.038L32.533 28.5l18.953-10.953a.604.604 0 0 1 .622 1.037l-19.751 12.36L52.97 19.034a.604.604 0 0 1 .624 1.035l-23.87 15.093 24.952-14.42a.604.604 0 0 1 .617 1.04l-5.08 3.094 5.451-3.147a.604.604 0 1 1 .62 1.04L39.9 32.896l17.068-9.863a.604.604 0 0 1 .623 1.036L35.084 38.176l23.46-13.558a.604.604 0 1 1 .622 1.04L39.32 38.003l20.665-11.941a.604.604 0 0 1 .614 1.04l-3.06 1.855 3.387-1.96a.604.604 0 0 1 .624 1.037L37.949 42.854l24.307-14.052a.605.605 0 1 1 .62 1.04L46.514 39.95l16.226-9.38a.604.604 0 0 1 .625 1.036L39.493 46.668l23.73-13.714a.604.604 0 0 1 .627 1.034L39.952 49.146 63.513 35.53a.604.604 0 0 1 .617 1.04l-6.668 4.08 6.124-3.54a.605.605 0 1 1 .618 1.04l-4.716 2.886 4.1-2.37a.604.604 0 0 1 .622 1.037l-14.633 9.14 13.888-8.024a.604.604 0 0 1 .618 1.04l-3.497 2.145 2.684-1.552a.604.604 0 1 1 .628 1.035L47.615 53.854l15.15-8.755a.604.604 0 0 1 .623 1.038l-7.014 4.37 5.843-3.375a.604.604 0 0 1 .631 1.031l-13.302 8.595 11.621-6.717a.605.605 0 1 1 .63 1.035l-7.257 4.633 5.418-3.132a.604.604 0 0 1 .627 1.035l-1.775 1.124a.604.604 0 0 1 .497 1.081l-8.477 5.978 4.365-2.522a.604.604 0 0 1 .604 1.047l-15.976 9.234a.604.604 0 0 1-.65-1.02l8.465-5.97-13.414 7.747a.604.604 0 0 1-.627-1.035l1.315-.833-3.24 1.88a.604.604 0 0 1-.302.08z" fill="#D8415E"/>
        <path d="M33.062 64.404a.604.604 0 0 1-.578-.418.59.59 0 0 1 .234-.667l10.876-7.397-14.386 8.158a.612.612 0 0 1-.812-.209.589.589 0 0 1 .18-.805l8.817-5.636-10.82 6.136a.612.612 0 0 1-.809-.21.589.589 0 0 1 .175-.804l13.074-8.399-15.135 8.588a.613.613 0 0 1-.833-.199.59.59 0 0 1 .202-.818l12.667-7.985-14.243 8.073a.612.612 0 0 1-.806-.213.589.589 0 0 1 .174-.802l16.417-10.431-18.025 10.222a.612.612 0 0 1-.822-.207.59.59 0 0 1 .194-.812l13.135-8.156-14.195 8.05a.612.612 0 0 1-.819-.209.59.59 0 0 1 .191-.81L33.25 48.367 16.048 58.12a.616.616 0 0 1-.607.01.594.594 0 0 1-.311-.511.593.593 0 0 1 .294-.52l8.475-5.164-9.022 5.12a.612.612 0 0 1-.813-.215.59.59 0 0 1 .19-.805l10.626-6.492-11.138 6.314a.612.612 0 0 1-.81-.211.589.589 0 0 1 .18-.804L33.04 42.317 12.288 54.084a.612.612 0 0 1-.806-.22.589.589 0 0 1 .188-.802l.47-.283-.551.312a.612.612 0 0 1-.808-.216.589.589 0 0 1 .184-.803l13.16-8.068-13.452 7.628a.612.612 0 0 1-.805-.218.589.589 0 0 1 .18-.8l16.561-10.262L9.771 49.9a.612.612 0 0 1-.807-.214.589.589 0 0 1 .179-.802l18-11.234L8.946 47.968a.612.612 0 0 1-.787-.226.589.589 0 0 1 .163-.79l13.031-8.02-12.97 7.355a.612.612 0 0 1-.81-.219.589.589 0 0 1 .19-.803l3.53-2.123-3.25 1.842a.612.612 0 0 1-.814-.217.59.59 0 0 1 .195-.806l2.868-1.73-2.523 1.428a.612.612 0 0 1-.805-.22.589.589 0 0 1 .184-.8l6.182-3.758-5.775 3.274a.612.612 0 0 1-.822-.209.59.59 0 0 1 .198-.811l9.554-5.867-9.066 5.136a.616.616 0 0 1-.606.01.594.594 0 0 1-.313-.51.594.594 0 0 1 .294-.52l9.14-5.628-8.521 4.832a.612.612 0 0 1-.817-.207.589.589 0 0 1 .185-.809l14.033-8.868L7.6 36.197a.612.612 0 0 1-.814-.21.589.589 0 0 1 .185-.807l10.15-6.37-9.13 5.176a.612.612 0 0 1-.808-.215.589.589 0 0 1 .18-.802l7.252-4.546-6.04 3.424a.612.612 0 0 1-.807-.207.589.589 0 0 1 .17-.803l9.964-6.47-8.218 4.66a.613.613 0 0 1-.813-.195.589.589 0 0 1 .16-.807l10.125-7.03-7.16 4.06a.613.613 0 0 1-.804-.181.588.588 0 0 1 .127-.802l5.291-4.074a.633.633 0 0 1-.547-.298.59.59 0 0 1 .221-.813l6.739-3.82a.613.613 0 0 1 .8.185.588.588 0 0 1-.124.799l-4.892 3.773 11.194-6.347a.612.612 0 0 1 .8.201.588.588 0 0 1-.147.799L20.53 21.502l14.117-8.008a.612.612 0 0 1 .811.207.589.589 0 0 1-.175.806l-9.967 6.473 12.365-7.013a.612.612 0 0 1 .813.21c.17.274.088.63-.184.807l-7.232 4.535 8.781-4.98a.612.612 0 0 1 .824.204.59.59 0 0 1-.194.813l-10.16 6.376 11.674-6.62a.612.612 0 0 1 .81.212.589.589 0 0 1-.18.804L28.61 25.192l15.59-8.84a.612.612 0 0 1 .816.212.59.59 0 0 1-.19.807l-9.161 5.642 10.131-5.745a.612.612 0 0 1 .822.209.59.59 0 0 1-.198.811l-9.537 5.856 10.139-5.75a.612.612 0 0 1 .81.218.589.589 0 0 1-.19.804l-6.194 3.767 6.625-3.757a.612.612 0 0 1 .81.219.589.589 0 0 1-.19.803l-2.853 1.718 3.183-1.804a.612.612 0 0 1 .81.219.589.589 0 0 1-.19.803l-3.546 2.143 3.897-2.209a.612.612 0 0 1 .808.217.589.589 0 0 1-.184.803l-13.014 8.004 13.683-7.76a.613.613 0 0 1 .833.2.59.59 0 0 1-.203.819L33.904 34.84l18.933-10.736c.286-.17.659-.08.832.201a.59.59 0 0 1-.206.818L36.9 35.384l17.17-9.735a.612.612 0 0 1 .822.209.59.59 0 0 1-.198.811l-13.149 8.06 13.37-7.581a.612.612 0 0 1 .814.217.59.59 0 0 1-.195.806l-.485.293.394-.223a.612.612 0 0 1 .804.215c.167.27.09.622-.175.8L36.142 41.78l20.135-11.419a.612.612 0 0 1 .831.205.59.59 0 0 1-.208.817L46.282 37.87l10.477-5.94a.612.612 0 0 1 .806.219.589.589 0 0 1-.184.8l-8.485 5.17 8.227-4.666a.612.612 0 0 1 .807.215.589.589 0 0 1-.18.802L41.63 44.542l15.835-8.978c.286-.17.659-.08.832.201a.59.59 0 0 1-.206.818l-13.148 8.163 12.656-7.177a.612.612 0 0 1 .813.208c.17.273.09.628-.18.806l-16.41 10.428 15.732-8.922a.613.613 0 0 1 .834.199.59.59 0 0 1-.202.818l-12.675 7.99 11.767-6.668a.612.612 0 0 1 .809.21c.17.27.092.624-.175.803l-13.07 8.393 11.819-6.702a.612.612 0 0 1 .812.208c.17.273.091.628-.18.806l-8.816 5.63 7.312-4.146a.612.612 0 0 1 .81.2.589.589 0 0 1-.162.805l-10.877 7.397 8.358-4.74a.613.613 0 0 1 .813.195.589.589 0 0 1-.16.807l-5.881 4.1 2.402-1.362a.616.616 0 0 1 .62-.017c.195.106.314.309.311.528a.594.594 0 0 1-.325.52l-13.632 7.729a.613.613 0 0 1-.805-.199.589.589 0 0 1 .151-.801l5.883-4.095-9.929 5.627a.61.61 0 0 1-.303.08z" fill="#FFF"/>
        <path d="M32.21 58.404a.608.608 0 0 1-.357-1.1l9.325-6.758-12.649 7.303a.608.608 0 0 1-.642-1.032l8.009-5.35-9.804 5.661a.608.608 0 0 1-.641-1.03l10.452-6.973-12.09 6.982a.608.608 0 0 1-.635-1.036l7.79-5.03-8.814 5.09a.608.608 0 0 1-.626-1.042l1.18-.738-1.689.973a.608.608 0 0 1-.628-1.04L25 50.374l-5.15 2.969a.608.608 0 0 1-.626-1.042l1.337-.838-1.667.963a.608.608 0 1 1-.637-1.036l13.206-8.617-13.955 8.065a.608.608 0 0 1-.628-1.04L24.453 45l-7.868 4.544a.608.608 0 0 1-.623-1.043l.337-.209-.355.204a.608.608 0 0 1-.626-1.04l2.743-1.712-2.733 1.58a.608.608 0 0 1-.634-1.037l11.79-7.621-11.911 6.876a.608.608 0 1 1-.629-1.04l6.32-3.998-6.166 3.562a.608.608 0 0 1-.642-1.032l14.554-9.69-14.41 8.327a.608.608 0 0 1-.64-1.032l12.917-8.573-12.464 7.195a.608.608 0 0 1-.635-1.035l8.832-5.763-8.121 4.69a.608.608 0 0 1-.643-1.032l9.695-6.476-8.656 4.998a.608.608 0 0 1-.652-1.025l9.724-6.77-8.085 4.663a.608.608 0 0 1-.657-1.021l6.352-4.517-3.97 2.293a.608.608 0 0 1-.68-1.003l3.997-3.161a.608.608 0 0 1-.156-1.115l5.855-3.381a.608.608 0 0 1 .681 1.003l-3.065 2.423 7.876-4.548a.608.608 0 0 1 .656 1.021l-6.357 4.52 9.359-5.405a.608.608 0 0 1 .653 1.025l-9.724 6.77 12.285-7.09a.608.608 0 0 1 .641 1.032l-9.684 6.474 11.408-6.588a.608.608 0 1 1 .637 1.036l-8.836 5.76 10.06-5.809a.608.608 0 0 1 .639 1.032l-12.916 8.573 14.079-8.13a.608.608 0 0 1 .64 1.031l-14.563 9.69 15.623-9.019a.608.608 0 1 1 .63 1.04l-6.32 4 6.806-3.929a.608.608 0 1 1 .634 1.037l-11.789 7.626 12.567-7.257a.608.608 0 0 1 .625 1.042l-2.708 1.69 2.796-1.616a.608.608 0 0 1 .623 1.043l-.354.219.308-.186a.608.608 0 1 1 .628 1.04l-7.57 4.796 7.593-4.386a.608.608 0 0 1 .636 1.036l-13.205 8.621 13.267-7.66a.608.608 0 0 1 .626 1.041l-1.325.827 1.017-.586a.608.608 0 0 1 .629 1.04l-4.605 2.907 4.232-2.443a.608.608 0 1 1 .627 1.042l-1.189.743.69-.398a.608.608 0 0 1 .635 1.036L44.424 42.8l7.171-4.133a.608.608 0 0 1 .642 1.03l-10.46 6.98 9.56-5.522a.608.608 0 0 1 .643 1.031l-8.007 5.35 6.765-3.913a.608.608 0 0 1 .66 1.02l-9.326 6.755 7.07-4.082a.608.608 0 0 1 .687.998l-5.226 4.228.778-.45a.608.608 0 0 1 .607 1.053L38.5 57.468a.608.608 0 0 1-.687-.998l5.227-4.224-10.52 6.079a.608.608 0 0 1-.31.079z" fill="#D8415E"/>
        <path d="M30.864 52.404a.61.61 0 0 1-.582-.41.581.581 0 0 1 .225-.662l4.837-3.368-6.798 3.799a.623.623 0 0 1-.826-.186.58.58 0 0 1 .163-.807l8.103-5.685-9.95 5.559a.623.623 0 0 1-.817-.201.58.58 0 0 1 .168-.8l6.177-4.062-7.137 3.992a.622.622 0 0 1-.812-.206.58.58 0 0 1 .168-.797l5.328-3.436-5.95 3.326a.622.622 0 0 1-.814-.204.58.58 0 0 1 .167-.797l7.41-4.85-7.974 4.458a.623.623 0 0 1-.824-.197.58.58 0 0 1 .174-.804l8.764-5.795-9.18 5.133a.623.623 0 0 1-.822-.202.58.58 0 0 1 .178-.802l6.177-3.992-6.214 3.474a.623.623 0 0 1-.824-.197.58.58 0 0 1 .174-.804l7.746-5.122-7.631 4.266a.623.623 0 0 1-.807-.203.58.58 0 0 1 .153-.793l8.144-5.479-7.74 4.339a.623.623 0 0 1-.825-.2.58.58 0 0 1 .178-.803l4.084-2.662-3.375 1.893a.623.623 0 0 1-.817-.197.58.58 0 0 1 .16-.8l5.237-3.569-4.128 2.308a.623.623 0 0 1-.82-.194.58.58 0 0 1 .161-.801l2.95-2.026-1.385.773a.624.624 0 0 1-.8-.173.578.578 0 0 1 .099-.788l3.299-2.729a.604.604 0 0 1-.536-.464.584.584 0 0 1 .291-.636l4.923-2.751a.624.624 0 0 1 .805.17.578.578 0 0 1-.104.793l-2.81 2.321 6.926-3.871a.623.623 0 0 1 .82.193.58.58 0 0 1-.161.802l-2.95 2.026 4.764-2.666a.623.623 0 0 1 .817.196.58.58 0 0 1-.16.8l-5.245 3.562 6.819-3.81a.622.622 0 0 1 .814.205.58.58 0 0 1-.168.797l-4.068 2.656 4.993-2.792a.623.623 0 0 1 .814.2.58.58 0 0 1-.16.798l-8.144 5.478 8.99-5.024a.623.623 0 0 1 .813.202.58.58 0 0 1-.164.797l-7.746 5.12 8.507-4.754a.623.623 0 0 1 .821.202.58.58 0 0 1-.177.802l-6.19 4.003 6.794-3.8a.623.623 0 0 1 .82.198.58.58 0 0 1-.169.802l-8.76 5.796 9.163-5.123a.622.622 0 0 1 .807.208c.17.264.1.61-.16.793l-7.413 4.843 7.408-4.14a.623.623 0 0 1 .82.202.58.58 0 0 1-.176.803l-5.322 3.43 5.048-2.821a.623.623 0 0 1 .829.194.58.58 0 0 1-.18.808l-6.173 4.06 5.679-3.178a.623.623 0 0 1 .817.191.58.58 0 0 1-.154.8l-8.104 5.685 7.162-4.002a.623.623 0 0 1 .82.19.58.58 0 0 1-.157.803l-4.84 3.368 3.398-1.892a.623.623 0 0 1 .806.186.579.579 0 0 1-.128.793l-3.185 2.382.654-.364a.628.628 0 0 1 .625-.017.588.588 0 0 1 .313.524.59.59 0 0 1-.328.516l-8.536 4.772a.623.623 0 0 1-.81-.184.579.579 0 0 1 .13-.796l3.187-2.383-6.084 3.4a.62.62 0 0 1-.307.08z" fill="#FFF"/>
        <path d="M32.273 46.404a.583.583 0 0 1-.543-.372.59.59 0 0 1 .146-.646l2.864-2.68-5.239 3.042a.58.58 0 0 1-.769-.182.59.59 0 0 1 .117-.788l3.267-2.585-4.305 2.497a.58.58 0 0 1-.776-.19.59.59 0 0 1 .14-.792l2.18-1.603-2.578 1.498a.58.58 0 0 1-.774-.185.59.59 0 0 1 .13-.791l3.462-2.65-3.693 2.147a.58.58 0 0 1-.766-.183.59.59 0 0 1 .111-.785l4.167-3.346-4.04 2.35a.58.58 0 0 1-.769-.172.59.59 0 0 1 .102-.786l3.815-3.223-3.016 1.751a.58.58 0 0 1-.742-.16.59.59 0 0 1 .042-.762l2.207-2.233a.615.615 0 0 1-.565-.292.59.59 0 0 1 .214-.803l3.425-1.998a.58.58 0 0 1 .753.15.59.59 0 0 1-.047.773L28.724 34.5l5.002-2.908a.58.58 0 0 1 .772.17.59.59 0 0 1-.105.789l-3.815 3.222 5.004-2.91a.58.58 0 0 1 .775.177.59.59 0 0 1-.119.792l-4.165 3.343 4.937-2.866a.58.58 0 0 1 .78.182.59.59 0 0 1-.134.795l-3.47 2.653 3.95-2.297a.58.58 0 0 1 .774.19.59.59 0 0 1-.14.792l-2.178 1.603 1.968-1.144a.58.58 0 0 1 .769.182.59.59 0 0 1-.117.787l-3.256 2.586 2.664-1.55a.58.58 0 0 1 .766.157.59.59 0 0 1-.076.783l-2.864 2.68 1.136-.659a.58.58 0 0 1 .597-.017.588.588 0 0 1-.014 1.034l-5.6 3.258a.566.566 0 0 1-.292.08z" fill="#D8415E"/>
        <path d="M33.629 39.403a.624.624 0 0 1-.593-.42.608.608 0 0 1 .218-.685l1.487-1.118-1.984 1.125a.631.631 0 0 1-.83-.2.607.607 0 0 1 .149-.827l2.11-1.519-1.75.992a.631.631 0 0 1-.834-.196.607.607 0 0 1 .15-.83l2.624-1.898a.622.622 0 0 1-.503-.425.607.607 0 0 1 .17-.63l5.507-5.037a.61.61 0 0 1 .304-.634l1.085-.614a.632.632 0 0 1 .816.167.607.607 0 0 1-.08.816l-2.772 2.543 3.578-2.03a.631.631 0 0 1 .833.196.607.607 0 0 1-.15.83l-1.638 1.186 2.042-1.16a.631.631 0 0 1 .83.2.607.607 0 0 1-.149.827l-2.113 1.52.297-.167a.631.631 0 0 1 .833.19.607.607 0 0 1-.14.83l-4.037 3.034a.608.608 0 0 1-.092 1l-5.056 2.868a.623.623 0 0 1-.312.066z" fill="#D4E6E7"/>
        <path d="M61.937 30.404a.603.603 0 0 1-.384-1.063l2.605-2.204-4.34 2.505a.603.603 0 0 1-.677-.998l3.363-2.602-4.594 2.652a.603.603 0 0 1-.685-.987l5.572-4.567-7.43 4.29a.603.603 0 0 1-.658-1.007l3.753-2.757-4.933 2.848a.603.603 0 0 1-.657-1.011l4.46-3.288-5.75 3.319a.603.603 0 0 1-.643-1.02l.909-.62-1.266.731a.603.603 0 0 1-.665-1.001l5.775-4.363-6.65 3.831a.603.603 0 0 1-.668-1l5.975-4.543-6.885 3.977a.603.603 0 0 1-.66-1.006l5.174-3.83-5.837 3.374a.603.603 0 0 1-.665-1.002l5.697-4.303-5.964 3.44a.603.603 0 0 1-.659-1.006l4.461-3.297-4.624 2.668a.603.603 0 0 1-.669-1l5.14-3.948-5.39 3.109a.603.603 0 0 1-.67-1l4.68-3.603-4.89 2.813a.603.603 0 0 1-.665-1.002l3.563-2.683-3.675 2.12a.603.603 0 0 1-.672-.997l3.892-3.013-3.635 2.097a.603.603 0 0 1-.678-.99l3.424-2.746-1.556.9a.603.603 0 0 1-.683-.99l3.333-2.706a.602.602 0 0 1 .22-.822L48.253.481a.603.603 0 0 1 .681.988l-.382.311L50.389.721a.603.603 0 0 1 .679.99l-3.423 2.745 4.432-2.559a.603.603 0 0 1 .67 1l-3.891 3.012 4.59-2.651a.603.603 0 0 1 .664 1.002l-3.563 2.69 4.174-2.411a.603.603 0 0 1 .67.999l-4.684 3.61 5.467-3.154a.603.603 0 0 1 .67.999l-5.136 3.944 5.967-3.443a.603.603 0 0 1 .66 1.006l-4.461 3.296 5.142-2.967a.603.603 0 0 1 .664 1.002l-5.698 4.306 6.557-3.784a.603.603 0 0 1 .66 1.005l-5.173 3.83 5.925-3.424a.603.603 0 0 1 .666 1l-5.971 4.543 6.88-3.97a.603.603 0 0 1 .665 1.002l-5.78 4.368 6.648-3.838a.603.603 0 0 1 .641 1.02l-.906.617 1.205-.695a.603.603 0 0 1 .66 1.006l-4.452 3.285 5.133-2.952a.603.603 0 0 1 .658 1.007l-3.761 2.766 4.34-2.504a.603.603 0 0 1 .685.987L63.69 23.97l5.908-3.41a.603.603 0 0 1 .67.998l-3.36 2.602 2.459-1.42a.603.603 0 0 1 .692.983l-3.83 3.24a.602.602 0 0 1 .022 1.052l-4.012 2.307a.595.595 0 0 1-.302.08z" fill="#6AC579"/>
        <path d="M43.133 33.404a.604.604 0 0 1-.388-1.064l1.571-1.311-2.082 1.204a.605.605 0 0 1-.808-.195.601.601 0 0 1 .152-.814l2.9-2.097-3.399 1.951a.605.605 0 0 1-.811-.202.601.601 0 0 1 .167-.816l5.857-4.022-6.51 3.746a.605.605 0 0 1-.807-.214.601.601 0 0 1 .179-.813l.772-.493-.537.307a.605.605 0 0 1-.8-.217.601.601 0 0 1 .173-.81l5.801-3.709-1.555.894a.605.605 0 0 1-.8-.22.601.601 0 0 1 .175-.808l3.785-2.394a.601.601 0 0 1-.289-1.098l8.647-5.832-2.671 1.537a.605.605 0 0 1-.805-.204.601.601 0 0 1 .158-.812l5.06-3.511a.6.6 0 0 1-.5-1.047l6.235-5.44a.601.601 0 0 1 .163-.907l2.623-1.51a.606.606 0 0 1 .792.173.6.6 0 0 1-.092.802L61.2 7.2l6.49-3.733a.601.601 0 0 1 .647 1.014l-4.692 3.252 4.944-2.846a.605.605 0 0 1 .82.198.601.601 0 0 1-.179.822l-8.657 5.846 8.031-4.621a.605.605 0 0 1 .805.217.601.601 0 0 1-.179.811l-2.57 1.626a.596.596 0 0 1 .588.285.601.601 0 0 1-.186.826l-5.781 3.695.98-.565a.605.605 0 0 1 .822.207.601.601 0 0 1-.194.822l-3.617 2.308a.601.601 0 0 1 .218 1.085l-5.862 4.011.373-.215a.605.605 0 0 1 .808.194.601.601 0 0 1-.152.815l-4.471 3.227a.603.603 0 0 1 .2 1.038l-4.122 3.452.014.02a.601.601 0 0 1-.222.823l-2.62 1.508a.595.595 0 0 1-.302.08z" fill="#79DE89"/>
        <path d="M69.507 7.367a4 4 0 0 0-.364-3.349 3.96 3.96 0 0 0-2.788-1.869c-3.49-.56-5.327 2.599-7.571 4.617-3.22-3.128-6.987-8.824-11.923-5.19-2.014 2.074-5.109 4.004-5.729 6.977C1.656-1.364-16.674 54.32 21.427 69.386c23.681 9.287 49.62-15.133 41.529-39.48 2.937-.317 4.883-3.043 6.834-5.004 4.975-4.595-2.202-8.867-5.08-12.173 1.57-1.801 3.734-3.19 4.797-5.362zm-24.94-2.178c5.92-7.838 7.992-1.967 13.109 2.692l-10.51 10.565c-1.387-4.12-7.018-9.386-2.599-13.257zm-7.31 38.526c-5.283 6.813-14.87-2.527-9.851-8.773a5.727 5.727 0 0 1 7.01-1.907c-1.436 1.509-4.19 3.423-2.486 5.705-3.097 2.42-.876 3.454 1.133.83 2.077.841 4.005-.59 5.283-2.124a7.027 7.027 0 0 1-1.09 6.269zm.92-7.636c-1.335.962-2.855 4.27-4.542 2.128-1.847-3.489 3.88-5.812 5.533-8.395.83.91 1.786 1.746 2.654 2.602l-3.646 3.665zm.058-7.81c.022.25.104.489.24.698-1.043 1.047-2.093 2.087-3.14 3.128-9.474-3.274-16.007 10.828-5.805 14.468 6.104 2.108 13.147-4.263 10.2-10.517l3.042-3.05c.06.02.123.035.185.047 5.302 8.698-2.564 21.055-12.77 18.695-18.023-4.516-9.153-32.197 8.048-23.468zm.858-1.708a5.18 5.18 0 0 0-.336.377c-17.664-8.061-29.648 18.825-10.81 25.505 11.37 3.895 22.873-9.076 16.778-19.797a26.19 26.19 0 0 0 3.167-3.007c12.91 23.902-22.33 41.374-32.705 15.875C9.093 29.369 27.52 13.566 42.09 23.547c-.995 1.004-2.005 2.004-2.998 3.014zm3.989-4.01C17.727 8.637-1.853 47.507 25.987 58.028c17.17 5.655 33.539-14.13 23.157-29.648l2.832-2.848.626.314c18.12 31.703-28.98 55.735-43.07 21.643-7.984-21.284 16.441-41.994 35.64-29.1l.683 1.375c-.925.928-1.85 1.858-2.773 2.787zM54.04 60.706c-14.594 16.02-43.103 9.703-50-10.776-9.194-22.67 13.993-47.815 37.166-39.844a61.671 61.671 0 0 0 2.929 6.217C10.988 1.68-10.542 50.54 24.02 63.723c21.272 7.26 42.35-16.294 31.394-36.463 1.883.842 3.66 2.107 5.668 2.596 3.45 10.804.75 22.64-7.042 30.85zm13.14-43.274c2.28 1.684 3.71 4.89 1.458 7.227-1.822 1.504-3.35 4.536-5.871 4.643a.862.862 0 0 0-1.069-.31c-2.95-1.423-5.864-2.936-8.794-4.392l10.703-10.76 3.572 3.592zm-.327-8.566c-7.58 7.784-15.407 15.414-23.017 23.132-.028 0-.054 0-.082.006-5.993-4.983-3.306-4.912 1.05-9.47C50.965 16.36 57.089 10.14 63.256 3.982c3.093-2.85 6.516 2.496 3.597 4.883z" fill="#262626"/>
    </g>
</svg>
