<?xml version="1.0" encoding="utf-8"?>
<!-- Generator: Adobe Illustrator 24.2.0, SVG Export Plug-In . SVG Version: 6.00 Build 0)  -->
<svg version="1.1" id="Layer_1" xmlns="http://www.w3.org/2000/svg" xmlns:xlink="http://www.w3.org/1999/xlink" x="0px" y="0px"
	 viewBox="0 0 1000 500" style="enable-background:new 0 0 1000 500;" xml:space="preserve">
<style type="text/css">
	.st0{fill:#000;}
	.st1{fill:#000;}
	.st2{fill:#000;}
	.st3{fill:#000;}
	.st4{fill:#000;}
	.st5{fill:#000;}
	.st6{fill:#000;}
</style>
<g>
	<g>
		<path class="st6" d="M266.76,200.14c-5.6-4.88-12.67-8.18-21.19-9.93l0.26,0.63c-3.76-0.78-7.55-1.24-11.36-1.38
			c-1.05-0.04-2.11-0.05-3.17-0.04c0,0-0.01,0-0.01,0c-1.19,0.01-2.39,0.06-3.59,0.14c-0.41,0.02-0.83,0.06-1.24,0.09
			c-6.98,0.57-13.83,2.24-20.37,4.95c-6.53,2.71-12.55,6.37-17.89,10.9c-0.32,0.27-0.64,0.54-0.95,0.81
			c-4.44,3.91-8.34,8.37-11.63,13.32v92.91h32.32v-34.44h22.07c15.77,0,28.02-4.03,36.73-12.1c8.71-8.06,13.07-19.34,13.07-33.82
			C279.83,218.42,275.47,207.74,266.76,200.14z M243.72,247.74c-3.59,3.3-8.68,4.94-15.28,4.94h-20.48v-38.5h20.48
			c6.59,0,11.68,1.59,15.28,4.77c3.59,3.18,5.39,7.89,5.39,14.13C249.1,239.56,247.31,244.44,243.72,247.74z"/>
	</g>
	<path class="st6" d="M327.15,232.95v-15.76h-31.43v95.36h31.43v-48.88c0.42-3.73,1.63-7.01,3.62-9.84
		c2.53-3.59,6.12-6.27,10.77-8.03c4.65-1.77,10.09-2.3,16.33-1.59v-28.43c-7.77,0-14.54,1.97-20.31,5.92
		C333.41,224.54,329.94,228.29,327.15,232.95z"/>
	<g>
		<path class="st6" d="M441.5,223.1c-7.36-4.65-16.63-6.98-27.81-6.98c-9.89,0-18.6,2.03-26.14,6.09
			c-7.54,4.06-13.36,9.77-17.48,17.13c-4.12,7.36-6.18,15.98-6.18,25.87c0,9.65,2.03,18.13,6.09,25.43
			c4.06,7.3,9.89,12.95,17.48,16.95c7.59,4,16.57,6,26.93,6c8.95,0,16.92-1.47,23.93-4.41c7-2.94,12.92-7.06,17.75-12.36
			l-16.42-16.25c-6.48,6.48-13.95,9.71-22.43,9.71c-4.59,0-8.63-1.09-12.1-3.27c-3.47-2.18-6.15-5.27-8.03-9.27
			c-0.67-1.43-1.22-2.96-1.65-4.59h66.46c0.71-11.54-0.68-21.6-4.15-30.2C454.27,234.38,448.85,227.75,441.5,223.1z M431.52,256.57
			h-36.7c0.4-2.31,1-4.46,1.83-6.45c1.59-3.82,3.82-6.83,6.71-9.01c2.88-2.18,6.38-3.27,10.51-3.27c3.53,0,6.65,0.77,9.36,2.3
			c2.71,1.53,4.8,3.68,6.27,6.45C430.96,249.36,431.63,252.68,431.52,256.57z"/>
	</g>
	<g>
		<path class="st6" d="M561.93,222.22c-6.65-4.06-14.45-6.09-23.4-6.09c-7.89,0-14.69,1.97-20.4,5.92c-2.9,2.01-5.46,4.46-7.68,7.34
			v-12.2h-31.43V346.8h31.43v-46.67c2.31,2.97,4.98,5.49,8.03,7.55c5.83,3.95,12.74,5.92,20.75,5.92c8.95,0,16.69-2,23.22-6
			c6.53-4,11.59-9.65,15.19-16.95c3.59-7.3,5.39-15.72,5.39-25.25c0-10.01-1.85-18.69-5.56-26.05
			C573.76,231.99,568.58,226.28,561.93,222.22z M548.86,277.05c-1.71,3.65-4.12,6.51-7.24,8.56c-3.12,2.06-6.74,3.09-10.86,3.09
			c-3.88,0-7.39-1-10.51-3c-3.12-2-5.54-4.86-7.24-8.56c-1.71-3.71-2.56-7.92-2.56-12.63c0-4.83,0.85-9.03,2.56-12.63
			c1.71-3.59,4.12-6.42,7.24-8.48c3.12-2.06,6.62-3.09,10.51-3.09c4.12,0,7.74,1.03,10.86,3.09c3.12,2.06,5.53,4.92,7.24,8.56
			c1.71,3.65,2.56,7.83,2.56,12.54C551.42,269.22,550.57,273.4,548.86,277.05z"/>
	</g>
	<rect x="599.28" y="217.19" class="st6" width="31.26" height="95.36"/>
	<path class="st6" d="M614.99,173.39c-4.83,0-8.8,1.56-11.92,4.68c-3.12,3.12-4.68,7.09-4.68,11.92c0,4.71,1.56,8.63,4.68,11.74
		c3.12,3.12,7.09,4.68,11.92,4.68c4.83,0,8.8-1.56,11.92-4.68c3.12-3.12,4.68-7.03,4.68-11.74c0-4.83-1.56-8.8-4.68-11.92
		C623.79,174.95,619.82,173.39,614.99,173.39z"/>
	<g>
		<path class="st6" d="M719.53,229.62c-2.34-3.06-5.05-5.65-8.12-7.75c-5.77-3.94-12.71-5.92-20.84-5.92
			c-8.71,0-16.4,2.03-23.05,6.09c-6.65,4.06-11.77,9.68-15.36,16.86c-3.59,7.18-5.39,15.66-5.39,25.43c0,9.89,1.82,18.54,5.47,25.96
			c3.65,7.42,8.83,13.19,15.54,17.31c6.71,4.12,14.54,6.18,23.49,6.18c8,0,14.86-2,20.57-6c2.9-2.03,5.46-4.51,7.68-7.43v12.2h31.43
			V181.51h-31.43V229.62z M716.97,277.85c-1.71,3.59-4.09,6.42-7.15,8.48c-3.06,2.06-6.65,3.09-10.77,3.09
			c-4.12,0-7.74-1.03-10.86-3.09c-3.12-2.06-5.53-4.88-7.24-8.48c-1.71-3.59-2.56-7.8-2.56-12.63c0-4.83,0.85-9.06,2.56-12.71
			c1.71-3.65,4.12-6.47,7.24-8.48c3.12-2,6.74-3,10.86-3c4.12,0,7.71,1,10.77,3c3.06,2,5.44,4.83,7.15,8.48
			c1.71,3.65,2.56,7.89,2.56,12.71C719.53,270.05,718.68,274.26,716.97,277.85z"/>
	</g>
	<g>
		<path class="st6" d="M849.77,224.87c-7.24-6.06-17.51-9.09-30.82-9.09c-5.18,0-10.24,0.41-15.19,1.24
			c-4.94,0.83-9.8,2.03-14.57,3.62c-4.77,1.59-9.68,3.5-14.75,5.74l8.65,20.84c5.18-2.59,10.24-4.53,15.19-5.83
			c4.94-1.29,9.42-1.94,13.42-1.94c6,0,10.53,1.3,13.6,3.88c3.06,2.59,4.59,6.18,4.59,10.77v1.06H805
			c-11.77,0.12-20.81,2.71-27.11,7.77c-6.3,5.06-9.45,12.13-9.45,21.19c0,5.77,1.29,10.89,3.88,15.36
			c2.59,4.48,6.33,8.01,11.21,10.6c4.88,2.59,10.74,3.89,17.57,3.89c8.24,0,15.19-1.71,20.84-5.12c3.12-1.88,5.76-4.23,7.95-7.04
			v10.75h30.9v-62.16C860.69,239.44,857.01,230.93,849.77,224.87z M829.9,280.05c-0.59,2.47-1.8,4.68-3.62,6.62
			c-1.83,1.94-4.06,3.44-6.71,4.5c-2.65,1.06-5.56,1.59-8.74,1.59c-4.12,0-7.3-0.97-9.54-2.91c-2.24-1.94-3.36-4.62-3.36-8.03
			c0-3.41,1.09-5.92,3.27-7.51c2.18-1.59,5.5-2.38,9.98-2.38h18.72V280.05z"/>
	</g>
	<g>
		<path class="st0" d="M142.2,223.68c-0.07,0.04-0.12,0.08-0.18,0.12c-0.05,0.03-0.1,0.07-0.15,0.11l0,0
			c-0.74,0.5-1.23,1.34-1.22,2.29c0,1.01,0.55,1.9,1.37,2.37l0,2.53l-2.83,5.65h8.63l-2.88-5.75l0-2.58
			c0.12-0.07,0.24-0.15,0.35-0.25c0.62-0.5,1.02-1.26,1.02-2.12c0-1.01-0.55-1.89-1.37-2.36l0-23.59l-2.74-0.19V223.68z"/>
		<path class="st0" d="M238.19,172.52l16.76-19.33l-12.06,0.3l-53.3,1.33l-47.38,45.06l2.74-0.38v0.57l0.32,0.02l7.93,0.57
			l11.11,0.79l3.42,0.24l0.44,1.05l4.06,9.8c0.09-0.14,0.18-0.27,0.27-0.4c3.29-4.94,7.19-9.4,11.63-13.32
			c0.31-0.27,0.63-0.54,0.95-0.81c5.34-4.52,11.36-8.19,17.89-10.9c6.53-2.71,13.38-4.37,20.37-4.95c0.41-0.04,0.83-0.07,1.24-0.09
			c1.19-0.08,2.39-0.12,3.59-0.14c0,0,0,0,0.01,0c1.06-0.01,2.12,0,3.17,0.04c3.81,0.14,7.6,0.59,11.36,1.38l-0.26-0.63
			L238.19,172.52z"/>
	</g>
	<polygon class="st5" points="145.35,207.37 148.09,207.57 148.09,207 	"/>
</g>
</svg>
