<svg width="28" height="28" viewBox="0 0 28 28" xmlns="http://www.w3.org/2000/svg">
    <path d="M2.661 4.663C6.381-.142 13.28-1.012 18.068 2.721c4.79 3.734 5.655 10.655 1.935 15.46l7.262 7.288a1.374 1.374 0 0 1 0 1.904 1.362 1.362 0 0 1-1.93.033l-7.263-7.287a10.935 10.935 0 0 1-6.734 2.322 10.955 10.955 0 0 1-6.742-2.317C-.192 16.39-1.059 9.469 2.661 4.664zm14.687.73a8.479 8.479 0 0 0-12.02 0l-.043.043c-3.296 3.331-3.276 8.713.043 12.02l.17.166a8.48 8.48 0 0 0 11.85-.167c3.32-3.331 3.32-8.731 0-12.062z" fill="#1A384B" fill-rule="evenodd"/>
</svg>
