<?xml version="1.0" encoding="UTF-8"?>
<svg width="62px" height="62px" viewBox="0 0 62 62" version="1.1" xmlns="http://www.w3.org/2000/svg" xmlns:xlink="http://www.w3.org/1999/xlink">
    <title>Group</title>
    <g id="Page-1" stroke="none" stroke-width="1" fill="none" fill-rule="evenodd">
        <g id="8.3-Ask-Questions-(attachments)-Copy" transform="translate(-988, -347)" fill-rule="nonzero">
            <g id="Group-20" transform="translate(978, 343)">
                <g id="Group" transform="translate(10, 4)">
                    <path d="M54.4854613,53.5460734 C54.4854613,55.6583139 51.987658,57.590851 47.8579937,59.0718291 L43.781974,58.2383399 L37.2780221,61.4073666 C35.9642746,61.5696324 34.5980936,61.7005349 33.1920726,61.7978943 L13.5904864,59.6819 L6.0847249,58.8721453 C2.28068199,57.4186555 0,55.5647083 0,53.5460734 C0,51.5311925 2.2706312,49.6808781 6.06232254,48.2273884 C8.28064118,47.3777937 11.0191791,46.6628555 14.1270533,46.1325854 C18.017194,45.4687488 22.4874954,45.0908149 27.2421252,45.0908149 C28.9738887,45.0908149 30.668113,45.1407055 32.3100249,45.238065 C35.5588524,45.4264871 38.6043632,45.7944914 41.3367254,46.3085348 C43.8494232,46.7814064 46.0964411,47.3764617 47.9915602,48.0676655 C52.0413026,49.5423467 54.4854613,51.4562354 54.4854613,53.5460734 L54.4854613,53.5460734 Z" id="Path" fill="#7888AF"></path>
                    <path d="M13.3895917,53.3800537 L13.5904864,59.6819 L6.0847249,58.8721453 C2.28068199,57.4186555 0,55.5647083 0,53.5460734 C0,51.5311925 2.2706312,49.6808781 6.06232254,48.2273884 C8.28064118,47.3777937 11.0191791,46.6628555 14.1270533,46.1325854 C13.6291153,48.1973571 13.3260174,50.6078517 13.3895917,53.3800537 L13.3895917,53.3800537 Z" id="Path" fill="#5972A5"></path>
                    <path d="M45.0034478,44.1726811 L44.8415453,44.2082827 C43.3662587,44.5331776 41.9068353,43.6006337 41.5819405,42.125347 L36.4230993,18.701917 L41.9275424,17.4896462 L47.0863835,40.9130762 C47.4113995,42.3883629 46.4788556,43.8476652 45.0034478,44.1726811 L45.0034478,44.1726811 Z" id="Path" fill="#7888AF"></path>
                    <path d="M59.061841,16.6022703 L36.8165333,21.5003964 L36.0417747,21.6713809 L20.5011926,25.093736 C18.4824367,25.5391192 16.4863253,24.2627898 16.040942,22.2441549 L14.0147993,13.0416261 C13.5694161,11.0228701 14.8457455,9.02554775 16.8643803,8.58137543 L32.7343378,5.08551641 L32.9002364,5.04930934 L55.4249076,0.0886988329 C57.4435424,-0.356805526 59.4397749,0.919523896 59.8851582,2.93827985 L61.9113009,12.1408087 C62.3568052,14.1606545 61.0804758,16.156887 59.061841,16.6022703 Z" id="Path" fill="#FBF198"></path>
                    <path d="M36.8165333,21.5005175 L36.0417747,21.671502 L20.5011926,25.093736 C18.4824367,25.5391192 16.4863253,24.2627898 16.040942,22.2441549 L14.0147993,13.0416261 C13.5694161,11.0228701 14.8457455,9.02554775 16.8643803,8.58137543 L32.7343378,5.08551641 L32.9002364,5.04930934 C32.3962437,6.90325654 31.925794,10.1247168 32.9675646,14.1745803 C33.8134053,17.4656696 35.0859808,19.8873049 36.8165333,21.5005175 Z" id="Path" fill="#FAD989"></path>
                    <path d="M29.6311862,44.1156459 L26.4027025,40.8528926 L28.001626,38.2197063 C29.0604708,36.4759545 31.4761724,36.191505 32.9110137,37.6417253 C34.345855,39.0919455 34.0359758,41.5043776 32.2810834,42.5448162 L29.6311862,44.1156459 Z" id="Path" fill="#EAAA83"></path>
                    <path d="M9.82325602,44.1156459 L13.0517398,40.8528926 L11.4528163,38.2195852 C10.3939714,36.4758334 7.97826978,36.1913839 6.54342849,37.6416042 C5.1085872,39.0918244 5.41846642,41.5042565 7.17335881,42.5446951 L9.82325602,44.1156459 Z" id="Path" fill="#DF8A57"></path>
                    <path d="M33.784706,52.9384244 C33.7659365,53.144284 33.4541198,58.0749843 33.1920726,61.7978943 C31.276973,61.9301288 29.2857054,62 27.2421252,62 C22.2840577,62 17.6341741,61.5882808 13.6292364,60.8697098 L8.11474258,51.586048 L12.3217859,39.649946 C14.066022,38.5657926 16.0696412,37.8508544 18.2293505,37.6212604 C18.7271674,37.5676158 19.233703,37.5401275 19.7464145,37.5401275 C23.33709,37.5401275 26.5834956,38.8726445 29.0538106,41.0484592 C30.4012221,42.234937 31.5054772,43.6597275 32.3101459,45.238065 C33.4977136,47.5599189 34.0442102,50.214781 33.784706,52.9384244 L33.784706,52.9384244 Z" id="Path" fill="#F2C7AE"></path>
                    <path d="M13.3895917,53.3800537 L13.6291153,60.8695887 C10.7371515,60.3505804 8.17940671,59.6718492 6.0847249,58.8721453 C5.89254893,55.8990485 5.72035344,53.0769558 5.70788077,52.9309166 C5.55687671,51.3052313 5.68911122,49.72205 6.06220144,48.2273884 C6.76333496,45.4126824 8.3179381,42.9124572 10.450159,41.0397404 C12.5649424,39.1796174 15.2485037,37.9381631 18.2292294,37.6212604 C16.4475752,39.7658329 13.1962047,44.8724826 13.3895917,53.3800537 Z" id="Path" fill="#EAAA83"></path>
                    <path d="M24.8803103,40.1701653 C24.0443993,40.0852785 23.3594924,39.9118721 22.8766911,39.7584462 C22.3588937,39.5925476 21.8349205,40.0041456 21.8798463,40.5456774 C21.9172643,41.0036545 22.0932137,41.4239713 22.2852686,41.7596435 C22.5310892,42.1888002 22.3027061,42.7365078 21.8262018,42.8700743 C21.6676899,42.9137892 21.515596,42.9536291 21.3671349,42.9872932 L18.2293505,42.0290774 L16.0147857,39.5288522 L14.1108268,38.7091677 C14.7359133,37.4540298 15.7864027,36.7067595 16.8132787,36.2625871 C17.5306388,35.9518603 18.2905029,35.773489 19.0589646,35.7173014 C19.9896921,35.6486412 20.9342243,35.7610163 21.8400065,36.037958 C24.3065675,36.7952791 25.2859748,38.1602492 25.6752916,39.1258518 C25.8909598,39.6610867 25.4542953,40.2287748 24.8803103,40.1701653 L24.8803103,40.1701653 Z" id="Path" fill="#FFF4E5"></path>
                    <path d="M21.3670138,42.9872932 C18.1169753,43.7345635 17.1326033,42.0951946 16.8343491,41.0347756 C16.7258489,40.6492127 16.3353212,40.407146 15.9435825,40.4908219 C15.3396874,40.6206345 14.7770853,40.5620251 14.3578583,40.4658766 C13.9311235,40.3698491 13.6691974,39.9293096 13.7952561,39.5089928 C14.3229832,37.7585808 15.584297,36.7940681 16.8132787,36.2625871 C17.5306388,35.9518603 18.2905029,35.773489 19.0589646,35.7173014 C18.584761,36.9100761 17.6652952,40.3461147 21.3670138,42.9872932 L21.3670138,42.9872932 Z" id="Path" fill="#FFE0B7"></path>
                    <path d="M23.4848245,58.2388243 C21.4148459,58.2388243 19.7309145,56.5548929 19.7309145,54.4849142 C19.7309145,53.9680856 20.1498993,53.5492219 20.6666068,53.5492219 C21.1833144,53.5492219 21.6022992,53.9680856 21.6022992,54.4849142 C21.6022992,55.5228098 22.4468078,56.3673185 23.4848245,56.3673185 C24.5228412,56.3673185 25.3673499,55.5228098 25.3673499,54.4849142 C25.3673499,53.9680856 25.7863347,53.5492219 26.3030422,53.5492219 C26.8198709,53.5492219 27.2387346,53.9680856 27.2387346,54.4849142 C27.2387346,56.5548929 25.5546821,58.2388243 23.4848245,58.2388243 Z" id="Path" fill="#EAAA83"></path>
                    <path d="M19.723891,54.4855197 C19.723891,56.5553773 18.0395964,58.2383399 15.9697388,58.2383399 C15.0327144,58.2383399 14.174401,57.89407 13.5156504,57.321296 C12.7197004,56.6350571 12.2155866,55.6182318 12.2155866,54.4855197 C12.2155866,53.9677223 12.6348136,53.5498274 13.1512789,53.5498274 C13.2361657,53.5498274 13.3185096,53.5610891 13.3957674,53.5834915 C13.793803,53.6895697 14.0869713,54.0526091 14.0869713,54.4856408 C14.0869713,55.5223255 14.931601,56.3670763 15.9696177,56.3670763 C17.0076344,56.3670763 17.8522641,55.5224465 17.8522641,54.4856408 C17.8522641,53.9678434 18.2714911,53.5499484 18.7879565,53.5499484 C19.304664,53.5498274 19.723891,53.9677223 19.723891,54.4855197 L19.723891,54.4855197 Z" id="Path" fill="#EAAA83"></path>
                    <path d="M13.5156504,57.321296 C12.7197004,56.6350571 12.2155866,55.6182318 12.2155866,54.4855197 C12.2155866,53.9677223 12.6348136,53.5498274 13.1512789,53.5498274 C13.2361657,53.5498274 13.3185096,53.5610891 13.3957674,53.5834915 L13.5156504,57.321296 Z" id="Path" fill="#DF8A57"></path>
                    <path d="M47.8579937,59.0718291 C45.0121666,60.0936192 41.3914598,60.9020419 37.2780221,61.4073666 C38.3397731,58.7374889 40.4395409,52.8847798 41.3366043,46.3085348 C41.4825224,45.238065 41.5973194,44.1476147 41.6697335,43.0496565 C41.7695149,41.5549949 43.0121802,40.3934624 44.5093848,40.3934624 C45.2080965,40.3934624 45.8543745,40.6466697 46.3546133,41.0734045 C46.8549732,41.4988073 47.2079618,42.0977376 47.3203369,42.7876094 C47.5412121,44.1450717 47.8031382,45.9877572 47.9915602,48.0675444 C48.3009551,51.4637432 48.418174,55.4922942 47.8579937,59.0718291 L47.8579937,59.0718291 Z" id="Path" fill="#F2C7AE"></path>
                    <path d="M58.1423752,8.14689061 C57.4744214,5.11385237 54.4639066,3.18942854 51.4300207,3.85762454 C48.3895958,4.52703147 46.4711056,7.52967514 47.1406336,10.569979 C47.7192201,13.1967473 50.0549998,14.9917218 52.6407173,14.9917218 C56.2359944,14.9918429 58.9151963,11.6558278 58.1423752,8.14689061 Z M53.4505931,13.0318174 C51.425177,13.4778062 49.4144132,12.1930002 48.9683034,10.167463 C48.451717,7.821027 50.239668,5.59677474 52.6422915,5.59677474 C54.3687268,5.59677474 55.928537,6.79560408 56.3149476,8.54940665 C56.7608152,10.5748228 55.4758881,12.5855865 53.4505931,13.0318174 L53.4505931,13.0318174 Z" id="Shape" fill="#7888AF"></path>
                    <g transform="translate(16.751, 6.0581)" id="Path">
                        <path d="M22.9384678,10.0044992 L20.1826135,10.6115427 L18.3632991,2.35124529 C18.2520139,1.84652603 17.7526227,1.52671711 17.2482667,1.63872894 C16.7435475,1.74989312 16.4244651,2.24916316 16.5357504,2.75376133 L18.5563228,11.9279542 C18.6673658,12.4323102 19.1671203,12.751998 19.6713551,12.6404706 L23.3409838,11.832169 C23.8457031,11.7210048 24.1647855,11.2217348 24.0535002,10.7171366 C23.942336,10.2121752 23.4427027,9.89236623 22.9384678,10.0044992 L22.9384678,10.0044992 Z" fill="#7888AF"></path>
                        <path d="M30.2777252,8.38801705 L27.5218709,8.99506064 L25.7026776,0.734763183 C25.5913924,0.230165014 25.0921223,-0.0894017171 24.5876453,0.0222468338 C24.0830471,0.133411009 23.7638436,0.632681048 23.8751289,1.13727922 L25.8955802,10.3114721 C26.0066233,10.8158281 26.5063777,11.1355159 27.0106126,11.0239885 L30.6802413,10.2156869 C31.1848394,10.1045227 31.5040429,9.60525266 31.3927576,9.10065449 C31.2814723,8.59581414 30.7822023,8.27624741 30.2777252,8.38801705 L30.2777252,8.38801705 Z" fill="#7888AF"></path>
                        <g transform="translate(0, 2.4248)" fill="#5972A5">
                            <path d="M7.354413,2.35082583 C7.24324882,1.84622766 6.74458425,1.52678202 6.23925953,1.63830948 C5.73466136,1.74947365 5.415579,2.24874369 5.52662209,2.75334186 L6.3010174,6.26930246 L2.62412306,7.07917829 L1.84972774,3.56321768 C1.73856357,3.05874061 1.23965681,2.73893169 0.734695366,2.85070133 C0.2300972,2.96186551 -0.0889851538,3.46113555 0.0220579272,3.96573372 L2.04263028,13.1398055 C2.15415774,13.646099 2.6548809,13.9634861 3.15766266,13.8523219 C3.66238192,13.7411577 3.98134318,13.2418877 3.87017901,12.7372895 L3.026518,8.90672702 L6.70341234,8.09685119 L7.54707335,11.9275348 C7.6586008,12.4338283 8.15932397,12.7512153 8.66210572,12.6400511 C9.16682498,12.5288869 9.48578624,12.0296169 9.37462207,11.5250187 L7.354413,2.35082583 Z"></path>
                            <path d="M15.5990893,9.19602028 L12.843356,9.80306387 L12.2355859,7.04357669 L14.7209165,6.49623238 C15.2255147,6.38506821 15.5447182,5.88591926 15.4334329,5.3812 C15.3223898,4.87660183 14.8229987,4.55739838 14.3184005,4.66868365 L11.833191,5.21602796 L11.2254208,2.45666187 L13.9812752,1.84961829 C14.4859944,1.73845411 14.8049557,1.23918407 14.6937915,0.734585904 C14.5826273,0.229866641 14.0832362,-0.0889735264 13.578638,0.0220695552 L9.90900933,0.830371157 C9.40441116,0.941535333 9.08532881,1.44080537 9.19649298,1.94540354 L11.2170653,11.1195965 C11.3832061,11.8741324 12.0119255,11.9024683 12.6569926,11.7623627 L16.0017264,11.0238112 C16.5064457,10.912647 16.825528,10.413377 16.7142428,9.90877882 C16.6030786,9.40393846 16.1036875,9.08473501 15.5990893,9.19602028 Z"></path>
                        </g>
                    </g>
                    <g transform="translate(9.7204, 47.1349)" fill="#495560" id="Path">
                        <g>
                            <path d="M4.37039895,3.58873802 C3.8535703,3.58873802 3.4347066,3.16987431 3.4347066,2.65304566 C3.4347066,2.22207257 3.08401874,1.87150581 2.65304565,1.87150581 C2.22207256,1.87150581 1.8713847,2.22219366 1.8713847,2.65304566 C1.8713847,3.16987431 1.45239991,3.58873802 0.935692352,3.58873802 C0.418863705,3.58873802 0,3.16987431 0,2.65304566 C0,1.19011058 1.19023167,0 2.65316674,0 C4.11610182,0 5.30633349,1.19011058 5.30633349,2.65304566 C5.3062124,3.16987431 4.8872276,3.58873802 4.37039895,3.58873802 L4.37039895,3.58873802 Z"></path>
                            <path d="M19.0778552,3.58873802 C18.5610266,3.58873802 18.1421629,3.16987431 18.1421629,2.65304566 C18.1421629,2.22207257 17.791475,1.87150581 17.3605019,1.87150581 C16.9295288,1.87150581 16.5789621,2.22219366 16.5789621,2.65304566 C16.5789621,3.16987431 16.1599773,3.58873802 15.6432697,3.58873802 C15.1265622,3.58873802 14.7075774,3.16987431 14.7075774,2.65304566 C14.7075774,1.19011058 15.8976879,0 17.360623,0 C18.8235581,0 20.0137898,1.19011058 20.0137898,2.65304566 C20.0136687,3.16987431 19.5946839,3.58873802 19.0778552,3.58873802 L19.0778552,3.58873802 Z"></path>
                        </g>
                        <path d="M12.9628569,5.59102521 C12.9628569,3.76408195 11.6394219,3.59249193 10.0068343,3.59249193 C8.37424675,3.59249193 7.05069072,3.76408195 7.05069072,5.59102521 C7.05069072,7.41784738 8.37412565,8.89882545 10.0068343,8.89882545 C11.6394219,8.89882545 12.9628569,7.41784738 12.9628569,5.59102521 Z"></path>
                    </g>
                </g>
            </g>
        </g>
    </g>
</svg>