<svg width="28" height="28" viewBox="0 0 28 28" xmlns="http://www.w3.org/2000/svg">
    <g fill-rule="nonzero" fill="none">
        <path d="M21.027 1.887C18.877.629 16.534 0 14 0S9.124.624 6.973 1.873a13.825 13.825 0 0 0-5.1 5.1C.624 9.123 0 11.466 0 14s.624 4.876 1.873 7.027a13.825 13.825 0 0 0 5.1 5.1C9.123 27.376 11.466 28 14 28s4.876-.624 7.027-1.873a13.825 13.825 0 0 0 5.1-5.1C27.376 18.877 28 16.534 28 14s-.624-4.876-1.873-7.027a13.722 13.722 0 0 0-5.1-5.086z" fill="#dfe4ea"/>
        <path d="M18.485 8.98c.122 0 .232.03.33.09.099.06.178.14.237.24.06.101.09.215.09.34a.68.68 0 0 1-.203.486l-3.927 3.962 3.927 3.965a.685.685 0 0 1-.124 1.067.624.624 0 0 1-.33.09.611.611 0 0 1-.457-.195l-3.972-4.02-3.973 4.02a.611.611 0 0 1-.457.195.624.624 0 0 1-.33-.09.683.683 0 0 1-.237-.24.685.685 0 0 1 .113-.827l3.927-3.965-3.927-3.962a.68.68 0 0 1-.202-.486c0-.125.03-.239.089-.34.06-.1.138-.18.237-.24a.624.624 0 0 1 .33-.09c.179 0 .33.064.457.19l3.972 4.023 3.973-4.022a.616.616 0 0 1 .353-.183z" fill="#667A87"/>
    </g>
</svg>
