<svg width="28" height="25" viewBox="0 0 28 25" xmlns="http://www.w3.org/2000/svg">
    <g fill="#000" fill-rule="nonzero">
        <path d="M26.445 16.092c.583 0 1.055-.465 1.055-1.039V8.3c0-2.292-1.893-4.156-4.219-4.156h-1.6c-.452 0-.854-.283-1-.704l-.318-.924A3.16 3.16 0 0 0 17.367.404H10.63a3.17 3.17 0 0 0-2.976 2.058l-.365.996c-.15.41-.549.686-.992.686H4.72C2.393 4.144.5 6.008.5 8.3v11.948c0 2.292 1.893 4.156 4.219 4.156H23.28c2.326 0 4.219-1.864 4.219-4.156 0-.574-.472-1.039-1.055-1.039-.582 0-1.054.465-1.054 1.04 0 1.145-.947 2.077-2.11 2.077H4.72c-1.163 0-2.11-.932-2.11-2.078V8.3c0-1.146.947-2.078 2.11-2.078h1.577a3.17 3.17 0 0 0 2.976-2.058l.365-.996c.15-.41.55-.686.992-.686h6.738c.452 0 .853.283.999.704l.319.924a3.16 3.16 0 0 0 2.995 2.112h1.601c1.163 0 2.11.932 2.11 2.078v6.753c0 .574.472 1.04 1.054 1.04z"/>
        <path d="M14.053 7.261c-3.635 0-6.592 2.913-6.592 6.494 0 3.58 2.957 6.493 6.592 6.493 3.634 0 6.592-2.913 6.592-6.493 0-3.581-2.958-6.494-6.592-6.494zm0 10.91c-2.472 0-4.483-1.982-4.483-4.416 0-2.435 2.011-4.416 4.483-4.416 2.471 0 4.482 1.98 4.482 4.416 0 2.434-2.01 4.415-4.482 4.415z"/>
    </g>
</svg>
