<svg width="18" height="18" viewBox="0 0 18 18" xmlns="http://www.w3.org/2000/svg">
    <g fill-rule="nonzero" fill="none">
        <path d="M16.007 6.55a.964.964 0 0 1-.379-.911c.325-2.038-.046-2.663-.324-2.941s-.896-.64-2.936-.317a.982.982 0 0 1-.911-.378c-1.345-1.79-2.048-2-2.457-2-.41 0-1.112.21-2.457 2a.982.982 0 0 1-.911.378c-2.04-.324-2.658.047-2.936.317s-.649.903-.324 2.94c.05.35-.095.7-.379.911C.201 7.892 0 8.595 0 9.004c0 .409.2 1.111 1.993 2.454.284.212.43.561.379.911-.294 2.053.046 2.663.324 2.941s.88.61 2.936.317c.35-.05.7.094.911.378 1.345 1.79 2.048 1.999 2.457 1.999.41 0 1.112-.209 2.457-2a.966.966 0 0 1 .911-.377c2.063.293 2.658-.047 2.936-.317s.618-.888.324-2.94c-.05-.35.095-.7.379-.912C17.799 10.115 18 9.413 18 9.004c0-.41-.2-1.112-1.993-2.455z" fill="#FFF"/>
        <path d="M8 13.004a.93.93 0 0 1-.709-.338l-1.997-2.331a1.313 1.313 0 0 1 0-1.655c.391-.457 1.026-.457 1.418 0L8 10.195l3.286-3.846a.933.933 0 0 1 .71-.345c.266 0 .521.124.709.345.189.219.295.516.295.827 0 .311-.106.609-.295.828L8.71 12.666a.93.93 0 0 1-.71.338z" fill="#25B680"/>
    </g>
</svg>
